<svg xmlns="http://www.w3.org/2000/svg" viewBox="0 0 500 500"><g id="freepik--Floor--inject-17"><ellipse cx="250" cy="341.46" rx="225.34" ry="132.76" style="fill:#84C49A"></ellipse><ellipse cx="250" cy="341.46" rx="225.34" ry="132.76" style="fill:#fff;opacity:0.4"></ellipse></g><g id="freepik--Shadows--inject-17"><path d="M383.91,364.45,314.2,324.2a3.11,3.11,0,0,1,0-5.38l53.54-30.77a11.2,11.2,0,0,1,11.2,0l69.71,40.25a3.11,3.11,0,0,1,0,5.38l-53.54,30.77A11.2,11.2,0,0,1,383.91,364.45Z" style="opacity:0.1"></path><path d="M316,294.05c0-16.43-22.6-29.75-50.49-29.75-13.83,0-26.36,3.28-35.48,8.59h0c-6.51,3.79-11.27,8.6-13.53,14h0S209.1,299.39,196,306.53c-10.17,5.55-42.3,19.12-56.15,24.9a59.31,59.31,0,0,0-6.46,2.69h0c-11.13,5.46-18.23,13.68-18.23,22.89,0,16.42,22.61,29.74,50.49,29.74,21.15,0,39.25-7.66,46.77-18.53,9.69-10.11,33.21-32,66.51-45.49a65.94,65.94,0,0,0,20.91-6.87l2.39-.59-.68-.39C310.48,309.51,316,302.16,316,294.05Z" style="opacity:0.1"></path><ellipse cx="271.54" cy="398.76" rx="50.49" ry="29.75" style="opacity:0.1"></ellipse></g><g id="freepik--Fence--inject-17"><polygon points="459.95 268.29 456.46 270.15 456.46 253.66 459.95 251.79 459.95 268.29" style="fill:#263238"></polygon><polygon points="449.83 316.46 430.73 305.43 430.73 215.64 439.99 207.23 449.83 226.67 449.83 316.46" style="fill:#455a64"></polygon><polygon points="449.83 316.46 454.71 313.63 454.71 223.84 449.83 226.67 449.83 316.46" style="fill:#263238"></polygon><polygon points="439.99 207.23 444.87 204.41 454.71 223.84 449.83 226.67 439.99 207.23" style="fill:#37474f"></polygon><polygon points="417.27 297.64 398.18 286.61 398.18 196.82 407.43 188.41 417.27 207.85 417.27 297.64" style="fill:#455a64"></polygon><polygon points="417.27 297.64 422.16 294.81 422.16 205.02 417.27 207.85 417.27 297.64" style="fill:#263238"></polygon><polygon points="407.43 188.41 412.32 185.59 422.16 205.02 417.27 207.85 407.43 188.41" style="fill:#37474f"></polygon><polygon points="384.72 278.82 365.63 267.79 365.63 178 374.88 169.59 384.72 189.03 384.72 278.82" style="fill:#455a64"></polygon><polygon points="384.72 278.82 389.61 275.99 389.61 186.2 384.72 189.03 384.72 278.82" style="fill:#263238"></polygon><polygon points="374.88 169.59 379.76 166.77 389.61 186.2 384.72 189.03 374.88 169.59" style="fill:#37474f"></polygon><polygon points="352.17 260 333.08 248.97 333.08 159.18 342.33 150.77 352.17 170.2 352.17 260" style="fill:#455a64"></polygon><polygon points="352.17 260 357.06 257.17 357.06 167.38 352.17 170.2 352.17 260" style="fill:#263238"></polygon><polygon points="342.33 150.77 347.21 147.94 357.06 167.38 352.17 170.2 342.33 150.77" style="fill:#37474f"></polygon><polygon points="319.62 241.17 300.52 230.15 300.52 140.36 309.78 131.95 319.62 151.38 319.62 241.17" style="fill:#455a64"></polygon><polygon points="319.62 241.17 324.5 238.35 324.5 148.56 319.62 151.38 319.62 241.17" style="fill:#263238"></polygon><polygon points="309.78 131.95 314.66 129.12 324.5 148.56 319.62 151.38 309.78 131.95" style="fill:#37474f"></polygon><polygon points="456.46 253.66 291.2 158.12 294.69 156.26 459.95 251.79 456.46 253.66" style="fill:#37474f"></polygon><polygon points="456.46 270.15 291.2 174.61 291.2 158.12 456.46 253.66 456.46 270.15" style="fill:#455a64"></polygon><path d="M441.51,253.48c0,1.38-1,1.93-2.15,1.25A4.78,4.78,0,0,1,437.2,251c0-1.38,1-1.94,2.16-1.25A4.76,4.76,0,0,1,441.51,253.48Z" style="fill:#263238"></path><path d="M409.88,234.9c0,1.38-1,1.94-2.15,1.25a4.78,4.78,0,0,1-2.16-3.73c0-1.38,1-1.93,2.16-1.25A4.76,4.76,0,0,1,409.88,234.9Z" style="fill:#263238"></path><path d="M377.33,216.33c0,1.37-1,1.93-2.15,1.24a4.78,4.78,0,0,1-2.16-3.73c0-1.38,1-1.93,2.16-1.25A4.77,4.77,0,0,1,377.33,216.33Z" style="fill:#263238"></path><path d="M344.78,197.75c0,1.37-1,1.93-2.16,1.24a4.76,4.76,0,0,1-2.15-3.73c0-1.37,1-1.93,2.15-1.24A4.74,4.74,0,0,1,344.78,197.75Z" style="fill:#263238"></path><path d="M312.23,178.18c0,1.38-1,1.94-2.16,1.25a4.76,4.76,0,0,1-2.15-3.73c0-1.38,1-1.93,2.15-1.25A4.78,4.78,0,0,1,312.23,178.18Z" style="fill:#263238"></path><polygon points="47.04 268.29 50.54 270.15 50.54 253.66 47.04 251.79 47.04 268.29" style="fill:#263238"></polygon><polygon points="57.17 316.46 76.26 305.43 76.26 215.64 67.01 207.23 57.17 226.67 57.17 316.46" style="fill:#455a64"></polygon><polygon points="57.17 316.46 52.28 313.63 52.28 223.84 57.17 226.67 57.17 316.46" style="fill:#263238"></polygon><polygon points="67.01 207.23 62.13 204.41 52.28 223.84 57.17 226.67 67.01 207.23" style="fill:#37474f"></polygon><polygon points="89.72 297.64 108.81 286.61 108.81 196.82 99.56 188.41 89.72 207.85 89.72 297.64" style="fill:#455a64"></polygon><polygon points="89.72 297.64 84.84 294.81 84.84 205.02 89.72 207.85 89.72 297.64" style="fill:#263238"></polygon><polygon points="99.56 188.41 94.68 185.59 84.84 205.02 89.72 207.85 99.56 188.41" style="fill:#37474f"></polygon><polygon points="122.27 278.82 141.37 267.79 141.37 178 132.12 169.59 122.27 189.03 122.27 278.82" style="fill:#455a64"></polygon><polygon points="122.27 278.82 117.39 275.99 117.39 186.2 122.27 189.03 122.27 278.82" style="fill:#263238"></polygon><polygon points="132.12 169.59 127.23 166.77 117.39 186.2 122.27 189.03 132.12 169.59" style="fill:#37474f"></polygon><polygon points="154.82 260 173.92 248.97 173.92 159.18 164.67 150.77 154.82 170.2 154.82 260" style="fill:#455a64"></polygon><polygon points="154.82 260 149.94 257.17 149.94 167.38 154.82 170.2 154.82 260" style="fill:#263238"></polygon><polygon points="164.67 150.77 159.78 147.94 149.94 167.38 154.82 170.2 164.67 150.77" style="fill:#37474f"></polygon><polygon points="187.38 241.17 206.47 230.15 206.47 140.36 197.22 131.95 187.38 151.38 187.38 241.17" style="fill:#455a64"></polygon><polygon points="187.38 241.17 182.49 238.35 182.49 148.56 187.38 151.38 187.38 241.17" style="fill:#263238"></polygon><polygon points="197.22 131.95 192.33 129.12 182.49 148.56 187.38 151.38 197.22 131.95" style="fill:#37474f"></polygon><polygon points="50.54 253.66 215.8 158.12 212.31 156.26 47.04 251.79 50.54 253.66" style="fill:#37474f"></polygon><polygon points="50.54 270.15 215.8 174.61 215.8 158.12 50.54 253.66 50.54 270.15" style="fill:#455a64"></polygon><path d="M65.49,253.48c0,1.38,1,1.93,2.15,1.25A4.76,4.76,0,0,0,69.79,251c0-1.38-1-1.94-2.15-1.25A4.76,4.76,0,0,0,65.49,253.48Z" style="fill:#263238"></path><path d="M97.11,234.9c0,1.38,1,1.94,2.16,1.25a4.76,4.76,0,0,0,2.15-3.73c0-1.38-1-1.93-2.15-1.25A4.78,4.78,0,0,0,97.11,234.9Z" style="fill:#263238"></path><path d="M129.67,216.33c0,1.37,1,1.93,2.15,1.24a4.76,4.76,0,0,0,2.15-3.73c0-1.38-1-1.93-2.15-1.25A4.77,4.77,0,0,0,129.67,216.33Z" style="fill:#263238"></path><path d="M162.22,197.75c0,1.37,1,1.93,2.15,1.24a4.78,4.78,0,0,0,2.16-3.73c0-1.37-1-1.93-2.16-1.24A4.73,4.73,0,0,0,162.22,197.75Z" style="fill:#263238"></path><path d="M194.77,178.18c0,1.38,1,1.94,2.15,1.25a4.78,4.78,0,0,0,2.16-3.73c0-1.38-1-1.93-2.16-1.25A4.76,4.76,0,0,0,194.77,178.18Z" style="fill:#263238"></path></g><g id="freepik--Straw--inject-17"><path d="M432,336.33c-1.3,2.33-2.82,1.31-5.13,2.65s-2.53,1-4.85,2.29-2,1.85-4.33,3.19-2.78.52-5.09,1.86-2.68.72-5,2.06-2.2,1.53-4.51,2.86-1.27,3.16-3.59,4.5-2.57.89-4.88,2.23-3.37,4.39-5.63,3-.5-3.76-.5-6.56.77-2.8.77-5.6-1-2.8-1-5.6,2-2.8,2-5.61-.76-2.8-.76-5.6.91-2.8.91-5.61.17-2.8.17-5.6-1.27-2.56.1-5,1.63-1.26,3.94-2.59,2.34-1.3,4.66-2.63,1.52-2.71,3.83-4,2.94-.25,5.25-1.59,2.7-.67,5-2,1.42-2.88,3.73-4.21,2.83-.45,5.15-1.79,1.45-2.83,3.77-4.17,2.46-2.22,4.72-.79.55,2,.55,4.77.58,2.81.58,5.61-.15,2.8-.15,5.6.25,2.8.25,5.6-1.59,2.81-1.59,5.61.36,2.8.36,5.6-1.28,3.15-.65,5.88C430.75,333.66,433.32,333.88,432,336.33Z" style="fill:#84C49A"></path><path d="M427.94,291.46l.14-.08Z" style="fill:#84C49A"></path><path d="M428.18,291.34l.12,0Z" style="fill:#84C49A"></path><path d="M428.4,291.25l.13,0Z" style="fill:#84C49A"></path><path d="M427.68,291.61l.17-.1Z" style="fill:#84C49A"></path><path d="M428.86,291.18h0Z" style="fill:#84C49A"></path><path d="M429.11,291.2l.13,0Z" style="fill:#84C49A"></path><path d="M426.35,292.47c.52-.31.92-.6,1.26-.82C427.27,291.87,426.87,292.15,426.35,292.47Z" style="fill:#84C49A"></path><path d="M428.63,291.2h0Z" style="fill:#84C49A"></path><path d="M430,291.49a2.53,2.53,0,0,1,.23.12A2.53,2.53,0,0,0,430,291.49Z" style="fill:#84C49A"></path><path d="M394.57,313.15c2.32-1.34,2.34-1.3,4.66-2.63s1.52-2.71,3.83-4,2.94-.25,5.25-1.59,2.7-.67,5-2,1.42-2.88,3.73-4.21,2.83-.45,5.15-1.79,1.45-2.83,3.77-4.17l.37-.23,1.73-1.09a13.4,13.4,0,0,1-3.59-.86c-2.45-1.4-2.16-.27-4.6-1.67s-1.56-2.93-4-4.33-3.52.48-6-.91-2.37-1.53-4.81-2.92-2.34-1.57-4.78-3-2.6-1.12-5-2.51-.82-4.24-3.26-5.63-2.77-.82-5.21-2.22-2.32-1.6-4.76-3-3.43.33-5.87-1.06-1.7-2.7-4.14-4.09-2.21-1.8-4.65-3.19a9.26,9.26,0,0,0-2.08-.91h0a6.85,6.85,0,0,0-.58-.42c-1.14-.71-1.74-.84-2.35-.63A22.32,22.32,0,0,0,360,255.5c-2.31,1.34-1.44,2.83-3.76,4.17a7.08,7.08,0,0,1-1.3.6c-1.33.46-2,.14-3.85,1.19-2.31,1.33-1.42,2.87-3.73,4.21s-2.7.67-5,2-2.93.26-5.25,1.59-1.52,2.71-3.83,4.05-2.34,1.29-4.65,2.63c-2,1.14-2.51.52-3.44,1.78a6.25,6.25,0,0,0,1.64,1.48c2.44,1.4,2.84.7,5.28,2.1s2.22,1.79,4.66,3.19,1.69,2.69,4.13,4.09,3.43-.34,5.87,1.06,2.33,1.6,4.76,3,2.77.82,5.22,2.21.81,4.24,3.25,5.64,2.6,1.12,5,2.51,2.34,1.57,4.79,3,2.36,1.52,4.81,2.92,3.51-.49,5.95.91,1.56,2.94,4,4.33,2.26,1.72,4.7,3.12a4.43,4.43,0,0,0,.72.32,3.79,3.79,0,0,1,.63-1.83C391.93,313.41,392.26,314.48,394.57,313.15Z" style="fill:#84C49A"></path><path d="M394.57,313.15c2.32-1.34,2.34-1.3,4.66-2.63s1.52-2.71,3.83-4,2.94-.25,5.25-1.59,2.7-.67,5-2,1.42-2.88,3.73-4.21,2.83-.45,5.15-1.79,1.45-2.83,3.77-4.17l.37-.23,1.73-1.09a13.4,13.4,0,0,1-3.59-.86c-2.45-1.4-2.16-.27-4.6-1.67s-1.56-2.93-4-4.33-3.52.48-6-.91-2.37-1.53-4.81-2.92-2.34-1.57-4.78-3-2.6-1.12-5-2.51-.82-4.24-3.26-5.63-2.77-.82-5.21-2.22-2.32-1.6-4.76-3-3.43.33-5.87-1.06-1.7-2.7-4.14-4.09-2.21-1.8-4.65-3.19a9.26,9.26,0,0,0-2.08-.91h0a6.85,6.85,0,0,0-.58-.42c-1.14-.71-1.74-.84-2.35-.63A22.32,22.32,0,0,0,360,255.5c-2.31,1.34-1.44,2.83-3.76,4.17a7.08,7.08,0,0,1-1.3.6c-1.33.46-2,.14-3.85,1.19-2.31,1.33-1.42,2.87-3.73,4.21s-2.7.67-5,2-2.93.26-5.25,1.59-1.52,2.71-3.83,4.05-2.34,1.29-4.65,2.63c-2,1.14-2.51.52-3.44,1.78a6.25,6.25,0,0,0,1.64,1.48c2.44,1.4,2.84.7,5.28,2.1s2.22,1.79,4.66,3.19,1.69,2.69,4.13,4.09,3.43-.34,5.87,1.06,2.33,1.6,4.76,3,2.77.82,5.22,2.21.81,4.24,3.25,5.64,2.6,1.12,5,2.51,2.34,1.57,4.79,3,2.36,1.52,4.81,2.92,3.51-.49,5.95.91,1.56,2.94,4,4.33,2.26,1.72,4.7,3.12a4.43,4.43,0,0,0,.72.32,3.79,3.79,0,0,1,.63-1.83C391.93,313.41,392.26,314.48,394.57,313.15Z" style="fill:#fff;opacity:0.6000000000000001"></path><path d="M429.65,291.35l.18.08Z" style="fill:#84C49A"></path><path d="M430.31,291.67l.39.24Z" style="fill:#84C49A"></path><path d="M429.37,291.25l.15.05Z" style="fill:#84C49A"></path><polygon points="426.35 292.47 426.35 292.47 426.35 292.47 426.35 292.47" style="fill:#84C49A"></polygon><path d="M427.61,291.65l.07,0Z" style="fill:#84C49A"></path><path d="M429.24,291.22l.13,0Z" style="fill:#84C49A"></path><path d="M428.75,291.19h0Z" style="fill:#84C49A"></path><path d="M428.53,291.22l.1,0Z" style="fill:#84C49A"></path><path d="M429.83,291.43l.13.06Z" style="fill:#84C49A"></path><path d="M429.52,291.3l.13.05Z" style="fill:#84C49A"></path><path d="M428.3,291.29l.1,0Z" style="fill:#84C49A"></path><path d="M429,291.19h0Z" style="fill:#84C49A"></path><path d="M430.19,291.61l.12.06Z" style="fill:#84C49A"></path><path d="M427.85,291.51l.09-.05Z" style="fill:#84C49A"></path><path d="M428.08,291.38l.1,0Z" style="fill:#84C49A"></path><path d="M430.05,330.58c-.63-2.73.65-3.07.65-5.88s-.36-2.8-.36-5.6,1.59-2.8,1.59-5.61-.25-2.8-.25-5.6.15-2.8.15-5.6-.58-2.8-.58-5.61,1.82-3.28-.55-4.77l-.39-.24-.12-.06a2.53,2.53,0,0,0-.23-.12l-.13-.06-.18-.08-.13-.05-.15-.05-.13,0-.13,0h-.48l-.1,0-.13,0-.1,0-.12,0-.1,0-.14.08-.09.05-.17.1-.07,0c-.34.22-.74.51-1.26.82h0l-.37.23c-2.32,1.34-1.46,2.83-3.77,4.17s-2.83.45-5.15,1.79-1.42,2.87-3.73,4.21-2.7.68-5,2-2.93.26-5.25,1.59-1.52,2.71-3.83,4-2.34,1.29-4.66,2.63-2.64.26-3.94,2.59a3.79,3.79,0,0,0-.63,1.83c0,.82.53,1.35.53,3.18,0,2.8-.17,2.8-.17,5.6s-.91,2.81-.91,5.61.76,2.8.76,5.6-2,2.81-2,5.61,1,2.8,1,5.6-.77,2.8-.77,5.6-1.87,5.07.5,6.56a2.17,2.17,0,0,0,1,.35h0c1.28.13,2.2-1.23,3.46-2.39l.05-.05.28-.24.1-.09.27-.2.11-.08c.13-.09.26-.18.4-.26,2.31-1.34,2.57-.9,4.88-2.23s1.27-3.16,3.59-4.5,2.2-1.53,4.51-2.86,2.67-.72,5-2.06,2.78-.53,5.09-1.86,2-1.85,4.33-3.19,2.53-1,4.85-2.29,3.83-.32,5.13-2.65S430.75,333.66,430.05,330.58Z" style="fill:#84C49A"></path><path d="M430.05,330.58c-.63-2.73.65-3.07.65-5.88s-.36-2.8-.36-5.6,1.59-2.8,1.59-5.61-.25-2.8-.25-5.6.15-2.8.15-5.6-.58-2.8-.58-5.61,1.82-3.28-.55-4.77l-.39-.24-.12-.06a2.53,2.53,0,0,0-.23-.12l-.13-.06-.18-.08-.13-.05-.15-.05-.13,0-.13,0h-.48l-.1,0-.13,0-.1,0-.12,0-.1,0-.14.08-.09.05-.17.1-.07,0c-.34.22-.74.51-1.26.82h0l-.37.23c-2.32,1.34-1.46,2.83-3.77,4.17s-2.83.45-5.15,1.79-1.42,2.87-3.73,4.21-2.7.68-5,2-2.93.26-5.25,1.59-1.52,2.71-3.83,4-2.34,1.29-4.66,2.63-2.64.26-3.94,2.59a3.79,3.79,0,0,0-.63,1.83c0,.82.53,1.35.53,3.18,0,2.8-.17,2.8-.17,5.6s-.91,2.81-.91,5.61.76,2.8.76,5.6-2,2.81-2,5.61,1,2.8,1,5.6-.77,2.8-.77,5.6-1.87,5.07.5,6.56a2.17,2.17,0,0,0,1,.35h0c1.28.13,2.2-1.23,3.46-2.39l.05-.05.28-.24.1-.09.27-.2.11-.08c.13-.09.26-.18.4-.26,2.31-1.34,2.57-.9,4.88-2.23s1.27-3.16,3.59-4.5,2.2-1.53,4.51-2.86,2.67-.72,5-2.06,2.78-.53,5.09-1.86,2-1.85,4.33-3.19,2.53-1,4.85-2.29,3.83-.32,5.13-2.65S430.75,333.66,430.05,330.58Z" style="fill:#fff;opacity:0.30000000000000004"></path><path d="M390.36,326.36c0,2.79-.92,2.79-.92,5.6s.77,2.8.77,5.6-2,2.81-2,5.61,1,2.8,1,5.6-.77,2.8-.77,5.61c0,1.7-.68,3.2-.69,4.45a3.61,3.61,0,0,0-1.14-.94c-2.48-1.33-2.43-1.43-4.91-2.75s-2.87-.6-5.36-1.93-2.12-2-4.61-3.32-3-.31-5.51-1.63-1.8-2.61-4.27-3.94-3.58.73-6.06-.59-2.5-1.31-5-2.64-1.85-2.53-4.33-3.86-2.69-.93-5.18-2.25-3.31.24-5.8-1.09-1.55-3.07-4-4.39-2.09-2.07-4.57-3.4a6.9,6.9,0,0,0-3.48-.75,5.14,5.14,0,0,1-1.14-.25h0c-2.37-1.5.13-5.11.13-7.92s.77-2.8.77-5.6-1-2.8-1-5.61,2-2.79,2-5.6-.76-2.8-.76-5.6.91-2.81.91-5.61.17-2.8.17-5.6-1.27-2.56.1-5a8.54,8.54,0,0,1,.51-.81,6.14,6.14,0,0,0,1.65,1.48c2.44,1.4,2.83.7,5.27,2.1s2.21,1.8,4.66,3.19,1.69,2.7,4.13,4.09,3.43-.33,5.88,1.06,2.31,1.6,4.75,3,2.78.82,5.22,2.21.81,4.24,3.25,5.63c.73.42,1.26.69,1.7.9A27.65,27.65,0,0,1,365,303c2.45,1.39,2.35,1.57,4.79,3s2.37,1.53,4.81,2.92,3.51-.48,5.95.92,1.56,2.93,4,4.33,2.27,1.72,4.71,3.12a4.43,4.43,0,0,0,.72.32c0,.82.53,1.35.53,3.18C390.53,323.55,390.36,323.55,390.36,326.36Z" style="fill:#84C49A"></path><path d="M390.36,326.36c0,2.79-.92,2.79-.92,5.6s.77,2.8.77,5.6-2,2.81-2,5.61,1,2.8,1,5.6-.77,2.8-.77,5.61c0,1.7-.68,3.2-.69,4.45a3.61,3.61,0,0,0-1.14-.94c-2.48-1.33-2.43-1.43-4.91-2.75s-2.87-.6-5.36-1.93-2.12-2-4.61-3.32-3-.31-5.51-1.63-1.8-2.61-4.27-3.94-3.58.73-6.06-.59-2.5-1.31-5-2.64-1.85-2.53-4.33-3.86-2.69-.93-5.18-2.25-3.31.24-5.8-1.09-1.55-3.07-4-4.39-2.09-2.07-4.57-3.4a6.9,6.9,0,0,0-3.48-.75,5.14,5.14,0,0,1-1.14-.25h0c-2.37-1.5.13-5.11.13-7.92s.77-2.8.77-5.6-1-2.8-1-5.61,2-2.79,2-5.6-.76-2.8-.76-5.6.91-2.81.91-5.61.17-2.8.17-5.6-1.27-2.56.1-5a8.54,8.54,0,0,1,.51-.81,6.14,6.14,0,0,0,1.65,1.48c2.44,1.4,2.83.7,5.27,2.1s2.21,1.8,4.66,3.19,1.69,2.7,4.13,4.09,3.43-.33,5.88,1.06,2.31,1.6,4.75,3,2.78.82,5.22,2.21.81,4.24,3.25,5.63c.73.42,1.26.69,1.7.9A27.65,27.65,0,0,1,365,303c2.45,1.39,2.35,1.57,4.79,3s2.37,1.53,4.81,2.92,3.51-.48,5.95.92,1.56,2.93,4,4.33,2.27,1.72,4.71,3.12a4.43,4.43,0,0,0,.72.32c0,.82.53,1.35.53,3.18C390.53,323.55,390.36,323.55,390.36,326.36Z" style="fill:#fff;opacity:0.4"></path><path d="M389.07,361a.88.88,0,0,0,.84.28A2,2,0,0,1,389.07,361Z" style="fill:#84C49A"></path><path d="M330.12,293.22l-3.31,1.89c-.55.31-.05,1.16.5.85l3.31-1.89a.49.49,0,0,0-.5-.85Z" style="fill:#84C49A"></path><path d="M332.47,296.63c.08.78.14,1.57.24,2.34a1.48,1.48,0,0,0,.71,1.24.91.91,0,0,0,1.12-.44c.44-.64.81-1.34,1.21-2a.49.49,0,0,0-.85-.5l-.65,1.07-.29.48-.18.3c-.06.11-.07.13,0,0-.14-.07-.13-1-.15-1.12l-.15-1.41c-.06-.62-1.05-.63-1,0Z" style="fill:#84C49A"></path><path d="M345.49,293.78a5.2,5.2,0,0,1-1.64,2.07c-.51.38,0,1.23.49.86a6.13,6.13,0,0,0,2-2.43c.26-.57-.59-1.08-.85-.5Z" style="fill:#84C49A"></path><path d="M347.1,296.63v3a.5.5,0,0,0,1,0v-3a.5.5,0,0,0-1,0Z" style="fill:#84C49A"></path><path d="M350.3,297.44a8.78,8.78,0,0,1,.92,2.65c.11.62,1.06.36.95-.27a9.88,9.88,0,0,0-1-2.88c-.3-.56-1.16-.06-.86.5Z" style="fill:#84C49A"></path><path d="M363.51,311.46c-.35,1-.84,3.18.47,3.7a1.27,1.27,0,0,0,1.44-.47c.49-.57.38-1.42.87-2s-.26-1.16-.7-.69a2.43,2.43,0,0,0-.52.91c-.1.32-.14,1-.46,1.17-.49.32-.47-.46-.47-.8a4.9,4.9,0,0,1,.32-1.6c.21-.59-.74-.85-.95-.26Z" style="fill:#84C49A"></path><path d="M367.69,314.94a6,6,0,0,0,.57,2.13,3.24,3.24,0,0,0,1.33,1.58c1.56.61,1.53-2.28,1.4-3.09-.1-.62-1.05-.36-.95.26a3.71,3.71,0,0,1,0,1.37,4,4,0,0,1-.16.55s-.39-.57-.37-.54a4.6,4.6,0,0,1-.8-2.26c-.06-.62-1-.63-1,0Z" style="fill:#84C49A"></path><path d="M380.86,319a14.51,14.51,0,0,0-2.42,2.21c-.41.48.28,1.18.7.7a13.08,13.08,0,0,1,2.21-2.06c.51-.37,0-1.22-.49-.85Z" style="fill:#84C49A"></path><path d="M381.74,320.08a10.14,10.14,0,0,1,.15,2.64c-.05.64.94.63,1,0a10.54,10.54,0,0,0-.18-2.91c-.12-.62-1.07-.36-.95.27Z" style="fill:#84C49A"></path><path d="M353.36,316.28a8,8,0,0,1-2,2.82c-.47.44.23,1.13.7.7a9,9,0,0,0,2.24-3.26c.24-.59-.71-.84-.95-.26Z" style="fill:#84C49A"></path><path d="M355.14,319a9.91,9.91,0,0,0-.73,2.51c-.1.62.85.88.95.26a9.45,9.45,0,0,1,.63-2.27c.25-.58-.6-1.08-.85-.5Z" style="fill:#84C49A"></path><path d="M356.71,319.72a25.77,25.77,0,0,1,.4,4.11.5.5,0,0,0,1,0,28,28,0,0,0-.44-4.38c-.12-.62-1.07-.36-1,.27Z" style="fill:#84C49A"></path><path d="M333,310.33c-.67.8-2.32,3.2-1.32,4.25a1,1,0,0,0,1.42,0,19,19,0,0,0,2.4-2.65l-.84-.34a40.71,40.71,0,0,0,.23,4.41c0,.33.41.68.74.43a4.22,4.22,0,0,0,1.78-3.65c0-.63-1-.63-1,0a3.23,3.23,0,0,1-1.3,2.8l.75.42a40.73,40.73,0,0,1-.24-4.41.5.5,0,0,0-.84-.35,18.71,18.71,0,0,1-2.14,2.4c-.66-.23.77-2.25,1-2.57.41-.48-.29-1.18-.7-.7Z" style="fill:#84C49A"></path><path d="M341.45,316.56a6.92,6.92,0,0,0-.84,2.14c-.12.62.83.89,1,.26a5.72,5.72,0,0,1,.73-1.9.49.49,0,0,0-.85-.5Z" style="fill:#84C49A"></path><path d="M371.32,327.9a22,22,0,0,0-.19,2.56c0,.49.23,1.06.79,1.11s1-.53,1.36-.95a4.7,4.7,0,0,0,.86-2c.11-.62-.84-.89-.95-.27a3.9,3.9,0,0,1-.39,1.21,3.3,3.3,0,0,1-.31.51,6.47,6.47,0,0,0-.41.54q.12.12,0-.12c0-.09,0-.18,0-.26l.06-.73.12-1.57c.05-.63-.94-.63-1,0Z" style="fill:#84C49A"></path><path d="M376.19,332.29a5.45,5.45,0,0,0,1.7,3,.49.49,0,0,0,.82-.22,8.6,8.6,0,0,0,.22-3.64c-.08-.62-1-.36-.95.26a7.63,7.63,0,0,1-.22,3.12l.83-.22a4.61,4.61,0,0,1-1.45-2.61c-.11-.62-1.06-.36-.95.26Z" style="fill:#84C49A"></path><path d="M363.08,332.67a9.82,9.82,0,0,0-2.42,2.56c-.35.53.5,1,.85.5a8.7,8.7,0,0,1,2.07-2.21c.5-.37,0-1.23-.5-.85Z" style="fill:#84C49A"></path><path d="M365.17,334.16a8.31,8.31,0,0,0-.79,2.8c-.07.63.92.63,1,0a7.07,7.07,0,0,1,.66-2.3c.28-.57-.57-1.07-.85-.5Z" style="fill:#84C49A"></path><path d="M367.49,335.68a13.64,13.64,0,0,0,.66,3.85c.19.61,1.14.35,1-.26a12.53,12.53,0,0,1-.62-3.59.5.5,0,0,0-1,0Z" style="fill:#84C49A"></path><path d="M379.56,344.86c.32,1,1.12,2.63,2.32,2.71,1.47.09,1.25-2.48,1.17-3.38-.05-.63-1-.63-1,0a7.67,7.67,0,0,1,0,1.27,5.69,5.69,0,0,1-.07.71c0,.22,0,.41-.23.35s-.61-.61-.75-.83a4.4,4.4,0,0,1-.53-1.09c-.19-.6-1.15-.35-.95.26Z" style="fill:#84C49A"></path><path d="M348.05,329.63c-.24.83-1,2.75.17,3.24a1.5,1.5,0,0,0,1.24-.12c.36-.18,1.14-1.19,1.54-1,.57.25,1.08-.6.5-.85-.85-.38-1.48.1-2.09.68a1.45,1.45,0,0,1-.45.33c-.31.12-.35.06-.34-.25a7.19,7.19,0,0,1,.38-1.76.49.49,0,0,0-.95-.26Z" style="fill:#84C49A"></path><path d="M325.39,318.47l-1,1.08c-.43.47.27,1.17.69.69l1-1.07c.42-.47-.27-1.17-.7-.7Z" style="fill:#84C49A"></path><path d="M328.36,320a5.56,5.56,0,0,0-1,1.89c-.19.61.76.87.95.26a4.27,4.27,0,0,1,.79-1.45c.4-.48-.29-1.19-.7-.7Z" style="fill:#84C49A"></path><path d="M332.3,323.28v1.29a.49.49,0,0,0,1,0v-1.29a.49.49,0,0,0-1,0Z" style="fill:#84C49A"></path><path d="M337.37,274.89c-1,0-2.38.28-2.27,1.57a1.15,1.15,0,0,0,.83,1c.45.13,1,0,1.42.18s1.06-.55.5-.85a1.93,1.93,0,0,0-.82-.22,2.88,2.88,0,0,1-.78,0c-.27-.11-.15-.36.05-.5a1.87,1.87,0,0,1,1.07-.14.49.49,0,0,0,0-1Z" style="fill:#84C49A"></path><path d="M338.66,279.64a1.67,1.67,0,0,0-.66,2.67,2,2,0,0,0,3.09-.66c.29-.57-.56-1.07-.85-.5s-1,1-1.49.53c-.29-.28-.25-1,.17-1.09a.49.49,0,0,0-.26-.95Z" style="fill:#84C49A"></path><path d="M346.66,285.33c.51-.61,1-1.22,1.52-1.82s-.3-1.19-.7-.7L346,284.63c-.41.49.29,1.19.69.7Z" style="fill:#84C49A"></path><path d="M349.69,286.15l.37-.56c.36-.53-.5-1-.85-.49-.12.18-.24.37-.37.55-.35.53.5,1,.85.5Z" style="fill:#84C49A"></path><path d="M354,289.23a2.45,2.45,0,0,1,.3-1.24.49.49,0,0,0-.85-.49,3.48,3.48,0,0,0-.44,1.73.5.5,0,0,0,1,0Z" style="fill:#84C49A"></path><path d="M352.94,272a5.81,5.81,0,0,0-1.4-1.16c-.45-.26-1.15-.67-1.64-.29-1,.76.54,2.33,1.05,2.89s1.12-.23.7-.7a8.36,8.36,0,0,1-.75-.92c-.09-.12-.17-.36-.29-.45l0-.11c-.17.13-.15.2.05.22.25.18.55.29.81.47a4.37,4.37,0,0,1,.8.75c.42.48,1.12-.22.7-.7Z" style="fill:#84C49A"></path><path d="M355.06,276.36c-.47.9-1.42,2.77-.11,3.42a1.39,1.39,0,0,0,1.45-.2,2.57,2.57,0,0,0,.8-1.68c.12-.62-.83-.89-.95-.27-.05.28-.35,1.7-.91,1.24-.38-.31.41-1.71.57-2,.29-.56-.56-1.06-.85-.5Z" style="fill:#84C49A"></path><path d="M359.51,280a4.45,4.45,0,0,0,.43,2c.24.52.68,1.28,1.3,1.39,1.44.26,1.35-2.56,1.27-3.39-.06-.62-1.05-.63-1,0a6,6,0,0,1,0,1.27,4.27,4.27,0,0,1-.12.7c0,.1-.05.2-.08.31s0,.13-.06,0a2.41,2.41,0,0,1-.62-1.1,3.87,3.87,0,0,1-.17-1.18.49.49,0,0,0-1,0Z" style="fill:#84C49A"></path><path d="M369,290.64a5.69,5.69,0,0,1-1.65,1.7c-.52.36,0,1.21.5.86a7.3,7.3,0,0,0,2-2.06c.34-.54-.51-1-.86-.5Z" style="fill:#84C49A"></path><path d="M370.92,293.86a5.8,5.8,0,0,0-1.31,2.62c-.13.62.82.88.95.26a4.74,4.74,0,0,1,1.06-2.18c.41-.48-.29-1.18-.7-.7Z" style="fill:#84C49A"></path><path d="M372.69,295.15c-.12,1.11-.25,2.22-.38,3.33-.07.63.92.63,1,0,.13-1.11.25-2.22.38-3.33.07-.63-.92-.62-1,0Z" style="fill:#84C49A"></path><path d="M385.27,304.58a6.33,6.33,0,0,0,1,2.92c.36.52,1.21,0,.86-.5a5.07,5.07,0,0,1-.9-2.42c-.06-.62-1.05-.63-1,0Z" style="fill:#84C49A"></path><path d="M388.77,305.64a3.61,3.61,0,0,0,1.2,1.92c.49.4,1.19-.3.7-.7a2.71,2.71,0,0,1-.95-1.48.49.49,0,0,0-1,.26Z" style="fill:#84C49A"></path><path d="M391.17,297.42c-.26.82-.42,2.55.63,2.91a1.23,1.23,0,0,0,1.25-.4c.35-.37.41-.93.8-1.27s-.21-1.1-.69-.69a1.72,1.72,0,0,0-.49.64c-.1.22-.19.61-.42.72-.43.22-.2-1.42-.13-1.64.2-.61-.76-.87-.95-.27Z" style="fill:#84C49A"></path><path d="M396.88,300.62a15.1,15.1,0,0,0,1.63.31.88.88,0,0,0,1-.51,1.22,1.22,0,0,0-.25-1.08c-.35-.5-.74-1-1.11-1.44s-1.24,0-.85.49.8,1,1.15,1.5l.07.11c0,.1.06.08.08-.05l-.45-.09-1-.19c-.62-.12-.89.83-.26.95Z" style="fill:#84C49A"></path><path d="M406.91,290.31a.8.8,0,0,1,1,.15c.17.25-.11.8-.43.65-.57-.26-1.07.59-.5.85a1.42,1.42,0,0,0,2-1.56,1.73,1.73,0,0,0-2.53-.94c-.55.3-.06,1.15.5.85Z" style="fill:#84C49A"></path><path d="M380.13,284.73c-.08,1,.07,2.28,1.17,2.69a1.31,1.31,0,0,0,1.77-1.49.49.49,0,0,0-.95.26c.05.21-.17.36-.37.34a.71.71,0,0,1-.47-.36,2.45,2.45,0,0,1-.17-1.44c.05-.64-.93-.63-1,0Z" style="fill:#84C49A"></path><path d="M367.08,268.57a5.79,5.79,0,0,1-1.9.17c-.64,0-.63.94,0,1a6.56,6.56,0,0,0,2.16-.21.49.49,0,0,0-.26-.95Z" style="fill:#84C49A"></path><path d="M368.56,271.53a2,2,0,0,0-1.13.7c-.41.48.29,1.18.69.69a1.24,1.24,0,0,1,.7-.44c.62-.15.36-1.1-.26-1Z" style="fill:#84C49A"></path><path d="M371.76,274.35a2.69,2.69,0,0,0-.2,1.68c.12.62,1.07.36.95-.26a1.56,1.56,0,0,1,.1-.93c.26-.57-.59-1.07-.85-.49Z" style="fill:#84C49A"></path><path d="M380.34,274.43l0-.14c.05-.55-.86-.67-1-.13a11.2,11.2,0,0,0-.25,2.23,1.52,1.52,0,0,0,.56,1.42c1.07.65,2-.43,2.35-1.3.25-.58-.6-1.08-.85-.5-.13.27-.86,1.55-1.06.74a5.89,5.89,0,0,1,.2-2.32l-1-.14a1,1,0,0,0,.32.84.5.5,0,0,0,.7-.7Z" style="fill:#84C49A"></path><path d="M385.17,279.05c.1,1,.64,2.22,1.86,2.13a1.19,1.19,0,0,0,.78-2c-.46-.44-1.16.26-.7.7.28.27-.27.36-.47.25a1.35,1.35,0,0,1-.48-1.07c-.06-.63-1.05-.64-1,0Z" style="fill:#84C49A"></path><path d="M397,324.21l2.05,1.65c.49.39,1.19-.3.7-.7l-2.05-1.65c-.49-.39-1.19.3-.7.7Z" style="fill:#84C49A"></path><path d="M398,322.28l2.6.9c.6.21.85-.74.26-.95l-2.6-.9c-.6-.21-.86.74-.26.95Z" style="fill:#84C49A"></path><path d="M408.89,316.39a9.32,9.32,0,0,0,1.72,1.66c.48.34,1.24,1,1.86.61a1.18,1.18,0,0,0,.41-1.34,15.76,15.76,0,0,0-1.08-2.59c-.25-.58-1.1-.08-.85.49s.45,1,.67,1.57c.1.22.33.55.31.79s.09.23-.19,0a10,10,0,0,1-2.15-1.91c-.4-.5-1.09.2-.7.69Z" style="fill:#84C49A"></path><path d="M413.13,312.34c.72.69,2.41,2,3.41,1.13a1.27,1.27,0,0,0,.27-1.43c-.23-.62-.9-.91-1.14-1.5s-1.19-.32-.95.27a2.86,2.86,0,0,0,.58.88c.18.18.7.55.64.88-.12.63-1.9-.72-2.11-.92-.47-.44-1.16.26-.7.69Z" style="fill:#84C49A"></path><path d="M421.36,304.85l2.61,1.63a.49.49,0,0,0,.5-.85L421.86,304c-.54-.34-1,.51-.5.85Z" style="fill:#84C49A"></path><path d="M421.27,307.71l.93.93a.5.5,0,0,0,.7-.7L422,307a.5.5,0,0,0-.7.7Z" style="fill:#84C49A"></path><path d="M420.41,317.44c.63,1,1.31,2.47,2.75,2.07s.93-2,.37-2.92c-.35-.53-1.2,0-.86.5.21.32.91,1.62,0,1.47-.71-.11-1-1.09-1.38-1.61s-1.2,0-.85.49Z" style="fill:#84C49A"></path><path d="M406,325.92c-.23,1-.64,3.21.78,3.59s2.1-1.1,2.32-2.21c.13-.62-.82-.88-.95-.26-.09.46-.34,1.79-1.1,1.52-.59-.2-.19-2-.1-2.38.13-.62-.82-.88-.95-.26Z" style="fill:#84C49A"></path><path d="M393,338.21a12.06,12.06,0,0,0,.61,2.21,1.13,1.13,0,0,0,1.13.83c1.32-.15,1.35-2.4,1.25-3.35-.07-.62-1.06-.63-1,0a5.06,5.06,0,0,1,0,1.29c0,.17-.14,1.06-.39,1s-.34-1-.37-1.06c-.11-.4-.21-.81-.29-1.22-.13-.62-1.08-.36-1,.26Z" style="fill:#84C49A"></path><path d="M396.66,338.06c.66.72,2.3,2.28,3.24,1.18s-.06-2.51-.81-3.23c-.46-.45-1.16.25-.7.69a3,3,0,0,1,.68.94c.09.19.28.68.11.9-.31.38-1.6-.93-1.83-1.17-.43-.47-1.12.23-.69.69Z" style="fill:#84C49A"></path><path d="M408.06,336.85l1.47,2.23c.35.53,1.2,0,.85-.5l-1.47-2.22c-.35-.53-1.21,0-.85.49Z" style="fill:#84C49A"></path><path d="M411.28,336.21l1.3,1.3a.49.49,0,0,0,.69-.7l-1.29-1.3c-.45-.44-1.15.25-.7.7Z" style="fill:#84C49A"></path><path d="M422.38,329.3a1.68,1.68,0,1,0,3-1.42c-.38-.5-1.23,0-.85.49a.76.76,0,0,1-.14,1.13.74.74,0,0,1-1-.46c-.18-.6-1.14-.35-.95.26Z" style="fill:#84C49A"></path><path d="M397.62,346.6a1.54,1.54,0,0,1-.12.85c-.26.58.59,1.08.85.5a2.64,2.64,0,0,0,.26-1.35c-.05-.63-1-.64-1,0Z" style="fill:#84C49A"></path><path d="M400,345.49a4,4,0,0,0,.43,2.28c.29.57,1.14.07.85-.5a3.11,3.11,0,0,1-.3-1.78c.07-.63-.91-.63-1,0Z" style="fill:#84C49A"></path><path d="M419.27,337.27c.36.06.54.5.79.72a1.15,1.15,0,0,0,1.21.27c1.23-.47.82-1.91.33-2.76a.49.49,0,0,0-.85.5c.17.29.47.72.35,1.08s-.31.27-.49.07-.57-.75-1.07-.83-.89.86-.27.95Z" style="fill:#84C49A"></path><path d="M402.62,312.86a5.26,5.26,0,0,0,.84,2.13c.35.53,1.21,0,.85-.5a4.57,4.57,0,0,1-.74-1.89c-.1-.62-1.05-.36-.95.26Z" style="fill:#84C49A"></path><path d="M443.51,287.61c-1.3,2.33-2.82,1.31-5.13,2.65s-2.53.95-4.85,2.29-2,1.85-4.33,3.18-2.78.53-5.09,1.87-2.67.72-5,2.06-2.2,1.53-4.51,2.86-1.27,3.16-3.58,4.5-2.57.89-4.89,2.23-3.37,4.39-5.63,3-.5-3.76-.5-6.56.77-2.8.77-5.6-1-2.8-1-5.6,2-2.8,2-5.61-.76-2.8-.76-5.6.91-2.8.91-5.61.17-2.8.17-5.6-1.27-2.56.1-5,1.63-1.26,3.95-2.59,2.33-1.3,4.65-2.63,1.52-2.71,3.83-4.05,2.94-.25,5.26-1.59,2.69-.67,5-2,1.42-2.88,3.73-4.21,2.83-.45,5.15-1.79,1.45-2.83,3.77-4.17,2.46-2.22,4.72-.79.56,2,.56,4.77.57,2.81.57,5.61-.15,2.8-.15,5.6.25,2.8.25,5.6-1.58,2.81-1.58,5.61.35,2.8.35,5.6-1.28,3.15-.65,5.88C442.31,284.94,444.88,285.16,443.51,287.61Z" style="fill:#84C49A"></path><path d="M439.5,242.74l.14-.08Z" style="fill:#84C49A"></path><path d="M439.74,242.62l.13-.05Z" style="fill:#84C49A"></path><path d="M440,242.53l.12,0Z" style="fill:#84C49A"></path><path d="M439.24,242.89l.17-.1Z" style="fill:#84C49A"></path><path d="M440.42,242.46h0Z" style="fill:#84C49A"></path><path d="M440.67,242.48l.13,0Z" style="fill:#84C49A"></path><path d="M437.91,243.75c.52-.32.92-.6,1.27-.82C438.83,243.15,438.43,243.43,437.91,243.75Z" style="fill:#84C49A"></path><path d="M440.19,242.48l.13,0Z" style="fill:#84C49A"></path><path d="M441.52,242.77a2.53,2.53,0,0,1,.23.12A2.53,2.53,0,0,0,441.52,242.77Z" style="fill:#84C49A"></path><path d="M406.14,264.43c2.31-1.34,2.33-1.3,4.65-2.63s1.52-2.71,3.83-4.05,2.94-.25,5.26-1.59,2.69-.67,5-2,1.42-2.88,3.73-4.21,2.83-.45,5.15-1.79,1.45-2.83,3.77-4.17l.37-.23,1.73-1.09a13.4,13.4,0,0,1-3.59-.86c-2.44-1.4-2.15-.27-4.59-1.67s-1.57-2.93-4-4.34-3.52.49-6-.9-2.37-1.53-4.81-2.92-2.34-1.57-4.78-3-2.59-1.12-5-2.51-.82-4.24-3.26-5.64-2.76-.81-5.21-2.21-2.32-1.6-4.76-3-3.43.33-5.87-1.06-1.7-2.7-4.13-4.09-2.22-1.8-4.66-3.19a9.07,9.07,0,0,0-2.08-.91h0a6.85,6.85,0,0,0-.58-.42c-1.13-.71-1.74-.84-2.35-.63a21.45,21.45,0,0,0-2.37,1.43c-2.32,1.34-1.45,2.83-3.77,4.17a7.35,7.35,0,0,1-1.29.6c-1.34.46-2,.14-3.85,1.19-2.31,1.33-1.43,2.87-3.74,4.21s-2.7.67-5,2-2.94.26-5.26,1.59-1.51,2.71-3.83,4-2.34,1.29-4.65,2.63c-2,1.14-2.51.52-3.44,1.78a6.29,6.29,0,0,0,1.65,1.48c2.44,1.4,2.83.7,5.27,2.1s2.22,1.79,4.66,3.19,1.69,2.69,4.14,4.09,3.42-.34,5.87,1.06,2.32,1.6,4.76,3,2.77.82,5.21,2.21.81,4.24,3.26,5.64,2.59,1.12,5,2.51,2.35,1.57,4.79,3,2.37,1.52,4.81,2.92,3.51-.49,5.95.91,1.56,2.93,4,4.33,2.26,1.72,4.7,3.12a3.91,3.91,0,0,0,.72.31,3.79,3.79,0,0,1,.63-1.82C403.49,264.69,403.82,265.76,406.14,264.43Z" style="fill:#84C49A"></path><path d="M406.14,264.43c2.31-1.34,2.33-1.3,4.65-2.63s1.52-2.71,3.83-4.05,2.94-.25,5.26-1.59,2.69-.67,5-2,1.42-2.88,3.73-4.21,2.83-.45,5.15-1.79,1.45-2.83,3.77-4.17l.37-.23,1.73-1.09a13.4,13.4,0,0,1-3.59-.86c-2.44-1.4-2.15-.27-4.59-1.67s-1.57-2.93-4-4.34-3.52.49-6-.9-2.37-1.53-4.81-2.92-2.34-1.57-4.78-3-2.59-1.12-5-2.51-.82-4.24-3.26-5.64-2.76-.81-5.21-2.21-2.32-1.6-4.76-3-3.43.33-5.87-1.06-1.7-2.7-4.13-4.09-2.22-1.8-4.66-3.19a9.07,9.07,0,0,0-2.08-.91h0a6.85,6.85,0,0,0-.58-.42c-1.13-.71-1.74-.84-2.35-.63a21.45,21.45,0,0,0-2.37,1.43c-2.32,1.34-1.45,2.83-3.77,4.17a7.35,7.35,0,0,1-1.29.6c-1.34.46-2,.14-3.85,1.19-2.31,1.33-1.43,2.87-3.74,4.21s-2.7.67-5,2-2.94.26-5.26,1.59-1.51,2.71-3.83,4-2.34,1.29-4.65,2.63c-2,1.14-2.51.52-3.44,1.78a6.29,6.29,0,0,0,1.65,1.48c2.44,1.4,2.83.7,5.27,2.1s2.22,1.79,4.66,3.19,1.69,2.69,4.14,4.09,3.42-.34,5.87,1.06,2.32,1.6,4.76,3,2.77.82,5.21,2.21.81,4.24,3.26,5.64,2.59,1.12,5,2.51,2.35,1.57,4.79,3,2.37,1.52,4.81,2.92,3.51-.49,5.95.91,1.56,2.93,4,4.33,2.26,1.72,4.7,3.12a3.91,3.91,0,0,0,.72.31,3.79,3.79,0,0,1,.63-1.82C403.49,264.69,403.82,265.76,406.14,264.43Z" style="fill:#fff;opacity:0.6000000000000001"></path><path d="M441.21,242.63l.18.08Z" style="fill:#84C49A"></path><path d="M441.87,243l.39.24Z" style="fill:#84C49A"></path><path d="M440.93,242.53l.15.05Z" style="fill:#84C49A"></path><polygon points="437.91 243.75 437.91 243.75 437.91 243.75 437.91 243.75" style="fill:#84C49A"></polygon><path d="M439.18,242.93l.06,0Z" style="fill:#84C49A"></path><path d="M440.8,242.5l.13,0Z" style="fill:#84C49A"></path><path d="M440.32,242.46h0Z" style="fill:#84C49A"></path><path d="M440.09,242.5l.1,0Z" style="fill:#84C49A"></path><path d="M441.39,242.71a.52.52,0,0,1,.13.06A.52.52,0,0,0,441.39,242.71Z" style="fill:#84C49A"></path><path d="M441.08,242.58l.13,0Z" style="fill:#84C49A"></path><path d="M439.87,242.57l.1,0Z" style="fill:#84C49A"></path><path d="M440.55,242.46l.12,0Z" style="fill:#84C49A"></path><path d="M441.75,242.89l.12.06Z" style="fill:#84C49A"></path><path d="M439.41,242.79l.09,0Z" style="fill:#84C49A"></path><path d="M439.64,242.66l.1,0Z" style="fill:#84C49A"></path><path d="M441.61,281.86c-.63-2.73.65-3.07.65-5.88s-.35-2.8-.35-5.6,1.58-2.8,1.58-5.61-.25-2.8-.25-5.6.15-2.8.15-5.6-.57-2.8-.57-5.61,1.81-3.28-.56-4.77l-.39-.24-.12-.06a2.53,2.53,0,0,0-.23-.12.52.52,0,0,0-.13-.06l-.18-.08-.13,0-.15-.05-.13,0-.13,0-.12,0h-.23l-.13,0-.1,0-.12,0-.1,0-.13.05-.1,0-.14.08-.09,0-.17.1-.06,0c-.35.22-.75.5-1.27.82h0l-.37.23c-2.32,1.34-1.46,2.83-3.77,4.17s-2.83.45-5.15,1.79-1.42,2.87-3.73,4.21-2.7.68-5,2-2.94.26-5.26,1.59-1.52,2.71-3.83,4.05-2.34,1.29-4.65,2.63-2.65.26-3.95,2.59a3.79,3.79,0,0,0-.63,1.82c0,.83.53,1.36.53,3.19,0,2.8-.17,2.8-.17,5.6s-.91,2.81-.91,5.61.76,2.8.76,5.6-2,2.81-2,5.61,1,2.8,1,5.6-.77,2.8-.77,5.6-1.87,5.06.5,6.56a2.21,2.21,0,0,0,1,.35h0c1.27.13,2.19-1.24,3.45-2.39l.05-.05.28-.24.1-.09.27-.2.11-.08c.13-.09.26-.18.4-.26,2.32-1.34,2.57-.9,4.89-2.23s1.26-3.16,3.58-4.5,2.2-1.53,4.51-2.86,2.67-.72,5-2.06,2.78-.53,5.09-1.87,2-1.84,4.33-3.18,2.54-1,4.85-2.29,3.83-.32,5.13-2.65S442.31,284.94,441.61,281.86Z" style="fill:#84C49A"></path><path d="M441.61,281.86c-.63-2.73.65-3.07.65-5.88s-.35-2.8-.35-5.6,1.58-2.8,1.58-5.61-.25-2.8-.25-5.6.15-2.8.15-5.6-.57-2.8-.57-5.61,1.81-3.28-.56-4.77l-.39-.24-.12-.06a2.53,2.53,0,0,0-.23-.12.52.52,0,0,0-.13-.06l-.18-.08-.13,0-.15-.05-.13,0-.13,0-.12,0h-.23l-.13,0-.1,0-.12,0-.1,0-.13.05-.1,0-.14.08-.09,0-.17.1-.06,0c-.35.22-.75.5-1.27.82h0l-.37.23c-2.32,1.34-1.46,2.83-3.77,4.17s-2.83.45-5.15,1.79-1.42,2.87-3.73,4.21-2.7.68-5,2-2.94.26-5.26,1.59-1.52,2.71-3.83,4.05-2.34,1.29-4.65,2.63-2.65.26-3.95,2.59a3.79,3.79,0,0,0-.63,1.82c0,.83.53,1.36.53,3.19,0,2.8-.17,2.8-.17,5.6s-.91,2.81-.91,5.61.76,2.8.76,5.6-2,2.81-2,5.61,1,2.8,1,5.6-.77,2.8-.77,5.6-1.87,5.06.5,6.56a2.21,2.21,0,0,0,1,.35h0c1.27.13,2.19-1.24,3.45-2.39l.05-.05.28-.24.1-.09.27-.2.11-.08c.13-.09.26-.18.4-.26,2.32-1.34,2.57-.9,4.89-2.23s1.26-3.16,3.58-4.5,2.2-1.53,4.51-2.86,2.67-.72,5-2.06,2.78-.53,5.09-1.87,2-1.84,4.33-3.18,2.54-1,4.85-2.29,3.83-.32,5.13-2.65S442.31,284.94,441.61,281.86Z" style="fill:#fff;opacity:0.30000000000000004"></path><path d="M401.92,277.63c0,2.8-.92,2.8-.92,5.61s.77,2.8.77,5.6-2,2.8-2,5.61,1,2.8,1,5.6-.77,2.8-.77,5.61c0,1.69-.68,3.2-.69,4.45a3.61,3.61,0,0,0-1.14-.94c-2.48-1.33-2.43-1.43-4.91-2.75s-2.87-.6-5.35-1.93-2.13-2-4.61-3.32-3-.31-5.52-1.63-1.79-2.61-4.27-3.94-3.58.73-6.06-.59l-5-2.64c-2.48-1.32-1.84-2.53-4.33-3.86s-2.69-.93-5.17-2.25-3.32.24-5.81-1.09-1.55-3.07-4-4.39-2.08-2.07-4.57-3.4a6.89,6.89,0,0,0-3.47-.75,5.21,5.21,0,0,1-1.15-.25h0c-2.37-1.5.12-5.12.12-7.92s.77-2.8.77-5.6-1-2.8-1-5.61,2-2.79,2-5.6-.76-2.8-.76-5.6.91-2.81.91-5.61.17-2.8.17-5.6-1.26-2.56.1-5a8.54,8.54,0,0,1,.51-.81,6.14,6.14,0,0,0,1.65,1.48c2.44,1.39,2.83.7,5.27,2.1s2.21,1.79,4.66,3.19,1.69,2.7,4.13,4.09,3.43-.33,5.88,1.06,2.32,1.6,4.75,3,2.78.82,5.22,2.21.81,4.24,3.25,5.63c.74.42,1.26.69,1.7.9a27.65,27.65,0,0,1,3.34,1.62c2.45,1.39,2.35,1.57,4.79,3s2.37,1.53,4.81,2.92,3.51-.48,5.95.92,1.56,2.93,4,4.33,2.27,1.72,4.71,3.12a4.85,4.85,0,0,0,.72.32c0,.82.53,1.35.53,3.17C402.09,274.83,401.92,274.83,401.92,277.63Z" style="fill:#84C49A"></path><path d="M401.92,277.63c0,2.8-.92,2.8-.92,5.61s.77,2.8.77,5.6-2,2.8-2,5.61,1,2.8,1,5.6-.77,2.8-.77,5.61c0,1.69-.68,3.2-.69,4.45a3.61,3.61,0,0,0-1.14-.94c-2.48-1.33-2.43-1.43-4.91-2.75s-2.87-.6-5.35-1.93-2.13-2-4.61-3.32-3-.31-5.52-1.63-1.79-2.61-4.27-3.94-3.58.73-6.06-.59l-5-2.64c-2.48-1.32-1.84-2.53-4.33-3.86s-2.69-.93-5.17-2.25-3.32.24-5.81-1.09-1.55-3.07-4-4.39-2.08-2.07-4.57-3.4a6.89,6.89,0,0,0-3.47-.75,5.21,5.21,0,0,1-1.15-.25h0c-2.37-1.5.12-5.12.12-7.92s.77-2.8.77-5.6-1-2.8-1-5.61,2-2.79,2-5.6-.76-2.8-.76-5.6.91-2.81.91-5.61.17-2.8.17-5.6-1.26-2.56.1-5a8.54,8.54,0,0,1,.51-.81,6.14,6.14,0,0,0,1.65,1.48c2.44,1.39,2.83.7,5.27,2.1s2.21,1.79,4.66,3.19,1.69,2.7,4.13,4.09,3.43-.33,5.88,1.06,2.32,1.6,4.75,3,2.78.82,5.22,2.21.81,4.24,3.25,5.63c.74.42,1.26.69,1.7.9a27.65,27.65,0,0,1,3.34,1.62c2.45,1.39,2.35,1.57,4.79,3s2.37,1.53,4.81,2.92,3.51-.48,5.95.92,1.56,2.93,4,4.33,2.27,1.72,4.71,3.12a4.85,4.85,0,0,0,.72.32c0,.82.53,1.35.53,3.17C402.09,274.83,401.92,274.83,401.92,277.63Z" style="fill:#fff;opacity:0.4"></path><path d="M400.63,312.28a.88.88,0,0,0,.84.28A2,2,0,0,1,400.63,312.28Z" style="fill:#84C49A"></path><path d="M341.68,244.5c-1.1.63-2.2,1.26-3.31,1.88a.5.5,0,0,0,.5.86l3.31-1.89a.49.49,0,0,0-.5-.85Z" style="fill:#84C49A"></path><path d="M344,247.91c.08.78.14,1.57.24,2.34a1.47,1.47,0,0,0,.72,1.24.9.9,0,0,0,1.11-.44c.44-.64.81-1.34,1.21-2a.49.49,0,0,0-.85-.5l-.65,1.07c-.09.16-.19.32-.29.48l-.17.3c-.07.11-.08.13,0,0-.14-.07-.13-1-.15-1.12l-.15-1.41c-.06-.62-1.05-.63-1,0Z" style="fill:#84C49A"></path><path d="M357.05,245.06a5.12,5.12,0,0,1-1.64,2.07c-.51.38,0,1.23.49.86a6.13,6.13,0,0,0,2-2.43c.26-.58-.59-1.08-.85-.5Z" style="fill:#84C49A"></path><path d="M358.66,247.91v3a.5.5,0,0,0,1,0v-3a.5.5,0,0,0-1,0Z" style="fill:#84C49A"></path><path d="M361.87,248.72a9,9,0,0,1,.91,2.65c.12.62,1.07.35,1-.27a9.88,9.88,0,0,0-1-2.88c-.3-.56-1.15-.06-.85.5Z" style="fill:#84C49A"></path><path d="M375.07,262.74c-.35,1-.84,3.18.47,3.7A1.27,1.27,0,0,0,377,266c.49-.57.38-1.42.87-2s-.26-1.16-.69-.69a2.32,2.32,0,0,0-.53.91c-.1.32-.14,1-.46,1.17-.49.32-.47-.46-.47-.8A4.9,4.9,0,0,1,376,263c.21-.59-.74-.85-.95-.26Z" style="fill:#84C49A"></path><path d="M379.25,266.22a6,6,0,0,0,.57,2.13,3.2,3.2,0,0,0,1.34,1.58c1.55.61,1.52-2.28,1.39-3.09-.1-.62-1.05-.36-.95.26a3.71,3.71,0,0,1,0,1.37,3,3,0,0,1-.16.55s-.39-.57-.37-.55a4.67,4.67,0,0,1-.8-2.25c-.05-.62-1-.63-1,0Z" style="fill:#84C49A"></path><path d="M392.42,270.26a14.51,14.51,0,0,0-2.42,2.21c-.41.48.28,1.18.7.7a13.14,13.14,0,0,1,2.22-2.06c.5-.37,0-1.22-.5-.85Z" style="fill:#84C49A"></path><path d="M393.3,271.36a9.73,9.73,0,0,1,.15,2.64c-.05.64.94.63,1,0a10.54,10.54,0,0,0-.18-2.91c-.12-.62-1.07-.36-.95.27Z" style="fill:#84C49A"></path><path d="M364.92,267.56a7.88,7.88,0,0,1-2,2.82c-.46.43.24,1.13.7.7a9,9,0,0,0,2.24-3.26c.24-.59-.71-.84-.95-.26Z" style="fill:#84C49A"></path><path d="M366.7,270.24a10.34,10.34,0,0,0-.73,2.51c-.09.62.86.88.95.26a9.45,9.45,0,0,1,.63-2.27c.25-.58-.6-1.08-.85-.5Z" style="fill:#84C49A"></path><path d="M368.27,271a24.89,24.89,0,0,1,.4,4.12.5.5,0,0,0,1,0,28,28,0,0,0-.44-4.38c-.11-.62-1.07-.36-1,.26Z" style="fill:#84C49A"></path><path d="M344.54,261.61c-.67.8-2.32,3.2-1.32,4.25a1,1,0,0,0,1.42,0,19,19,0,0,0,2.4-2.65l-.84-.35a43.47,43.47,0,0,0,.23,4.42c0,.33.41.68.74.43A4.22,4.22,0,0,0,349,264c0-.63-1-.63-1,0a3.22,3.22,0,0,1-1.29,2.8l.74.42a40.77,40.77,0,0,1-.24-4.42.5.5,0,0,0-.84-.34,19.48,19.48,0,0,1-2.13,2.4c-.67-.23.76-2.25,1-2.57.41-.48-.29-1.18-.7-.7Z" style="fill:#84C49A"></path><path d="M353,267.84a6.66,6.66,0,0,0-.83,2.14c-.13.62.82.88.95.26a5.72,5.72,0,0,1,.73-1.9.49.49,0,0,0-.85-.5Z" style="fill:#84C49A"></path><path d="M382.88,279.18a22,22,0,0,0-.19,2.56c0,.49.23,1.06.79,1.11s1-.53,1.36-1a4.64,4.64,0,0,0,.86-2c.11-.62-.84-.89-.95-.27a3.88,3.88,0,0,1-.38,1.21,4.39,4.39,0,0,1-.32.51,6.47,6.47,0,0,0-.41.54q.12.12,0-.12a2.11,2.11,0,0,1,0-.26c0-.24,0-.49.05-.73l.12-1.57c.05-.63-.93-.63-1,0Z" style="fill:#84C49A"></path><path d="M387.75,283.57a5.57,5.57,0,0,0,1.7,3.05.5.5,0,0,0,.83-.22,8.93,8.93,0,0,0,.22-3.64c-.09-.62-1-.36-1,.26a7.63,7.63,0,0,1-.21,3.12l.82-.22a4.54,4.54,0,0,1-1.44-2.61c-.12-.62-1.07-.36-1,.26Z" style="fill:#84C49A"></path><path d="M374.64,284a9.82,9.82,0,0,0-2.42,2.56c-.35.53.5,1,.85.5a8.7,8.7,0,0,1,2.07-2.21c.51-.37,0-1.23-.5-.85Z" style="fill:#84C49A"></path><path d="M376.73,285.44a8.31,8.31,0,0,0-.79,2.8c-.06.63.92.63,1,0a6.61,6.61,0,0,1,.66-2.3c.27-.57-.58-1.07-.86-.5Z" style="fill:#84C49A"></path><path d="M379.05,287a14,14,0,0,0,.66,3.85c.19.6,1.15.35,1-.26A12.53,12.53,0,0,1,380,287a.5.5,0,0,0-1,0Z" style="fill:#84C49A"></path><path d="M391.13,296.14c.32,1,1.11,2.63,2.31,2.71,1.47.09,1.25-2.48,1.17-3.38-.05-.63-1-.63-1,0a10.72,10.72,0,0,1,0,1.27c0,.24,0,.47-.08.71s0,.41-.23.35-.61-.61-.75-.83a4.37,4.37,0,0,1-.52-1.09c-.2-.6-1.15-.35-.95.26Z" style="fill:#84C49A"></path><path d="M359.61,280.91c-.24.83-1,2.75.17,3.24A1.5,1.5,0,0,0,361,284c.37-.18,1.14-1.19,1.54-1,.58.25,1.08-.6.5-.85-.85-.38-1.47.1-2.09.68a1.5,1.5,0,0,1-.45.33c-.31.12-.34.06-.34-.25a7.19,7.19,0,0,1,.38-1.76.49.49,0,0,0-.95-.26Z" style="fill:#84C49A"></path><path d="M337,269.75l-1,1.08c-.43.47.27,1.17.69.69s.65-.71,1-1.07-.27-1.17-.7-.7Z" style="fill:#84C49A"></path><path d="M339.92,271.24a5.56,5.56,0,0,0-1,1.89c-.19.61.76.87.95.26a4.27,4.27,0,0,1,.79-1.45c.41-.48-.29-1.19-.7-.7Z" style="fill:#84C49A"></path><path d="M343.86,274.56v1.29a.49.49,0,0,0,1,0v-1.29a.49.49,0,0,0-1,0Z" style="fill:#84C49A"></path><path d="M348.94,226.17c-1,0-2.39.28-2.27,1.57a1.13,1.13,0,0,0,.83,1c.45.13,1,0,1.42.18s1.05-.55.49-.85a1.93,1.93,0,0,0-.82-.22,2.9,2.9,0,0,1-.78,0c-.27-.11-.15-.36.06-.5a1.85,1.85,0,0,1,1.07-.14c.63,0,.63-1,0-1Z" style="fill:#84C49A"></path><path d="M350.22,230.92a1.67,1.67,0,0,0-.66,2.67,2,2,0,0,0,3.09-.66c.29-.57-.56-1.07-.85-.5s-1,1-1.48.53c-.3-.28-.26-1,.16-1.09a.49.49,0,0,0-.26-1Z" style="fill:#84C49A"></path><path d="M358.23,236.61c.5-.61,1-1.22,1.51-1.82s-.29-1.19-.7-.7l-1.51,1.82c-.4.49.29,1.19.7.7Z" style="fill:#84C49A"></path><path d="M361.26,237.43l.37-.56c.35-.53-.5-1-.86-.49-.12.18-.24.37-.37.55-.35.53.51,1,.86.5Z" style="fill:#84C49A"></path><path d="M365.57,240.51a2.46,2.46,0,0,1,.31-1.24c.3-.55-.55-1.05-.85-.49a3.49,3.49,0,0,0-.45,1.73.5.5,0,0,0,1,0Z" style="fill:#84C49A"></path><path d="M364.5,223.31a5.81,5.81,0,0,0-1.4-1.16c-.45-.26-1.15-.67-1.64-.29-1,.76.54,2.33,1.05,2.89s1.13-.23.7-.7a8.36,8.36,0,0,1-.75-.92,2.27,2.27,0,0,0-.28-.45l0-.11c-.17.13-.15.2.06.22.24.18.55.28.8.47a4.78,4.78,0,0,1,.81.75c.42.48,1.11-.22.69-.7Z" style="fill:#84C49A"></path><path d="M366.62,227.64c-.47.9-1.41,2.77-.11,3.42a1.39,1.39,0,0,0,1.45-.2,2.52,2.52,0,0,0,.8-1.68c.12-.62-.83-.89-.95-.27-.05.28-.35,1.7-.91,1.24-.38-.31.42-1.72.57-2,.29-.56-.56-1.06-.85-.5Z" style="fill:#84C49A"></path><path d="M371.07,231.25a4.45,4.45,0,0,0,.43,2c.24.52.68,1.28,1.3,1.39,1.44.26,1.36-2.56,1.27-3.39-.06-.62-1.05-.63-1,0a6.74,6.74,0,0,1,0,1.27,4.27,4.27,0,0,1-.12.7c0,.1-.05.2-.08.31s0,.13-.06,0a2.39,2.39,0,0,1-.61-1.1,3.34,3.34,0,0,1-.17-1.18.5.5,0,0,0-1,0Z" style="fill:#84C49A"></path><path d="M380.57,241.92a5.85,5.85,0,0,1-1.66,1.7c-.52.36,0,1.21.5.86a7.3,7.3,0,0,0,2-2.06c.34-.54-.51-1-.85-.5Z" style="fill:#84C49A"></path><path d="M382.48,245.14a5.91,5.91,0,0,0-1.31,2.62c-.13.62.82.88.95.26a4.74,4.74,0,0,1,1.06-2.18c.41-.48-.29-1.18-.7-.7Z" style="fill:#84C49A"></path><path d="M384.25,246.43c-.12,1.11-.25,2.22-.37,3.33-.08.63.91.63,1,0l.38-3.33c.07-.63-.92-.62-1,0Z" style="fill:#84C49A"></path><path d="M396.83,255.86a6.23,6.23,0,0,0,1,2.92c.35.52,1.2,0,.85-.5a5.17,5.17,0,0,1-.9-2.42c-.06-.62-1.05-.63-1,0Z" style="fill:#84C49A"></path><path d="M400.33,256.92a3.61,3.61,0,0,0,1.2,1.92c.49.4,1.19-.3.7-.7a2.74,2.74,0,0,1-1-1.48.49.49,0,0,0-.95.26Z" style="fill:#84C49A"></path><path d="M402.73,248.7c-.25.82-.42,2.55.63,2.91a1.23,1.23,0,0,0,1.25-.4c.36-.37.41-.94.81-1.27s-.22-1.1-.7-.69a1.72,1.72,0,0,0-.49.64c-.1.22-.19.61-.42.72-.43.22-.2-1.42-.13-1.64.2-.61-.75-.87-.95-.27Z" style="fill:#84C49A"></path><path d="M408.44,251.9a15.58,15.58,0,0,0,1.63.31.87.87,0,0,0,1-.51,1.21,1.21,0,0,0-.25-1.09c-.35-.49-.74-1-1.11-1.43s-1.23,0-.85.49.8,1,1.15,1.5a.41.41,0,0,1,.07.11c0,.1.06.08.09-.05l-.46-.09-1-.19c-.62-.12-.88.83-.26,1Z" style="fill:#84C49A"></path><path d="M418.47,241.59a.8.8,0,0,1,1,.15c.17.25-.1.8-.43.65-.57-.26-1.07.59-.49.85a1.42,1.42,0,0,0,1.95-1.56,1.72,1.72,0,0,0-2.52-.94c-.56.3-.07,1.15.49.85Z" style="fill:#84C49A"></path><path d="M391.69,236c-.08,1,.07,2.28,1.18,2.69a1.3,1.3,0,0,0,1.76-1.49c-.15-.62-1.1-.36-.95.26.06.21-.17.36-.37.34a.71.71,0,0,1-.47-.36,2.45,2.45,0,0,1-.17-1.44c.06-.64-.93-.63-1,0Z" style="fill:#84C49A"></path><path d="M378.64,219.84a5.54,5.54,0,0,1-1.9.18c-.63,0-.63.94,0,1a6.56,6.56,0,0,0,2.16-.21.5.5,0,0,0-.26-1Z" style="fill:#84C49A"></path><path d="M380.12,222.81a2.07,2.07,0,0,0-1.13.7c-.4.48.29,1.18.7.69a1.19,1.19,0,0,1,.69-.44c.62-.15.36-1.1-.26-.95Z" style="fill:#84C49A"></path><path d="M383.32,225.62a2.73,2.73,0,0,0-.2,1.69c.12.62,1.07.36.95-.26a1.56,1.56,0,0,1,.1-.93c.26-.57-.59-1.07-.85-.5Z" style="fill:#84C49A"></path><path d="M391.9,225.71l0-.14c.05-.55-.86-.67-1-.13a11.2,11.2,0,0,0-.25,2.23,1.52,1.52,0,0,0,.56,1.42c1.07.65,2-.43,2.35-1.3.25-.58-.59-1.08-.85-.5-.12.27-.86,1.55-1.06.74a6.07,6.07,0,0,1,.2-2.32l-1-.14a1,1,0,0,0,.32.84.5.5,0,0,0,.7-.7Z" style="fill:#84C49A"></path><path d="M396.73,230.33c.1,1,.64,2.22,1.86,2.13a1.19,1.19,0,0,0,.78-2c-.46-.44-1.16.26-.7.7.28.27-.27.36-.46.25a1.33,1.33,0,0,1-.49-1.07c-.06-.63-1.05-.64-1,0Z" style="fill:#84C49A"></path><path d="M408.57,275.49l2.05,1.64c.49.4,1.19-.29.7-.69l-2.05-1.65c-.49-.39-1.19.3-.7.7Z" style="fill:#84C49A"></path><path d="M409.55,273.56l2.6.9c.6.21.86-.74.26-.95l-2.6-.9c-.6-.21-.86.74-.26.95Z" style="fill:#84C49A"></path><path d="M420.45,267.67a9,9,0,0,0,1.73,1.65c.47.35,1.23,1,1.86.62a1.19,1.19,0,0,0,.4-1.34,15.76,15.76,0,0,0-1.08-2.59c-.25-.58-1.1-.08-.85.49s.45,1.05.68,1.57c.09.22.32.55.3.79s.09.23-.19,0a10,10,0,0,1-2.15-1.91c-.39-.5-1.09.2-.7.69Z" style="fill:#84C49A"></path><path d="M424.69,263.62c.72.68,2.41,2,3.41,1.13a1.25,1.25,0,0,0,.27-1.43c-.23-.62-.9-.91-1.13-1.5s-1.19-.32-1,.27a2.72,2.72,0,0,0,.59.88c.18.18.69.55.63.88-.12.63-1.9-.72-2.11-.93-.46-.43-1.16.27-.7.7Z" style="fill:#84C49A"></path><path d="M432.92,256.13l2.62,1.63c.54.33,1-.52.49-.85l-2.61-1.63c-.54-.34-1,.51-.5.85Z" style="fill:#84C49A"></path><path d="M432.84,259l.92.93a.5.5,0,0,0,.7-.7l-.93-.93a.49.49,0,0,0-.69.7Z" style="fill:#84C49A"></path><path d="M432,268.72c.63,1,1.32,2.47,2.75,2.07s.93-2,.37-2.92c-.35-.53-1.2,0-.85.5.2.32.9,1.62,0,1.47-.71-.11-1-1.09-1.38-1.61s-1.2,0-.85.49Z" style="fill:#84C49A"></path><path d="M417.51,277.2c-.23,1-.64,3.21.78,3.59s2.1-1.1,2.32-2.21c.13-.62-.82-.88-.95-.26-.09.46-.34,1.79-1.1,1.52-.58-.2-.19-2-.1-2.38.14-.62-.81-.88-.95-.26Z" style="fill:#84C49A"></path><path d="M404.58,289.49a12.06,12.06,0,0,0,.61,2.21,1.13,1.13,0,0,0,1.13.83c1.33-.15,1.36-2.4,1.25-3.35-.07-.62-1.06-.63-1,0a4.57,4.57,0,0,1,0,1.28c0,.18-.14,1.07-.39,1.05s-.34-.95-.37-1.06c-.11-.4-.21-.81-.29-1.22-.13-.62-1.08-.36-.95.26Z" style="fill:#84C49A"></path><path d="M408.22,289.34c.66.72,2.3,2.28,3.24,1.18s-.06-2.51-.81-3.23c-.46-.45-1.15.25-.7.69a2.94,2.94,0,0,1,.68.93c.09.2.29.69.11.91-.31.38-1.6-.93-1.82-1.17-.43-.47-1.13.23-.7.69Z" style="fill:#84C49A"></path><path d="M419.62,288.13l1.47,2.23c.35.52,1.2,0,.85-.5l-1.47-2.22c-.35-.53-1.2,0-.85.49Z" style="fill:#84C49A"></path><path d="M422.84,287.49l1.3,1.3a.49.49,0,0,0,.69-.7l-1.29-1.3c-.45-.44-1.15.25-.7.7Z" style="fill:#84C49A"></path><path d="M433.94,280.58a1.75,1.75,0,0,0,2.37,1.11,1.73,1.73,0,0,0,.59-2.53c-.38-.5-1.23,0-.85.49a.76.76,0,0,1-.14,1.13.74.74,0,0,1-1-.46.49.49,0,0,0-.95.26Z" style="fill:#84C49A"></path><path d="M409.19,297.88a1.64,1.64,0,0,1-.13.85c-.26.58.59,1.08.85.5a2.64,2.64,0,0,0,.26-1.35c-.05-.63-1-.64-1,0Z" style="fill:#84C49A"></path><path d="M411.6,296.77a4,4,0,0,0,.43,2.28c.29.57,1.14.07.85-.5a3.11,3.11,0,0,1-.3-1.78c.08-.63-.91-.63-1,0Z" style="fill:#84C49A"></path><path d="M430.84,288.55c.35.06.53.5.78.72a1.16,1.16,0,0,0,1.21.27c1.23-.47.83-1.91.34-2.76a.5.5,0,0,0-.86.5c.17.29.47.72.36,1.08s-.31.27-.5.07c-.32-.35-.57-.75-1.07-.83s-.89.86-.26.95Z" style="fill:#84C49A"></path><path d="M414.18,264.14a5.26,5.26,0,0,0,.84,2.13c.36.52,1.21,0,.85-.5a4.62,4.62,0,0,1-.74-1.89c-.1-.62-1.05-.36-.95.26Z" style="fill:#84C49A"></path></g><g id="freepik--Plants--inject-17"><path d="M364.24,396.72l9.85,5.73s-5-15.88-2.21-31.85a30.42,30.42,0,0,1,4-10.63c.77-1.61,6.71-11.57,1.48-16.16s-17.5,4.54-16.95,29.14A95.39,95.39,0,0,0,364.24,396.72Z" style="fill:#84C49A"></path><path d="M364.24,396.72l9.85,5.73s-5-15.88-2.21-31.85a30.42,30.42,0,0,1,4-10.63c.77-1.61,6.71-11.57,1.48-16.16s-17.5,4.54-16.95,29.14A95.39,95.39,0,0,0,364.24,396.72Z" style="opacity:0.5"></path><path d="M368.82,399.82a.45.45,0,0,1-.42-.29c0-.1-3.76-10.45-3.56-27s9-25.6,9.05-25.69a.45.45,0,0,1,.63,0,.44.44,0,0,1,0,.62c-.09.09-8.61,8.76-8.8,25.08s3.48,26.63,3.51,26.73a.44.44,0,0,1-.26.57Z" style="fill:#fff"></path><path d="M371.88,401.19l16.28,9.58s7.46-1.1,6.89-8.12-3.59-8.67.18-11.75,4.75-3.29,4.57-6.31-2.22-4.34-3.17-5.54-3.63-3.71-1.75-7.36,4.42-7.16.64-8.83c-2.25-1-6,.25-8.55,2.92s-4.59,4.58-7,5.2-7.34.67-7.17,4.77,1.23,5.52.23,7.34C371.19,386.52,363.19,388.36,371.88,401.19Z" style="fill:#84C49A"></path><path d="M371.88,401.19l16.28,9.58s7.46-1.1,6.89-8.12-3.59-8.67.18-11.75,4.75-3.29,4.57-6.31-2.22-4.34-3.17-5.54-3.63-3.71-1.75-7.36,4.42-7.16.64-8.83c-2.25-1-6,.25-8.55,2.92s-4.59,4.58-7,5.2-7.34.67-7.17,4.77,1.23,5.52.23,7.34C371.19,386.52,363.19,388.36,371.88,401.19Z" style="opacity:0.30000000000000004"></path><path d="M378.51,405.53a.44.44,0,0,1-.44-.4c0-.24-1.79-24.52,15.08-40.46a.44.44,0,0,1,.6.64C377.2,381,378.93,404.82,379,405.06a.44.44,0,0,1-.4.47Z" style="fill:#fff"></path><path d="M381.43,384.73a.45.45,0,0,1-.44-.41,13.77,13.77,0,0,0-4.95-9.68.45.45,0,0,1-.1-.62.44.44,0,0,1,.61-.1,14.43,14.43,0,0,1,5.32,10.33.44.44,0,0,1-.41.48Z" style="fill:#fff"></path><path d="M380.23,388.87a.48.48,0,0,1-.3-.11.44.44,0,0,1,0-.62c.18-.2,4.43-4.79,14.23-3.44a.44.44,0,1,1-.12.87c-9.36-1.28-13.41,3.11-13.45,3.16A.47.47,0,0,1,380.23,388.87Z" style="fill:#fff"></path><path d="M85.67,332.25,75.81,338s5-15.87,2.21-31.84a30.69,30.69,0,0,0-4-10.63c-.78-1.61-6.72-11.57-1.49-16.16s17.51,4.54,17,29.13A95.68,95.68,0,0,1,85.67,332.25Z" style="fill:#84C49A"></path><path d="M85.67,332.25,75.81,338s5-15.87,2.21-31.84a30.69,30.69,0,0,0-4-10.63c-.78-1.61-6.72-11.57-1.49-16.16s17.51,4.54,17,29.13A95.68,95.68,0,0,1,85.67,332.25Z" style="opacity:0.5"></path><path d="M81.08,335.35l-.15,0a.45.45,0,0,1-.26-.57c0-.1,3.71-10.31,3.51-26.73S75.47,283,75.39,283a.43.43,0,0,1,0-.62.45.45,0,0,1,.63,0c.09.09,8.86,9,9.06,25.69s-3.53,26.94-3.57,27A.45.45,0,0,1,81.08,335.35Z" style="fill:#fff"></path><path d="M78,336.72,61.74,346.3s-7.46-1.1-6.89-8.12,3.59-8.67-.18-11.75-4.74-3.29-4.56-6.31,2.21-4.34,3.17-5.54,3.62-3.71,1.74-7.36-4.42-7.16-.64-8.83c2.25-1,6,.25,8.56,2.92s4.58,4.58,7,5.2,7.34.67,7.18,4.77-1.24,5.51-.24,7.33C78.71,322,86.72,323.89,78,336.72Z" style="fill:#84C49A"></path><path d="M78,336.72,61.74,346.3s-7.46-1.1-6.89-8.12,3.59-8.67-.18-11.75-4.74-3.29-4.56-6.31,2.21-4.34,3.17-5.54,3.62-3.71,1.74-7.36-4.42-7.16-.64-8.83c2.25-1,6,.25,8.56,2.92s4.58,4.58,7,5.2,7.34.67,7.18,4.77-1.24,5.51-.24,7.33C78.71,322,86.72,323.89,78,336.72Z" style="opacity:0.30000000000000004"></path><path d="M71.39,341.06h0a.44.44,0,0,1-.41-.47c0-.24,1.75-24.11-14.8-39.75a.44.44,0,1,1,.61-.64c16.86,15.94,15.09,40.22,15.07,40.46A.44.44,0,0,1,71.39,341.06Z" style="fill:#fff"></path><path d="M68.47,320.26h0a.45.45,0,0,1-.41-.48,14.47,14.47,0,0,1,5.32-10.33.43.43,0,0,1,.61.1.44.44,0,0,1-.1.62,13.83,13.83,0,0,0-5,9.68A.44.44,0,0,1,68.47,320.26Z" style="fill:#fff"></path><path d="M69.67,324.4a.41.41,0,0,1-.32-.15s-4.14-4.42-13.46-3.15a.44.44,0,1,1-.12-.87c9.8-1.35,14.06,3.24,14.23,3.43a.44.44,0,0,1,0,.63A.46.46,0,0,1,69.67,324.4Z" style="fill:#fff"></path></g><g id="freepik--Horse--inject-17"><path d="M122.49,231.35s16.36,29,16.54,46.35,1.15,33.54,2,45.07a45.25,45.25,0,0,1-5.1,24.13c-1.86,3.18-4.3,7.35-.85,11.46s14.78,3.13,16.31-4.22c.33-1.55-2-8.1-.62-12.12s5-8.81,3.51-18.51-2-10.76-.74-16.39,5.77-29.5,7.41-36.73S165,245.17,162.06,237,122.49,231.35,122.49,231.35Z" style="fill:#945959"></path><path d="M274.43,135.1a16.71,16.71,0,0,1,5.71-3.31,18.52,18.52,0,0,1,6.21-1.76,15.07,15.07,0,0,1,6.17,1.34c5.56,2.23,10.84,6,13.15,11.56,3.23,7.72,0,16.69,1.7,24.88.77,3.76,2.56,7.25,3.2,11,.88,5.17-.44,10.43-1.85,15.48s-2.9,10.23-2.37,15.44S310,220.31,315,221.81a16.15,16.15,0,0,1-15.4-9,38.75,38.75,0,0,1-2.71,22.12c-1.35,3.2-3.38,6.42-6.62,7.68-9-19-14.37-39.9-14.63-60.91-.1-7.95.44-15.92-.23-23.84S274.05,142.92,274.43,135.1Z" style="fill:#263238"></path><path d="M248.09,294.72s-4.17,8.4,6.13,8.5,14.13-7.58,13-11-6.58-.64-6.58-.64Z" style="fill:#e0e0e0"></path><path d="M247.91,150.44c3,2,22.28,7,19.27,51.28-.56,8.37-2.05-6.12-1-2.58s11.53,28.1,11.52,31.71A312.47,312.47,0,0,1,272,278.76c-1.74,8.5-7.37,7.38-6.91,15.62,0,0-1.61,6-11,6-6.14,0-6.25-4.46-6.25-8.15s9.3-10.32,11.71-19.48,2.71-18.76,1.69-24.1-3.45-14.61-8.79-21.36-16.95-14.74-16.95-37.57v-21Z" style="fill:#945959"></path><path d="M250.87,286.9c-1.76,2.19-3.06,4-3.06,5.37,0,3.69.11,8.15,6.25,8.15,9.41,0,11-6,11-6a9.8,9.8,0,0,1,1-5.48C257.83,292.11,252.89,288.83,250.87,286.9Z" style="fill:#263238"></path><path d="M277.74,230.85c0-3.1-7.7-21.68-10.56-29.08v-.05c.21-3.07.3-5.93.31-8.64a9,9,0,0,0-6.78,4.18l1.39,15.3c.23,4.91.48,9.9,2,14.56,2.75,8.15,9.35,14.75,12.2,22.72C277.38,240.09,277.73,232.79,277.74,230.85Z" style="fill:#703838"></path><path d="M107,206s13.73,19.69,20,37.75,24.06,24.87,41.12,24.17,35.37-4.58,54-16.92,66.18-42.65,62.65-78.08-.29-36.68-8.78-41.59-28.15-7.53-48.19,10.48S197,166.73,184.09,174.38s-57.59-7.66-57.59-7.66l-5-1Z" style="fill:#945959"></path><path d="M89.87,151.26s-8.38-12.58-9.59-13.38-4.85,6.38-3.25,11.57a58.19,58.19,0,0,0,4.25,9.9Z" style="fill:#703838"></path><path d="M92.21,150.13s-21.74,8.16-17.46,35.61c.51,3.28-12.37,29.15-12.37,29.15s-1.85,9.83,10.15,13.9c5.16,1.75,10.47-1.53,10.47-1.53s5.2-8.44,8.35-11,7.55-6,18.38-9.22,11-21.21,9.39-25.91c0,0,7.63-19-3.77-26.58A30.44,30.44,0,0,0,92.21,150.13Z" style="fill:#945959"></path><path d="M116.08,184.48c-2.36,2.26-1.89,3.25-3.3,7.49s-2.16,9-11.33,14.81a38.78,38.78,0,0,0-12.16,11.56,17.71,17.71,0,0,1,2.06-2.13c3.15-2.61,7.55-6,18.38-9.22s11-21.21,9.39-25.91c0,0,5-12.45.84-21.22l-.31-.12S121.73,179.1,116.08,184.48Z" style="fill:#703838"></path><path d="M66.1,217.78s-.94-4.94-4.43-4.35-1,8.17-1,8.17-.69,6.76.62,8.62S68,237,74.15,237.33s8.42-6.55,8.85-10.07a51.27,51.27,0,0,0-6.46-3s-.93-8.56-6.52-7.6A21.89,21.89,0,0,0,66.1,217.78Z" style="fill:#37474f"></path><path d="M61.51,217.32a2.73,2.73,0,0,1,.41-1.71,1.27,1.27,0,0,1,1.56-.49,1.9,1.9,0,0,1,.79,1.46,11.92,11.92,0,0,1,.17,1.58,3.55,3.55,0,0,1-.23,1.77C63,222.67,61.54,218.48,61.51,217.32Z" style="fill:#263238"></path><path d="M70.1,219.1a3.89,3.89,0,0,1,2-.22,1.15,1.15,0,0,1,.55.17,1.3,1.3,0,0,1,.32.38,2.7,2.7,0,0,1,.48,2,2.35,2.35,0,0,1-.8,1.12c-1,.82-4.05,1.94-4.93.38C67.08,221.84,69.09,219.55,70.1,219.1Z" style="fill:#263238"></path><path d="M97.11,154a15.77,15.77,0,0,0-7.24-2.76c-5.5,3-18.52,12.67-15.12,34.48.33,2.16-5.14,14.13-8.92,22,.61.78,6,4.51,11.86-2.52,3.21-3.87,4-12.66,9.41-22.52S104.57,159.56,97.11,154Z" style="fill:#703838"></path><path d="M88.57,159.74A23.74,23.74,0,0,0,83.91,170c-1.36,6.52-7.8,9.45-7.8,9.45a17.64,17.64,0,0,0-2.62-8.77c-2.61-3.79,1.62-11.29,1.62-11.29s-3,.67-4.42-.68c0,0,5.64-1.94,8.12-6.7s17.55-14.94,32.43-5.82,27.23,23.44,34.76,25,19.73,1,22.72,2.18,14.38-.91,15.93-4.49a3.62,3.62,0,0,1-.56,3.66s1-2.2,7.95-2.14c0,0,1.42,6.35-9.53,10.95,0,0-1.07,4.28,2.34,5.2,0,0-1.64,1.5-8.95-.84-3.31-1.06-6.51,3.27-10.36-.16,0,0-.81,4.09,1.42,4.9,0,0-6.45.3-9.74-3.53,0,0,1.1,3.43-.66,5.05,0,0-5.71-7.18-13.41-8.95a4.37,4.37,0,0,0,1.34,5.28s-9.37-2.85-12.26-10.17c-1.16-2.91-2.15-5.33-2.15-5.33s-.5,8.59-3.33,10.22a11,11,0,0,0-4.11-10.5c-5.47-4.4-10.08-12.29-10.08-12.29L105.24,152a27.71,27.71,0,0,1-9,8.26s.49-1,0-3.3c0,0-2,7.75-8.42,9.86A24.44,24.44,0,0,0,88.57,159.74Z" style="fill:#263238"></path><path d="M105.24,152s9.09-11.13,10.11-12.34c.73-.88,9,8.35-3.69,24.35Z" style="fill:#945959"></path><path d="M108,154c0-.16,5.08-8,6.81-10.66a.62.62,0,0,1,1.1.12c.51,1.34,1.08,4-.06,8.35-1.73,6.52-4.22,9.42-4.22,9.42s1-4.67-3.08-3l1-3.32-1.27.49Z" style="fill:#703838"></path><path d="M99.65,180.15a2.42,2.42,0,1,1-2.41-2.42A2.41,2.41,0,0,1,99.65,180.15Z" style="fill:#263238"></path><path d="M134.49,352.7s-3,3.9-.84,7.94,13.55,5.07,17.95-1.44-1.52-9.07-1.52-9.07Z" style="fill:#e0e0e0"></path><path d="M151.35,354.14c.23-1.1-.86-4.72-1-8.17-6.33,3.46-10.94,1.24-13.49-.89-.34.72-.67,1.35-.94,1.82-1.86,3.18-4.3,7.35-.85,11.46S149.82,361.49,151.35,354.14Z" style="fill:#263238"></path><path d="M261.39,204.6c-2.27,10.86-15.76,25.46-31.57,35.83-19.15,12.56-66.8,22.3-76.87,14s-10.35,1.39-17.5-2.54c-5.36-3-8.69-9.32-10-12.32.55,1.4,1.08,2.79,1.56,4.17,6.26,18.07,24.06,24.87,41.12,24.17s35.37-4.58,54-16.92c11-7.24,31.84-20.66,46.51-37.68C263.74,203.3,263.46,194.69,261.39,204.6Z" style="fill:#703838"></path><path d="M124.78,238v0h0Z" style="fill:#703838"></path><path d="M149.33,248.35s17.73,28.19,18.75,45.5,2.76,33.45,4.12,44.92a45.09,45.09,0,0,1-3.93,24.34c-1.71,3.28-3.94,7.56-.3,11.49s14.91,2.43,16.09-5c.25-1.57-2.37-8-1.2-12.08s4.51-9,2.62-18.66S183,328.22,184,322.53s4.35-29.74,5.63-37,2.9-25.39-.46-33.41S149.33,248.35,149.33,248.35Z" style="fill:#945959"></path><path d="M167.15,369s-2.85,4-.45,8,13.77,4.41,17.85-2.3-2-9-2-9Z" style="fill:#e0e0e0"></path><path d="M184.06,369.61c.18-1.12-1.09-4.68-1.42-8.12-6.16,3.76-10.86,1.77-13.52-.24-.31.74-.6,1.38-.85,1.86-1.71,3.28-3.94,7.56-.3,11.49S182.88,377,184.06,369.61Z" style="fill:#263238"></path><path d="M276.21,309.57s-4.16,8.4,6.13,8.5,14.13-7.58,13-10.95-6.57-.64-6.57-.64Z" style="fill:#e0e0e0"></path><path d="M276,131.37c3,2,22.28,7,19.27,51.28-.56,8.36-2.05,27.8-1,31.34s11.53,28.1,11.52,31.71a312.47,312.47,0,0,1-5.75,47.91c-1.74,8.5-7.37,7.38-6.9,15.62,0,0-1.62,6-11,6-6.15,0-6.26-4.46-6.26-8.15s9.3-10.32,11.71-19.48,2.71-18.76,1.69-24.1-3.45-14.61-8.79-21.36-17-14.74-17-37.57V149.69Z" style="fill:#945959"></path><path d="M279,301.75c-1.76,2.19-3.06,4-3.06,5.37,0,3.69.11,8.15,6.26,8.15,9.4,0,11-6,11-6a9.73,9.73,0,0,1,1-5.48C286,307,281,303.69,279,301.75Z" style="fill:#263238"></path></g><g id="freepik--Character--inject-17"><path d="M249,257.48s-3.31,37.22-2.35,55.82,3.61,51.91,3.61,51.91,3.49,5.37,13.27,2.64c0,0,2.24-20.12,2.41-32.19a108,108,0,0,0-.46-11.85l6.08-30.3V258.84Z" style="fill:#455a64"></path><path d="M254.86,273.68s2.55,9.56,12.19,12.38l2.87,15.54,1.62-8.09-1.62-16Z" style="fill:#37474f"></path><path d="M252.86,258.84s-.65,12.92,4,18.18a23.92,23.92,0,0,0,11.2,6.83s6.14,32.51,8,41.12,10.3,47.09,10.3,47.09h12.74s-.65-36.63-2-42-1.75-6.69-1.75-6.69,1.33-34.12,0-44.05a108.34,108.34,0,0,0-5-21.88Z" style="fill:#455a64"></path><path d="M250.65,382.25c.13-.32-1.34-14.8-1.77-19.06a5.75,5.75,0,0,1,.22-2.3h0a1.87,1.87,0,0,1,2.43-1.22c2.24.83,5.86,2.73,7.47,6.66a25.77,25.77,0,0,1,4.87-4.32.44.44,0,0,1,.65.26c.27,1,.68,3.55,0,8.41-.93,6.66-1.56,12-1.2,16.91s1.67,8.53-1.1,9.65-6.63,2.58-8.62,4.19-6.28,5.62-13.38,4.93-12.54-2.52-6.12-8.07S247.55,389.75,250.65,382.25Z" style="fill:#263238"></path><path d="M284.83,371.1s4.91-9.17,7.62-9.37,7.62,8.36,7.62,8.36-.08,18.33.14,18.48,4,15.93,4.33,18.27-1.76,8-6.55,8.9-9.14-7.33-10-11,1.06-11.26.45-15.11S284.83,371.1,284.83,371.1Z" style="fill:#263238"></path><path d="M212.28,210.47s-7.36-6.39-8.68-9c-1-1.93-3.4-2.31-3.26-3.57s4.32-.66,5.68,1.27a10.21,10.21,0,0,0-2.23-4.32l-1.63-1.51c-1.8-1.67,3.67-2.71,4.37-2.8a7.67,7.67,0,0,1,6.57,1.8c3.86,3.3,6.53,12.53,6.53,12.53Z" style="fill:#ffa8a7"></path><path d="M255.9,208.89s-4.46.77-10.67,5.85-11.1,9-11.1,9l-14.5-18.88s-5.67.88-7.35,5.58c0,0,6.32,11,8.19,15.24s7.79,14,12.62,12.73,19-10.7,19-10.7Z" style="fill:#84C49A"></path><path d="M255.9,208.89s-4.46.77-10.67,5.85-11.1,9-11.1,9l-14.5-18.88s-5.67.88-7.35,5.58c0,0,6.32,11,8.19,15.24s7.79,14,12.62,12.73,19-10.7,19-10.7Z" style="opacity:0.30000000000000004"></path><path d="M234.13,223.77a17.59,17.59,0,0,0-4.1,5.16s0-4.41,2.73-6.89Z" style="fill:#84C49A"></path><path d="M234.13,223.77a17.59,17.59,0,0,0-4.1,5.16s0-4.41,2.73-6.89Z" style="opacity:0.5"></path><path d="M282.65,209.05l7.45,1.59s-1.85,28.85-1.63,33.83a103.7,103.7,0,0,0,1.95,13s-25.3,8.32-41.44,0A198,198,0,0,1,250.16,228c1.86-14.38,5.74-19.07,5.74-19.07s7.16-1.2,10.79-.63S282.65,209.05,282.65,209.05Z" style="fill:#84C49A"></path><path d="M282.65,209.05l7.45,1.59s-1.85,28.85-1.63,33.83a103.7,103.7,0,0,0,1.95,13s-25.3,8.32-41.44,0A198,198,0,0,1,250.16,228c1.86-14.38,5.74-19.07,5.74-19.07s7.16-1.2,10.79-.63S282.65,209.05,282.65,209.05Z" style="opacity:0.5"></path><path d="M264.24,261.34a.28.28,0,0,1-.26-.24c-1.54-17.82,3.79-45,3.85-45.23a.25.25,0,0,1,.3-.21.26.26,0,0,1,.2.31c-.05.27-5.36,27.34-3.83,45.08a.27.27,0,0,1-.23.29Z" style="fill:#84C49A"></path><g style="opacity:0.30000000000000004"><path d="M264.24,261.34a.28.28,0,0,1-.26-.24c-1.54-17.82,3.79-45,3.85-45.23a.25.25,0,0,1,.3-.21.26.26,0,0,1,.2.31c-.05.27-5.36,27.34-3.83,45.08a.27.27,0,0,1-.23.29Z"></path></g><path d="M265.51,220a.9.9,0,1,1-.9-.91A.9.9,0,0,1,265.51,220Z" style="fill:#84C49A"></path><path d="M264.13,228.64a.91.91,0,1,1-.91-.9A.91.91,0,0,1,264.13,228.64Z" style="fill:#84C49A"></path><path d="M263.06,238.5a.9.9,0,1,1-.9-.91A.9.9,0,0,1,263.06,238.5Z" style="fill:#84C49A"></path><path d="M262,248.35a.91.91,0,1,1-.91-.91A.9.9,0,0,1,262,248.35Z" style="fill:#84C49A"></path><path d="M265.51,220a.9.9,0,1,1-.9-.91A.9.9,0,0,1,265.51,220Z" style="opacity:0.30000000000000004"></path><path d="M264.13,228.64a.91.91,0,1,1-.91-.9A.91.91,0,0,1,264.13,228.64Z" style="opacity:0.30000000000000004"></path><path d="M263.06,238.5a.9.9,0,1,1-.9-.91A.9.9,0,0,1,263.06,238.5Z" style="opacity:0.30000000000000004"></path><path d="M262,248.35a.91.91,0,1,1-.91-.91A.9.9,0,0,1,262,248.35Z" style="opacity:0.30000000000000004"></path><path d="M249.41,174.21c-.33,3.35,1.82,6.53,4.55,8.5s6,3,9.11,4.28c7.33,3,14.56,7.5,22.45,6.94,2.09-.15,4.56-1.06,4.91-3.13a4.51,4.51,0,0,0-.28-2.14c-1.5-4.63-5.31-8.1-9.19-11-5.23-3.94-11.17-7.38-17.68-8.58C258.63,168.18,250.06,167.61,249.41,174.21Z" style="fill:#84C49A"></path><path d="M253.41,179.08s-2.15-10.77,7.81-15.14,25.51-2.73,28.91,10.93-5.36,22.2-10.29,24Z" style="fill:#263238"></path><path d="M279.84,208.37s-8.86,6-11.76,7.55h0c-2.83-4.8-1.39-7.66-1.39-7.66V188.92h13.15Z" style="fill:#ffa8a7"></path><path d="M266.69,204.83a21.2,21.2,0,0,0,12.08-11.49v-4.42H266.69Z" style="fill:#f28f8f"></path><path d="M263.63,167.37s-12.51.47-10.26,20.61c1.06,9.48,1.84,14.71,9.95,14.71s20.07-6.1,19.3-22.37S263.63,167.37,263.63,167.37Z" style="fill:#ffa8a7"></path><polygon points="262.08 185.09 262.08 192.16 257.95 190.89 262.08 185.09" style="fill:#f28f8f"></polygon><path d="M268.13,186.32a1.44,1.44,0,1,1-1.44-1.44A1.45,1.45,0,0,1,268.13,186.32Z" style="fill:#263238"></path><path d="M258.66,185.31a1.44,1.44,0,1,1-1.44-1.44A1.44,1.44,0,0,1,258.66,185.31Z" style="fill:#263238"></path><path d="M255.46,182.31l2.82-1.67s-1.08-1.12-2.16-.45A2,2,0,0,0,255.46,182.31Z" style="fill:#263238"></path><path d="M267.44,181.83l2.54,2.06s.68-1.4-.32-2.17A2,2,0,0,0,267.44,181.83Z" style="fill:#263238"></path><path d="M260.14,195a6.18,6.18,0,0,0,3.88-1s.26,2-1.45,2.43A2.22,2.22,0,0,1,260.14,195Z" style="fill:#f28f8f"></path><path d="M257.22,170.22s1.36,4.84,11.6,4.07,9.35,2.07,8.23,6.86c-.76,3.3-.83,12.06,1.72,7.77h5.06V178.79a12.93,12.93,0,0,0-12.94-12.93h-5.06a10.68,10.68,0,0,0-8.61,4.36Z" style="fill:#263238"></path><path d="M278.64,188.4s.51-4.85,3.88-4.94c3.69-.1,4.19,3.45,4.14,4.72-.13,3.32-2.82,6.91-7.83,7Z" style="fill:#ffa8a7"></path><path d="M256.83,167.75s7.84-10.76,9.86-11.25,9.67-1.36,15.35,3.89,9.79,2.6,9.79,10.09a108.22,108.22,0,0,1-1.71,16.64S273,169.28,256.83,167.75Z" style="fill:#84C49A"></path><path d="M256.83,167.75s7.84-10.76,9.86-11.25,9.67-1.36,15.35,3.89,9.79,2.6,9.79,10.09a108.22,108.22,0,0,1-1.71,16.64S273,169.28,256.83,167.75Z" style="opacity:0.2"></path><path d="M291.35,178.44a48.78,48.78,0,0,0-22.53-13.52,83.34,83.34,0,0,0-8.54-1.7c-1.9,2.41-3.45,4.53-3.45,4.53a36.41,36.41,0,0,1,12.66,4A40.59,40.59,0,0,1,287,183.32a5.66,5.66,0,0,1,1,1.77c1.33,1.25,2.08,2,2.08,2S290.84,183.22,291.35,178.44Z" style="opacity:0.5"></path><path d="M257.49,171.21c6.24.65,20.09,3.33,29.52,14.28a5.7,5.7,0,0,1,.42,6.91,20.39,20.39,0,0,1-2.82,3.35s9.63,2.41,12.44-2.86-11.19-21.53-28.23-25.8-25.73-1.88-26.56,2.54S249,181.4,253.1,183.36v-6.54a18,18,0,0,1,.1-2.2A3.88,3.88,0,0,1,257.49,171.21Z" style="fill:#84C49A"></path><path d="M257.49,171.21c6.24.65,20.09,3.33,29.52,14.28a5.7,5.7,0,0,1,.42,6.91,20.39,20.39,0,0,1-2.82,3.35s9.63,2.41,12.44-2.86-11.19-21.53-28.23-25.8-25.73-1.88-26.56,2.54S249,181.4,253.1,183.36v-6.54a18,18,0,0,1,.1-2.2A3.88,3.88,0,0,1,257.49,171.21Z" style="opacity:0.30000000000000004"></path><path d="M282,160.39l-.26-.22a17.87,17.87,0,0,1,3.26,5.44,2.49,2.49,0,0,0,.64,1,.89.89,0,0,0,1.09,0,1.53,1.53,0,0,0,.28-.46,6.9,6.9,0,0,1,1.35-1.91A20.83,20.83,0,0,1,282,160.39Z" style="fill:#84C49A"></path><path d="M282,160.39l-.26-.22a17.87,17.87,0,0,1,3.26,5.44,2.49,2.49,0,0,0,.64,1,.89.89,0,0,0,1.09,0,1.53,1.53,0,0,0,.28-.46,6.9,6.9,0,0,1,1.35-1.91A20.83,20.83,0,0,1,282,160.39Z" style="opacity:0.5"></path><path d="M279.62,204.17l-11.54,11.75s6.75-3.6,10.84,2.84c0,0,1.62,2,3.73-9.71C282.65,209.05,282.33,204.19,279.62,204.17Z" style="fill:#84C49A"></path><path d="M268.08,215.92l-1.39-7.66v-4.09s-1.61,0-3.49,2.75-5.47,7-3.74,7.35S265.08,211.33,268.08,215.92Z" style="fill:#84C49A"></path><path d="M279.62,204.17l-11.54,11.75s6.75-3.6,10.84,2.84c0,0,1.62,2,3.73-9.71C282.65,209.05,282.33,204.19,279.62,204.17Z" style="opacity:0.30000000000000004"></path><path d="M268.08,215.92l-1.39-7.66v-4.09s-1.61,0-3.49,2.75-5.47,7-3.74,7.35S265.08,211.33,268.08,215.92Z" style="opacity:0.30000000000000004"></path><path d="M282.58,277.48a25.1,25.1,0,0,0-25.07,25.08V326a1.55,1.55,0,1,0,3.1,0V314.63a25.07,25.07,0,1,0,22-37.15Zm0,47a22,22,0,1,1,22-22A22,22,0,0,1,282.58,324.52Z" style="fill:#84C49A"></path><path d="M282.58,277.48a25.1,25.1,0,0,0-25.07,25.08V326a1.55,1.55,0,1,0,3.1,0V314.63a25.07,25.07,0,1,0,22-37.15Zm0,47a22,22,0,1,1,22-22A22,22,0,0,1,282.58,324.52Z" style="opacity:0.5"></path><path d="M282.58,326A23.41,23.41,0,1,1,306,302.56,23.43,23.43,0,0,1,282.58,326Zm0-43.7a20.3,20.3,0,1,0,20.3,20.3A20.33,20.33,0,0,0,282.58,282.26Z" style="fill:#84C49A"></path><g style="opacity:0.30000000000000004"><path d="M282.58,326A23.41,23.41,0,1,1,306,302.56,23.43,23.43,0,0,1,282.58,326Zm0-43.7a20.3,20.3,0,1,0,20.3,20.3A20.33,20.33,0,0,0,282.58,282.26Z"></path></g><path d="M282.58,323.63a21.07,21.07,0,1,1,21.07-21.07A21.09,21.09,0,0,1,282.58,323.63Zm0-39a18,18,0,1,0,18,18A18,18,0,0,0,282.58,284.59Z" style="fill:#84C49A"></path><g style="opacity:0.2"><path d="M282.58,323.63a21.07,21.07,0,1,1,21.07-21.07A21.09,21.09,0,0,1,282.58,323.63Zm0-39a18,18,0,1,0,18,18A18,18,0,0,0,282.58,284.59Z"></path></g><path d="M291.49,268.72a28.18,28.18,0,0,1-3.65,3.2,14.82,14.82,0,0,0-3.34,2.65,13,13,0,0,1-4.29,3c-1.38.53-1.69,2.65.76,2.49a19.26,19.26,0,0,0,4.24-.74s-2,4.4-3.9,5.67,0,1.94.83,2.13,8.61,2.76,11,0,7.14-12.59,7.14-12.59S299.24,267.66,291.49,268.72Z" style="fill:#ffa8a7"></path><path d="M288.61,210.32a13.66,13.66,0,0,0-2.68,15.07c3.69,9.24,11.15,22.23,11.15,22.23s-1.29,14-5.59,21.1c0,0,4.86.1,8.81,5.85,0,0,12.19-20.78,10.33-27.88s-14.22-31.11-16.25-33.6S288.61,210.32,288.61,210.32Z" style="fill:#84C49A"></path><path d="M288.61,210.32a13.66,13.66,0,0,0-2.68,15.07c3.69,9.24,11.15,22.23,11.15,22.23s-1.29,14-5.59,21.1c0,0,4.86.1,8.81,5.85,0,0,12.19-20.78,10.33-27.88s-14.22-31.11-16.25-33.6S288.61,210.32,288.61,210.32Z" style="opacity:0.30000000000000004"></path><path d="M297.08,247.62a7.14,7.14,0,0,1,5.69,0A8,8,0,0,0,296,245.7Z" style="fill:#84C49A"></path><path d="M297.08,247.62a7.14,7.14,0,0,1,5.69,0A8,8,0,0,0,296,245.7Z" style="opacity:0.5"></path><path d="M249,257.48l-.47,5.49s6.37,3.33,19.75,3.33a65.29,65.29,0,0,0,23.57-4.41l-1.41-4.41A74.45,74.45,0,0,1,266,261.16C253.64,260.75,249,257.48,249,257.48Z" style="fill:#263238"></path><path d="M254.14,266.18h0a.8.8,0,0,1-.81-.8v-6.16a.81.81,0,0,1,.81-.81h0a.8.8,0,0,1,.8.81v6.16A.8.8,0,0,1,254.14,266.18Z" style="fill:#37474f"></path><path d="M277.92,266.85h0a.8.8,0,0,1-.8-.8v-6.16a.8.8,0,0,1,.8-.81h0a.81.81,0,0,1,.81.81v6.16A.8.8,0,0,1,277.92,266.85Z" style="fill:#37474f"></path><rect x="260.3" y="260.25" width="9.51" height="6.59" rx="1.13" style="fill:#37474f"></rect></g><g id="freepik--Clouds--inject-17"><path d="M372.66,62.59l7.84,4.46V64.28c0-.2,0-.4,0-.59a5,5,0,0,1,0-.56v-.07h0c.28-3.67,3.06-5.08,6.46-3.12a12.57,12.57,0,0,1,3.86,3.71c.76-5,4.83-6.79,9.76-3.95,5.46,3.15,9.89,10.83,9.89,17.14v5.94a2.72,2.72,0,0,0,1.33,2.33l4.61,2.7a6.65,6.65,0,0,1,3.28,5.73,2.73,2.73,0,0,1-4.1,2.37L372.78,71.18A7.5,7.5,0,0,1,369,64.7,2.42,2.42,0,0,1,372.66,62.59Z" style="fill:#e6e6e6"></path><path d="M326,61.49l5.79,3.3V62.73c0-.14,0-.29,0-.43s0-.28,0-.42v0h0c.21-2.72,2.27-3.76,4.78-2.31a9.28,9.28,0,0,1,2.86,2.74c.56-3.69,3.57-5,7.22-2.92A16.18,16.18,0,0,1,354,72v4.39a2,2,0,0,0,1,1.72l3.41,2a4.93,4.93,0,0,1,2.42,4.24,2,2,0,0,1-3,1.76l-31.68-18.3a5.54,5.54,0,0,1-2.76-4.79A1.79,1.79,0,0,1,326,61.49Z" style="fill:#e6e6e6"></path></g></svg>