<svg xmlns="http://www.w3.org/2000/svg" viewBox="0 0 500 500"><g id="freepik--Floor--inject-14"><g id="freepik--floor--inject-14"><path d="M422.36,223.8c-95.15-54.94-249.41-54.94-344.56,0s-95.15,144,0,198.93,249.41,54.93,344.56,0S517.51,278.73,422.36,223.8Z" style="fill:#84C49A"></path><path d="M422.36,223.8c-95.15-54.94-249.41-54.94-344.56,0s-95.15,144,0,198.93,249.41,54.93,344.56,0S517.51,278.73,422.36,223.8Z" style="fill:#fff;opacity:0.7000000000000001"></path></g></g><g id="freepik--Sun--inject-14"><circle id="freepik--sun--inject-14" cx="129.64" cy="66.62" r="20.31" style="fill:#ffbda7"></circle></g><g id="freepik--Clouds--inject-14"><path id="freepik--Cloud--inject-14" d="M415.14,48.44c0-4.35-4.78-7.38-10.18-7.89-6.37-.6-10.88,2.24-11,7.25-4.17-1.71-8.56-.61-8.23,4-1.08-1.25-5.13-1.22-6.59-.87A5.7,5.7,0,0,0,375.49,54a4.18,4.18,0,0,0-.38,2.34c-2.43-.79-7.95-1.28-9.33,1-2.46,4,7.36,4.09,9.34,2.89.42,3.08,11,3.59,13.53.74,2,2,4.86,2.46,8,2.64,5.22.31,8.42-1.46,12.49-3.54,4.43,3.76,12.09,3.83,16.08-.47,1,1,3.82,1.26,6.07.72,1.47-.35,1.81-1,1.81-1a12.86,12.86,0,0,0,2.71.82c2.89.6,8.28,0,6-2.64-.77-.89-3.59-1.45-4.78-1.18-1.26-2.48-6.33-4.84-9.24-2.74-.11-3-2.86-5.36-6.73-5.95C419.73,47.38,416.62,47.21,415.14,48.44Z" style="fill:#ebebeb"></path><path id="freepik--cloud--inject-14" d="M86.23,119.46c0-5-5.45-8.42-11.62-9-7.27-.69-12.42,2.55-12.59,8.28-4.76-1.95-9.77-.7-9.39,4.52-1.24-1.42-5.86-1.38-7.52-1A6.5,6.5,0,0,0,41,125.8a4.8,4.8,0,0,0-.43,2.68c-2.77-.91-9.07-1.47-10.65,1.07-2.8,4.53,8.4,4.67,10.66,3.3.48,3.52,12.52,4.1,15.44.85,2.28,2.3,5.55,2.8,9.08,3,6,.36,9.61-1.66,14.26-4,5,4.29,13.79,4.37,18.34-.53,1.17,1.09,4.37,1.43,6.93.82,1.68-.4,2.07-1.12,2.07-1.12a14.34,14.34,0,0,0,3.09.93c3.3.69,9.45,0,6.87-3-.88-1-4.09-1.66-5.45-1.35-1.45-2.83-7.23-5.52-10.55-3.12-.13-3.43-3.26-6.12-7.68-6.8C91.47,118.26,87.91,118.06,86.23,119.46Z" style="fill:#f5f5f5"></path><path id="freepik--cloud--inject-14" d="M317.3,72.91c0-5.08-5.57-8.61-11.88-9.21-7.43-.7-12.7,2.61-12.87,8.46-4.86-2-10-.71-9.6,4.63-1.26-1.46-6-1.42-7.69-1A6.67,6.67,0,0,0,271,79.39a4.9,4.9,0,0,0-.44,2.73c-2.83-.93-9.27-1.49-10.88,1.1-2.87,4.63,8.58,4.77,10.89,3.38.49,3.59,12.81,4.18,15.79.86,2.32,2.35,5.67,2.87,9.28,3.08,6.09.36,9.83-1.7,14.58-4.12,5.16,4.38,14.1,4.46,18.76-.56,1.18,1.13,4.45,1.47,7.07.85,1.73-.41,2.12-1.15,2.12-1.15a14.82,14.82,0,0,0,3.16,1c3.38.71,9.66,0,7-3.08-.9-1-4.19-1.69-5.58-1.37-1.47-2.9-7.39-5.64-10.78-3.19-.13-3.51-3.34-6.26-7.86-7C322.66,71.68,319,71.47,317.3,72.91Z" style="fill:#f5f5f5"></path></g><g id="freepik--Shadows--inject-14"><polygon id="freepik--Shadow--inject-14" points="167.84 299.1 291.45 370.47 167.73 441.91 44.12 370.55 167.84 299.1" style="fill:#84C49A;opacity:0.4"></polygon><path id="freepik--shadow--inject-14" d="M463,290.71,339.36,219.34l-116.18,67,123.61,71.37,43.3-25,12.85,7.42,35.92-20.73L426,312Z" style="fill:#84C49A;opacity:0.4"></path><ellipse id="freepik--shadow--inject-14" cx="40.28" cy="332.14" rx="17.43" ry="10.06" style="fill:#84C49A;opacity:0.4"></ellipse><path id="freepik--shadow--inject-14" d="M466.17,263.67c6.8,3.93,6.8,10.3,0,14.23s-17.84,3.93-24.64,0-6.81-10.3,0-14.23S459.36,259.74,466.17,263.67Z" style="fill:#84C49A;opacity:0.4"></path><polygon id="freepik--shadow--inject-14" points="241.61 317.68 313.41 359.13 316.89 357.08 245.1 315.63 241.61 317.68" style="fill:#84C49A;opacity:0.4"></polygon><polygon id="freepik--shadow--inject-14" points="36.66 376.93 108.46 418.38 111.94 416.33 40.15 374.88 36.66 376.93" style="fill:#84C49A;opacity:0.4"></polygon><path id="freepik--shadow--inject-14" d="M346.79,425.27l-26,15c-6.2,3.58-16.24,3.58-22.44,0l-2.87-1.66c-6.2-3.58-6.2-9.37,0-12.94l26-15c6.2-3.57,16.25-3.57,22.44,0l2.82,1.63C353,415.89,353,421.69,346.79,425.27Z" style="fill:#84C49A;opacity:0.4"></path></g><g id="freepik--Trees--inject-14"><g id="freepik--Tree--inject-14"><rect x="449.36" y="230.06" width="1.37" height="16.76" transform="translate(-59.18 229.45) rotate(-26.9)" style="fill:#263238"></rect><rect x="450.8" y="235.12" width="14.05" height="1.37" transform="translate(16.37 500.98) rotate(-58.24)" style="fill:#263238"></rect><path d="M452.69,228v44.45a.59.59,0,0,0,.34.47,1.78,1.78,0,0,0,1.62,0,.59.59,0,0,0,.34-.47V228Z" style="fill:#263238"></path><path d="M425.47,216.84a16.73,16.73,0,1,0,16.72-16.73A16.72,16.72,0,0,0,425.47,216.84Z" style="fill:#84C49A"></path><path d="M425.47,216.84a16.73,16.73,0,1,0,16.72-16.73A16.72,16.72,0,0,0,425.47,216.84Z" style="opacity:0.35000000000000003"></path><path d="M437,212.56c-2.16-6.8-4.46-9.45-3-10.28a16.73,16.73,0,1,1-4.66,25.2C434.24,228.93,439.75,221.37,437,212.56Z" style="opacity:0.1"></path><path d="M456.79,221.57a11.76,11.76,0,1,0,11.75-11.76A11.75,11.75,0,0,0,456.79,221.57Z" style="fill:#84C49A"></path><path d="M456.79,221.57a11.76,11.76,0,1,0,11.75-11.76A11.75,11.75,0,0,0,456.79,221.57Z" style="opacity:0.30000000000000004"></path><path d="M468.54,209.81a11.72,11.72,0,0,1,6.87,2.22c.32,7.18-5.78,14.19-4.07,16.54s5.9.91,7.36-1.09a11.75,11.75,0,1,1-10.16-17.67Z" style="opacity:0.1"></path><path d="M432.27,208.89a21.57,21.57,0,1,0,21.57-21.56A21.57,21.57,0,0,0,432.27,208.89Z" style="fill:#84C49A"></path><g style="opacity:0.2"><path d="M432.27,208.89a21.57,21.57,0,1,0,21.57-21.56A21.57,21.57,0,0,0,432.27,208.89Z"></path></g><path d="M432.85,213.82a21.56,21.56,0,1,0,36.77-19.62c-1.5-1.61-1.59-1.68-.12-.12a21.56,21.56,0,0,1-36.65,19.74Z" style="opacity:0.1"></path></g><g id="freepik--tree--inject-14"><rect x="35.43" y="296.09" width="17.96" height="1.47" transform="translate(-240.39 202.12) rotate(-63.1)" style="fill:#263238"></rect><rect x="35.34" y="286.46" width="1.47" height="15.06" transform="translate(-149.33 63) rotate(-31.76)" style="fill:#263238"></rect><path d="M41.57,285.68v47.63a.61.61,0,0,1-.36.5,1.91,1.91,0,0,1-1.74,0,.61.61,0,0,1-.36-.5V285.68Z" style="fill:#263238"></path><path d="M70.75,273.67a17.93,17.93,0,1,1-17.92-17.93A17.93,17.93,0,0,1,70.75,273.67Z" style="fill:#84C49A"></path><path d="M70.75,273.67a17.93,17.93,0,1,1-17.92-17.93A17.93,17.93,0,0,1,70.75,273.67Z" style="opacity:0.35000000000000003"></path><path d="M58.44,269.08c2.32-7.28,4.78-10.13,3.22-11a17.93,17.93,0,1,0,5,27C61.34,286.62,55.45,278.52,58.44,269.08Z" style="opacity:0.1"></path><path d="M37.19,278.74a12.6,12.6,0,1,1-12.6-12.6A12.6,12.6,0,0,1,37.19,278.74Z" style="fill:#84C49A"></path><path d="M37.19,278.74a12.6,12.6,0,1,1-12.6-12.6A12.6,12.6,0,0,1,37.19,278.74Z" style="opacity:0.30000000000000004"></path><path d="M24.59,266.14a12.49,12.49,0,0,0-7.36,2.38c-.35,7.69,6.19,15.2,4.36,17.72s-6.32,1-7.89-1.17a12.6,12.6,0,1,0,10.89-18.93Z" style="opacity:0.1"></path><circle cx="40.34" cy="265.16" r="23.11" transform="translate(-220.07 200.96) rotate(-67.5)" style="fill:#84C49A"></circle><g style="opacity:0.2"><circle cx="40.34" cy="265.16" r="23.11" transform="translate(-220.07 200.96) rotate(-67.5)"></circle></g><path d="M62.84,270.44a23.11,23.11,0,1,1-39.41-21c1.61-1.73,1.71-1.8.13-.13a23.1,23.1,0,0,0,39.28,21.16Z" style="opacity:0.1"></path></g></g><g id="freepik--Windmill--inject-14"><g id="freepik--windmill--inject-14"><path d="M227.53,274.66a.61.61,0,0,1-.61-.57L214.6,118.2H205L192.73,274.09a.6.6,0,0,1-.67.56.62.62,0,0,1-.57-.66l12.36-156.45a.62.62,0,0,1,.62-.57h10.7a.62.62,0,0,1,.62.57L228.15,274a.61.61,0,0,1-.57.66Z" style="fill:#455a64"></path><path d="M218.84,164.64h-18a.62.62,0,0,1-.52-.95l8.81-13.86-6.81-10.73a.61.61,0,0,1,0-.64l6.85-11.71-5.17-8.85a.62.62,0,1,1,1.06-.63l4.82,8.25,4.82-8.25a.62.62,0,0,1,1.07.63l-5.17,8.85,6.84,11.71a.61.61,0,0,1,0,.64l-6.82,10.73,8.81,13.86a.62.62,0,0,1,0,.63A.61.61,0,0,1,218.84,164.64Zm-16.91-1.24h15.79L209.82,151Zm1.59-24.64,6.3,9.92,6.3-9.92L209.82,128Z" style="fill:#455a64"></path><path d="M198.1,198.8a.65.65,0,0,1-.32-.09.62.62,0,0,1-.2-.85l20.73-34.16a.63.63,0,0,1,.85-.21.62.62,0,0,1,.21.85L198.63,198.5A.62.62,0,0,1,198.1,198.8Z" style="fill:#455a64"></path><path d="M224.72,239.08h-29.8a.61.61,0,0,1-.54-.32.6.6,0,0,1,0-.63l14.67-22.22-11.49-17.39a.6.6,0,0,1,0-.63.63.63,0,0,1,.54-.33h22.34l-20.17-33.22a.62.62,0,1,1,1.06-.64l20.73,34.15a.61.61,0,0,1,.07.14h0a.5.5,0,0,1,0,.12h0a.61.61,0,0,1-.09.41l-11.5,17.39,14.68,22.22a.64.64,0,0,1,0,.63A.62.62,0,0,1,224.72,239.08Zm-28.65-1.23h27.5L209.82,217Zm3.18-39,10.57,16,10.57-16Z" style="fill:#455a64"></path><path d="M227.21,270.52a.66.66,0,0,1-.44-.17l-32.28-31.44a.62.62,0,0,1,.86-.89l32.29,31.44a.63.63,0,0,1,0,.88A.62.62,0,0,1,227.21,270.52Z" style="fill:#455a64"></path><path d="M192.44,270.52a.66.66,0,0,1-.45-.18.63.63,0,0,1,0-.88L224.29,238a.63.63,0,0,1,.88,0,.62.62,0,0,1,0,.87l-32.28,31.44A.65.65,0,0,1,192.44,270.52Z" style="fill:#455a64"></path><rect x="197.41" y="137.04" width="24.82" height="2.75" rx="1.26" style="fill:#455a64"></rect><path d="M209.82,274.65a.61.61,0,0,1-.62-.61V117.58a.62.62,0,0,1,1.24,0V274A.61.61,0,0,1,209.82,274.65Z" style="fill:#455a64"></path><path d="M207.47,93.72a2.36,2.36,0,1,1,2.35,2.36A2.35,2.35,0,0,1,207.47,93.72Z" style="fill:#455a64"></path><path d="M209.82,87.9s-3.82-7.34-2.35-10.81,4.22-6.09,4.71-4.29S209.82,87.9,209.82,87.9Z" style="fill:#455a64"></path><path d="M206.4,89s-7.4-3.7-8.26-7.36-.17-7.42,1.29-6.25S206.4,89,206.4,89Z" style="fill:#455a64"></path><path d="M204.29,91.93s-8.17,1.36-11-1.1-4.5-5.9-2.63-5.81S204.29,91.93,204.29,91.93Z" style="fill:#455a64"></path><path d="M204.29,95.52s-5.81,5.9-9.56,5.58S187.63,99,189.19,98,204.29,95.52,204.29,95.52Z" style="fill:#455a64"></path><path d="M206.4,98.43s-1.23,8.19-4.45,10.13-7,2.45-6.33.71S206.4,98.43,206.4,98.43Z" style="fill:#455a64"></path><path d="M209.82,99.54s3.82,7.35,2.36,10.81-4.22,6.1-4.71,4.3S209.82,99.54,209.82,99.54Z" style="fill:#455a64"></path><path d="M213.24,98.43s7.41,3.7,8.26,7.36.17,7.42-1.28,6.25S213.24,98.43,213.24,98.43Z" style="fill:#455a64"></path><path d="M215.36,95.52s8.16-1.36,11,1.1,4.49,5.9,2.63,5.81S215.36,95.52,215.36,95.52Z" style="fill:#455a64"></path><path d="M215.36,91.93s5.8-5.9,9.55-5.59,7.1,2.13,5.54,3.16S215.36,91.93,215.36,91.93Z" style="fill:#455a64"></path><path d="M213.24,89s1.23-8.19,4.45-10.13,7-2.46,6.34-.71S213.24,89,213.24,89Z" style="fill:#455a64"></path></g></g><g id="freepik--House--inject-14"><g id="freepik--house--inject-14"><g id="freepik--Side--inject-14"><polygon points="254.53 284.14 254.53 293.23 351.32 349.1 351.32 340.01 254.53 284.14" style="fill:#84C49A"></polygon><polygon points="254.53 284.14 254.53 293.23 351.32 349.1 351.32 340.01 254.53 284.14" style="opacity:0.45"></polygon><polygon points="329.01 228.35 283.8 163.51 254.53 179.19 254.53 287.17 329.01 330.17 329.01 228.35" style="fill:#e0e0e0"></polygon></g><g id="freepik--bathroom-window--inject-14"><polygon points="275.15 217.1 282.24 221.19 282.24 206.88 275.16 202.79 275.15 217.1" style="fill:#263238"></polygon><polygon points="275.74 216.76 281.66 220.18 281.66 207.22 275.74 203.79 275.74 216.76" style="fill:#37474f"></polygon><polygon points="275.15 213.03 282.24 217.12 282.24 217.79 275.15 213.7 275.15 213.03" style="fill:#263238"></polygon></g><g id="freepik--1rst-floor--inject-14"><polygon points="329.01 327.14 329.01 266.55 433.96 205.96 433.96 266.55 329.01 327.14" style="fill:#fafafa"></polygon><g id="freepik--Windows--inject-14"><g id="freepik--Window--inject-14"><polygon points="338.19 274.88 361.81 261.25 361.81 294.57 338.2 308.2 338.19 274.88" style="fill:#37474f"></polygon><polygon points="338.94 275.31 361.06 262.54 361.06 294.14 338.94 306.91 338.94 275.31" style="fill:#84C49A"></polygon><polygon points="338.94 275.31 361.06 262.54 361.06 294.14 338.94 306.91 338.94 275.31" style="fill:#fff;opacity:0.7000000000000001"></polygon><polygon points="350.38 267.85 349.63 268.28 349.63 301.61 350.38 301.17 350.38 267.85" style="fill:#37474f"></polygon><polygon points="338.75 290.79 338.75 291.65 361.25 278.66 361.25 277.8 338.75 290.79" style="fill:#37474f"></polygon></g><polygon points="338.2 308.2 340.82 309.72 364.44 296.09 361.81 294.57 338.2 308.2" style="fill:#455a64"></polygon><polygon points="338.2 308.2 340.82 309.72 340.82 310.66 338.2 309.15 338.2 308.2" style="fill:#263238"></polygon><polygon points="340.82 309.72 364.44 296.09 364.44 297.03 340.82 310.66 340.82 309.72" style="fill:#37474f"></polygon><g id="freepik--window--inject-14"><polygon points="401.17 238.53 424.78 224.89 424.78 258.22 401.17 271.85 401.17 238.53" style="fill:#37474f"></polygon><polygon points="401.91 238.96 424.03 226.18 424.03 257.79 401.91 270.56 401.91 238.96" style="fill:#84C49A"></polygon><polygon points="401.91 238.96 424.03 226.18 424.03 257.79 401.91 270.56 401.91 238.96" style="fill:#fff;opacity:0.7000000000000001"></polygon><polygon points="413.35 231.5 412.6 231.93 412.6 265.25 413.35 264.82 413.35 231.5" style="fill:#37474f"></polygon><polygon points="401.73 254.43 401.72 255.3 424.22 242.31 424.22 241.44 401.73 254.43" style="fill:#37474f"></polygon></g><polygon points="401.17 271.85 403.79 273.37 427.41 259.73 424.78 258.22 401.17 271.85" style="fill:#455a64"></polygon><polygon points="401.17 271.85 403.79 273.37 403.79 274.31 401.17 272.79 401.17 271.85" style="fill:#263238"></polygon><polygon points="403.79 273.37 427.41 259.73 427.41 260.68 403.79 274.31 403.79 273.37" style="fill:#37474f"></polygon></g><polygon points="390.67 244.18 390.67 291.49 372.31 302.08 372.3 254.79 390.67 244.18" style="fill:#e0e0e0"></polygon><polygon points="372.3 254.79 372.3 299.65 388.66 290.2 388.66 245.35 372.3 254.79" style="fill:#455a64"></polygon><path d="M375.39,296.3a.1.1,0,0,1-.07,0,.11.11,0,0,1-.06-.11.66.66,0,0,0-.23-.58.43.43,0,0,0-.43.05.15.15,0,0,1-.13,0,.13.13,0,0,1-.07-.12V280a.11.11,0,0,1,.07-.11,2,2,0,0,0,.79-1.53.13.13,0,0,1,.06-.11l10.19-5.88a.11.11,0,0,1,.13,0,.12.12,0,0,1,.07.11.64.64,0,0,0,.23.58.44.44,0,0,0,.43,0,.15.15,0,0,1,.13,0,.15.15,0,0,1,.07.12v15.49a.12.12,0,0,1-.07.11,1.92,1.92,0,0,0-.79,1.53.14.14,0,0,1-.07.11l-10.19,5.88A.07.07,0,0,1,375.39,296.3Zm-.52-1a.6.6,0,0,1,.29.08.82.82,0,0,1,.35.59l9.93-5.74a2.18,2.18,0,0,1,.86-1.63V273.36a.59.59,0,0,1-.49,0,.76.76,0,0,1-.35-.59l-9.94,5.74a2.2,2.2,0,0,1-.86,1.63v15.22A1,1,0,0,1,374.87,295.28Z" style="fill:#263238"></path><polygon points="388.66 290.2 390.67 291.49 372.3 302.04 372.3 299.51 388.66 290.2" style="fill:#263238"></polygon><polygon points="385.63 249.56 374.66 255.91 374.65 276.4 385.63 270.05 385.63 249.56" style="fill:#84C49A"></polygon><polygon points="385.63 249.56 374.66 255.91 374.65 276.4 385.63 270.05 385.63 249.56" style="fill:#fff;opacity:0.8"></polygon><polygon points="379.49 273.6 380.17 273.99 374.65 277.18 374.65 276.4 379.49 273.6" style="fill:#37474f"></polygon><polygon points="385.63 270.05 385.63 249.56 386.31 249.17 386.3 270.44 385.63 270.05" style="fill:#263238"></polygon><polygon points="385.63 270.05 386.3 270.44 380.84 273.6 380.84 272.82 385.63 270.05" style="fill:#37474f"></polygon><polygon points="380.17 273.99 380.84 273.6 380.84 252.33 380.17 252.72 380.17 273.99" style="fill:#455a64"></polygon><polygon points="380.17 273.99 379.49 273.6 379.49 253.11 380.17 252.72 380.17 273.99" style="fill:#263238"></polygon><polygon points="380.17 263.12 379.5 262.73 374.65 265.54 374.65 266.31 380.17 263.12" style="fill:#455a64"></polygon><polygon points="380.17 263.12 380.17 263.9 374.65 267.09 374.65 266.31 380.17 263.12" style="fill:#263238"></polygon><polygon points="386.3 259.57 385.63 259.19 380.84 261.96 380.84 262.73 386.3 259.57" style="fill:#455a64"></polygon><polygon points="386.3 259.57 386.3 260.35 380.84 263.51 380.84 262.73 386.3 259.57" style="fill:#263238"></polygon></g><g id="freepik--2nd-floor--inject-14"><polygon points="283.64 164.82 328.13 228.86 436.7 166.17 392.31 102.08 283.64 164.82" style="fill:#455a64"></polygon><polygon points="283.64 161.16 328.13 225.2 436.7 162.51 392.31 98.42 283.64 161.16" style="fill:#455a64"></polygon><polygon points="283.64 161.16 283.64 164.82 328.13 228.86 328.13 225.2 283.64 161.16" style="fill:#263238"></polygon><polygon points="328.13 225.2 436.7 162.51 436.7 166.17 328.13 228.86 328.13 225.2" style="fill:#37474f"></polygon><polygon points="251.9 181.68 283.64 164.82 283.64 161.16 251.9 178.01 251.9 181.68" style="fill:#263238"></polygon><polygon points="355.22 209.54 339.35 145.4 381.68 169.84 355.22 209.54" style="fill:#263238"></polygon><polygon points="381.68 173.5 381.68 169.84 355.22 209.54 355.22 213.21 381.68 173.5" style="fill:#37474f"></polygon><polygon points="408.13 182.67 408.13 179 381.68 169.84 381.68 173.5 408.13 182.67" style="fill:#263238"></polygon><polygon points="408.13 179 339.35 145.4 381.68 169.84 408.13 179" style="fill:#37474f"></polygon><polygon points="360.57 115.28 251.9 178.02 283.64 161.16 392.31 98.42 360.57 115.28" style="fill:#37474f"></polygon><polygon points="433.96 167.76 408.13 182.67 381.68 173.5 355.22 213.21 329.01 228.35 329.01 266.55 433.96 205.96 433.96 167.76" style="fill:#fafafa"></polygon><polygon points="367.66 202.56 398.6 184.7 398.6 217.57 367.66 235.43 367.66 202.56" style="fill:#263238"></polygon><polygon points="396.7 216.47 396.7 185.8 367.66 202.56 367.66 233.23 396.7 216.47" style="fill:#84C49A"></polygon><polygon points="396.7 216.47 396.7 185.8 367.66 202.56 367.66 233.23 396.7 216.47" style="fill:#fff;opacity:0.8"></polygon><polygon points="396.7 185.8 396.7 188.94 367.66 205.71 367.66 202.56 396.7 185.8" style="fill:#84C49A;opacity:0.30000000000000004"></polygon><polygon points="398.6 217.57 396.7 216.47 367.66 233.23 367.66 235.43 398.6 217.57" style="fill:#37474f"></polygon><polygon points="398.6 201.14 396.7 200.03 367.66 216.8 367.66 219 398.6 201.14" style="fill:#37474f"></polygon><polygon points="383.77 226.13 381.87 227.23 381.87 194.36 383.77 193.26 383.77 226.13" style="fill:#37474f"></polygon><polygon points="336.79 231.55 349.72 224.13 349.72 243.19 336.79 250.6 336.79 231.55" style="fill:#455a64"></polygon><polygon points="348.62 242.55 348.62 224.77 336.79 231.55 336.79 249.32 348.62 242.55" style="fill:#84C49A"></polygon><polygon points="348.62 242.55 348.62 224.77 336.79 231.55 336.79 249.32 348.62 242.55" style="fill:#fff;opacity:0.8"></polygon><polygon points="349.72 243.19 348.62 242.55 336.79 249.32 336.79 250.6 349.72 243.19" style="fill:#37474f"></polygon><polygon points="336.79 241.07 349.72 233.66 349.72 232.38 336.79 239.79 336.79 241.07" style="fill:#455a64"></polygon><polygon points="413.25 187.36 426.18 179.94 426.18 199 413.25 206.41 413.25 187.36" style="fill:#455a64"></polygon><polygon points="425.07 198.36 425.07 180.58 413.25 187.36 413.25 205.14 425.07 198.36" style="fill:#84C49A"></polygon><polygon points="425.07 198.36 425.07 180.58 413.25 187.36 413.25 205.14 425.07 198.36" style="fill:#fff;opacity:0.8"></polygon><polygon points="426.18 199 425.07 198.36 413.25 205.14 413.25 206.41 426.18 199" style="fill:#37474f"></polygon><polygon points="413.25 196.88 426.18 189.47 426.18 188.19 413.25 195.6 413.25 196.88" style="fill:#455a64"></polygon></g><g id="freepik--Porch--inject-14"><polygon points="388.05 327.9 351.32 349.1 351.32 340.01 388.05 318.81 388.05 327.9" style="fill:#84C49A"></polygon><polygon points="388.05 327.9 351.32 349.1 351.32 340.01 388.05 318.81 388.05 327.9" style="opacity:0.30000000000000004"></polygon><polygon points="419.53 309.72 453.64 290.03 453.64 280.94 419.53 300.63 419.53 309.72" style="fill:#84C49A"></polygon><polygon points="419.53 309.72 453.64 290.03 453.64 280.94 419.53 300.63 419.53 309.72" style="opacity:0.30000000000000004"></polygon><g id="freepik--floor--inject-14"><polygon points="456.26 279.42 419.53 300.63 419.53 303.66 456.26 282.45 456.26 279.42" style="fill:#e0e0e0"></polygon><polygon points="329.01 327.14 351.32 340.01 456.26 279.42 433.96 266.55 329.01 327.14" style="fill:#f0f0f0"></polygon><polygon points="388.05 318.81 351.32 340.01 351.32 343.04 388.05 321.84 388.05 318.81" style="fill:#e0e0e0"></polygon><polygon points="329.01 327.14 351.32 340.01 351.32 343.04 329.01 330.17 329.01 327.14" style="fill:#e0e0e0"></polygon><polygon points="329.01 327.14 351.32 340.01 351.32 343.04 329.01 330.17 329.01 327.14" style="opacity:0.1"></polygon></g><g id="freepik--Stairs--inject-14"><polygon points="388.05 318.81 393.3 321.84 424.78 303.66 419.53 300.63 388.05 318.81" style="fill:#f0f0f0"></polygon><polygon points="424.78 303.66 424.78 306.69 393.3 324.87 393.3 321.84 424.78 303.66" style="fill:#e0e0e0"></polygon><polygon points="430.03 309.72 430.03 312.75 398.54 330.93 398.54 327.9 430.03 309.72" style="fill:#e0e0e0"></polygon><polygon points="393.3 324.87 398.54 327.9 430.03 309.72 424.78 306.69 393.3 324.87" style="fill:#f0f0f0"></polygon><polygon points="435.27 315.78 435.27 318.81 403.79 336.98 403.79 333.95 435.27 315.78" style="fill:#e0e0e0"></polygon><polygon points="398.54 330.93 403.79 333.95 435.27 315.78 430.03 312.75 398.54 330.93" style="fill:#f0f0f0"></polygon><polygon points="388.05 318.81 388.05 327.9 403.79 336.98 403.79 333.95 398.54 330.93 398.54 327.9 393.3 324.87 393.3 321.84 388.05 318.81" style="fill:#e0e0e0"></polygon><polygon points="388.05 318.81 388.05 327.9 403.79 336.98 403.79 333.95 398.54 330.93 398.54 327.9 393.3 324.87 393.3 321.84 388.05 318.81" style="opacity:0.1"></polygon></g><g id="freepik--Poles--inject-14"><polygon points="451.01 278.43 446.63 275.88 442.24 278.4 442.24 279.4 446.63 281.94 451.01 279.42 451.01 278.43" style="fill:#37474f"></polygon><polygon points="446.63 280.95 442.24 278.4 446.63 275.88 451.01 278.43 446.63 280.95" style="fill:#455a64"></polygon><polygon points="446.63 281.94 446.63 280.95 442.24 278.4 442.24 279.4 446.63 281.94" style="fill:#263238"></polygon><polygon points="427.4 268.18 428.49 267.55 446.86 278.15 446.86 278.79 445.77 279.42 427.4 268.82 427.4 268.18" style="fill:#37474f"></polygon><polygon points="427.4 268.18 445.77 278.78 446.86 278.15 428.49 267.55 427.4 268.18" style="fill:#455a64"></polygon><path d="M429.45,255.52a.41.41,0,0,1,.4,0c.06,0,.09.07.09.11v13.28a.15.15,0,0,1-.09.12.47.47,0,0,1-.4,0,.15.15,0,0,1-.09-.12V255.63S429.39,255.55,429.45,255.52Z" style="fill:#263238"></path><path d="M429.85,255.75c.12-.06.12-.17,0-.23a.41.41,0,0,0-.4,0,.12.12,0,0,0,0,.23A.41.41,0,0,0,429.85,255.75Z" style="fill:#455a64"></path><path d="M432.07,257a.49.49,0,0,1,.41,0,.15.15,0,0,1,.08.12v13.28a.14.14,0,0,1-.08.11.43.43,0,0,1-.41,0,.14.14,0,0,1-.08-.11V257.15A.15.15,0,0,1,432.07,257Z" style="fill:#263238"></path><ellipse cx="432.27" cy="257.15" rx="0.29" ry="0.17" style="fill:#455a64"></ellipse><path d="M434.7,258.55a.41.41,0,0,1,.4,0,.12.12,0,0,1,.08.11v13.28a.13.13,0,0,1-.08.12.47.47,0,0,1-.4,0,.15.15,0,0,1-.09-.12V258.66S434.64,258.58,434.7,258.55Z" style="fill:#263238"></path><path d="M435.1,258.78a.12.12,0,0,0,0-.23.41.41,0,0,0-.4,0c-.12.06-.12.17,0,.23A.41.41,0,0,0,435.1,258.78Z" style="fill:#455a64"></path><path d="M437.32,260.06a.47.47,0,0,1,.4,0,.15.15,0,0,1,.09.12v13.27a.14.14,0,0,1-.09.12.41.41,0,0,1-.4,0,.12.12,0,0,1-.08-.12V260.18A.13.13,0,0,1,437.32,260.06Z" style="fill:#263238"></path><ellipse cx="437.52" cy="260.18" rx="0.29" ry="0.17" style="fill:#455a64"></ellipse><path d="M439.94,261.58a.43.43,0,0,1,.41,0,.14.14,0,0,1,.08.11V275a.17.17,0,0,1-.08.12.49.49,0,0,1-.41,0,.17.17,0,0,1-.08-.12V261.69A.14.14,0,0,1,439.94,261.58Z" style="fill:#263238"></path><path d="M440.35,261.81a.12.12,0,0,0,0-.23.43.43,0,0,0-.41,0,.12.12,0,0,0,0,.23A.49.49,0,0,0,440.35,261.81Z" style="fill:#455a64"></path><path d="M442.57,263.09a.47.47,0,0,1,.4,0,.15.15,0,0,1,.09.12v13.27a.14.14,0,0,1-.09.12.41.41,0,0,1-.4,0,.14.14,0,0,1-.09-.12V263.21A.14.14,0,0,1,442.57,263.09Z" style="fill:#263238"></path><path d="M443,263.32c.11-.06.11-.16,0-.23a.47.47,0,0,0-.4,0c-.12.07-.12.17,0,.23A.41.41,0,0,0,443,263.32Z" style="fill:#455a64"></path><polygon points="427.4 254.85 428.49 254.23 446.86 264.83 446.86 265.47 445.77 266.1 427.4 255.5 427.4 254.85" style="fill:#37474f"></polygon><polygon points="427.4 254.85 445.77 265.46 446.86 264.83 428.49 254.23 427.4 254.85" style="fill:#455a64"></polygon><polygon points="355.7 333.47 351.32 330.93 346.93 333.44 346.93 334.44 351.32 336.98 355.7 334.46 355.7 333.47" style="fill:#37474f"></polygon><polygon points="351.32 335.99 346.93 333.44 351.32 330.93 355.7 333.47 351.32 335.99" style="fill:#455a64"></polygon><polygon points="351.32 336.98 351.32 335.99 346.93 333.44 346.93 334.44 351.32 336.98" style="fill:#263238"></polygon><polygon points="385.43 316.3 381.04 313.75 376.65 316.27 376.65 317.27 381.04 319.81 385.43 317.29 385.43 316.3" style="fill:#37474f"></polygon><polygon points="381.04 318.82 376.65 316.27 381.04 313.75 385.43 316.3 381.04 318.82" style="fill:#455a64"></polygon><polygon points="381.04 319.81 381.04 318.82 376.65 316.27 376.65 317.27 381.04 319.81" style="fill:#263238"></polygon><path d="M382.42,259.07a3.05,3.05,0,0,0-2.76,0,1,1,0,0,0-.57.8v56.42a1,1,0,0,0,.57.8,3.05,3.05,0,0,0,2.76,0,1,1,0,0,0,.57-.8V259.86A1,1,0,0,0,382.42,259.07Z" style="fill:#37474f"></path><path d="M379.66,260.67a.84.84,0,0,1,0-1.6,3.05,3.05,0,0,1,2.76,0,.85.85,0,0,1,0,1.6A3.05,3.05,0,0,1,379.66,260.67Z" style="fill:#455a64"></path><path d="M448,221.2a3.05,3.05,0,0,0-2.76,0,1,1,0,0,0-.57.8v56.42a1,1,0,0,0,.57.8,3.05,3.05,0,0,0,2.76,0,1,1,0,0,0,.57-.8V222A1,1,0,0,0,448,221.2Z" style="fill:#37474f"></path><path d="M445.25,222.8a.84.84,0,0,1,0-1.6,3.05,3.05,0,0,1,2.76,0,.85.85,0,0,1,0,1.6A3.05,3.05,0,0,1,445.25,222.8Z" style="fill:#455a64"></path><polygon points="380.18 316.65 379.09 316.03 350.23 332.69 350.23 333.33 351.32 333.95 380.18 317.29 380.18 316.65" style="fill:#37474f"></polygon><polygon points="380.18 316.65 351.32 333.31 350.23 332.69 379.09 316.03 380.18 316.65" style="fill:#455a64"></polygon><path d="M378.13,304a.47.47,0,0,0-.4,0,.15.15,0,0,0-.09.12v13.28s0,.08.09.11a.41.41,0,0,0,.4,0c.06,0,.09-.07.09-.11V304.11A.15.15,0,0,0,378.13,304Z" style="fill:#263238"></path><path d="M377.73,304.23a.13.13,0,0,1,0-.24.47.47,0,0,1,.4,0,.13.13,0,0,1,0,.24A.47.47,0,0,1,377.73,304.23Z" style="fill:#455a64"></path><path d="M375.51,305.51a.43.43,0,0,0-.41,0,.14.14,0,0,0-.08.11V318.9a.17.17,0,0,0,.08.12.49.49,0,0,0,.41,0,.14.14,0,0,0,.08-.12V305.62A.14.14,0,0,0,375.51,305.51Z" style="fill:#263238"></path><path d="M375.1,305.74a.12.12,0,0,1,0-.23.43.43,0,0,1,.41,0,.12.12,0,0,1,0,.23A.43.43,0,0,1,375.1,305.74Z" style="fill:#455a64"></path><path d="M372.89,307a.49.49,0,0,0-.41,0,.13.13,0,0,0-.08.12v13.27a.12.12,0,0,0,.08.12.43.43,0,0,0,.41,0,.14.14,0,0,0,.08-.12V307.14A.15.15,0,0,0,372.89,307Z" style="fill:#263238"></path><path d="M372.48,307.26a.13.13,0,0,1,0-.24.49.49,0,0,1,.41,0,.13.13,0,0,1,0,.24A.49.49,0,0,1,372.48,307.26Z" style="fill:#455a64"></path><path d="M370.26,308.54a.41.41,0,0,0-.4,0c-.06,0-.09.07-.09.11v13.28s0,.08.09.12a.47.47,0,0,0,.4,0q.09-.06.09-.12V308.65S370.32,308.57,370.26,308.54Z" style="fill:#263238"></path><ellipse cx="370.06" cy="308.65" rx="0.29" ry="0.17" style="fill:#455a64"></ellipse><path d="M367.64,310.05a.49.49,0,0,0-.41,0,.15.15,0,0,0-.08.12v13.27a.14.14,0,0,0,.08.12.43.43,0,0,0,.41,0,.14.14,0,0,0,.08-.12V310.17A.14.14,0,0,0,367.64,310.05Z" style="fill:#263238"></path><ellipse cx="367.44" cy="310.17" rx="0.29" ry="0.17" style="fill:#455a64"></ellipse><path d="M365,311.57a.41.41,0,0,0-.4,0,.12.12,0,0,0-.08.11V325a.14.14,0,0,0,.08.12.47.47,0,0,0,.4,0q.09-.06.09-.12V311.68S365.07,311.6,365,311.57Z" style="fill:#263238"></path><ellipse cx="364.81" cy="311.68" rx="0.29" ry="0.17" style="fill:#455a64"></ellipse><path d="M362.39,313.08a.47.47,0,0,0-.4,0,.14.14,0,0,0-.09.12v13.27a.14.14,0,0,0,.09.12.41.41,0,0,0,.4,0,.12.12,0,0,0,.08-.12V313.2A.12.12,0,0,0,362.39,313.08Z" style="fill:#263238"></path><path d="M362,313.31c-.12-.06-.12-.17,0-.23a.47.47,0,0,1,.4,0,.12.12,0,0,1,0,.23A.41.41,0,0,1,362,313.31Z" style="fill:#455a64"></path><path d="M359.77,314.59a.49.49,0,0,0-.41,0,.17.17,0,0,0-.08.12V328a.17.17,0,0,0,.08.12.49.49,0,0,0,.41,0,.17.17,0,0,0,.08-.12V314.71A.17.17,0,0,0,359.77,314.59Z" style="fill:#263238"></path><path d="M359.36,314.83a.13.13,0,0,1,0-.24.49.49,0,0,1,.41,0,.13.13,0,0,1,0,.24A.49.49,0,0,1,359.36,314.83Z" style="fill:#455a64"></path><path d="M357.14,316.11a.41.41,0,0,0-.4,0,.14.14,0,0,0-.09.12V329.5a.14.14,0,0,0,.09.12.41.41,0,0,0,.4,0,.14.14,0,0,0,.09-.12V316.23A.14.14,0,0,0,357.14,316.11Z" style="fill:#263238"></path><path d="M356.74,316.34a.12.12,0,0,1,0-.23.41.41,0,0,1,.4,0c.12.06.12.17,0,.23A.41.41,0,0,1,356.74,316.34Z" style="fill:#455a64"></path><path d="M354.52,317.62a.49.49,0,0,0-.41,0,.17.17,0,0,0-.08.12V331a.17.17,0,0,0,.08.12.49.49,0,0,0,.41,0,.14.14,0,0,0,.08-.12V317.74A.14.14,0,0,0,354.52,317.62Z" style="fill:#263238"></path><path d="M354.11,317.86a.13.13,0,0,1,0-.24.49.49,0,0,1,.41,0,.13.13,0,0,1,0,.24A.49.49,0,0,1,354.11,317.86Z" style="fill:#455a64"></path><polygon points="380.18 303.33 379.09 302.7 350.23 319.36 350.23 320 351.32 320.63 380.18 303.97 380.18 303.33" style="fill:#37474f"></polygon><polygon points="380.18 303.33 351.32 319.99 350.23 319.36 379.09 302.7 380.18 303.33" style="fill:#455a64"></polygon><polygon points="332.95 322.71 334.04 322.09 352.4 332.69 352.4 333.33 351.32 333.95 332.95 323.35 332.95 322.71" style="fill:#37474f"></polygon><polygon points="332.95 322.71 351.32 333.31 352.4 332.69 334.04 322.09 332.95 322.71" style="fill:#455a64"></polygon><path d="M335,310.05a.47.47,0,0,1,.4,0,.15.15,0,0,1,.09.12v13.27a.14.14,0,0,1-.09.12.41.41,0,0,1-.4,0,.14.14,0,0,1-.09-.12V310.17A.14.14,0,0,1,335,310.05Z" style="fill:#263238"></path><path d="M335.4,310.28c.12-.06.12-.16,0-.23a.47.47,0,0,0-.4,0c-.11.07-.11.17,0,.23A.41.41,0,0,0,335.4,310.28Z" style="fill:#455a64"></path><path d="M337.62,311.57a.43.43,0,0,1,.41,0,.14.14,0,0,1,.08.11V325a.17.17,0,0,1-.08.12.49.49,0,0,1-.41,0,.17.17,0,0,1-.08-.12V311.68A.14.14,0,0,1,337.62,311.57Z" style="fill:#263238"></path><ellipse cx="337.82" cy="311.68" rx="0.29" ry="0.17" style="fill:#455a64"></ellipse><path d="M340.25,313.08a.47.47,0,0,1,.4,0,.12.12,0,0,1,.08.12v13.27a.12.12,0,0,1-.08.12.41.41,0,0,1-.4,0,.14.14,0,0,1-.09-.12V313.2A.14.14,0,0,1,340.25,313.08Z" style="fill:#263238"></path><path d="M340.65,313.31a.12.12,0,0,0,0-.23.47.47,0,0,0-.4,0c-.12.06-.12.17,0,.23A.41.41,0,0,0,340.65,313.31Z" style="fill:#455a64"></path><path d="M342.87,314.59a.47.47,0,0,1,.4,0q.09.06.09.12V328s0,.08-.09.12a.47.47,0,0,1-.4,0,.14.14,0,0,1-.08-.12V314.71A.14.14,0,0,1,342.87,314.59Z" style="fill:#263238"></path><path d="M343.27,314.83c.12-.07.12-.17,0-.24a.47.47,0,0,0-.4,0,.13.13,0,0,0,0,.24A.47.47,0,0,0,343.27,314.83Z" style="fill:#455a64"></path><path d="M345.49,316.11a.43.43,0,0,1,.41,0,.14.14,0,0,1,.08.12V329.5a.14.14,0,0,1-.08.12.43.43,0,0,1-.41,0,.14.14,0,0,1-.08-.12V316.23A.14.14,0,0,1,345.49,316.11Z" style="fill:#263238"></path><path d="M345.9,316.34a.12.12,0,0,0,0-.23.43.43,0,0,0-.41,0,.12.12,0,0,0,0,.23A.43.43,0,0,0,345.9,316.34Z" style="fill:#455a64"></path><path d="M348.12,317.62a.47.47,0,0,1,.4,0q.09.06.09.12V331s0,.08-.09.12a.47.47,0,0,1-.4,0q-.09-.06-.09-.12V317.74S348.06,317.66,348.12,317.62Z" style="fill:#263238"></path><ellipse cx="348.32" cy="317.74" rx="0.29" ry="0.17" style="fill:#455a64"></ellipse><polygon points="332.95 309.39 334.04 308.76 352.4 319.36 352.4 320 351.32 320.63 332.95 310.03 332.95 309.39" style="fill:#37474f"></polygon><polygon points="332.95 309.39 351.32 319.99 352.4 319.36 334.04 308.76 332.95 309.39" style="fill:#455a64"></polygon><polygon points="445.77 278.78 444.68 278.16 415.82 294.82 415.82 295.46 416.91 296.09 445.77 279.42 445.77 278.78" style="fill:#37474f"></polygon><polygon points="445.77 278.78 416.91 295.45 415.82 294.82 444.68 278.16 445.77 278.78" style="fill:#455a64"></polygon><path d="M443.72,266.12a.47.47,0,0,0-.4,0q-.09.06-.09.12v13.28s0,.08.09.11a.41.41,0,0,0,.4,0c.06,0,.09-.07.09-.11V266.24S443.78,266.16,443.72,266.12Z" style="fill:#263238"></path><path d="M443.32,266.36a.13.13,0,0,1,0-.24.47.47,0,0,1,.4,0c.12.07.12.17,0,.24A.47.47,0,0,1,443.32,266.36Z" style="fill:#455a64"></path><path d="M441.1,267.64a.43.43,0,0,0-.41,0,.14.14,0,0,0-.08.11V281a.15.15,0,0,0,.08.12.49.49,0,0,0,.41,0,.13.13,0,0,0,.08-.12V267.75A.12.12,0,0,0,441.1,267.64Z" style="fill:#263238"></path><path d="M440.69,267.87a.12.12,0,0,1,0-.23.43.43,0,0,1,.41,0,.12.12,0,0,1,0,.23A.43.43,0,0,1,440.69,267.87Z" style="fill:#455a64"></path><path d="M438.48,269.15a.49.49,0,0,0-.41,0,.13.13,0,0,0-.08.12v13.28a.12.12,0,0,0,.08.11.43.43,0,0,0,.41,0,.14.14,0,0,0,.08-.11V269.27A.15.15,0,0,0,438.48,269.15Z" style="fill:#263238"></path><path d="M438.07,269.39a.13.13,0,0,1,0-.24.49.49,0,0,1,.41,0,.13.13,0,0,1,0,.24A.49.49,0,0,1,438.07,269.39Z" style="fill:#455a64"></path><path d="M435.85,270.67a.41.41,0,0,0-.4,0c-.06,0-.09.07-.09.11v13.28a.15.15,0,0,0,.09.12.47.47,0,0,0,.4,0,.15.15,0,0,0,.09-.12V270.78S435.91,270.7,435.85,270.67Z" style="fill:#263238"></path><path d="M435.45,270.9a.12.12,0,0,1,0-.23.41.41,0,0,1,.4,0,.12.12,0,0,1,0,.23A.41.41,0,0,1,435.45,270.9Z" style="fill:#455a64"></path><path d="M433.23,272.18a.49.49,0,0,0-.41,0,.15.15,0,0,0-.08.12v13.28a.14.14,0,0,0,.08.11.43.43,0,0,0,.41,0,.14.14,0,0,0,.08-.11V272.3A.15.15,0,0,0,433.23,272.18Z" style="fill:#263238"></path><path d="M432.82,272.42a.13.13,0,0,1,0-.24.49.49,0,0,1,.41,0,.13.13,0,0,1,0,.24A.49.49,0,0,1,432.82,272.42Z" style="fill:#455a64"></path><path d="M430.61,273.7a.43.43,0,0,0-.41,0,.12.12,0,0,0-.08.11v13.28a.13.13,0,0,0,.08.12.49.49,0,0,0,.41,0,.15.15,0,0,0,.08-.12V273.81A.14.14,0,0,0,430.61,273.7Z" style="fill:#263238"></path><path d="M430.2,273.93a.12.12,0,0,1,0-.23.43.43,0,0,1,.41,0,.12.12,0,0,1,0,.23A.43.43,0,0,1,430.2,273.93Z" style="fill:#455a64"></path><path d="M428,275.21a.47.47,0,0,0-.4,0,.15.15,0,0,0-.09.12v13.28s0,.08.09.11a.41.41,0,0,0,.4,0c.06,0,.09-.07.09-.11V275.33A.15.15,0,0,0,428,275.21Z" style="fill:#263238"></path><path d="M427.58,275.45c-.12-.07-.12-.17,0-.24a.47.47,0,0,1,.4,0,.13.13,0,0,1,0,.24A.47.47,0,0,1,427.58,275.45Z" style="fill:#455a64"></path><path d="M425.36,276.73a.43.43,0,0,0-.41,0,.14.14,0,0,0-.08.11v13.28a.17.17,0,0,0,.08.12.49.49,0,0,0,.41,0,.17.17,0,0,0,.08-.12V276.84A.14.14,0,0,0,425.36,276.73Z" style="fill:#263238"></path><path d="M425,277a.12.12,0,0,1,0-.23.43.43,0,0,1,.41,0,.12.12,0,0,1,0,.23A.49.49,0,0,1,425,277Z" style="fill:#455a64"></path><path d="M422.73,278.24a.47.47,0,0,0-.4,0,.13.13,0,0,0-.08.12v13.27a.12.12,0,0,0,.08.12.41.41,0,0,0,.4,0,.14.14,0,0,0,.09-.12V278.36A.15.15,0,0,0,422.73,278.24Z" style="fill:#263238"></path><path d="M422.33,278.48a.13.13,0,0,1,0-.24.47.47,0,0,1,.4,0c.12.07.12.17,0,.24A.47.47,0,0,1,422.33,278.48Z" style="fill:#455a64"></path><path d="M420.11,279.76a.41.41,0,0,0-.4,0c-.06,0-.09.07-.09.11v13.28s0,.08.09.12a.47.47,0,0,0,.4,0,.14.14,0,0,0,.08-.12V279.87A.12.12,0,0,0,420.11,279.76Z" style="fill:#263238"></path><path d="M419.71,280c-.12-.06-.12-.17,0-.23a.41.41,0,0,1,.4,0,.12.12,0,0,1,0,.23A.47.47,0,0,1,419.71,280Z" style="fill:#455a64"></path><polygon points="445.77 265.46 444.68 264.83 415.82 281.49 415.82 282.13 416.91 282.76 445.77 266.1 445.77 265.46" style="fill:#37474f"></polygon><polygon points="445.77 265.46 416.91 282.12 415.82 281.49 444.68 264.83 445.77 265.46" style="fill:#455a64"></polygon><path d="M352.7,276.24a3.05,3.05,0,0,0-2.76,0,1,1,0,0,0-.57.8v56.42a1,1,0,0,0,.57.8,3.05,3.05,0,0,0,2.76,0,1,1,0,0,0,.57-.8V277A1,1,0,0,0,352.7,276.24Z" style="fill:#37474f"></path><path d="M349.94,277.84a.84.84,0,0,1,0-1.6,3.05,3.05,0,0,1,2.76,0,.85.85,0,0,1,0,1.6A3.05,3.05,0,0,1,349.94,277.84Z" style="fill:#455a64"></path><polygon points="421.3 295.6 416.91 293.06 412.52 295.58 412.52 296.57 416.91 299.12 421.3 296.6 421.3 295.6" style="fill:#37474f"></polygon><polygon points="416.91 298.12 412.52 295.58 416.91 293.06 421.3 295.6 416.91 298.12" style="fill:#455a64"></polygon><polygon points="416.91 299.12 416.91 298.12 412.52 295.58 412.52 296.57 416.91 299.12" style="fill:#263238"></polygon><path d="M418.29,238.38a3.05,3.05,0,0,0-2.76,0,.94.94,0,0,0-.57.79V295.6a1,1,0,0,0,.57.79,3.05,3.05,0,0,0,2.76,0,1,1,0,0,0,.57-.79V239.17A1,1,0,0,0,418.29,238.38Z" style="fill:#37474f"></path><path d="M415.53,240a.84.84,0,0,1,0-1.59,3.05,3.05,0,0,1,2.76,0,.84.84,0,0,1,0,1.59A3.05,3.05,0,0,1,415.53,240Z" style="fill:#455a64"></path></g><g id="freepik--Snow--inject-14"><polygon points="329.01 261.71 351.32 280.57 456.26 219.98 433.96 201.12 329.01 261.71" style="fill:#455a64"></polygon><polygon points="456.26 219.98 351.32 280.57 351.32 283.6 456.26 223.01 456.26 219.98" style="fill:#37474f"></polygon><polygon points="329.01 261.71 351.32 280.57 351.32 283.6 329.01 264.74 329.01 261.71" style="fill:#263238"></polygon></g></g><g id="freepik--window--inject-14"><polygon points="283.62 255.47 260.01 241.84 260.01 275.16 283.62 288.8 283.62 255.47" style="fill:#37474f"></polygon><polygon points="282.88 255.9 260.75 243.13 260.75 274.73 282.88 287.5 282.88 255.9" style="fill:#84C49A"></polygon><polygon points="282.88 255.9 260.75 243.13 260.75 274.73 282.88 287.5 282.88 255.9" style="fill:#fff;opacity:0.5"></polygon><polygon points="271.44 248.44 272.19 248.87 272.19 282.2 271.44 281.77 271.44 248.44" style="fill:#37474f"></polygon><polygon points="283.06 271.38 283.07 272.25 260.57 259.25 260.56 258.39 283.06 271.38" style="fill:#37474f"></polygon></g><polygon points="283.62 288.8 280.99 290.31 257.38 276.68 260.01 275.16 283.62 288.8" style="fill:#455a64"></polygon><polygon points="283.62 288.8 280.99 290.31 280.99 291.25 283.62 289.74 283.62 288.8" style="fill:#263238"></polygon><polygon points="280.99 290.31 257.38 276.68 257.38 277.62 280.99 291.25 280.99 290.31" style="fill:#37474f"></polygon><g id="freepik--Flue--inject-14"><g id="freepik--flue--inject-14"><polygon points="310.18 298.87 310.18 331.47 315.48 328.41 315.48 295.78 310.18 298.87" style="fill:#84C49A"></polygon><polygon points="310.18 298.87 310.18 331.47 315.48 328.41 315.48 295.78 310.18 298.87" style="fill:#fff;opacity:0.35000000000000003"></polygon><polygon points="305.71 282.02 300.35 285.12 310.18 298.87 315.48 295.78 305.71 282.02" style="fill:#84C49A"></polygon><polygon points="305.71 282.02 300.35 285.12 310.18 298.87 315.48 295.78 305.71 282.02" style="opacity:0.1"></polygon><polygon points="305.71 282.02 300.35 285.12 310.18 298.87 315.48 295.78 305.71 282.02" style="fill:#fff;opacity:0.7000000000000001"></polygon><polygon points="310.18 298.87 300.35 285.12 300.34 173.38 288.04 166.26 288.04 278 278.7 280.7 278.7 313.29 310.18 331.47 310.18 298.87" style="fill:#84C49A"></polygon><polygon points="310.18 298.87 300.35 285.12 300.34 173.38 288.04 166.26 288.04 278 278.7 280.7 278.7 313.29 310.18 331.47 310.18 298.87" style="fill:#fff;opacity:0.25"></polygon><g style="opacity:0.8"><path d="M298.43,210v.56a.61.61,0,0,0,.27.48l1.64,1v-1.2l-1.64-.95C298.55,209.75,298.43,209.82,298.43,210Z" style="fill:#84C49A;opacity:0.6000000000000001"></path><path d="M299.09,188v.56a.64.64,0,0,0,.28.48l1,.56v-1.2l-1-.56C299.22,187.72,299.09,187.79,299.09,188Z" style="fill:#84C49A;opacity:0.6000000000000001"></path><path d="M292.57,224.32v.56a.6.6,0,0,0,.28.48l2.57,1.48c.15.09.27,0,.27-.16v-.56a.61.61,0,0,0-.27-.48l-2.57-1.48C292.69,224.07,292.57,224.14,292.57,224.32Z" style="fill:#84C49A;opacity:0.6000000000000001"></path><path d="M290,188.39V189a.62.62,0,0,0,.28.48l2.57,1.48c.15.09.27,0,.27-.16v-.56a.61.61,0,0,0-.27-.48l-2.57-1.48C290.16,188.14,290,188.21,290,188.39Z" style="fill:#84C49A;opacity:0.6000000000000001"></path><path d="M300.15,239v.56a.6.6,0,0,0,.19.4v-1.15C300.23,238.82,300.15,238.89,300.15,239Z" style="fill:#84C49A;opacity:0.6000000000000001"></path><path d="M294.29,215v.56a.58.58,0,0,0,.28.48l2.56,1.49c.16.09.28,0,.28-.16v-.56a.58.58,0,0,0-.28-.48l-2.56-1.49C294.41,214.73,294.29,214.81,294.29,215Z" style="fill:#84C49A;opacity:0.6000000000000001"></path><path d="M298.43,221.81v.56a.63.63,0,0,0,.27.48l1.64,1v-1.21l-1.64-.94C298.55,221.56,298.43,221.63,298.43,221.81Z" style="fill:#84C49A;opacity:0.6000000000000001"></path><path d="M299.48,263v.56a.61.61,0,0,0,.28.48l.59.34v-1.2l-.58-.34A.17.17,0,0,0,299.48,263Z" style="fill:#84C49A;opacity:0.6000000000000001"></path><path d="M300.15,209.52v.56a.6.6,0,0,0,.19.4v-1.15C300.23,209.31,300.15,209.38,300.15,209.52Z" style="fill:#84C49A;opacity:0.6000000000000001"></path><path d="M300.34,252.59v-1.21l-.58-.33c-.15-.09-.28,0-.28.16v.56a.64.64,0,0,0,.28.48Z" style="fill:#84C49A;opacity:0.6000000000000001"></path><path d="M298.43,234.17a.63.63,0,0,0,.27.49l1.64.94v-1.2l-1.64-1c-.15-.08-.27,0-.27.16Z" style="fill:#84C49A;opacity:0.6000000000000001"></path><path d="M296.75,267.89v-.56a.61.61,0,0,0-.28-.48l-2.57-1.49a.17.17,0,0,0-.28.16v.56a.61.61,0,0,0,.28.48l2.57,1.49A.17.17,0,0,0,296.75,267.89Z" style="fill:#84C49A;opacity:0.6000000000000001"></path><path d="M295.13,280.24v-.56a.62.62,0,0,0-.28-.48l-2.57-1.48c-.15-.09-.28,0-.28.16v.56a.62.62,0,0,0,.28.48l2.57,1.48C295,280.49,295.13,280.42,295.13,280.24Z" style="fill:#84C49A;opacity:0.6000000000000001"></path><path d="M294.46,283.55V283a.61.61,0,0,0-.28-.48L291.62,281c-.16-.09-.28,0-.28.16v.56a.6.6,0,0,0,.28.48l2.56,1.48C294.34,283.8,294.46,283.73,294.46,283.55Z" style="fill:#84C49A;opacity:0.6000000000000001"></path><path d="M300.34,258.77l-2.2-1.27c-.16-.09-.28,0-.28.16v.56a.61.61,0,0,0,.28.48l2.2,1.27Z" style="fill:#84C49A;opacity:0.6000000000000001"></path><path d="M300.35,276.2V275l-.59-.34c-.15-.09-.28,0-.28.16v.56a.62.62,0,0,0,.28.48Z" style="fill:#84C49A;opacity:0.6000000000000001"></path><path d="M289.22,288.24c.15.09.28,0,.28-.16v-.56a.62.62,0,0,0-.28-.48l-2.57-1.49c-.15-.08-.27,0-.27.16v.57a.63.63,0,0,0,.27.48Z" style="fill:#84C49A;opacity:0.6000000000000001"></path><path d="M288,197.77V199l1.31.76c.15.08.27,0,.27-.16V199a.63.63,0,0,0-.27-.48Z" style="fill:#84C49A;opacity:0.6000000000000001"></path><path d="M279.42,283.68v-.56a.61.61,0,0,0-.27-.48l-.45-.26v1.2l.45.26C279.3,283.93,279.42,283.86,279.42,283.68Z" style="fill:#84C49A;opacity:0.6000000000000001"></path><path d="M292.56,290.16c.15.09.28,0,.28-.16v-.56a.64.64,0,0,0-.28-.48L290,287.48c-.15-.09-.27,0-.27.16v.56a.61.61,0,0,0,.27.48Z" style="fill:#84C49A;opacity:0.6000000000000001"></path><path d="M291.12,287.53V287a.6.6,0,0,0-.28-.48L288.27,285c-.15-.09-.27,0-.27.16v.56a.61.61,0,0,0,.27.48l2.57,1.48C291,287.78,291.12,287.71,291.12,287.53Z" style="fill:#84C49A;opacity:0.6000000000000001"></path><path d="M290.68,260.87a.64.64,0,0,0-.28-.48L288,259v1.2l2.36,1.36c.15.09.28,0,.28-.16Z" style="fill:#84C49A;opacity:0.6000000000000001"></path><path d="M291,213.62a.6.6,0,0,0,.28.48l2.56,1.48c.16.09.28,0,.28-.16v-.56a.6.6,0,0,0-.28-.48l-2.56-1.48c-.16-.09-.28,0-.28.16Z" style="fill:#84C49A;opacity:0.6000000000000001"></path><path d="M295.37,194v.56a.58.58,0,0,0,.28.48l2.56,1.49c.16.09.28,0,.28-.16v-.56a.61.61,0,0,0-.28-.49l-2.56-1.48C295.49,193.72,295.37,193.8,295.37,194Z" style="fill:#84C49A;opacity:0.6000000000000001"></path><path d="M292,192.61a.61.61,0,0,0,.28.48l2.56,1.48c.16.09.28,0,.28-.16v-.56a.6.6,0,0,0-.28-.48l-2.56-1.48c-.16-.09-.28,0-.28.16Z" style="fill:#84C49A;opacity:0.6000000000000001"></path><path d="M288,219.64l1.31.75c.15.09.27,0,.27-.16v-.56a.6.6,0,0,0-.27-.48l-1.31-.76Z" style="fill:#84C49A;opacity:0.6000000000000001"></path><path d="M291.07,211.05c.15.09.27,0,.27-.16v-.56a.61.61,0,0,0-.27-.48l-2.57-1.48c-.16-.09-.28,0-.28.16v.56a.6.6,0,0,0,.28.48Z" style="fill:#84C49A;opacity:0.6000000000000001"></path><path d="M289.06,262v-.56a.62.62,0,0,0-.28-.48l-.74-.43v1.21l.74.42C288.93,262.23,289.06,262.16,289.06,262Z" style="fill:#84C49A;opacity:0.6000000000000001"></path><path d="M289.06,247.22v-.56a.62.62,0,0,0-.28-.48l-.74-.43V247l.74.42C288.93,247.47,289.06,247.4,289.06,247.22Z" style="fill:#84C49A;opacity:0.6000000000000001"></path><path d="M289.62,232v-.56a.63.63,0,0,0-.27-.48l-1.31-.75v1.2l1.31.75C289.5,232.28,289.62,232.21,289.62,232Z" style="fill:#84C49A;opacity:0.6000000000000001"></path><path d="M308.37,298.34v.57a.64.64,0,0,0,.28.48l1.53.88v-1.2l-1.53-.89C308.5,298.1,308.37,298.17,308.37,298.34Z" style="fill:#84C49A;opacity:0.6000000000000001"></path><path d="M308.37,313.1v.56a.61.61,0,0,0,.28.48l1.53.89v-1.2l-1.53-.89A.17.17,0,0,0,308.37,313.1Z" style="fill:#84C49A;opacity:0.6000000000000001"></path><path d="M301.64,304.52c-.16-.09-.28,0-.28.16v.56a.61.61,0,0,0,.28.48l2.57,1.48c.15.09.27,0,.27-.16v-.56a.61.61,0,0,0-.27-.48Z" style="fill:#84C49A;opacity:0.6000000000000001"></path><path d="M309.78,303.58a.62.62,0,0,0-.28-.48l-2.57-1.49c-.15-.08-.27,0-.27.17v.56a.63.63,0,0,0,.27.48l2.57,1.48c.15.09.28,0,.28-.16Z" style="fill:#84C49A;opacity:0.6000000000000001"></path><path d="M300.15,224.28v.56a.6.6,0,0,0,.19.4v-1.15C300.23,224.07,300.15,224.13,300.15,224.28Z" style="fill:#84C49A;opacity:0.6000000000000001"></path><path d="M295.13,256.63v-.56a.61.61,0,0,0-.28-.48l-2.57-1.49a.17.17,0,0,0-.28.16v.56a.61.61,0,0,0,.28.48l2.57,1.49A.17.17,0,0,0,295.13,256.63Z" style="fill:#84C49A;opacity:0.6000000000000001"></path><path d="M295.13,253.11a.64.64,0,0,0-.28-.48l-2.57-1.48c-.15-.09-.28,0-.28.16v.56a.62.62,0,0,0,.28.48l2.57,1.49c.15.08.28,0,.28-.16Z" style="fill:#84C49A;opacity:0.6000000000000001"></path><path d="M292.4,242.68a.64.64,0,0,0-.28-.48l-2.57-1.48c-.15-.09-.28,0-.28.16v.56a.62.62,0,0,0,.28.48l2.57,1.48c.15.09.28,0,.28-.16Z" style="fill:#84C49A;opacity:0.6000000000000001"></path><path d="M294,242.7v-.56a.64.64,0,0,0-.28-.49l-2.57-1.48c-.15-.09-.27,0-.27.16v.56a.6.6,0,0,0,.27.48l2.57,1.49A.17.17,0,0,0,294,242.7Z" style="fill:#84C49A;opacity:0.6000000000000001"></path><path d="M292.78,180a.62.62,0,0,0-.28-.48l-2.57-1.48c-.15-.09-.27,0-.27.16v.56a.61.61,0,0,0,.27.48l2.57,1.48c.15.09.28,0,.28-.16Z" style="fill:#84C49A;opacity:0.6000000000000001"></path><path d="M294.4,180.06v-.57a.61.61,0,0,0-.28-.48l-2.56-1.48c-.16-.09-.28,0-.28.16v.56a.6.6,0,0,0,.28.48l2.56,1.49C294.28,180.3,294.4,180.23,294.4,180.06Z" style="fill:#84C49A;opacity:0.6000000000000001"></path><path d="M300.34,237.35l-1.64-.94c-.15-.09-.27,0-.27.16v.56a.63.63,0,0,0,.27.48l1.64.94Z" style="fill:#84C49A;opacity:0.6000000000000001"></path><path d="M290.68,240.77v-.56a.62.62,0,0,0-.28-.48L288,238.37v1.2l2.36,1.36C290.55,241,290.68,241,290.68,240.77Z" style="fill:#84C49A;opacity:0.6000000000000001"></path><path d="M294.07,239v-.57a.61.61,0,0,0-.28-.48l-2.56-1.48c-.16-.09-.28,0-.28.16v.56a.6.6,0,0,0,.28.48l2.56,1.49C294,239.28,294.07,239.21,294.07,239Z" style="fill:#84C49A;opacity:0.6000000000000001"></path><path d="M289.06,270.84v-.57a.64.64,0,0,0-.28-.48l-.74-.42v1.2l.74.43C288.93,271.08,289.06,271,289.06,270.84Z" style="fill:#84C49A;opacity:0.6000000000000001"></path><path d="M290.68,273.24v-.56a.62.62,0,0,0-.28-.48L288,270.84V272l2.36,1.36C290.55,273.49,290.68,273.42,290.68,273.24Z" style="fill:#84C49A;opacity:0.6000000000000001"></path><path d="M297.65,182.38c-.15-.09-.28,0-.28.16v.56a.62.62,0,0,0,.28.48l2.57,1.49a.3.3,0,0,0,.12,0V184a.55.55,0,0,0-.12-.14Z" style="fill:#84C49A;opacity:0.6000000000000001"></path><path d="M288.5,199.51c-.16-.08-.28,0-.28.16v.56a.61.61,0,0,0,.28.49l2.57,1.48c.15.09.27,0,.27-.16v-.56a.6.6,0,0,0-.27-.48Z" style="fill:#84C49A;opacity:0.6000000000000001"></path><path d="M282.49,312.17c.15.09.27,0,.27-.16v-.56a.61.61,0,0,0-.27-.48l-2.57-1.49a.18.18,0,0,0-.28.17v.56a.64.64,0,0,0,.28.48Z" style="fill:#84C49A;opacity:0.6000000000000001"></path><path d="M284.21,314.65c.15.09.27,0,.27-.16v-.56a.63.63,0,0,0-.27-.48L281.64,312c-.16-.09-.28,0-.28.16v.56a.6.6,0,0,0,.28.48Z" style="fill:#84C49A;opacity:0.6000000000000001"></path><path d="M291.12,314.1v-.56a.58.58,0,0,0-.28-.48l-2.57-1.49c-.15-.09-.27,0-.27.16v.56a.6.6,0,0,0,.27.48l2.57,1.49C291,314.35,291.12,314.27,291.12,314.1Z" style="fill:#84C49A;opacity:0.6000000000000001"></path><path d="M302.86,307.59V307a.58.58,0,0,0-.28-.48L300,305.06c-.16-.08-.28,0-.28.16v.57a.61.61,0,0,0,.28.48l2.56,1.48C302.74,307.84,302.86,307.76,302.86,307.59Z" style="fill:#84C49A;opacity:0.6000000000000001"></path><path d="M281.14,298v-.56a.6.6,0,0,0-.28-.48l-2.16-1.25v1.2l2.16,1.25C281,298.21,281.14,298.14,281.14,298Z" style="fill:#84C49A;opacity:0.6000000000000001"></path><path d="M310,306.65v.56a.61.61,0,0,0,.18.39v-1.14C310.07,306.44,310,306.51,310,306.65Z" style="fill:#84C49A;opacity:0.6000000000000001"></path><path d="M288.29,169.31c.15.09.28,0,.28-.16v-.56a.64.64,0,0,0-.28-.48L288,168v1.2Z" style="fill:#84C49A;opacity:0.6000000000000001"></path><path d="M309.5,316.11c.15.08.28,0,.28-.16v-.57a.64.64,0,0,0-.28-.48l-2.57-1.48c-.15-.09-.27,0-.27.16v.56a.6.6,0,0,0,.27.48Z" style="fill:#84C49A;opacity:0.6000000000000001"></path><path d="M294.18,316.18c.16.09.28,0,.28-.16v-.56a.6.6,0,0,0-.28-.48l-2.56-1.48c-.16-.09-.28,0-.28.16v.56a.6.6,0,0,0,.28.48Z" style="fill:#84C49A;opacity:0.6000000000000001"></path><path d="M299.09,173.21v.56a.64.64,0,0,0,.28.48l1,.56v-1.2l-1-.56C299.22,173,299.09,173,299.09,173.21Z" style="fill:#84C49A;opacity:0.6000000000000001"></path><path d="M292.84,313.62v-.56a.61.61,0,0,0-.28-.48L290,311.09c-.15-.08-.27,0-.27.16v.57a.63.63,0,0,0,.27.48l2.57,1.48A.17.17,0,0,0,292.84,313.62Z" style="fill:#84C49A;opacity:0.6000000000000001"></path><path d="M310.18,319.73l-1.53-.88c-.15-.09-.28,0-.28.16v.56a.64.64,0,0,0,.28.48l1.53.88Z" style="fill:#84C49A;opacity:0.6000000000000001"></path><path d="M304.48,321.8v-.56a.61.61,0,0,0-.27-.48l-2.57-1.48c-.16-.09-.28,0-.28.16V320a.61.61,0,0,0,.28.48l2.57,1.48C304.36,322.05,304.48,322,304.48,321.8Z" style="fill:#84C49A;opacity:0.6000000000000001"></path><path d="M279.42,298.44v-.56a.61.61,0,0,0-.27-.48l-.45-.26v1.2l.45.26C279.3,298.69,279.42,298.62,279.42,298.44Z" style="fill:#84C49A;opacity:0.6000000000000001"></path><path d="M295.9,321.61c.16.09.28,0,.28-.16v-.56a.58.58,0,0,0-.28-.48l-2.57-1.49c-.15-.09-.27,0-.27.16v.56a.6.6,0,0,0,.27.48Z" style="fill:#84C49A;opacity:0.6000000000000001"></path><path d="M281.14,312.56V312a.61.61,0,0,0-.28-.48l-2.16-1.25v1.21l2.16,1.25C281,312.8,281.14,312.73,281.14,312.56Z" style="fill:#84C49A;opacity:0.6000000000000001"></path><path d="M310.18,327.12c-.11,0-.18.06-.18.19v.57a.61.61,0,0,0,.18.38Z" style="fill:#84C49A;opacity:0.6000000000000001"></path><path d="M297.37,186.05a.61.61,0,0,0,.28.48l2.57,1.49.12,0V187a.55.55,0,0,0-.12-.14l-2.57-1.48a.17.17,0,0,0-.28.16Z" style="fill:#84C49A;opacity:0.6000000000000001"></path><path d="M297.8,309.09v-.56a.61.61,0,0,0-.28-.48L295,306.57c-.16-.09-.28,0-.28.16v.56a.6.6,0,0,0,.28.48l2.56,1.48C297.68,309.34,297.8,309.27,297.8,309.09Z" style="fill:#84C49A;opacity:0.6000000000000001"></path><path d="M302.58,322.51c.16.09.28,0,.28-.16v-.56a.61.61,0,0,0-.28-.49L300,319.82c-.16-.09-.28,0-.28.16v.56a.58.58,0,0,0,.28.48Z" style="fill:#84C49A;opacity:0.6000000000000001"></path><path d="M300.86,320c.16.09.28,0,.28-.16v-.56a.61.61,0,0,0-.28-.48l-2.56-1.48c-.16-.09-.28,0-.28.16v.56a.6.6,0,0,0,.28.48Z" style="fill:#84C49A;opacity:0.6000000000000001"></path><path d="M299.52,299.76v-.56a.6.6,0,0,0-.28-.48l-2.56-1.49c-.16-.08-.28,0-.28.16V298a.61.61,0,0,0,.28.48l2.56,1.48C299.4,300,299.52,299.94,299.52,299.76Z" style="fill:#84C49A;opacity:0.6000000000000001"></path><path d="M282.76,288.56V288a.61.61,0,0,0-.27-.48L279.92,286c-.15-.08-.28,0-.28.16v.57a.64.64,0,0,0,.28.48l2.57,1.48C282.64,288.81,282.76,288.74,282.76,288.56Z" style="fill:#84C49A;opacity:0.6000000000000001"></path><path d="M279.42,292.54V292a.63.63,0,0,0-.27-.49l-.45-.25v1.2l.45.26C279.3,292.79,279.42,292.71,279.42,292.54Z" style="fill:#84C49A;opacity:0.6000000000000001"></path><path d="M281.14,289.11v-.57a.61.61,0,0,0-.28-.48l-2.16-1.25V288l2.16,1.26C281,289.35,281.14,289.28,281.14,289.11Z" style="fill:#84C49A;opacity:0.6000000000000001"></path><path d="M292.56,304.92c.15.09.28,0,.28-.16v-.56a.62.62,0,0,0-.28-.48L290,302.24c-.15-.09-.27,0-.27.16V303a.61.61,0,0,0,.27.48Z" style="fill:#84C49A;opacity:0.6000000000000001"></path><path d="M291.12,299.34v-.56a.6.6,0,0,0-.28-.48l-2.57-1.49c-.15-.08-.27,0-.27.16v.57a.63.63,0,0,0,.27.48l2.57,1.48C291,299.59,291.12,299.52,291.12,299.34Z" style="fill:#84C49A;opacity:0.6000000000000001"></path><path d="M298,315.12a.6.6,0,0,0,.28.48l2.56,1.48c.16.09.28,0,.28-.16v-.56a.6.6,0,0,0-.28-.48l-2.56-1.48c-.16-.09-.28,0-.28.16Z" style="fill:#84C49A;opacity:0.6000000000000001"></path><path d="M291.79,173.08c-.15-.08-.27,0-.27.16v.57a.63.63,0,0,0,.27.48l2.57,1.48c.15.09.28,0,.28-.16v-.56a.62.62,0,0,0-.28-.48Z" style="fill:#84C49A;opacity:0.6000000000000001"></path><path d="M289.84,199.13v.56a.64.64,0,0,0,.28.48l2.57,1.48c.15.09.27,0,.27-.16v-.56a.61.61,0,0,0-.27-.48L290.12,199C290,198.88,289.84,199,289.84,199.13Z" style="fill:#84C49A;opacity:0.6000000000000001"></path><path d="M288,195.28l2,1.13c.15.09.28,0,.28-.16v-.56a.62.62,0,0,0-.28-.48l-2-1.14Z" style="fill:#84C49A;opacity:0.6000000000000001"></path><path d="M288,189.64v1.2l.25.15c.15.09.28,0,.28-.16v-.56a.62.62,0,0,0-.28-.48Z" style="fill:#84C49A;opacity:0.6000000000000001"></path><path d="M284.66,306.3c.15.09.28,0,.28-.16v-.56a.62.62,0,0,0-.28-.48l-2.57-1.48c-.15-.09-.28,0-.28.16v.56a.62.62,0,0,0,.28.48Z" style="fill:#84C49A;opacity:0.6000000000000001"></path><path d="M294.46,304.22v-.57a.61.61,0,0,0-.28-.48l-2.56-1.48c-.16-.09-.28,0-.28.16v.56a.58.58,0,0,0,.28.48l2.56,1.49C294.34,304.46,294.46,304.39,294.46,304.22Z" style="fill:#84C49A;opacity:0.6000000000000001"></path><path d="M300.86,293.47c.16.09.28,0,.28-.16v-.56a.58.58,0,0,0-.28-.48l-2.56-1.49c-.16-.08-.28,0-.28.16v.57a.61.61,0,0,0,.28.48Z" style="fill:#84C49A;opacity:0.6000000000000001"></path><path d="M300.35,278l-.59-.34c-.15-.09-.28,0-.28.16v.56a.62.62,0,0,0,.28.48l.59.34Z" style="fill:#84C49A;opacity:0.6000000000000001"></path><path d="M298,302.75v.56a.6.6,0,0,0,.28.48l2.56,1.49c.16.08.28,0,.28-.16v-.57a.61.61,0,0,0-.28-.48l-2.56-1.48C298.14,302.5,298,302.57,298,302.75Z" style="fill:#84C49A;opacity:0.6000000000000001"></path><path d="M299.74,290.46V291a.61.61,0,0,0,.28.48l2.56,1.48c.16.09.28,0,.28-.16v-.47l-.36-.62L300,290.3C299.86,290.22,299.74,290.29,299.74,290.46Z" style="fill:#84C49A;opacity:0.6000000000000001"></path><path d="M296.18,297.83v-.56a.6.6,0,0,0-.28-.48l-2.57-1.48c-.15-.09-.27,0-.27.16V296a.61.61,0,0,0,.27.48L295.9,298C296.06,298.08,296.18,298,296.18,297.83Z" style="fill:#84C49A;opacity:0.6000000000000001"></path><path d="M296.18,294.32a.6.6,0,0,0-.28-.48l-2.57-1.48c-.15-.09-.27,0-.27.16v.56a.61.61,0,0,0,.27.48L295.9,295c.16.09.28,0,.28-.16Z" style="fill:#84C49A;opacity:0.6000000000000001"></path><path d="M296.18,285.46a.61.61,0,0,0-.28-.48l-2.57-1.48c-.15-.09-.27,0-.27.16v.56a.6.6,0,0,0,.27.48l2.57,1.49c.16.08.28,0,.28-.16Z" style="fill:#84C49A;opacity:0.6000000000000001"></path><path d="M297.8,285.48v-.56a.6.6,0,0,0-.28-.48L295,283c-.16-.08-.28,0-.28.17v.56a.61.61,0,0,0,.28.48l2.56,1.48C297.68,285.73,297.8,285.66,297.8,285.48Z" style="fill:#84C49A;opacity:0.6000000000000001"></path></g><polygon points="300.35 285.12 305.71 282.02 305.71 170.29 300.34 173.38 300.35 285.12" style="fill:#84C49A"></polygon><polygon points="300.35 285.12 305.71 282.02 305.71 170.29 300.34 173.38 300.35 285.12" style="fill:#fff;opacity:0.5"></polygon><polygon points="307.44 170.29 293.41 162.16 286.31 166.26 286.31 168.46 300.35 176.59 307.44 172.49 307.44 170.29" style="fill:#37474f"></polygon><polygon points="286.31 166.26 300.35 174.39 300.35 176.59 286.31 168.46 286.31 166.26" style="fill:#263238"></polygon><polygon points="289.78 166.26 293.41 164.17 303.97 170.29 300.35 172.38 289.78 166.26" style="fill:#455a64"></polygon><polygon points="293.41 164.17 293.41 168.36 289.78 166.26 293.41 164.17" style="fill:#263238"></polygon><polygon points="300.35 174.39 307.44 170.29 307.34 172.44 300.35 176.59 300.35 174.39" style="fill:#455a64"></polygon></g></g><path d="M403.79,337l70.54,41.32a102.66,102.66,0,0,0,14.86-28l-53.92-31.51Z" style="fill:#fafafa"></path><polygon points="435.27 318.81 403.79 337.01 406.1 338.36 437.62 320.18 435.27 318.81" style="fill:#e0e0e0;opacity:0.4"></polygon></g><g id="freepik--Fence--inject-14"><g id="freepik--fence--inject-14"><polygon points="311.41 355.49 311.41 329.14 309.46 325.12 307.46 326.87 307.46 353.22 311.41 355.49" style="fill:#37474f"></polygon><polygon points="311.41 329.14 312.4 328.57 312.4 354.92 311.41 355.49 311.41 329.14" style="fill:#263238"></polygon><polygon points="309.46 325.12 310.44 324.53 312.4 328.57 311.41 329.14 309.46 325.12" style="fill:#455a64"></polygon><polygon points="296.83 347.11 296.83 320.76 294.87 316.73 292.88 318.49 292.88 344.84 296.83 347.11" style="fill:#37474f"></polygon><polygon points="296.83 320.76 297.81 320.19 297.81 346.54 296.83 347.11 296.83 320.76" style="fill:#263238"></polygon><polygon points="294.87 316.73 295.86 316.14 297.81 320.19 296.83 320.76 294.87 316.73" style="fill:#455a64"></polygon><polygon points="282.24 338.72 282.24 312.38 280.29 308.35 278.3 310.11 278.3 336.45 282.24 338.72" style="fill:#37474f"></polygon><polygon points="282.24 312.38 283.23 311.81 283.23 338.15 282.24 338.72 282.24 312.38" style="fill:#263238"></polygon><polygon points="280.29 308.35 281.27 307.76 283.23 311.81 282.24 312.38 280.29 308.35" style="fill:#455a64"></polygon><polygon points="267.66 330.34 267.66 303.99 265.7 299.97 263.71 301.73 263.71 328.07 267.66 330.34" style="fill:#37474f"></polygon><polygon points="267.66 303.99 268.64 303.43 268.64 329.77 267.66 330.34 267.66 303.99" style="fill:#263238"></polygon><polygon points="265.7 299.97 266.69 299.38 268.64 303.43 267.66 303.99 265.7 299.97" style="fill:#455a64"></polygon><polygon points="253.07 321.96 253.07 295.61 251.12 291.59 249.12 293.34 249.12 319.69 253.07 321.96" style="fill:#37474f"></polygon><polygon points="253.07 295.61 254.06 295.04 254.06 321.39 253.07 321.96 253.07 295.61" style="fill:#263238"></polygon><polygon points="251.12 291.59 252.1 291 254.06 295.04 253.07 295.61 251.12 291.59" style="fill:#455a64"></polygon><polygon points="249.12 303.92 253.07 306.19 253.07 304.64 249.12 302.37 249.12 303.92" style="fill:#263238"></polygon><polygon points="267.66 313.02 263.71 310.75 263.71 312.3 267.66 314.57 267.66 313.02" style="fill:#263238"></polygon><polygon points="296.83 329.78 292.88 327.51 292.88 329.06 296.83 331.33 296.83 329.78" style="fill:#263238"></polygon><polygon points="282.24 321.4 278.3 319.13 278.3 320.68 282.24 322.95 282.24 321.4" style="fill:#263238"></polygon><polygon points="311.41 338.16 307.46 335.89 307.46 337.44 311.41 339.71 311.41 338.16" style="fill:#263238"></polygon><polygon points="249.12 313.93 253.07 316.19 253.07 314.64 249.12 312.38 249.12 313.93" style="fill:#263238"></polygon><polygon points="267.66 323.02 263.71 320.76 263.71 322.31 267.66 324.57 267.66 323.02" style="fill:#263238"></polygon><polygon points="296.83 339.78 292.88 337.51 292.88 339.07 296.83 341.33 296.83 339.78" style="fill:#263238"></polygon><polygon points="282.24 331.4 278.3 329.14 278.3 330.69 282.24 332.95 282.24 331.4" style="fill:#263238"></polygon><polygon points="311.41 348.16 307.46 345.89 307.46 347.45 311.41 349.71 311.41 348.16" style="fill:#263238"></polygon><polygon points="315.88 349.65 244.94 308.89 244.94 310.44 315.88 351.2 315.88 349.65" style="fill:#37474f"></polygon><polygon points="315.88 349.65 316.89 349.07 316.89 350.62 315.88 351.2 315.88 349.65" style="fill:#263238"></polygon><polygon points="244.94 308.89 315.88 349.65 316.89 349.07 245.96 308.3 244.94 308.89" style="fill:#455a64"></polygon><polygon points="315.88 339.71 244.94 298.96 244.94 300.51 315.88 341.26 315.88 339.71" style="fill:#37474f"></polygon><polygon points="315.88 339.71 316.89 339.13 316.89 340.68 315.88 341.26 315.88 339.71" style="fill:#263238"></polygon><polygon points="244.94 298.96 315.88 339.71 316.89 339.13 245.96 298.37 244.94 298.96" style="fill:#455a64"></polygon></g></g></g><g id="freepik--farm-house--inject-14"><g id="freepik--Barn--inject-14"><path d="M286.52,300.33,160.91,227.81l9.19,7.9,125.6,72.52Z" style="fill:#e0e0e0"></path><path d="M286.52,300.33,160.91,227.81l9.19,7.9,125.6,72.52Z" style="opacity:0.30000000000000004"></path><path d="M278,272.14,152.43,199.62l8.48,28.19,125.61,72.52Z" style="fill:#e0e0e0"></path><path d="M278,272.14,152.43,199.62l8.48,28.19,125.61,72.52Z" style="opacity:0.2"></path><polygon points="174.31 428.95 68.81 368.04 68.81 292.64 174.31 353.56 174.31 428.95" style="fill:#84C49A"></polygon><polygon points="174.31 428.95 68.81 368.04 68.81 292.64 174.31 353.56 174.31 428.95" style="opacity:0.30000000000000004"></polygon><path d="M68.81,333.77l105.51,60.91v-1.07L68.81,332.7Zm0,11.6,105.51,60.91v-1.07L68.81,344.3Zm0,11.6,105.51,60.92v-1.07L68.81,355.9Zm0-59.08V299l105.51,60.92V358.8Zm0,24.28,105.51,60.91V382L68.81,321.09Zm0-11.61,105.51,60.92v-1.07L68.81,309.49Z" style="opacity:0.15"></path><polygon points="174.31 353.56 182.83 315.49 225.43 251.63 272.2 268.22 279.92 292.19 279.92 367.98 174.31 428.95 174.31 353.56" style="fill:#84C49A"></polygon><path d="M272.2,268.22l-.79-.28-89.5,51.67-.28,1.23,90.66-52.34Zm2.95,9.16-96.22,55.56-.28,1.23,96.79-55.89Zm-28.64-18.27-42.4,24.48L203,285.33l44.71-25.81ZM259,263.53l-67.43,38.93-1.17,1.74,69.75-40.27Zm19.34,23.63L176,346.26l-.28,1.23,102.92-59.42Zm-104,84.32,105.6-61v-1.08l-105.6,61Zm0,11.6,105.6-61V321l-105.6,61Zm0,34.81,105.6-61v-1.08l-105.6,61Zm0-59.09v1.08l105.6-61v-1.07Zm0,35.88,105.6-61v-1.07l-105.6,61Zm0,11.6,105.6-61v-1.07l-105.6,61Z" style="opacity:0.15"></path><path d="M121.42,362.81,107,354.46v22.6l16.44,9.5,14.47,8.35V372.3Z" style="fill:#84C49A"></path><path d="M121.42,362.81,107,354.46v22.6l16.44,9.5,14.47,8.35V372.3Z" style="opacity:0.5"></path><path d="M135.88,371.16l-14.46-8.35h0L107,354.46v22.6l2,1.14h0l28.93,16.71V372.3Zm-26.95-12.93,12.49,7.21v17.34l-12.49-7.21Zm26.95,32.9-12.49-7.21V366.59l12.49,7.21Z" style="fill:#e0e0e0"></path><path d="M135.88,371.16l-14.46-8.35h0L107,354.46v22.6l2,1.14h0l28.93,16.71V372.3Zm-26.95-12.93,12.49,7.21v17.34l-12.49-7.21Zm26.95,32.9-12.49-7.21V366.59l12.49,7.21Z" style="opacity:0.1"></path><path d="M134.46,372,120,363.62h0l-14.46-8.35v22.61l2,1.14h0l28.93,16.71V373.12Zm-26.95-12.93L120,366.26v17.33l-12.48-7.21Zm27,32.9L122,384.74V367.4l12.49,7.21Z" style="fill:#e0e0e0"></path><polygon points="106.95 354.45 105.53 355.27 136.44 373.12 137.86 372.3 106.95 354.45" style="fill:#e0e0e0"></polygon><polygon points="106.95 354.45 105.53 355.27 136.44 373.12 137.86 372.3 106.95 354.45" style="opacity:0.1"></polygon><polygon points="137.86 372.3 136.44 373.12 136.44 395.73 137.86 394.91 137.86 372.3" style="fill:#f0f0f0"></polygon><polygon points="123.39 383.92 121.97 384.74 121.97 367.4 123.39 368.22 123.39 383.92" style="fill:#f0f0f0"></polygon><polygon points="108.93 375.57 107.51 376.38 107.51 359.05 108.93 359.87 108.93 375.57" style="fill:#f0f0f0"></polygon><path d="M290.39,296.62l-8.52-28.23-43.8-14.83-5.17,3L189.09,322,180.58,360l-10.67,20.83,5.36-3.09,9.18-18.5,8.48-38,42.55-63.84L278,272.14l8.48,28.19,9.18,7.89,5.35-3.09Z" style="fill:#e0e0e0"></path><path d="M290.39,296.62l-8.52-28.23-43.8-14.83-5.17,3L189.09,322,180.58,360l-10.67,20.83,5.36-3.09,9.18-18.5,8.48-38,42.55-63.84L278,272.14l8.48,28.19,9.18,7.89,5.35-3.09Z" style="opacity:0.05"></path><polygon points="238.07 253.56 112.47 181.04 107.29 184.03 232.9 256.54 238.07 253.56" style="fill:#fafafa"></polygon><polygon points="63.49 249.44 189.09 321.95 232.9 256.54 107.29 184.03 63.49 249.44" style="fill:#f5f5f5"></polygon><polygon points="63.49 249.44 189.09 321.95 180.58 360.02 54.98 287.5 63.49 249.44" style="fill:#e0e0e0"></polygon><polygon points="44.31 308.33 169.91 380.85 180.58 360.02 54.98 287.5 44.31 308.33" style="fill:#f0f0f0"></polygon><polygon points="156.27 195.87 281.87 268.39 238.07 253.56 112.47 181.04 156.27 195.87" style="fill:#f5f5f5"></polygon><polygon points="241.56 313.67 217.28 327.69 217.28 292.16 241.56 278.14 241.56 313.67" style="fill:#84C49A"></polygon><polygon points="241.56 313.67 217.28 327.69 217.28 292.16 241.56 278.14 241.56 313.67" style="opacity:0.30000000000000004"></polygon><path d="M219.77,290.73l-2.49,1.43v35.53l2.49-1.44,21.79-12.58V278.14Zm17.31-6.68-7.66,17.21-7.66-8.36Zm-17.31,10,8.66,9.44-8.66,19.44Zm2,27.73,7.66-17.2,7.66,8.36Zm17.31-10-8.65-9.45,8.65-19.44Z" style="fill:#e0e0e0"></path><polygon points="242.99 278.96 241.56 278.14 217.28 292.16 218.7 292.98 242.99 278.96" style="fill:#e0e0e0"></polygon><polygon points="217.28 327.69 218.7 328.51 218.7 292.98 217.28 292.16 217.28 327.69" style="fill:#e0e0e0"></polygon><polygon points="217.28 327.69 218.7 328.51 218.7 292.98 217.28 292.16 217.28 327.69" style="opacity:0.2"></polygon><polygon points="228.43 303.49 229.85 304.31 221.19 323.75 221.19 319.74 228.43 303.49" style="fill:#e0e0e0"></polygon><polygon points="221.19 294.86 229.85 304.31 228.43 303.49 221.19 295.6 221.19 294.86" style="opacity:0.30000000000000004"></polygon><polygon points="238.5 284.87 236.1 286.26 229.58 300.7 230.84 302.07 238.5 284.87" style="fill:#e0e0e0"></polygon><polygon points="236.96 312.94 238.5 313.75 230.84 305.39 230.62 305.89 236.96 312.94" style="fill:#e0e0e0"></polygon><polygon points="236.96 312.94 238.5 313.75 230.84 305.39 230.62 305.89 236.96 312.94" style="opacity:0.30000000000000004"></polygon><path d="M221.19,291.54,218.7,293v35.53l2.49-1.44L243,314.49V279Zm17.31-6.67-7.66,17.2-7.66-8.36Zm-17.31,10,8.66,9.45-8.66,19.44Zm2,27.74,7.66-17.21,7.66,8.36Zm17.31-10-8.65-9.45,8.65-19.44Z" style="fill:#f5f5f5"></path><polygon points="249.67 385.44 209.17 408.83 209.17 347.86 249.67 324.47 249.67 385.44" style="fill:#84C49A"></polygon><polygon points="249.67 385.44 209.17 408.83 209.17 347.86 249.67 324.47 249.67 385.44" style="opacity:0.30000000000000004"></polygon><path d="M247.06,326l-16.33,9.43h0l-2.61,1.51-16.33,9.43-2.62,1.51v61l2.62-1.51,16.33-35.71v26.28l2.61-1.51V370.1L247.06,387l2.61-1.51v-61Zm-35.27,77.13V378.57l15.24-8.8Zm0-28V350.55L227,366.29Zm16.33-11.89L214,348.58l14.17-8.18Zm2.61-24.3,14.16-8.18-14.16,31Zm16.33,43.85L231.81,367l15.25-8.8Zm0-28-15.25,8.8,15.25-33.34Z" style="fill:#e0e0e0"></path><path d="M248.48,326.8l-16.33,9.43h0l-2.61,1.51-16.33,9.42-2.62,1.51v61l2.62-1.51,16.33-35.7v26.28l2.61-1.51V370.92l16.33,16.85,2.61-1.51v-61Zm-35.27,77.13V379.39l15.24-8.8Zm0-28V351.37l15.24,15.73ZM229.54,364,215.37,349.4l14.17-8.18Zm2.61-24.31,14.17-8.18-14.17,31Zm16.33,43.85-15.25-15.73,15.25-8.8Zm0-28-15.25,8.81L248.48,331Z" style="fill:#f5f5f5"></path><polygon points="251.09 325.29 249.67 324.47 209.17 347.86 210.59 348.67 251.09 325.29" style="fill:#e0e0e0"></polygon><polygon points="210.59 409.64 209.17 408.83 209.17 347.86 210.59 348.67 210.59 409.64" style="fill:#e0e0e0"></polygon><polygon points="210.59 409.64 209.17 408.83 209.17 347.86 210.59 348.67 210.59 409.64" style="opacity:0.2"></polygon><polygon points="213.21 351.37 228.45 367.1 227.03 366.29 213.21 352.02 213.21 351.37" style="fill:#e0e0e0"></polygon><polygon points="213.21 351.37 228.45 367.1 227.03 366.29 213.21 352.02 213.21 351.37" style="opacity:0.30000000000000004"></polygon><polygon points="227.03 366.29 228.45 367.1 213.21 375.91 213.21 374.27 227.03 366.29" style="fill:#e0e0e0"></polygon><polygon points="229.54 364.02 229.54 341.22 228.12 342.04 228.12 362.55 229.54 364.02" style="fill:#e0e0e0"></polygon><polygon points="229.54 364.02 229.54 341.22 228.12 342.04 228.12 362.55 229.54 364.02" style="opacity:0.2"></polygon><polygon points="232.15 362.51 246.31 331.54 243.88 332.94 232.15 358.58 232.15 362.51" style="fill:#e0e0e0"></polygon><path d="M247.06,334.17v20.56l1.42.81V331Z" style="fill:#e0e0e0"></path><path d="M247.06,334.17v20.56l1.42.81V331Z" style="opacity:0.2"></path><polygon points="229.54 398.71 228.12 397.89 228.12 375.54 229.54 372.43 229.54 398.71" style="fill:#e0e0e0"></polygon><polygon points="229.54 398.71 228.12 397.89 228.12 375.54 229.54 372.43 229.54 398.71" style="opacity:0.2"></polygon><polygon points="247.06 386.95 248.48 387.77 232.15 370.92 232.15 371.57 247.06 386.95" style="fill:#e0e0e0"></polygon><polygon points="247.06 386.95 248.48 387.77 232.15 370.92 232.15 371.57 247.06 386.95" style="opacity:0.30000000000000004"></polygon><polygon points="248.48 359.03 247.06 359.85 247.06 382.1 248.48 383.56 248.48 359.03" style="opacity:0.2"></polygon><path d="M164.75,197.3l-13.5-5-13.5,20.62V224.2l10.92-16.29,5.17-3,10.91,3.69Z" style="fill:#84C49A"></path><polygon points="137.75 212.89 114.96 199.72 114.96 211.04 137.75 224.2 137.75 212.89" style="fill:#84C49A"></polygon><polygon points="137.75 212.89 114.96 199.72 114.96 211.04 137.75 224.2 137.75 212.89" style="opacity:0.30000000000000004"></polygon><path d="M151.25,187.69l-16.53,25.25v4.53l16.53-25.25,16.53,6.16v-4.53Z" style="fill:#e0e0e0"></path><path d="M151.25,187.69l-16.53,25.25v4.53l16.53-25.25,16.53,6.16v-4.53Z" style="opacity:0.1"></path><polygon points="134.72 212.94 151.25 187.69 128.46 174.53 111.93 199.79 134.72 212.94" style="fill:#f5f5f5"></polygon><path d="M145,180.7l-16.53-6.17,22.79,13.16,16.53,6.16Z" style="fill:#e0e0e0"></path><polygon points="111.93 199.79 134.72 212.94 134.72 217.47 111.93 204.31 111.93 199.79" style="fill:#e0e0e0"></polygon></g><g id="freepik--fence--inject-14"><g id="freepik--fence--inject-14"><polygon points="106.46 414.74 106.46 388.39 104.51 384.37 102.52 386.13 102.52 412.47 106.46 414.74" style="fill:#37474f"></polygon><polygon points="106.46 388.39 107.45 387.83 107.45 414.17 106.46 414.74 106.46 388.39" style="fill:#263238"></polygon><polygon points="104.51 384.37 105.5 383.78 107.45 387.83 106.46 388.39 104.51 384.37" style="fill:#455a64"></polygon><polygon points="91.88 406.36 91.88 380.01 89.93 375.99 87.93 377.74 87.93 404.09 91.88 406.36" style="fill:#37474f"></polygon><polygon points="91.88 380.01 92.86 379.44 92.86 405.79 91.88 406.36 91.88 380.01" style="fill:#263238"></polygon><polygon points="89.93 375.99 90.91 375.4 92.86 379.44 91.88 380.01 89.93 375.99" style="fill:#455a64"></polygon><polygon points="77.29 397.97 77.29 371.63 75.34 367.6 73.35 369.36 73.35 395.7 77.29 397.97" style="fill:#37474f"></polygon><polygon points="77.29 371.63 78.28 371.06 78.28 397.41 77.29 397.97 77.29 371.63" style="fill:#263238"></polygon><polygon points="75.34 367.6 76.33 367.01 78.28 371.06 77.29 371.63 75.34 367.6" style="fill:#455a64"></polygon><polygon points="62.71 389.59 62.71 363.24 60.76 359.22 58.76 360.98 58.76 387.32 62.71 389.59" style="fill:#37474f"></polygon><polygon points="62.71 363.24 63.7 362.68 63.7 389.02 62.71 389.59 62.71 363.24" style="fill:#263238"></polygon><polygon points="60.76 359.22 61.74 358.63 63.7 362.68 62.71 363.24 60.76 359.22" style="fill:#455a64"></polygon><polygon points="48.12 381.21 48.12 354.86 46.17 350.84 44.18 352.59 44.18 378.94 48.12 381.21" style="fill:#37474f"></polygon><polygon points="48.12 354.86 49.11 354.3 49.11 380.64 48.12 381.21 48.12 354.86" style="fill:#263238"></polygon><polygon points="46.17 350.84 47.16 350.25 49.11 354.3 48.12 354.86 46.17 350.84" style="fill:#455a64"></polygon><polygon points="44.18 363.18 48.12 365.44 48.12 363.89 44.18 361.62 44.18 363.18" style="fill:#263238"></polygon><polygon points="62.71 372.27 58.76 370 58.76 371.56 62.71 373.82 62.71 372.27" style="fill:#263238"></polygon><polygon points="91.88 389.03 87.93 386.76 87.93 388.31 91.88 390.58 91.88 389.03" style="fill:#263238"></polygon><polygon points="77.29 380.65 73.35 378.38 73.35 379.94 77.29 382.2 77.29 380.65" style="fill:#263238"></polygon><polygon points="106.46 397.41 102.52 395.14 102.52 396.69 106.46 398.96 106.46 397.41" style="fill:#263238"></polygon><polygon points="44.18 373.18 48.12 375.45 48.12 373.89 44.18 371.63 44.18 373.18" style="fill:#263238"></polygon><polygon points="62.71 382.27 58.76 380.01 58.76 381.56 62.71 383.83 62.71 382.27" style="fill:#263238"></polygon><polygon points="91.88 399.03 87.93 396.77 87.93 398.32 91.88 400.59 91.88 399.03" style="fill:#263238"></polygon><polygon points="77.29 390.65 73.35 388.39 73.35 389.94 77.29 392.21 77.29 390.65" style="fill:#263238"></polygon><polygon points="106.46 407.41 102.52 405.15 102.52 406.7 106.46 408.97 106.46 407.41" style="fill:#263238"></polygon><polygon points="110.93 408.9 39.99 368.14 39.99 369.69 110.93 410.45 110.93 408.9" style="fill:#37474f"></polygon><polygon points="110.93 408.9 111.94 408.32 111.94 409.87 110.93 410.45 110.93 408.9" style="fill:#263238"></polygon><polygon points="39.99 368.14 110.93 408.9 111.94 408.32 41.01 367.56 39.99 368.14" style="fill:#455a64"></polygon><polygon points="110.93 398.97 39.99 358.21 39.99 359.76 110.93 400.52 110.93 398.97" style="fill:#37474f"></polygon><polygon points="110.93 398.97 111.94 398.38 111.94 399.93 110.93 400.52 110.93 398.97" style="fill:#263238"></polygon><polygon points="39.99 358.21 110.93 398.97 111.94 398.38 41.01 357.62 39.99 358.21" style="fill:#455a64"></polygon></g></g></g><g id="freepik--Cow--inject-14"><g id="freepik--cow--inject-14"><path d="M341.9,376.54a8.18,8.18,0,0,1,6,6.76c.7,4.06-1.11,9-1.26,12.17s.93,5.41,3.75,6.09c-1.81.28-4.12-1-4.44-4.74s1.22-8.9,1.1-11.67c-.13-3-1.6-5.3-2.85-4.55C342.42,380.28,341.75,379.47,341.9,376.54Z" style="fill:#ebebeb"></path><path d="M347.19,399a2.27,2.27,0,0,1,2.51.68c.88.87,1.48,1.92,3.17,1.87a1.62,1.62,0,0,0,1.7-1.14,3,3,0,0,1-.36,1.89c-.67,1.14-2.63,2-4.9,1.33s-3.51-3.16-2.64-4.23C346.84,399.55,347.29,399.26,347.19,399Z" style="fill:#263238"></path><path d="M304.26,427.78a2.13,2.13,0,0,1-.3,2,5.16,5.16,0,0,1-2.75,2c-1.09.25-1.08,0-1.06-.42l.09-1.59s-.5,1.08-.69,1.45-.49.06-.65-.86a4.84,4.84,0,0,1,.34-2.81c.49-1.43,2.54-1.85,3.41-1.57S303.74,426.72,304.26,427.78Z" style="fill:#263238"></path><path d="M306.83,406.39l-.37,7.15c-1.82-.08-2.69,1.92-2.54,3.28a5.36,5.36,0,0,1-.2,2.76,9.51,9.51,0,0,0-.16,4.45c.27,2,.63,2.86.7,3.75-.58.72-2.71,1.53-4,.71s-.61-1.88-.08-4.06a13.58,13.58,0,0,0,.56-5.64c-.14-1.43.51-2.29.58-3.56s-.91-4.69-.8-8.39C300.51,406.84,301.93,405.59,306.83,406.39Z" style="fill:#ebebeb"></path><path d="M300.25,428.49a1.55,1.55,0,0,1-.66-.73c.62.67,2.34.31,3.05-1s.44-2.25.14-3.84-.37-2,0-2.74c.44-.92,1.13-.94,1.25-2.21h0a4.94,4.94,0,0,1-.29,1.64,9.51,9.51,0,0,0-.16,4.45c.27,2,.63,2.86.7,3.75C303.68,428.5,301.55,429.31,300.25,428.49Z" style="fill:#e0e0e0"></path><path d="M306.83,406.39l-.37,7.15a2,2,0,0,0-1.53.55,18,18,0,0,1-2-1.26c-2.23-1.6-2.39-4.83-2.39-6l1.08-.46A12.85,12.85,0,0,1,306.83,406.39Z" style="fill:#e0e0e0"></path><path d="M333.71,409.24a2.07,2.07,0,0,1-.47,1.95,5.08,5.08,0,0,1-2.91,1.73c-1.11.15-1.07-.14-1-.51s.23-1.58.23-1.58-.6,1-.82,1.38-.49,0-.57-.91a4.79,4.79,0,0,1,.58-2.77c.61-1.38,2.69-1.62,3.53-1.27S333.29,408.3,333.71,409.24Z" style="fill:#263238"></path><path d="M332.49,376.45c.61,4.35,0,6.56-.67,12-.43,3.46,3,8.07,3.29,8.61.4.72,0,1.73-.44,2.73a13.64,13.64,0,0,0-1.32,5.67c.09,2.06.37,2.91.36,3.8-.63.66-2.82,1.29-4,.36s-.67-2,.28-4.06c2.41-5.17,2.42-5.83,2-7.19a2.64,2.64,0,0,0-1.14-1.62c-1.13-.93-9.75-2.75-9.31-6.43C321.45,390.3,327.68,375.22,332.49,376.45Z" style="fill:#ebebeb"></path><path d="M329.08,408.91a2,2,0,0,0,2.79,0c.7-.87.57-2.06.35-4.43a5.34,5.34,0,0,1,.91-4c.52-.86,1.52-1.27,2.05-2.07a11.53,11.53,0,0,1-.51,1.41,13.64,13.64,0,0,0-1.32,5.67c.09,2.06.37,2.91.36,3.8-.63.66-2.82,1.29-4,.36A1.83,1.83,0,0,1,329.08,408.91Z" style="fill:#e0e0e0"></path><path d="M327.81,402.69c3.34,4.93,10.31,2.82,12.12-1.79-.08-2.7-5.22-5.14-8.22-3.33A9.45,9.45,0,0,0,327.81,402.69Z" style="fill:#84C49A"></path><path d="M327.81,402.69c3.34,4.93,10.31,2.82,12.12-1.79-.08-2.7-5.22-5.14-8.22-3.33A9.45,9.45,0,0,0,327.81,402.69Z" style="fill:#fff;opacity:0.4"></path><path d="M346.73,416.77a2.12,2.12,0,0,1-.47,2,5.13,5.13,0,0,1-2.92,1.72c-1.11.16-1.06-.13-1-.51l.23-1.58s-.6,1-.82,1.39-.49,0-.57-.91a4.8,4.8,0,0,1,.59-2.77c.61-1.38,2.68-1.63,3.53-1.27S346.3,415.83,346.73,416.77Z" style="fill:#263238"></path><path d="M317.11,435.06a2.07,2.07,0,0,1-.3,2,5.07,5.07,0,0,1-2.75,2c-1.09.25-1.07,0-1.05-.42s.09-1.59.09-1.59-.5,1.08-.69,1.45-.49.06-.65-.86a4.76,4.76,0,0,1,.34-2.81c.49-1.43,2.54-1.85,3.41-1.57A2.93,2.93,0,0,1,317.11,435.06Z" style="fill:#263238"></path><path d="M300.56,390c1.61.45,5.65.69,12.14-3.32,2.32-1.43,3.55-2.66,7.87-7.24,3.92-4.17,6.61-6.25,12.12-6.32,6.07-.08,10.59,3.88,11.8,6.68a13.32,13.32,0,0,1,1.27,3.94h0c.6,4.34-.26,6.76-.94,12.18-.43,3.46,3,8.06,3.3,8.61.39.72,0,1.73-.44,2.73a13.42,13.42,0,0,0-1.33,5.67c.09,2,.37,2.9.37,3.8-.64.66-2.83,1.29-4.06.35s-.67-2,.28-4.05c2.42-5.17,2.43-5.84,2-7.2a2.62,2.62,0,0,0-1.14-1.61c-.7-.59-4.57-1.46-7.23-2.94h0c-6.19-.57-6.56,6.21-12.6,11.64a17.57,17.57,0,0,1-4.5,3.12c-2,3.54-2.79,6.82-2.66,8a5.36,5.36,0,0,1-.2,2.76,9.24,9.24,0,0,0-.16,4.45c.26,2,.62,2.86.69,3.75-.57.72-2.7,1.54-4,.71s-.61-1.87-.08-4.06a13.72,13.72,0,0,0,.56-5.63c-.15-1.44.5-2.3.57-3.57.06-1-1.07-3.48-1.47-6.31h0c-3.5-.62-4.54-2.09-8.07-3.54s-4.14-4.78-4.19-7.12-1.4-2.73-3.19-2.29Z" style="fill:#fafafa"></path><path d="M314.53,397.43a1.37,1.37,0,0,0-.39.65c-.05.23,0,.46,0,.68-.06.61-.64,1-1.19,1.3a3.16,3.16,0,0,0-1.45,1.07,1.88,1.88,0,0,0,.36,2,8.72,8.72,0,0,0,1.72,1.34,5.65,5.65,0,0,1,2.06,2.33c.18.43.28.88.49,1.3a2.66,2.66,0,0,0,1.73,1.39A2.41,2.41,0,0,0,320,409a5.17,5.17,0,0,0,1.15-1.93,5.14,5.14,0,0,1,1.65-2.28c.55-.37,1.25-.58,1.58-1.16a1.81,1.81,0,0,0-.33-2,10.09,10.09,0,0,0-1.62-1.35,2.83,2.83,0,0,1-1.2-1.69c-.06-.41,0-.83-.07-1.22C320.53,394.73,315.72,396.18,314.53,397.43Z" style="fill:#37474f"></path><path d="M318.12,389.4a1.21,1.21,0,0,0-.5,1.19,1.08,1.08,0,0,0,.76.59,5.5,5.5,0,0,1,.95.3c.93.49,1,1.92,1.9,2.47a1.91,1.91,0,0,0,2-.23,2.37,2.37,0,0,0,.94-1.45,1.69,1.69,0,0,0-.55-1.59c-.28-.23-.64-.35-.92-.59a7.67,7.67,0,0,1-.82-1C320.8,387.71,319.2,388.41,318.12,389.4Z" style="fill:#37474f"></path><path d="M320.57,379.48c-1.22,1.29-2.18,2.3-3,3.14a5.26,5.26,0,0,0,5.31-1.42,5.44,5.44,0,0,1,.78-.81c.89-.66,2.12-.41,3.22-.3a11,11,0,0,0,2.22,0,2.69,2.69,0,0,0,1.51-.54,1.58,1.58,0,0,0,.28-2c-.28-.45-.8-.79-.81-1.32,0-.38.26-.7.37-1.06a1.57,1.57,0,0,0-.43-1.46,2.26,2.26,0,0,0-.35-.28C326.05,374.16,323.7,376.16,320.57,379.48Z" style="fill:#37474f"></path><path d="M337.59,383.42a6.78,6.78,0,0,0-3.89.18,3.63,3.63,0,0,0-1.61,1,2.81,2.81,0,0,0,.67,4c.74.5,1.71.65,2.36,1.26.29.27.5.61.79.88,1.28,1.21,3.39.56,4.73,1.72.17.14.34.33.57.33.64,0,1.36-1.47,1.65-1.94a5.17,5.17,0,0,0,.53-1.05c.39-1.24-.27-2.59-.07-3.88.08-.52.29-1,.38-1.52a3.73,3.73,0,0,0-1.6-3.76c-2-1.16-4.41.66-4.37,2.82Z" style="fill:#37474f"></path><path d="M338.53,394.57c.08.16.26.25.36.4.21.32,0,.77.16,1.12a.92.92,0,0,0,.75.44,8.87,8.87,0,0,1,.9.06.82.82,0,0,0,.51,0,.55.55,0,0,0,.27-.37,1,1,0,0,0-.1-.93c-.17-.17-.44-.21-.63-.36-.44-.35-.72-1-1.33-1.16C339,393.71,338.27,394.05,338.53,394.57Z" style="fill:#37474f"></path><path d="M300.39,405.53c0-2.34-1.41-2.73-3.19-2.29l.53-2.84,3.07.45c0,1.77,4.15,1.84,6.79,3.88a13.38,13.38,0,0,1,5,9.29,8.18,8.18,0,0,1,.1,2.17c-3.5-.62-4.54-2.09-8.07-3.54S300.44,407.87,300.39,405.53Z" style="fill:#f0f0f0"></path><path d="M308.16,397c.08-.8,0-1.62.14-2.42A2.82,2.82,0,0,1,309,393a5.92,5.92,0,0,1,2.14-1c.73-.3,1.48-.95,1.34-1.73s-.74-1-1.33-1.27a9.56,9.56,0,0,0-1.73-.52c-4.59,2.14-7.54,1.91-8.86,1.54l-3.36,13.2c1.66-.41,2.94-.08,3.15,1.84a1.71,1.71,0,0,0,.92.06,1.62,1.62,0,0,0,1-1.09,3.42,3.42,0,0,0,.05-1.56,2.38,2.38,0,0,1,0-1.45,1.6,1.6,0,0,1,.9-.71c1.29-.49,2.91-.22,3.93-1.14A3.29,3.29,0,0,0,308.16,397Z" style="fill:#37474f"></path><path d="M298.18,403.1h.2a2.58,2.58,0,0,1,.4,0h.11a2.43,2.43,0,0,1,.38.13l.06,0a1.63,1.63,0,0,1,.35.23l0,0a1.76,1.76,0,0,1,.29.36h0a3.26,3.26,0,0,1,.21.5h0a3.61,3.61,0,0,1,.13.64h0a1.71,1.71,0,0,0,.92.06,1.62,1.62,0,0,0,1-1.09,3.42,3.42,0,0,0,.05-1.56c0-.05,0-.09,0-.14-.91-.39-1.54-.82-1.54-1.5l-2.88-.42-.72,2.81.61-.12Z" style="fill:#263238"></path><path d="M333.77,400.43c.3-1.16-.45-2.27.19-3.8a6.08,6.08,0,0,0,2.58,4.69,5.64,5.64,0,0,0-3.85.89h0A3.56,3.56,0,0,0,333.77,400.43Z" style="fill:#f0f0f0"></path><path d="M313.11,435.77a1.5,1.5,0,0,1-.66-.73c.61.67,2.34.32,3-1s.45-2.25.15-3.84-.38-2,0-2.74c.44-.92,1.13-.94,1.24-2.21h0a4.91,4.91,0,0,1-.28,1.64,9.24,9.24,0,0,0-.16,4.45c.26,2,.62,2.86.69,3.75C316.54,435.78,314.41,436.6,313.11,435.77Z" style="fill:#f0f0f0"></path><path d="M342.1,416.44a2,2,0,0,0,2.78,0c.7-.88.58-2.06.35-4.43a5.33,5.33,0,0,1,.91-4c.53-.86,1.52-1.27,2.05-2.08a11,11,0,0,1-.5,1.42,13.42,13.42,0,0,0-1.33,5.67c.09,2,.37,2.9.37,3.8-.64.66-2.83,1.29-4.06.35A1.77,1.77,0,0,1,342.1,416.44Z" style="fill:#f0f0f0"></path><path d="M321,415.22a10.46,10.46,0,0,1-1.58.86,22.8,22.8,0,0,0,2.56-5.49A15.1,15.1,0,0,1,321,415.22Z" style="fill:#f0f0f0"></path><path d="M292.79,389.1c-1.5-1.26-1-3.38-1.59-3.16A3.81,3.81,0,0,0,290,390C290.63,391.55,293.25,390.38,292.79,389.1Z" style="fill:#f5f5f5"></path><path d="M291.93,389.11l.09-.34a5.62,5.62,0,0,1-1.57.35c-.91.07-4.05.36-4.55,5.31Z" style="fill:#37474f"></path><path d="M291.93,389.11c-.71.58-2.1.6-2.88.91a4.89,4.89,0,0,0-2.14,1.87,6.57,6.57,0,0,0-1.05,3c0,.61.49.11.89-.22s2.39-.64,3.05-1.3c1.37-1.38,1-2.35,1.75-2.8Z" style="fill:#84C49A"></path><path d="M291.93,389.11c-.71.58-2.1.6-2.88.91a4.89,4.89,0,0,0-2.14,1.87,6.57,6.57,0,0,0-1.05,3c0,.61.49.11.89-.22s2.39-.64,3.05-1.3c1.37-1.38,1-2.35,1.75-2.8Z" style="fill:#fff;opacity:0.5"></path><path d="M288,391.45a4.93,4.93,0,0,1,2.73-1s0,0,0,0a11.57,11.57,0,0,0-1.43.56,4.22,4.22,0,0,0-1.17.77,6,6,0,0,0-1.41,1.78,3,3,0,0,1,.69-.74,2.81,2.81,0,0,1,.54-.29,2,2,0,0,1,.6-.14s0,0,0,.06a4.08,4.08,0,0,0-1.09.63,3,3,0,0,0-.5.51l-.09.11.26-.11a6.7,6.7,0,0,1,.88-.23,4.91,4.91,0,0,0,.74-.24,1.74,1.74,0,0,0,.33-.18c.09-.06.15-.16.25-.21h0a1.09,1.09,0,0,1-.47.57,2.55,2.55,0,0,1-.77.35c-.29.08-.58.13-.86.21a2.17,2.17,0,0,0-.73.32s-.05,0-.06,0a.1.1,0,0,1,0,0A4.73,4.73,0,0,1,288,391.45Z" style="fill:#84C49A;opacity:0.2"></path><path d="M295.66,389c1.48.19,3.5.09,4.9,1.06,1.11.77.8,2,1.31,3.09a6.26,6.26,0,0,1,.31,2.29c0,1.69-.14,3.89-1.38,5.43a5.45,5.45,0,0,1-3.6,2.39,10.09,10.09,0,0,0-3.52,1.58c-.91.78-2.47,2.32-4,2.7a4.82,4.82,0,0,1-4-1.06,4.61,4.61,0,0,1-1.19-3.14,1.78,1.78,0,0,1,1.17-2,13.39,13.39,0,0,0,2.67-4.41c.34-1.31.17-4.4,1.37-6.41,1.08-1.8,2.23-2.07,3.1-2.07S294.54,388.84,295.66,389Z" style="fill:#455a64"></path><path d="M288.21,403.26A1.77,1.77,0,0,1,290,405.5c.45-.22.46-1,.34-1.46-.22-.8-.57-.74,0-1.88s1.87-4,1.87-4-1.66,2.69-2.21,3.56C289.16,403,288.36,402.75,288.21,403.26Z" style="fill:#37474f"></path><path d="M287.12,404c.47.14.69-.11,1.27,0a1.14,1.14,0,0,1,.87,1.1c0,.47-.32.54-.54.51-.07-.41-.38-.62-.49-.41s0,.47-1.12.59a2.62,2.62,0,0,1-1.06-1.25c-.14-.43-.54-.34-.48,0a1,1,0,0,1-.48-1,.65.65,0,0,1,.83-.44C286.53,403.38,286.67,403.91,287.12,404Z" style="fill:#263238"></path><path d="M294.88,396.36a2.47,2.47,0,0,1,.89-.21,1.45,1.45,0,0,1,.51.05,1,1,0,0,1,.4.19s0,.08,0,.07h-.51a3.2,3.2,0,0,0-.52,0,2,2,0,0,0-.67.19,2.45,2.45,0,0,0-.6.44c-.27.22-.3.27-.5.43,0,0,0,0,0,0A1.75,1.75,0,0,1,294.88,396.36Z" style="fill:#263238"></path><path d="M294.72,397.12a.72.72,0,1,0,.71-.71A.71.71,0,0,0,294.72,397.12Z" style="fill:#263238"></path><path d="M290.16,389.81a3.19,3.19,0,0,1,2.65-1.41c.87,0,1.73.44,2.85.58,1.48.19,3.5.09,4.9,1.06a2.52,2.52,0,0,1,1,1.9v0c-.7-1.49-1.54-2.08-5-1.84-2.06.14-2.38.21-3.43-.65A2.1,2.1,0,0,0,290.16,389.81Z" style="fill:#fff;opacity:0.1"></path><path d="M299.33,390.15c1.94-.24,2.71-2.27,3.05-1.79a3.8,3.8,0,0,1-1.24,4.07C299.81,393.38,298.24,391,299.33,390.15Z" style="fill:#f5f5f5"></path><path d="M298.92,391.05s-.08-.6.42-.26a3.77,3.77,0,0,0,1.55.67,4.41,4.41,0,0,1,3.22,2.31,5.42,5.42,0,0,1-.07,4.8Z" style="fill:#37474f"></path><path d="M298.92,391.05c.43.46,2.84,1.34,3.69,2.18a5.27,5.27,0,0,1,1.4,3.18,6.06,6.06,0,0,1,0,2.16c-.06.41-.71-.53-1.53-1.14s-2.44-1.54-2.68-2.78-.15-1.71-.7-2.33Z" style="fill:#84C49A"></path><path d="M298.92,391.05c.43.46,2.84,1.34,3.69,2.18a5.27,5.27,0,0,1,1.4,3.18,6.06,6.06,0,0,1,0,2.16c-.06.41-.71-.53-1.53-1.14s-2.44-1.54-2.68-2.78-.15-1.71-.7-2.33Z" style="fill:#84C49A"></path><path d="M298.92,391.05c.43.46,2.84,1.34,3.69,2.18a5.27,5.27,0,0,1,1.4,3.18,6.06,6.06,0,0,1,0,2.16c-.06.41-.71-.53-1.53-1.14s-2.44-1.54-2.68-2.78-.15-1.71-.7-2.33Z" style="fill:#fff;opacity:0.5"></path><path d="M299.87,392.38s0-.07,0-.05a6.18,6.18,0,0,1,2.69,1.75,5.61,5.61,0,0,1,.6,1.2,6.11,6.11,0,0,1,.31,1.26c0,.21,0,.43.05.65s0,.59-.05.57a.07.07,0,0,1-.05,0,2.4,2.4,0,0,0-.63-.64c-.27-.17-.56-.3-.81-.49a5.16,5.16,0,0,1-.69-.63,2.86,2.86,0,0,1-.3-.41.53.53,0,0,1-.13-.36h0c.08.1.13.23.22.33s.23.23.35.34a4.62,4.62,0,0,0,.82.57,5.13,5.13,0,0,1,.81.49l0,0c0-.05-.05-.1-.07-.14a8.76,8.76,0,0,0-.47-.85,11.28,11.28,0,0,0-1.26-1.59,3.29,3.29,0,0,1,1.48,1.38,6,6,0,0,1,.47.91l0,.09a5.87,5.87,0,0,0-1.08-2.62A12.66,12.66,0,0,0,299.87,392.38Z" style="fill:#84C49A;opacity:0.2"></path></g></g></svg>
