<svg xmlns="http://www.w3.org/2000/svg" viewBox="0 0 500 500"><g id="freepik--background-complete--inject-2"><circle cx="429.93" cy="125" r="30.09" transform="translate(-12.91 191.02) rotate(-24.69)" style="fill:#e0e0e0"></circle><path d="M443.59,125.92a3.9,3.9,0,0,1-1.06.1l-2.93.08c-2.48,0-5.93.07-9.84.08h-.26V124c0-4.36,0-8.3.08-11.16,0-1.34.06-2.48.08-3.38a6.19,6.19,0,0,1,.1-1.24,5.37,5.37,0,0,1,.1,1.24c0,.9.05,2,.09,3.38,0,2.86.07,6.8.07,11.16v2l-.26-.25c3.91,0,7.36,0,9.84.08l2.93.08A5,5,0,0,1,443.59,125.92Z" style="fill:#fafafa"></path><path d="M429.85,99.85a6.24,6.24,0,0,1,.26,2.53,6.2,6.2,0,0,1-.26,2.52,6.42,6.42,0,0,1-.26-2.52A6.45,6.45,0,0,1,429.85,99.85Z" style="fill:#fafafa"></path><path d="M443.57,103.91c.1.1-.61,1-1.58,1.94s-1.85,1.68-1.95,1.58.61-1,1.58-1.94S443.46,103.81,443.57,103.91Z" style="fill:#fafafa"></path><path d="M451.58,112.67c.07.13-.87.73-2,1.44a7.45,7.45,0,0,1-2.21,1.14c-.09-.11.75-.87,1.94-1.59A5.3,5.3,0,0,1,451.58,112.67Z" style="fill:#fafafa"></path><path d="M456.28,125.66a23,23,0,0,1-6.89,0,23,23,0,0,1,6.89,0Z" style="fill:#fafafa"></path><path d="M408.48,125.2a20.51,20.51,0,0,1-6.51,0,20.51,20.51,0,0,1,6.51,0Z" style="fill:#fafafa"></path><path d="M411.86,134.88a10.36,10.36,0,0,1-2.41,2.28A11.12,11.12,0,0,1,406.7,139a10.58,10.58,0,0,1,2.42-2.28A10.78,10.78,0,0,1,411.86,134.88Z" style="fill:#fafafa"></path><path d="M420.2,142.36a14.66,14.66,0,0,1-1.61,2.94,14.54,14.54,0,0,1-1.84,2.8,9.11,9.11,0,0,1,1.39-3.07A9,9,0,0,1,420.2,142.36Z" style="fill:#fafafa"></path><path d="M429.85,152a11.75,11.75,0,0,1-.26-3.44,11.79,11.79,0,0,1,.26-3.45,11.4,11.4,0,0,1,.26,3.45A11.36,11.36,0,0,1,429.85,152Z" style="fill:#fafafa"></path><path d="M444.71,147.42a12.94,12.94,0,0,1-5.16-4.5,19.24,19.24,0,0,1,2.62,2.21A19.65,19.65,0,0,1,444.71,147.42Z" style="fill:#fafafa"></path><path d="M451.69,139.91a9,9,0,0,1-2.33-2,8.66,8.66,0,0,1-2-2.33,18.2,18.2,0,0,1,4.29,4.29Z" style="fill:#fafafa"></path><path d="M411.55,115.93c-.1.11-1-.65-2.06-1.69s-1.8-2-1.7-2.06,1,.66,2.06,1.69S411.65,115.83,411.55,115.93Z" style="fill:#fafafa"></path><path d="M420.15,106.87c-.1.1-1-.64-2-1.65s-1.76-1.92-1.66-2,1,.64,2,1.65S420.25,106.77,420.15,106.87Z" style="fill:#fafafa"></path><rect x="39.42" y="31.38" width="119.58" height="214.82" style="fill:#ebebeb"></rect><rect x="44.2" y="37.61" width="108.79" height="202.19" style="fill:#fafafa"></rect><polygon points="153 39.99 44.2 178.38 44.2 37.61 153 37.61 153 39.99" style="fill:#f5f5f5"></polygon><rect x="44.2" y="95.77" width="111.15" height="2.15" style="fill:#ebebeb"></rect><rect x="44.2" y="143.92" width="111.15" height="2.15" style="fill:#ebebeb"></rect><rect x="44.2" y="192.07" width="111.15" height="2.15" style="fill:#ebebeb"></rect><rect x="24.26" y="168.44" width="148.68" height="5.5" transform="translate(-72.59 269.79) rotate(-90)" style="fill:#ebebeb"></rect><rect x="65.15" y="37.61" width="2.49" height="59.24" style="fill:#ebebeb"></rect><rect x="86.63" y="37.61" width="2.49" height="59.24" style="fill:#ebebeb"></rect><rect x="108.1" y="37.61" width="2.49" height="59.24" style="fill:#ebebeb"></rect><rect x="129.58" y="37.61" width="2.49" height="59.24" style="fill:#ebebeb"></rect><rect x="34.37" y="27.74" width="5.06" height="219.79" style="fill:#f5f5f5"></rect><polygon points="164.06 248.13 159 246.2 159 27.74 164.06 27.74 164.06 248.13" style="fill:#e0e0e0"></polygon><rect x="34.37" y="25.52" width="129.7" height="5.86" style="fill:#e0e0e0"></rect><rect x="30.78" y="248.86" width="136.71" height="5.46" style="fill:#e0e0e0"></rect><polygon points="159 246.2 167.49 248.86 30.78 248.86 39.42 246.2 159 246.2" style="fill:#ebebeb"></polygon></g><g id="freepik--Floor--inject-2"><path d="M465.62,464.11c0,.14-96.55.26-215.61.26s-215.63-.12-215.63-.26,96.52-.26,215.63-.26S465.62,464,465.62,464.11Z" style="fill:#263238"></path></g><g id="freepik--Graphics--inject-2"><rect x="183.19" y="85.08" width="188.9" height="173.02" style="fill:#fafafa"></rect><path d="M372.59,258.6H182.69v-174h189.9Zm-188.9-1h187.9v-172H183.69Z" style="fill:#263238"></path><rect x="178.82" y="74.67" width="196.69" height="11.03" style="fill:#263238"></rect><polygon points="183.62 85.7 371.67 104.16 371.57 85.7 183.62 85.7" style="fill:#e0e0e0"></polygon><rect x="212.57" y="143.41" width="6.34" height="70.79" style="fill:#70C28D"></rect><rect x="224.81" y="167.45" width="6.34" height="46.75" style="fill:#70C28D"></rect><rect x="237.05" y="152.21" width="6.34" height="62.35" style="fill:#70C28D"></rect><rect x="249.28" y="146.14" width="6.34" height="68.05" style="fill:#70C28D"></rect><rect x="261.52" y="168.89" width="6.34" height="45.31" style="fill:#70C28D"></rect><rect x="273.76" y="177.78" width="6.34" height="36.42" style="fill:#70C28D"></rect><rect x="285.99" y="150.68" width="6.34" height="63.52" style="fill:#70C28D"></rect><rect x="298.23" y="162.13" width="6.34" height="52.07" style="fill:#70C28D"></rect><rect x="310.47" y="152.98" width="6.34" height="61.22" style="fill:#70C28D"></rect><rect x="322.7" y="172.49" width="6.34" height="41.71" style="fill:#70C28D"></rect><rect x="334.94" y="164.55" width="6.34" height="49.65" style="fill:#70C28D"></rect><path d="M337.36,159.46a1.69,1.69,0,0,1-.41-.07l-1.19-.24a18.06,18.06,0,0,0-1.94-.31,23.78,23.78,0,0,0-2.66-.22,30.67,30.67,0,0,0-7.29.63,32.16,32.16,0,0,0-9,3.42,37,37,0,0,0-9.15,7.29A68.83,68.83,0,0,0,298,181c-2.49,4.06-5,8.48-8.67,12.25a22.66,22.66,0,0,1-6.39,4.78,13.66,13.66,0,0,1-3.94,1.21,12.71,12.71,0,0,1-4.17-.15,16.86,16.86,0,0,1-7.27-3.81,33.87,33.87,0,0,1-5.39-5.87c-3.12-4.21-5.34-8.75-7.72-12.88a53.38,53.38,0,0,0-7.71-11,20.68,20.68,0,0,0-4.77-3.75,19.72,19.72,0,0,0-2.58-1.25,20.15,20.15,0,0,0-2.63-.78,19,19,0,0,0-9.55.27,21.44,21.44,0,0,0-6.56,3.15,24.33,24.33,0,0,0-3.45,3.09l-.8.9c-.18.21-.28.31-.29.3s.08-.12.25-.33l.77-.94a22,22,0,0,1,3.4-3.18,21.36,21.36,0,0,1,6.6-3.27,19.26,19.26,0,0,1,9.72-.35,20.07,20.07,0,0,1,10.2,5.84,53.27,53.27,0,0,1,7.82,11.11c2.39,4.13,4.62,8.65,7.71,12.8a33.37,33.37,0,0,0,5.31,5.79,16.71,16.71,0,0,0,7,3.7,12.14,12.14,0,0,0,7.79-1,22.29,22.29,0,0,0,6.24-4.66c3.61-3.71,6.13-8.09,8.62-12.15a69.45,69.45,0,0,1,7.81-11.11,37.07,37.07,0,0,1,9.3-7.32,32.11,32.11,0,0,1,9.15-3.39,30.22,30.22,0,0,1,7.36-.54,23.25,23.25,0,0,1,2.68.27,16.51,16.51,0,0,1,1.93.36l1.18.29A2.61,2.61,0,0,1,337.36,159.46Z" style="fill:#263238"></path><path d="M205.6,219.13c-.15,0-.27-20.19-.27-45.08s.12-45.09.27-45.09.26,20.19.26,45.09S205.74,219.13,205.6,219.13Z" style="fill:#263238"></path><path d="M343.87,219.13c0,.14-30.07.26-67.15.26s-67.15-.12-67.15-.26,30.06-.26,67.15-.26S343.87,219,343.87,219.13Z" style="fill:#263238"></path><path d="M221.61,224.7a21.7,21.7,0,0,1-4.7.26,21.7,21.7,0,0,1-4.7-.26,21.7,21.7,0,0,1,4.7-.26A21.7,21.7,0,0,1,221.61,224.7Z" style="fill:#263238"></path><path d="M237.22,225a30,30,0,0,1-5.62.26A30,30,0,0,1,226,225a31.09,31.09,0,0,1,5.63-.26A31,31,0,0,1,237.22,225Z" style="fill:#263238"></path><path d="M250.52,225a29.88,29.88,0,0,1-5.62.26,30,30,0,0,1-5.62-.26,31,31,0,0,1,5.62-.26A30.93,30.93,0,0,1,250.52,225Z" style="fill:#263238"></path><path d="M263.83,225a29.88,29.88,0,0,1-5.62.26,30,30,0,0,1-5.62-.26,31,31,0,0,1,5.62-.26A30.93,30.93,0,0,1,263.83,225Z" style="fill:#263238"></path><path d="M277.14,225a30,30,0,0,1-5.62.26,29.88,29.88,0,0,1-5.62-.26,30.93,30.93,0,0,1,5.62-.26A31,31,0,0,1,277.14,225Z" style="fill:#263238"></path><path d="M290.45,225a30,30,0,0,1-5.62.26,29.88,29.88,0,0,1-5.62-.26,60.87,60.87,0,0,1,11.24,0Z" style="fill:#263238"></path><path d="M303.76,225a61,61,0,0,1-11.25,0,61,61,0,0,1,11.25,0Z" style="fill:#263238"></path><path d="M317.07,225a61,61,0,0,1-11.25,0,61,61,0,0,1,11.25,0Z" style="fill:#263238"></path><path d="M330.37,225a60.87,60.87,0,0,1-11.24,0,60.87,60.87,0,0,1,11.24,0Z" style="fill:#263238"></path><path d="M343.68,225a60.87,60.87,0,0,1-11.24,0,60.87,60.87,0,0,1,11.24,0Z" style="fill:#263238"></path><path d="M255.89,177c0-.07.57.12.75.9a1.88,1.88,0,0,1-.14,1.35,1.18,1.18,0,0,1-.68.57,1.23,1.23,0,0,1-.94-.11,1.59,1.59,0,0,1-.81-1.49,1.62,1.62,0,0,1,.65-1.19,1,1,0,0,1,.89-.22c.21.06.29.17.27.19s-.47-.14-.93.31a1.36,1.36,0,0,0-.4.93,1.15,1.15,0,0,0,.57,1,.7.7,0,0,0,1-.24,1.79,1.79,0,0,0,.19-1C256.22,177.35,255.85,177.1,255.89,177Z" style="fill:#263238"></path><path d="M317.15,160s.15-.08.41,0a1.55,1.55,0,0,1,.83.72,2,2,0,0,1,.2,1.63,1.71,1.71,0,0,1-1.59,1.27,1.37,1.37,0,0,1-1-.53,2.19,2.19,0,0,1-.43-.9,2.11,2.11,0,0,1,.26-1.62c.57-.81,1.28-.77,1.26-.71s-.56.19-.94.89A1.82,1.82,0,0,0,316,162c.13.48.5,1,1,1a1.29,1.29,0,0,0,1.12-.9,1.81,1.81,0,0,0-.08-1.31A1.74,1.74,0,0,0,317.15,160Z" style="fill:#263238"></path><path d="M318.15,126.5c-.15,0-.26-.34-.26-.75s.11-.75.26-.75.26.33.26.75S318.29,126.5,318.15,126.5Z" style="fill:#263238"></path><path d="M318.15,133.08c-.15,0-.26-.74-.26-1.64s.11-1.65.26-1.65.26.74.26,1.65S318.29,133.08,318.15,133.08Z" style="fill:#263238"></path><path d="M318.15,139.66c-.15,0-.26-.73-.26-1.64s.11-1.65.26-1.65.26.74.26,1.65S318.29,139.66,318.15,139.66Z" style="fill:#263238"></path><path d="M318.15,146.25c-.15,0-.26-.74-.26-1.65s.11-1.64.26-1.64.26.73.26,1.64S318.29,146.25,318.15,146.25Z" style="fill:#263238"></path><path d="M318.15,152.83c-.15,0-.26-.74-.26-1.64s.11-1.65.26-1.65.26.74.26,1.65S318.29,152.83,318.15,152.83Z" style="fill:#263238"></path><path d="M318.15,157.62c-.15,0-.26-.33-.26-.75s.11-.75.26-.75.26.34.26.75S318.29,157.62,318.15,157.62Z" style="fill:#263238"></path><path d="M363.24,113.83c0,.15-10.39.26-23.22.26s-23.22-.11-23.22-.26,10.39-.26,23.22-.26S363.24,113.69,363.24,113.83Z" style="fill:#263238"></path><path d="M347.38,107.33c0,.14-6.69.26-14.94.26s-14.94-.12-14.94-.26,6.69-.26,14.94-.26S347.38,107.19,347.38,107.33Z" style="fill:#263238"></path><g style="opacity:0.30000000000000004"><rect x="212.57" y="143.41" width="6.34" height="70.79" style="fill:#fff"></rect></g><g style="opacity:0.30000000000000004"><rect x="224.81" y="167.45" width="6.34" height="46.75" style="fill:#fff"></rect></g><g style="opacity:0.30000000000000004"><rect x="237.05" y="152.21" width="6.34" height="62.35" style="fill:#fff"></rect></g><g style="opacity:0.30000000000000004"><rect x="249.28" y="146.14" width="6.34" height="68.05" style="fill:#fff"></rect></g><g style="opacity:0.30000000000000004"><rect x="261.52" y="168.89" width="6.34" height="45.31" style="fill:#fff"></rect></g><g style="opacity:0.30000000000000004"><rect x="273.76" y="177.78" width="6.34" height="36.42" style="fill:#fff"></rect></g><g style="opacity:0.30000000000000004"><rect x="285.99" y="150.68" width="6.34" height="63.52" style="fill:#fff"></rect></g><g style="opacity:0.30000000000000004"><rect x="298.23" y="162.13" width="6.34" height="52.07" style="fill:#fff"></rect></g><g style="opacity:0.30000000000000004"><rect x="310.47" y="152.98" width="6.34" height="61.22" style="fill:#fff"></rect></g><g style="opacity:0.30000000000000004"><rect x="322.7" y="172.49" width="6.34" height="41.71" style="fill:#fff"></rect></g><g style="opacity:0.30000000000000004"><rect x="334.94" y="164.55" width="6.34" height="49.65" style="fill:#fff"></rect></g></g><g id="freepik--character-3--inject-2"><rect x="412.02" y="368.4" width="6.92" height="82.91" transform="translate(830.96 819.71) rotate(180)" style="fill:#455a64"></rect><path d="M366.52,372.15h99a10.74,10.74,0,0,0-10.74-10.74H377.26a10.74,10.74,0,0,0-10.74,10.74Z" style="fill:#455a64"></path><path d="M408.76,372.37a73.81,73.81,0,0,0,12.14,0,71,71,0,0,0-12.14,0Z" style="fill:#263238"></path><path d="M385.21,458.82h1a29.45,29.45,0,0,1,58.89,0h1a30.43,30.43,0,0,0-60.85,0Z" style="fill:#455a64"></path><path d="M441,460.33a4.56,4.56,0,1,0,4.56-4.56A4.57,4.57,0,0,0,441,460.33Z" style="fill:#263238"></path><path d="M380.91,459.71a4.56,4.56,0,1,0,4.56-4.57A4.56,4.56,0,0,0,380.91,459.71Z" style="fill:#455a64"></path><path d="M385.5,451.31c0,.14,13.24.26,29.57.26s29.57-.12,29.57-.26-13.24-.25-29.57-.25S385.5,451.17,385.5,451.31Z" style="fill:#455a64"></path><path d="M468.4,286.32v61a14.5,14.5,0,0,1-14.5,14.5h-47l6.39-75.53a6.46,6.46,0,0,1,6.46-6.46h42.22A6.46,6.46,0,0,1,468.4,286.32Z" style="fill:#455a64"></path><path d="M451.77,361.41a.74.74,0,0,1,.11-.18l.34-.5c.32-.43.76-1.08,1.3-1.94A32,32,0,0,0,457,351a31.29,31.29,0,0,0,1.17-5.77,59.51,59.51,0,0,0,.18-6.78c0-4.8,0-10.07,0-15.6,0-11.05.06-21.05.08-28.35,0-3.59.05-6.51.07-8.59,0-1,0-1.76.05-2.33a5.2,5.2,0,0,1,.05-.82,5.2,5.2,0,0,1,0,.82c0,.57,0,1.35.05,2.33,0,2.08,0,5,.07,8.59,0,7.3.05,17.3.08,28.35,0,5.53,0,10.8,0,15.6a59.94,59.94,0,0,1-.24,6.82,31.57,31.57,0,0,1-4.91,13.61c-.56.84-1,1.48-1.38,1.89A3.88,3.88,0,0,1,451.77,361.41Z" style="fill:#263238"></path><path d="M426.16,361.44a9.37,9.37,0,0,1,1.5-.08l4.07-.05c3.44,0,8.2,0,13.45,0,2.63,0,5.13,0,7.4.09a23.6,23.6,0,0,1,6,.66,9.32,9.32,0,0,1,3.63,1.9,5.76,5.76,0,0,1,.79.79,1.23,1.23,0,0,1,.24.31s-.39-.38-1.15-.95a9.88,9.88,0,0,0-3.6-1.72,25.61,25.61,0,0,0-6-.54l-7.4-.05c-5.25,0-10-.09-13.44-.16l-4.07-.11A8.31,8.31,0,0,1,426.16,361.44Z" style="fill:#263238"></path><path d="M382.86,221.71c-1.39,4.27-2.79,8.63-2.69,13.12,0,2.07.38,4.3-.64,6.1-.71,1.26-2,2.09-2.95,3.14a9.26,9.26,0,0,0-1.64,10,6.23,6.23,0,0,0,2.37,2.82,9,9,0,0,0,4.14,1,69.6,69.6,0,0,0,14.28-.65c2.26-.34,4.7-.9,6.09-2.71,1.25-1.61,1.34-3.82,1.27-5.86a55.9,55.9,0,0,0-5.61-22.37" style="fill:#263238"></path><path d="M414.85,217.08a3.53,3.53,0,1,1-.46,6.55c2.29-.4,4.49,1.34,5.56,3.41s1.31,4.45,1.86,6.71,1.53,4.61,3.52,5.82,4.58,1.2,5.8,3.05.16,4.54.69,6.78,2.58,3.71,4.39,5.12,3.67,3.27,3.57,5.56a5.21,5.21,0,0,1-3.13,4.22,13.6,13.6,0,0,1-5.37,1,79,79,0,0,1-26.85-3.46,7.3,7.3,0,0,1-3.71-2.06c-1.38-1.7-1.05-4.17-.66-6.32a143.13,143.13,0,0,1,4.77-20.27c2.24-6.57,5.49-12.9,10.3-17.92" style="fill:#263238"></path><path d="M428.41,282.93h10.68l-3.79-19.05c-2.8-15.58-24.65-16.65-24.65-16.65L393.5,247s-12.71-1.71-20.55,7.13c-1.61,1.82-3.3,3.7-5,5.55l-18.6,19.46-2-24.41-15.93,2.5,2.22,30.65a12.57,12.57,0,0,0,8.42,10.87c3.45,1.09,6.95.13,10.45-1.61,9.28-4.62,26.67-19.34,28-20.47a22.31,22.31,0,0,0-2.4,8.91c0,5.08,5.21,8.88,5.21,8.88L385,309.86l-5.38,24.95,56-2.25A55.73,55.73,0,0,0,427.37,309Zm-47.79-6.39a1.52,1.52,0,0,1-.18-.37l.6-.43S380.87,276,380.62,276.54Z" style="fill:#70C28D"></path><path d="M403.35,326.16a98,98,0,0,1-9.06,5.5c-4,1.89-4.16,1.54-4.31,1-.42-1.33,6.85-3.59,5-4s-8.54,3.78-8.91,2.37c-.49-1.84,7.16-4.06,7.8-4.3s.29-1.15-.27-.9c-.81.35-9.34,3.8-9.84,2-.28-1,1.58-1.28,1.58-1.28s8.25-2.65,8-3.5-5.16.54-6.77,1.13-2.54.06-2.23-.85c.21-.62,5.11-2.53,6.72-3.08s6.06-2,3.26-3-4.57-2.92-4.7-3.74,1-1.28,1.64-.62a11.17,11.17,0,0,0,2.58,1.58,7.06,7.06,0,0,0,2.32.69c.7.09,1.32.14,1.88.18l5.95.44,3,7.88Z" style="fill:#ffbe9d"></path><path d="M429.43,254.32a21,21,0,0,1,7.05,10.54c1.32,4.33,5.11,19,7.9,29.86a14,14,0,0,1-9.15,16.73l-31.51,17-5.15-13.32L426.22,297l-6.68-24.75c-1.1-3.77-1.57-7.6-.2-11.27S423.62,253.62,429.43,254.32Z" style="fill:#70C28D"></path><path d="M332.54,258.06l-1.91-6.12c-.89-4.38,2.57-5.09,3.15-5.74a9.13,9.13,0,0,1,3.09-2.49l-.28-1.77a41.21,41.21,0,0,1-1-5.74c0-1.06,1.93-1.13,2.2-.11.62,2.31,1.71,6.23,2.29,7.68.77,1.9,2.47,6.87,4.26,3.79s1.6-4.9,1.91-5.86,2.57-1.2,2.13.9c-.18.88-.29,2.43-.84,4.54-.25.94-.77,2.09-1,3-.31,1.09-.44,5.15-.61,6Z" style="fill:#ffbe9d"></path><path d="M333.54,247.38a14.94,14.94,0,0,1,.48,1.81,13.14,13.14,0,0,0,.7,1.87,3.65,3.65,0,0,1,.39,1.22,1.28,1.28,0,0,1-.72,1.32,1.54,1.54,0,0,1-1.45-.29,3.38,3.38,0,0,1-.88-.94,5.45,5.45,0,0,1-.76-2,4.84,4.84,0,0,1-.12-1.89,11.44,11.44,0,0,1,.48,1.81,5.6,5.6,0,0,0,.8,1.77,3.08,3.08,0,0,0,.77.8,1.12,1.12,0,0,0,1,.22.79.79,0,0,0,.4-.81,3.58,3.58,0,0,0-.32-1.06,10.27,10.27,0,0,1-.62-2A4.41,4.41,0,0,1,333.54,247.38Z" style="fill:#eb996e"></path><path d="M336.29,245.35a12,12,0,0,1,.91,2.32c.26.79.54,1.65.85,2.57.14.49.33,1,.46,1.55a1.76,1.76,0,0,1,0,1,1.47,1.47,0,0,1-.69.78,1.83,1.83,0,0,1-1.88-.1,3,3,0,0,1-1.11-1.3,19.57,19.57,0,0,1-.81-2.61,11.64,11.64,0,0,1-.54-2.44,12.07,12.07,0,0,1,.89,2.33c.27.72.48,1.64.89,2.5a2.7,2.7,0,0,0,.95,1.09,1.33,1.33,0,0,0,1.36.07,1,1,0,0,0,.48-1.19c-.1-.49-.29-1-.42-1.5l-.75-2.6A11.88,11.88,0,0,1,336.29,245.35Z" style="fill:#eb996e"></path><path d="M347,284.78a9.94,9.94,0,0,1,1-3,9.8,9.8,0,0,1,1.47-2.81,9.94,9.94,0,0,1-1,3A9.8,9.8,0,0,1,347,284.78Z" style="fill:#263238"></path><path d="M372,281.1a17.21,17.21,0,0,1-2.81-.66l-3-.85a16.93,16.93,0,0,1-3.59-1.44,7.94,7.94,0,0,1-2.86-2.67,5.73,5.73,0,0,1-.85-3.07,19.26,19.26,0,0,0-.07-2.09,5,5,0,0,1-.11-.76s.18.23.31.72a11.09,11.09,0,0,1,.24,2.11,5.51,5.51,0,0,0,.88,2.84,7.88,7.88,0,0,0,2.72,2.47,19.37,19.37,0,0,0,3.47,1.44l3,.95A16,16,0,0,1,372,281.1Z" style="fill:#e0e0e0"></path><path d="M418.86,319.86c-.09,0,0-.9-.25-2.29a14,14,0,0,0-2.21-5c-.6-.91-1.22-1.73-1.8-2.49a14.67,14.67,0,0,0-1.58-1.9,2.39,2.39,0,0,0-1.44-.64c-.38,0-.59.06-.6,0s.17-.19.6-.23a2.46,2.46,0,0,1,1.67.56,12.57,12.57,0,0,1,1.73,1.9c.6.74,1.24,1.57,1.86,2.49a12.66,12.66,0,0,1,2.13,5.24A4.76,4.76,0,0,1,418.86,319.86Z" style="fill:#e0e0e0"></path><path d="M436,265.53a4.19,4.19,0,0,1-.78-.22l-2.2-.7a26.81,26.81,0,0,0-8.28-1.45,13.12,13.12,0,0,0-5.58,1.31,26.9,26.9,0,0,0-5.51,3.75,63.35,63.35,0,0,1-5.84,4.64,15.48,15.48,0,0,1-7.56,2.73,8.79,8.79,0,0,1-4.06-.81,10.51,10.51,0,0,1-3.21-2.4c-1.79-1.92-3.06-4.09-4.5-5.95a17.19,17.19,0,0,0-10.25-6.57,18.16,18.16,0,0,0-8.35.12c-1.93.52-2.91,1.07-2.93,1a12.15,12.15,0,0,1,2.88-1.19,17.61,17.61,0,0,1,8.48-.29,18,18,0,0,1,5.51,2.11,16.89,16.89,0,0,1,5,4.52c1.47,1.89,2.75,4.05,4.49,5.9a8.8,8.8,0,0,0,6.88,3,15,15,0,0,0,7.3-2.64,65.37,65.37,0,0,0,5.82-4.58,27,27,0,0,1,5.62-3.77,13.5,13.5,0,0,1,5.76-1.29,25.71,25.71,0,0,1,8.35,1.63c.95.32,1.68.6,2.18.79S436,265.52,436,265.53Z" style="fill:#e0e0e0"></path><path d="M423.55,291.71a10.73,10.73,0,0,0-1.8-.41,10,10,0,0,0-4.86,1.12,57.23,57.23,0,0,1-6.95,3,28.7,28.7,0,0,1-9.22,1.35,27.69,27.69,0,0,1-9.16-1.74,28.32,28.32,0,0,1-6.71-3.58A26.24,26.24,0,0,1,381,288.1a12.72,12.72,0,0,1-.91-1.05,2.15,2.15,0,0,1-.29-.4s.48.48,1.35,1.31a31.79,31.79,0,0,0,3.91,3.23,29.16,29.16,0,0,0,6.67,3.43,27.6,27.6,0,0,0,9,1.66,28.65,28.65,0,0,0,9.06-1.27,62.29,62.29,0,0,0,6.95-2.93,9.93,9.93,0,0,1,5-1A4.16,4.16,0,0,1,423.55,291.71Z" style="fill:#e0e0e0"></path><path d="M442.47,287.49a1.93,1.93,0,0,1-.25.76,9,9,0,0,1-1.11,1.85,10.19,10.19,0,0,1-5.93,3.82,17.36,17.36,0,0,1-7.09-.18,12.72,12.72,0,0,1-2.83-.76,23.72,23.72,0,0,1,2.89.4,19.3,19.3,0,0,0,6.91,0,10.51,10.51,0,0,0,5.77-3.54C442,288.51,442.38,287.45,442.47,287.49Z" style="fill:#e0e0e0"></path><path d="M419,270.12a2.47,2.47,0,0,1,.14.48c.09.35.2.82.35,1.41l1.31,5.38c1.15,4.62,2.84,11.22,5,19.13l0,.15-.13.09-23.3,16.07-3.69,2.54.09-.31c1.84,4.61,3.6,9,5.24,13.16l-.33-.13c9.66-4.77,17.8-9.13,23.53-12.28l6.68-3.7,1.78-1a3.21,3.21,0,0,1,.63-.31,5.36,5.36,0,0,1-.59.38L434,312.25c-1.53.91-3.77,2.22-6.61,3.83-5.69,3.22-13.81,7.64-23.47,12.45l-.23.12-.1-.25-5.27-13.15-.08-.19.18-.12,3.68-2.53,23.35-16-.09.24c-2.08-7.92-3.71-14.54-4.78-19.18-.54-2.33-.94-4.16-1.2-5.41-.12-.6-.21-1.07-.28-1.43A2.57,2.57,0,0,1,419,270.12Z" style="fill:#263238"></path><path d="M433.19,298.88a25,25,0,0,0-3.65-1.7,11.26,11.26,0,0,0-2.76-.53c-.73,0-1.18,0-1.2-.08s.43-.24,1.19-.29a8.11,8.11,0,0,1,2.93.4A6.35,6.35,0,0,1,433.19,298.88Z" style="fill:#263238"></path><path d="M316.43,406.69l4.14-8.59,16.14,7.65-5.93,12.64-1-.41c-4.57-1.87-23.1-9.8-25.65-12.12C301.25,403.28,316.43,406.69,316.43,406.69Z" style="fill:#70C28D"></path><g style="opacity:0.5"><path d="M325,415.48a6.26,6.26,0,0,1,3.69-2.46,6,6,0,0,1,4.33.61l-2.13,4.52Z" style="fill:#fff"></path></g><g style="opacity:0.4"><path d="M308.9,405.27s-5.46-.9-5.24.18,18.66,9.8,27.12,12.94l.15-.38-21.59-10S309.82,405.75,308.9,405.27Z" style="fill:#fff"></path></g><path d="M331.19,418.12a1.23,1.23,0,0,1-.29-.1l-.82-.33-3-1.26c-2.52-1.08-6-2.63-9.77-4.42s-7.17-3.48-9.61-4.74l-2.88-1.51-.77-.42-.27-.16a1,1,0,0,1,.29.12l.79.39,2.91,1.45c2.45,1.22,5.85,2.89,9.64,4.68s7.23,3.35,9.73,4.47l3,1.32.8.37Z" style="fill:#263238"></path><path d="M309.23,408.27a7.09,7.09,0,0,0,.11-1.66,7.41,7.41,0,0,0-.46-1.59,2.88,2.88,0,0,1,.35,3.25Z" style="fill:#263238"></path><path d="M315.14,408.11c-.06,0-.16-.38-.22-.86a1.89,1.89,0,0,1,0-.89,1.9,1.9,0,0,1,.22.86A1.87,1.87,0,0,1,315.14,408.11Z" style="fill:#263238"></path><path d="M316.77,408s-.23-.27-.39-.65-.24-.71-.19-.73.23.26.39.65S316.83,408,316.77,408Z" style="fill:#263238"></path><path d="M318.32,406.91a2.13,2.13,0,0,1-.89-.3,2.24,2.24,0,0,1-.81-.48c0-.06.43.07.9.29S318.34,406.85,318.32,406.91Z" style="fill:#263238"></path><path d="M319.11,406a1.93,1.93,0,0,1-1.07-.18,1.84,1.84,0,0,1-.91-.58c0-.06.45.18,1,.38A4.77,4.77,0,0,1,319.11,406Z" style="fill:#263238"></path><path d="M315.26,406.44a2.94,2.94,0,0,1-1-.49,7.27,7.27,0,0,1-1-.77,3.51,3.51,0,0,1-.51-.56.59.59,0,0,1-.1-.44.45.45,0,0,1,.35-.34,2.09,2.09,0,0,1,2.09,1.67,2,2,0,0,1,0,.85c0,.2-.09.3-.1.29a3.51,3.51,0,0,0-.06-1.11,2.13,2.13,0,0,0-.61-1,1.78,1.78,0,0,0-1.28-.5c-.22,0-.25.26-.12.46a3.88,3.88,0,0,0,.47.53,7.42,7.42,0,0,0,.94.78C314.88,406.22,315.27,406.41,315.26,406.44Z" style="fill:#263238"></path><path d="M315,406.37a1.12,1.12,0,0,1,.22-.78,1.85,1.85,0,0,1,.65-.62,1.12,1.12,0,0,1,1.11-.12.45.45,0,0,1,.09.63,1.28,1.28,0,0,1-.39.38,3.59,3.59,0,0,1-.79.39,1.5,1.5,0,0,1-.79.14s.29-.09.73-.28a3.75,3.75,0,0,0,.73-.42c.25-.15.53-.5.29-.67a1.06,1.06,0,0,0-.89.12,1.92,1.92,0,0,0-.61.54A4.28,4.28,0,0,0,315,406.37Z" style="fill:#263238"></path><path d="M333,413.55s-.44-.26-1.21-.52a5.8,5.8,0,0,0-3.11-.16,5.7,5.7,0,0,0-2.72,1.53c-.57.57-.81,1-.85,1a1.21,1.21,0,0,1,.16-.32,4.37,4.37,0,0,1,.58-.79,5.44,5.44,0,0,1,2.78-1.63,5.53,5.53,0,0,1,3.21.22,4.67,4.67,0,0,1,.88.45C332.86,413.45,333,413.54,333,413.55Z" style="fill:#263238"></path><path d="M334.46,406a33.71,33.71,0,0,1-1.43,3.38,32.86,32.86,0,0,1-1.63,3.29,33.71,33.71,0,0,1,1.43-3.38A28.43,28.43,0,0,1,334.46,406Z" style="fill:#263238"></path><path d="M323.71,413a10.29,10.29,0,0,1-2.47-.88,10,10,0,0,1-2.27-1.31c0-.05,1,.51,2.36,1.11S323.73,412.89,323.71,413Z" style="fill:#263238"></path><path d="M326.87,414.44c0,.06-.19.18-.41.38s-.38.37-.44.34,0-.29.3-.51S326.86,414.39,326.87,414.44Z" style="fill:#263238"></path><path d="M328.77,413.52c0,.06-.17.18-.41.27s-.47.12-.49.06.17-.18.41-.27S328.75,413.47,328.77,413.52Z" style="fill:#263238"></path><path d="M330.79,413.65c0,.05-.25,0-.52-.08s-.51,0-.54,0,.22-.22.56-.18S330.83,413.61,330.79,413.65Z" style="fill:#263238"></path><path d="M332.16,413.91c0,.06-.14.1-.29.08s-.29-.07-.28-.12.13-.1.29-.09S332.16,413.85,332.16,413.91Z" style="fill:#263238"></path><path d="M364.47,458.7l-.19-9.53,17.85-.48.43,13.94-1.1.1c-4.92.41-25,1.72-28.36.81C349.39,462.53,364.47,458.7,364.47,458.7Z" style="fill:#70C28D"></path><g style="opacity:0.5"><path d="M376.09,462.67a6.16,6.16,0,0,1,2.17-3.87,6,6,0,0,1,4.14-1.41l.14,5Z" style="fill:#fff"></path></g><g style="opacity:0.4"><path d="M357.11,460.83s-5.27,1.68-4.59,2.54,21.07.3,30-.74l0-.4-23.77.86S358.15,460.85,357.11,460.83Z" style="fill:#fff"></path></g><path d="M382.8,462.22l-.3,0-.88.07-3.24.23c-2.74.18-6.53.37-10.71.49s-8,.14-10.72.12l-3.25-.05-.88,0a1.2,1.2,0,0,1-.31,0l.31,0h.88l3.25,0c2.74,0,6.53-.07,10.71-.19s8-.28,10.71-.42l3.24-.16.89,0A1.36,1.36,0,0,1,382.8,462.22Z" style="fill:#263238"></path><path d="M358.77,463.37a7.49,7.49,0,0,0-.65-1.53,8.06,8.06,0,0,0-1.14-1.22,2.91,2.91,0,0,1,1.79,2.75Z" style="fill:#263238"></path><path d="M364,460.55s-.31-.27-.58-.67-.45-.76-.4-.79.31.27.58.67S364,460.52,364,460.55Z" style="fill:#263238"></path><path d="M365.38,459.75s-.32-.14-.64-.41-.54-.52-.5-.56.33.13.64.4S365.42,459.7,365.38,459.75Z" style="fill:#263238"></path><path d="M366.25,458a2.14,2.14,0,0,1-.93.14,2.09,2.09,0,0,1-.93-.07,3.83,3.83,0,0,1,1.86-.07Z" style="fill:#263238"></path><path d="M366.53,456.84a1.81,1.81,0,0,1-1,.33,2,2,0,0,1-1.08-.11,5.56,5.56,0,0,1,1.06-.11A6,6,0,0,1,366.53,456.84Z" style="fill:#263238"></path><path d="M363.31,459a3.42,3.42,0,0,1-1.15,0,6.43,6.43,0,0,1-1.22-.23,3.12,3.12,0,0,1-.71-.27.62.62,0,0,1-.3-.35.45.45,0,0,1,.17-.46,2.1,2.1,0,0,1,2.61.54,1.87,1.87,0,0,1,.4.76.72.72,0,0,1,0,.31,3.21,3.21,0,0,0-.55-1,2.16,2.16,0,0,0-1-.61,1.79,1.79,0,0,0-1.36.13c-.18.14-.11.35.1.47a3.67,3.67,0,0,0,.65.26,7.53,7.53,0,0,0,1.19.27C362.87,459,363.31,459,363.31,459Z" style="fill:#263238"></path><path d="M363,459.08a1.11,1.11,0,0,1-.16-.8,1.92,1.92,0,0,1,.29-.84,1.19,1.19,0,0,1,.94-.62.46.46,0,0,1,.37.52,1.28,1.28,0,0,1-.18.52,3.53,3.53,0,0,1-.52.71,1.68,1.68,0,0,1-.65.48s.22-.21.53-.58a4,4,0,0,0,.46-.7c.15-.25.25-.69,0-.73s-.57.27-.74.51a1.82,1.82,0,0,0-.31.75A3.57,3.57,0,0,0,363,459.08Z" style="fill:#263238"></path><path d="M382.31,457.34s-.52,0-1.32.08a5.75,5.75,0,0,0-2.85,1.27,5.85,5.85,0,0,0-1.73,2.59c-.25.77-.26,1.29-.3,1.28a1.27,1.27,0,0,1,0-.36,4.7,4.7,0,0,1,.17-1,5.41,5.41,0,0,1,4.7-4,4.5,4.5,0,0,1,1,0A1.45,1.45,0,0,1,382.31,457.34Z" style="fill:#263238"></path><path d="M380.25,450a32.93,32.93,0,0,1,.26,3.66,31.79,31.79,0,0,1,0,3.68,30.33,30.33,0,0,1-.26-3.67A31.6,31.6,0,0,1,380.25,450Z" style="fill:#263238"></path><path d="M373.79,461a10.36,10.36,0,0,1-2.6.33,10.06,10.06,0,0,1-2.61-.14c0-.06,1.17,0,2.6-.08S373.78,460.93,373.79,461Z" style="fill:#263238"></path><path d="M377.29,460.89s-.09.25-.2.52-.17.51-.23.5-.1-.28,0-.59S377.25,460.84,377.29,460.89Z" style="fill:#263238"></path><path d="M378.56,459.21c.05,0-.06.23-.24.42s-.36.32-.41.28.07-.23.25-.43S378.52,459.17,378.56,459.21Z" style="fill:#263238"></path><path d="M380.43,458.41c0,.06-.25.06-.51.16s-.44.25-.49.21.09-.29.42-.41S380.45,458.35,380.43,458.41Z" style="fill:#263238"></path><path d="M381.76,458c0,.05-.07.15-.22.21s-.28.06-.31,0,.08-.15.23-.21S381.74,458,381.76,458Z" style="fill:#263238"></path><path d="M378.51,283.47a14.75,14.75,0,0,1,.68-2.58c.23-.78.52-1.72.88-2.75.18-.51.38-1.05.61-1.6.12-.3.28-.55.36-.8a2.43,2.43,0,0,0,.1-.82,13.38,13.38,0,0,0-.27-1.76c-.11-.57-.21-1.13-.31-1.67-.18-1-.34-2-.49-2.84a12.1,12.1,0,0,1-.32-2.64,13.68,13.68,0,0,1,.7,2.57c.19.86.39,1.8.61,2.81.11.54.22,1.1.34,1.67a11,11,0,0,1,.29,1.85,2.87,2.87,0,0,1-.13,1,8.61,8.61,0,0,1-.39.84c-.23.54-.43,1.06-.62,1.57-.36,1-.69,1.87-1,2.7A12.11,12.11,0,0,1,378.51,283.47Z" style="fill:#263238"></path><g style="opacity:0.30000000000000004"><path d="M418.09,267.32c.7,10.62,1.77,22.55,2,33.19,1.64-.73,5.52-3.54,5.52-3.94C425.58,296.57,420.51,278.77,418.09,267.32Z"></path></g><path d="M435.79,330.06s-73.22-15.34-80.31-12-39.78,84.16-39.78,84.16l22.05,8.1,29.94-67s53.92,20.34,62.88,18.48S435.79,330.06,435.79,330.06Z" style="fill:#263238"></path><path d="M403.07,334.37c-1.12.37-43.48,17.78-46.46,23.38S361,456.27,361,456.27h24.09l-1.5-82.59,47-11.91Z" style="fill:#263238"></path><path d="M430.81,362a3,3,0,0,1-.69-.09l-2-.35c-1.71-.31-4.18-.8-7.22-1.44-6.08-1.29-14.45-3.23-23.57-5.84-4.56-1.32-8.86-2.7-12.75-4s-7.35-2.66-10.21-3.89c-1.44-.58-2.72-1.16-3.85-1.67s-2.09-.95-2.86-1.35l-1.79-.9a2.85,2.85,0,0,1-.61-.35,4,4,0,0,1,.66.25l1.83.81c.78.36,1.76.78,2.9,1.26s2.42,1,3.87,1.59c2.87,1.18,6.35,2.42,10.22,3.77s8.19,2.67,12.74,4c9.11,2.61,17.45,4.6,23.51,6l7.17,1.62,1.95.45A2.93,2.93,0,0,1,430.81,362Z" style="fill:#455a64"></path><path d="M356.62,379.09a6.12,6.12,0,0,1-.22-1.39c-.11-1-.25-2.28-.41-3.81s-.33-3.56-.52-5.66a25.19,25.19,0,0,1,0-7,10.89,10.89,0,0,1,3.51-6.06,18.61,18.61,0,0,1,4.82-3.1,38.32,38.32,0,0,1,3.58-1.41,6.07,6.07,0,0,1,1.35-.39c0,.1-1.86.76-4.76,2.15a19.26,19.26,0,0,0-4.64,3.12,10.57,10.57,0,0,0-3.32,5.79,26.73,26.73,0,0,0,0,6.86c.16,2.11.29,4,.41,5.67s.17,2.81.23,3.82A6.92,6.92,0,0,1,356.62,379.09Z" style="fill:#455a64"></path><path d="M377.75,371.11a17.6,17.6,0,0,1,5.7,2.51,9,9,0,0,1-3-1A8.86,8.86,0,0,1,377.75,371.11Z" style="fill:#263238"></path><path d="M379.87,368.57a32.77,32.77,0,0,1,1.92,2.72,31.37,31.37,0,0,1,2.09,2.59,8.75,8.75,0,0,1-4-5.31Z" style="fill:#263238"></path><path d="M389.12,372.38s-.07.2-.37.38a2.8,2.8,0,0,1-1.4.33,17.26,17.26,0,0,0-2,.05,1.41,1.41,0,0,0-1.2,1.54,37.83,37.83,0,0,1-.3,6.43,37.51,37.51,0,0,1-.25-6.46,2.26,2.26,0,0,1,.46-1.37,1.86,1.86,0,0,1,1.21-.64,12.33,12.33,0,0,1,2.09.06A3.36,3.36,0,0,0,389.12,372.38Z" style="fill:#263238"></path><path d="M384.63,202.32c-3.66,1.19-7.91,3.62-5.8,15.07.92,5,2.1,10.18,5.48,14a1.86,1.86,0,0,0,3.31.17c3.84-4.19,7.11-9.13,8.15-14.72s-.52-11.88-4.91-15.48" style="fill:#263238"></path><path d="M391.65,252.07c-.12-5.27-.35-10.92-.35-10.92s-8-1-8.36-9.2-.43-22.52-.43-22.52l15.66-11.59,11,15.13.27,38.83a8.9,8.9,0,0,1-8.9,9h0A8.89,8.89,0,0,1,391.65,252.07Z" style="fill:#ffbe9d"></path><path d="M391.3,241.15a19.55,19.55,0,0,0,10.62-3.48s-2.49,6-10.48,5.49Z" style="fill:#eb996e"></path><path d="M392,231.61a1,1,0,0,1,.09-1,1,1,0,0,1,.89-.4,1.5,1.5,0,0,1,1.53-1.33,1.7,1.7,0,0,1,1.55,1.39,2,2,0,0,1-.87,1.94,2.36,2.36,0,0,1-2.16.16,1.68,1.68,0,0,1-1.09-1.29" style="fill:#eb996e"></path><path d="M384.16,219.36a1.13,1.13,0,0,0,1.09,1.13,1.08,1.08,0,0,0,1.16-1,1.13,1.13,0,0,0-1.09-1.13A1.08,1.08,0,0,0,384.16,219.36Z" style="fill:#263238"></path><path d="M384.22,218.44c.14.14,1-.49,2.2-.48s2.09.6,2.22.46-.08-.33-.46-.62a3.11,3.11,0,0,0-1.78-.55,3,3,0,0,0-1.75.57C384.27,218.11,384.15,218.37,384.22,218.44Z" style="fill:#263238"></path><path d="M396.3,219.47a1.13,1.13,0,0,0,1.08,1.14,1.08,1.08,0,0,0,1.16-1,1.12,1.12,0,0,0-1.08-1.13A1.08,1.08,0,0,0,396.3,219.47Z" style="fill:#263238"></path><path d="M396.1,218.66c.14.15,1-.48,2.2-.48s2.09.61,2.22.46-.07-.33-.46-.61a3.11,3.11,0,0,0-1.78-.55,2.86,2.86,0,0,0-1.75.57C396.16,218.33,396,218.6,396.1,218.66Z" style="fill:#263238"></path><path d="M391.71,227.62a9,9,0,0,0-2-.35c-.31,0-.6-.09-.66-.3a1.6,1.6,0,0,1,.21-.92l.91-2.35a39.18,39.18,0,0,0,2.05-6.15,41.94,41.94,0,0,0-2.54,6c-.3.83-.59,1.61-.87,2.37a1.75,1.75,0,0,0-.16,1.21.76.76,0,0,0,.51.45,2.07,2.07,0,0,0,.52.07A7.44,7.44,0,0,0,391.71,227.62Z" style="fill:#263238"></path><path d="M395.27,228.46c-.2,0-.2,1.3-1.32,2.23s-2.52.79-2.53,1,.31.26.9.27a3.25,3.25,0,0,0,2.11-.73,2.83,2.83,0,0,0,1-1.87C395.5,228.78,395.36,228.45,395.27,228.46Z" style="fill:#263238"></path><path d="M395.55,216c.12.33,1.33.18,2.75.35s2.56.55,2.75.26c.08-.14-.11-.45-.58-.77a4.84,4.84,0,0,0-4.19-.46C395.76,215.55,395.5,215.81,395.55,216Z" style="fill:#263238"></path><path d="M384.66,214.94c.21.27,1,0,2,0s1.85.19,2-.1-.05-.41-.42-.67a3,3,0,0,0-3.29.1C384.68,214.52,384.57,214.8,384.66,214.94Z" style="fill:#263238"></path><path d="M401.9,215.3a6.23,6.23,0,0,0,4-1.42c.72,1.93.71,4.07,1.37,6s1.32,20.77,3.36,20.47c1.87-.29,4.11-19.17,4.59-21,1.32-5.06-.34-10.64-3.7-14.65-4-4.75-10.66-8.81-16.85-8.37a13.94,13.94,0,0,0-7.68,2.7s-3.34,2.58-3.07,5.87c.39,4.58,7.07,7.53,11.67,7.39l.65.64A8,8,0,0,0,401.9,215.3Z" style="fill:#263238"></path><path d="M382.47,213.8a6.84,6.84,0,0,0,2.28-3.67,19.84,19.84,0,0,0,.53-4.35c0-.43,0-1-.45-1.08s-.73.3-.92.66a14.11,14.11,0,0,0-1.45,8.86l-.18.15" style="fill:#263238"></path></g><g id="freepik--character-2--inject-2"><path d="M269,460.14l.06-9.8-18.36-.22-.24,14.34,1.14.09c5.06.34,25.77,1.38,29.17.4C284.55,463.85,269,460.14,269,460.14Z" style="fill:#70C28D"></path><g style="opacity:0.4"><path d="M257.11,464.4a6.39,6.39,0,0,0-2.29-3.95,6.24,6.24,0,0,0-4.28-1.39l-.07,5.14Z"></path></g><g style="opacity:0.4"><path d="M276.59,462.22s5.45,1.65,4.76,2.54-21.66.63-30.9-.3l0-.41,24.45.52S275.52,462.26,276.59,462.22Z"></path></g><path d="M250.2,464a1.61,1.61,0,0,0,.31,0l.91.07,3.34.18c2.81.14,6.71.28,11,.34s8.21,0,11,0l3.34-.09.9,0,.32,0h-1.23l-3.34,0c-2.82,0-6.71,0-11,0s-8.2-.18-11-.27l-3.34-.12-.9,0Z" style="fill:#263238"></path><path d="M274.93,464.85a7.57,7.57,0,0,1,.65-1.58,6.75,6.75,0,0,1,1.15-1.26,2.46,2.46,0,0,0-1.34,1.14A2.51,2.51,0,0,0,274.93,464.85Z" style="fill:#263238"></path><path d="M269.55,462c.05,0,.31-.28.59-.7s.45-.79.4-.82-.32.28-.59.7S269.5,462,269.55,462Z" style="fill:#263238"></path><path d="M268.07,461.23s.33-.14.65-.42.55-.55.51-.59-.33.14-.65.42S268,461.18,268.07,461.23Z" style="fill:#263238"></path><path d="M267.15,459.49a4.25,4.25,0,0,0,1.92,0,2.14,2.14,0,0,0-.95-.13C267.59,459.38,267.15,459.42,267.15,459.49Z" style="fill:#263238"></path><path d="M266.85,458.26a2.73,2.73,0,0,0,2.17.19,7.05,7.05,0,0,0-1.09-.09A5.8,5.8,0,0,0,266.85,458.26Z" style="fill:#263238"></path><path d="M270.19,460.44a3.17,3.17,0,0,0,1.18,0,6.91,6.91,0,0,0,1.26-.26,3.5,3.5,0,0,0,.72-.29.64.64,0,0,0,.3-.36.48.48,0,0,0-.17-.48,2.17,2.17,0,0,0-3.08,1.39.74.74,0,0,0,0,.31,3.89,3.89,0,0,1,.55-1,2.21,2.21,0,0,1,1-.64,1.83,1.83,0,0,1,1.41.12c.18.14.11.36-.1.48a3.91,3.91,0,0,1-.67.27,7.16,7.16,0,0,1-1.22.3C270.64,460.41,270.19,460.41,270.19,460.44Z" style="fill:#263238"></path><path d="M270.5,460.5a1.17,1.17,0,0,0,.14-.81,1.84,1.84,0,0,0-.31-.87,1.17,1.17,0,0,0-1-.61.46.46,0,0,0-.37.54,1.45,1.45,0,0,0,.19.53,4,4,0,0,0,.55.72c.36.36.65.51.67.48s-.23-.21-.56-.59a4.85,4.85,0,0,1-.48-.71c-.16-.25-.26-.7,0-.75s.6.27.77.51a1.89,1.89,0,0,1,.33.77A4.9,4.9,0,0,1,270.5,460.5Z" style="fill:#263238"></path><path d="M250.64,459c0,.05.52,0,1.35.07a5.75,5.75,0,0,1,4.76,3.89c.27.79.29,1.32.34,1.32a1.17,1.17,0,0,0,0-.37,4.39,4.39,0,0,0-.19-1,5.71,5.71,0,0,0-1.82-2.77,5.8,5.8,0,0,0-3.07-1.24,4.54,4.54,0,0,0-1,0A1.31,1.31,0,0,0,250.64,459Z" style="fill:#263238"></path><path d="M252.64,451.4a31,31,0,0,0-.21,3.77,30,30,0,0,0,0,3.77,32.63,32.63,0,0,0,.2-3.77A31.32,31.32,0,0,0,252.64,451.4Z" style="fill:#263238"></path><path d="M259.45,462.63a10.15,10.15,0,0,0,2.67.3,10,10,0,0,0,2.69-.18c0-.06-1.2,0-2.68,0S259.45,462.57,259.45,462.63Z" style="fill:#263238"></path><path d="M255.85,462.58c0,.05.09.26.21.54s.18.52.25.51.1-.29,0-.6S255.89,462.54,255.85,462.58Z" style="fill:#263238"></path><path d="M254.51,460.88s.07.23.26.43.38.32.42.27-.07-.23-.26-.43S254.56,460.84,254.51,460.88Z" style="fill:#263238"></path><path d="M252.58,460.08c0,.06.26.07.53.16s.46.25.51.21-.11-.3-.44-.42S252.56,460,252.58,460.08Z" style="fill:#263238"></path><path d="M251.2,459.7c0,.06.09.15.24.21s.29.07.31,0-.08-.15-.23-.21S251.23,459.64,251.2,459.7Z" style="fill:#263238"></path><path d="M197.68,460.14l-.06-9.8,18.36-.22.24,14.34-1.14.09c-5.06.34-25.77,1.38-29.17.4C182.12,463.85,197.68,460.14,197.68,460.14Z" style="fill:#70C28D"></path><g style="opacity:0.4"><path d="M209.56,464.4a6.39,6.39,0,0,1,2.29-3.95,6.24,6.24,0,0,1,4.28-1.39l.07,5.14Z"></path></g><g style="opacity:0.4"><path d="M190.08,462.22s-5.45,1.65-4.76,2.54,21.66.63,30.9-.3l0-.41-24.45.52S191.15,462.26,190.08,462.22Z"></path></g><path d="M216.47,464a1.61,1.61,0,0,1-.31,0l-.91.07-3.34.18c-2.81.14-6.71.28-11,.34s-8.21,0-11,0l-3.34-.09-.9,0-.32,0h1.23l3.34,0c2.82,0,6.71,0,11,0s8.2-.18,11-.27l3.34-.12.9,0Z" style="fill:#263238"></path><path d="M191.74,464.85a7.85,7.85,0,0,0-.64-1.58,7,7,0,0,0-1.16-1.26,2.46,2.46,0,0,1,1.34,1.14A2.51,2.51,0,0,1,191.74,464.85Z" style="fill:#263238"></path><path d="M197.12,462c-.05,0-.31-.28-.59-.7s-.45-.79-.4-.82.32.28.59.7S197.17,462,197.12,462Z" style="fill:#263238"></path><path d="M198.6,461.23s-.33-.14-.65-.42-.55-.55-.51-.59.33.14.65.42S198.64,461.18,198.6,461.23Z" style="fill:#263238"></path><path d="M199.52,459.49a4.25,4.25,0,0,1-1.92,0,2.18,2.18,0,0,1,1-.13C199.08,459.38,199.52,459.42,199.52,459.49Z" style="fill:#263238"></path><path d="M199.82,458.26a2.73,2.73,0,0,1-2.17.19,7.05,7.05,0,0,1,1.09-.09A5.8,5.8,0,0,1,199.82,458.26Z" style="fill:#263238"></path><path d="M196.48,460.44a3.17,3.17,0,0,1-1.18,0,6.91,6.91,0,0,1-1.26-.26,3.5,3.5,0,0,1-.72-.29.64.64,0,0,1-.3-.36.48.48,0,0,1,.17-.48,2.17,2.17,0,0,1,3.08,1.39.74.74,0,0,1,0,.31,3.89,3.89,0,0,0-.55-1,2.21,2.21,0,0,0-1-.64,1.83,1.83,0,0,0-1.41.12c-.18.14-.11.36.1.48a3.91,3.91,0,0,0,.67.27,7.16,7.16,0,0,0,1.22.3C196,460.41,196.48,460.41,196.48,460.44Z" style="fill:#263238"></path><path d="M196.17,460.5a1.17,1.17,0,0,1-.14-.81,1.84,1.84,0,0,1,.31-.87,1.17,1.17,0,0,1,1-.61.46.46,0,0,1,.37.54,1.45,1.45,0,0,1-.19.53,4,4,0,0,1-.55.72c-.36.36-.65.51-.67.48s.24-.21.56-.59a4.17,4.17,0,0,0,.48-.71c.16-.25.26-.7,0-.75s-.6.27-.77.51a2,2,0,0,0-.33.77A4.9,4.9,0,0,0,196.17,460.5Z" style="fill:#263238"></path><path d="M216,459c0,.05-.52,0-1.35.07a5.75,5.75,0,0,0-4.76,3.89c-.27.79-.29,1.32-.34,1.32a1.17,1.17,0,0,1,0-.37,4.39,4.39,0,0,1,.19-1,5.71,5.71,0,0,1,1.82-2.77,5.8,5.8,0,0,1,3.07-1.24,4.54,4.54,0,0,1,1,0A1.31,1.31,0,0,1,216,459Z" style="fill:#263238"></path><path d="M214,451.4a31,31,0,0,1,.21,3.77,30,30,0,0,1,0,3.77,32.63,32.63,0,0,1-.2-3.77A31.32,31.32,0,0,1,214,451.4Z" style="fill:#263238"></path><path d="M207.22,462.63a10.15,10.15,0,0,1-2.67.3,10,10,0,0,1-2.69-.18c0-.06,1.2,0,2.68,0S207.22,462.57,207.22,462.63Z" style="fill:#263238"></path><path d="M210.82,462.58c.05.05-.09.26-.21.54s-.18.52-.25.51-.1-.29,0-.6S210.78,462.54,210.82,462.58Z" style="fill:#263238"></path><path d="M212.16,460.88s-.07.23-.26.43-.38.32-.42.27.07-.23.26-.43S212.11,460.84,212.16,460.88Z" style="fill:#263238"></path><path d="M214.09,460.08c0,.06-.26.07-.53.16s-.46.25-.51.21.11-.3.44-.42S214.11,460,214.09,460.08Z" style="fill:#263238"></path><path d="M215.47,459.7c0,.06-.09.15-.24.21s-.29.07-.31,0,.08-.15.23-.21S215.44,459.64,215.47,459.7Z" style="fill:#263238"></path><polygon points="281.38 272.39 274.34 456.43 245.74 457.03 250.49 297.56 218.33 458.25 191.14 458.25 226.16 272.76 281.38 272.39" style="fill:#263238"></polygon><path d="M257.08,279.08a17.89,17.89,0,0,1-.33,3c-.26,1.86-.67,4.43-1.14,7.26a32.08,32.08,0,0,1-.82,4,5.64,5.64,0,0,1-1.87,2.8,4.34,4.34,0,0,1-2.07.93,1.82,1.82,0,0,1-.83,0,5.13,5.13,0,0,0,4.33-3.87,36.15,36.15,0,0,0,.76-3.93c.48-2.84.93-5.4,1.29-7.24A18.75,18.75,0,0,1,257.08,279.08Z" style="fill:#263238"></path><path d="M251.13,280c.06.05-.17.35,0,.83a1,1,0,0,0,.48.62.81.81,0,0,0,.86-.17.79.79,0,0,0,.27-.83,1,1,0,0,0-.55-.55c-.46-.2-.78,0-.82-.07s.26-.42.93-.27a1.29,1.29,0,0,1,.88.73,1.3,1.3,0,0,1-1.78,1.57,1.28,1.28,0,0,1-.62-1C250.68,280.17,251.11,279.9,251.13,280Z" style="fill:#263238"></path><path d="M235.77,282.59a5.42,5.42,0,0,1,.55-5.11c.13.06-.28,1.15-.42,2.54S235.92,282.56,235.77,282.59Z" style="fill:#263238"></path><path d="M239.21,282.37a6.28,6.28,0,0,1,.37-5.33,21.82,21.82,0,0,1-.28,2.66A20.5,20.5,0,0,1,239.21,282.37Z" style="fill:#263238"></path><path d="M268.77,283.12a17.19,17.19,0,0,1,.16-2.76,17.3,17.3,0,0,1,.12-2.77,5.16,5.16,0,0,1,.38,2.79A5.23,5.23,0,0,1,268.77,283.12Z" style="fill:#263238"></path><path d="M272.5,282.91c-.14-.05.31-1.26.41-2.8s-.16-2.8,0-2.84a6,6,0,0,1-.4,5.64Z" style="fill:#263238"></path><path d="M241.54,195.82l17.66-1.41c.11-2.06,0-10,0-10s7.34-1.14,7.43-8.48-1.18-24.21-1.18-24.21h0a25.53,25.53,0,0,0-25.65,3.22l-1.08.84Z" style="fill:#ffbe9d"></path><path d="M259.17,184.27a17.14,17.14,0,0,1-9.57-2.72s2.26,5.28,9.59,4.62Z" style="fill:#eb996e"></path><path d="M239.58,163.35c-.12-.06-5.05-1.5-4.89,3.52s5.17,3.83,5.18,3.68S239.58,163.35,239.58,163.35Z" style="fill:#ffbe9d"></path><path d="M238.27,168.7s-.08.07-.23.14a.87.87,0,0,1-.65,0,2.17,2.17,0,0,1-1.07-1.91,3,3,0,0,1,.21-1.26,1,1,0,0,1,.64-.69.44.44,0,0,1,.52.22c.07.14,0,.24.07.25s.1-.09.06-.29a.59.59,0,0,0-.21-.31.62.62,0,0,0-.49-.11,1.24,1.24,0,0,0-.89.8A3,3,0,0,0,236,167a2.27,2.27,0,0,0,1.34,2.13.93.93,0,0,0,.8-.16C238.27,168.82,238.29,168.71,238.27,168.7Z" style="fill:#eb996e"></path><path d="M263.79,163.19a1.06,1.06,0,0,1-1,1.06,1,1,0,0,1-1.08-.95,1,1,0,0,1,1-1.06A1,1,0,0,1,263.79,163.19Z" style="fill:#263238"></path><path d="M264,162c-.13.14-.92-.45-2-.45s-2,.57-2.08.43.07-.31.43-.57a2.85,2.85,0,0,1,1.67-.51,2.76,2.76,0,0,1,1.63.52C264,161.7,264.09,162,264,162Z" style="fill:#263238"></path><path d="M252.74,163.45a1,1,0,0,1-1,1.06,1,1,0,0,1-1.08-.94,1,1,0,0,1,1-1.06A1,1,0,0,1,252.74,163.45Z" style="fill:#263238"></path><path d="M252.93,162.22c-.13.14-.93-.45-2.06-.45s-2,.57-2.07.43.07-.31.43-.57a2.82,2.82,0,0,1,1.66-.51,2.77,2.77,0,0,1,1.64.52C252.87,161.91,253,162.16,252.93,162.22Z" style="fill:#263238"></path><path d="M257,170.59a7,7,0,0,1,1.84-.33c.29,0,.56-.09.61-.29a1.47,1.47,0,0,0-.2-.85c-.27-.7-.55-1.43-.85-2.19a37.84,37.84,0,0,1-1.91-5.74,37.6,37.6,0,0,1,2.37,5.57c.28.77.56,1.5.82,2.21a1.7,1.7,0,0,1,.15,1.13.74.74,0,0,1-.48.42,2.31,2.31,0,0,1-.49.07A7.65,7.65,0,0,1,257,170.59Z" style="fill:#263238"></path><path d="M253.7,171.37c.19,0,.19,1.21,1.24,2.08s2.35.74,2.36.91-.29.24-.84.25a3,3,0,0,1-2-.68,2.68,2.68,0,0,1-1-1.75C253.48,171.67,253.62,171.36,253.7,171.37Z" style="fill:#263238"></path><path d="M253.22,157.8c-.11.3-1.24.16-2.56.32s-2.4.52-2.57.24.1-.42.54-.72a4.54,4.54,0,0,1,3.91-.43C253,157.41,253.27,157.65,253.22,157.8Z" style="fill:#263238"></path><path d="M263.61,158.74c-.2.26-1,0-1.91,0s-1.73.17-1.91-.1,0-.38.39-.63a2.64,2.64,0,0,1,1.55-.42,2.7,2.7,0,0,1,1.53.52C263.59,158.35,263.7,158.62,263.61,158.74Z" style="fill:#263238"></path><path d="M269,147a2.7,2.7,0,0,0-1-2.42,1.92,1.92,0,0,0-2.49.18,2.25,2.25,0,0,0-1.93-2.72c-1.2-.07-2.22.83-3.38,1.15a5.44,5.44,0,0,1-3.43-.4c-1.08-.43-2.1-1-3.2-1.44a9.4,9.4,0,0,0-12,5.51,4.17,4.17,0,0,0-4.42,1.68,6.83,6.83,0,0,0-1,4.82,15,15,0,0,0,.84,3.29c0,.1,0,.19,0,.28.08,4,.53,8.79,2.26,8.81,3,.05,2.28-5.61,2.28-5.61,3.69-1.42,2.32-6.95,3.24-7.78s2.85-2.79,10.56,1.16a15,15,0,0,0,9.16,1l.19,0h0l.07,0a7,7,0,0,0,2-.84,3.91,3.91,0,0,0,1.63-1.81,2.17,2.17,0,0,0-.42-2.3A4.69,4.69,0,0,0,269,147Z" style="fill:#263238"></path><path d="M233.05,193.05c2.47-.47,4.88-1.37,7.79-1.49h0a31.27,31.27,0,0,0,18.83,0c.76.1,1.82.2,3.16.35,8.17,1,11.31,2.7,17.18,8.47l-.64,33.1s2,37.66,1.83,43.74H225.32l0-25.54,0-6.95-18.4,6.68,1.68-9.65s8.23-32,9.52-36.31C219.64,200.22,225.25,194.55,233.05,193.05Z" style="fill:#70C28D"></path><path d="M215.31,242.32l27.55-3.92,5.23,9.38-25.6,11.54a11,11,0,0,1-4.54,1h0a11.05,11.05,0,0,1-10.23-6.86l-.83-2Z" style="fill:#70C28D"></path><path d="M267.67,233.89l-.6-.44a13.73,13.73,0,0,0-10.84-2.51h0a18.9,18.9,0,0,0-8.44,4l-4.72,3.89,5,9,3.42-4.78s3.18,4.32,3.75,3.87a7.36,7.36,0,0,0,1.25-1.82l-2.27-3.19L259.7,243l8-3.64L264.25,235l3.42,1.14Z" style="fill:#ffbe9d"></path><path d="M271.59,194s7.78,2.65,11.05,10.14c2.13,4.88,5.27,28.39,5.27,28.39l3.95,7.62a12.84,12.84,0,0,1,1.44,5.92v1.16a12.8,12.8,0,0,1-2.88,8.11h0a12.85,12.85,0,0,1-8.83,4.7c-3.95.35-8.72.5-9.74-.66-1.8-2.06-4.5-7.58-4.5-7.58l11.51-6.11-5-9.18Z" style="fill:#70C28D"></path><path d="M224.41,258.46s.14-.1.44-.25l1.32-.64,4.94-2.31L248,247.55l-.11.35-3.24-5.78-2-3.6.24.13-20.17,2-6,.54-1.62.12a2.47,2.47,0,0,1-.57,0,2.33,2.33,0,0,1,.56-.1l1.61-.21,6-.69,20.16-2.15H243l.08.14c.65,1.15,1.33,2.36,2,3.6l3.23,5.78.13.23-.25.11-16.94,7.55-5,2.17-1.35.57A3.43,3.43,0,0,1,224.41,258.46Z" style="fill:#263238"></path><path d="M229.3,239.59c-.14,0-.26-4.92-.26-11s.12-11,.26-11,.25,4.92.25,11S229.44,239.59,229.3,239.59Z" style="fill:#263238"></path><path d="M276.7,247a2.34,2.34,0,0,1,.84-.14,7.94,7.94,0,0,1,2.32.14,2.73,2.73,0,0,1,1.46.83,3.86,3.86,0,0,1,.76,1.75,4.12,4.12,0,0,1-.19,2.1,3.91,3.91,0,0,1-1.39,1.79,10.51,10.51,0,0,1-4,1.42,18.6,18.6,0,0,1-3.42.33,6.24,6.24,0,0,1-3.1-.54,15.36,15.36,0,0,0,3.1.19,21.88,21.88,0,0,0,3.33-.43A10.62,10.62,0,0,0,280.2,253a3.46,3.46,0,0,0,1.42-3.4A3.51,3.51,0,0,0,281,248a2.47,2.47,0,0,0-1.23-.74,9.16,9.16,0,0,0-2.23-.29A3.77,3.77,0,0,1,276.7,247Z" style="fill:#263238"></path><path d="M281.27,260.26a6,6,0,0,1-2,.24,12.73,12.73,0,0,1-4.76-.79,11.07,11.07,0,0,1-2.37-1.26,5.79,5.79,0,0,1-1.46-1.66,4.24,4.24,0,0,1-.7-1.87c.08,0,.34.69,1,1.68a5.85,5.85,0,0,0,1.44,1.47,11.06,11.06,0,0,0,2.28,1.17,15,15,0,0,0,4.58.9A11.23,11.23,0,0,1,281.27,260.26Z" style="fill:#263238"></path><path d="M286.77,236.4a9.53,9.53,0,0,1-1.36,1.63c-.88,1-2.13,2.29-3.53,3.73s-2.68,2.71-3.63,3.62a9,9,0,0,1-1.61,1.4,8.77,8.77,0,0,1,1.35-1.65c.89-1,2.13-2.29,3.53-3.73A49.23,49.23,0,0,1,286.77,236.4Z" style="fill:#263238"></path><path d="M274.23,231.27A38.79,38.79,0,0,1,274,225a38.79,38.79,0,0,1,.26-6.29,39.55,39.55,0,0,1,.25,6.29A39.55,39.55,0,0,1,274.23,231.27Z" style="fill:#263238"></path><path d="M281.81,204.29c0,.14-14.11.25-31.5.25s-31.5-.11-31.5-.25,14.1-.26,31.5-.26S281.81,204.15,281.81,204.29Z" style="fill:#e0e0e0"></path><path d="M283.43,209.3c0,.14-14.86.26-33.19.26s-33.2-.12-33.2-.26,14.86-.25,33.2-.25S283.43,209.16,283.43,209.3Z" style="fill:#e0e0e0"></path><path d="M279.3,199.71c0,.14-12.95.26-28.92.26s-28.91-.12-28.91-.26,12.94-.25,28.91-.25S279.3,199.57,279.3,199.71Z" style="fill:#e0e0e0"></path><path d="M282,275.44c0,.14-12.68.25-28.31.25s-28.3-.11-28.3-.25,12.67-.26,28.3-.26S282,275.3,282,275.44Z" style="fill:#e0e0e0"></path><path d="M281.57,272.22c0,.14-12.5.25-27.93.25s-27.93-.11-27.93-.25,12.51-.25,27.93-.25S281.57,272.08,281.57,272.22Z" style="fill:#e0e0e0"></path><path d="M281,268.05c0,.14-12.46.25-27.83.25s-27.83-.11-27.83-.25,12.46-.25,27.83-.25S281,267.91,281,268.05Z" style="fill:#e0e0e0"></path><path d="M240.38,250.82A5.26,5.26,0,0,1,239,249.5a13.53,13.53,0,0,1-2.3-4.06,13.26,13.26,0,0,1-.76-4.6,5.2,5.2,0,0,1,.27-1.91,17.16,17.16,0,0,0,4.2,11.89Z" style="fill:#e0e0e0"></path><path d="M237.79,252.36a6,6,0,0,1-1.52-1.45,14.49,14.49,0,0,1-2.49-4.45,14.88,14.88,0,0,1-.81-5,5.69,5.69,0,0,1,.3-2.09,22.35,22.35,0,0,0,1,7A22.64,22.64,0,0,0,237.79,252.36Z" style="fill:#e0e0e0"></path><path d="M235.31,253.62a6.17,6.17,0,0,1-1.71-1.46,13.05,13.05,0,0,1-2.71-4.7,13.19,13.19,0,0,1-.59-5.39,5.87,5.87,0,0,1,.53-2.18c.08,0-.11.85-.17,2.21a14.84,14.84,0,0,0,.71,5.21,15.07,15.07,0,0,0,2.5,4.62C234.72,253,235.37,253.55,235.31,253.62Z" style="fill:#e0e0e0"></path><path d="M270.81,255.63s.29.23.85.53a6,6,0,0,0,2.59.65,21.91,21.91,0,0,0,4-.26,6.26,6.26,0,0,0,4.22-2.06,6,6,0,0,0,1.26-4.5,6.41,6.41,0,0,0-1.75-3.47,9.41,9.41,0,0,0-3.08-2,2.47,2.47,0,0,1,1,.24,7.23,7.23,0,0,1,2.35,1.51,6.59,6.59,0,0,1,1.95,3.66,6.34,6.34,0,0,1-1.33,4.88,5.4,5.4,0,0,1-2.15,1.6,9,9,0,0,1-2.39.6,20.48,20.48,0,0,1-4.12.16,5.77,5.77,0,0,1-2.66-.84A2.19,2.19,0,0,1,270.81,255.63Z" style="fill:#e0e0e0"></path><path d="M280.85,242.93s.1,0,.3,0a3.2,3.2,0,0,1,.88.15,5.56,5.56,0,0,1,2.58,1.95,13,13,0,0,1,2.15,4.29,7.9,7.9,0,0,1,.32,2.86,6.27,6.27,0,0,1-1,2.93,8.94,8.94,0,0,1-4.75,3.45,14.22,14.22,0,0,1-4.77.55,27.29,27.29,0,0,1-3.2-.34,4.63,4.63,0,0,1-1.15-.26c0-.09,1.67.18,4.36.24a14.52,14.52,0,0,0,4.62-.63,8.66,8.66,0,0,0,4.47-3.29,5.91,5.91,0,0,0,1-2.69,7.73,7.73,0,0,0-.27-2.69,13.68,13.68,0,0,0-2-4.2,5.63,5.63,0,0,0-2.37-2C281.27,243,280.84,243,280.85,242.93Z" style="fill:#e0e0e0"></path><polygon points="259.26 233.07 241.73 254.3 243.07 255.75 271.52 251.42 285.62 230.19 284.31 229.01 259.26 233.07" style="fill:#263238"></polygon><path d="M277.85,238.67h0a2.71,2.71,0,0,0-2.53,1.73,5.82,5.82,0,0,1-1.72,2.75c-1.27.69-3.45,1.24-4.6.68s-5.74-4.7-6.55-4.24-1.49,1.5-.69,2.41,5.06,3.68,4.25,4.6-9.76-3.13-11.14-2.77-2.19,1.21-1.38,1.76,6.89,2.85,7.24,3.65c0,0-9.2-2.41-9.54-1.83s-.92,1.49,0,1.83,8.85,2.42,9.54,2.76a16.4,16.4,0,0,0,3.54,1,37.88,37.88,0,0,1,3.7,1.17,8.11,8.11,0,0,0,5.72-.15l.93-.38a3.66,3.66,0,0,0,2.27-3.6L276.7,247l1-2.59Z" style="fill:#ffbe9d"></path><path d="M285.66,230.3a2.64,2.64,0,0,1-.52.12l-1.52.27-5.61.9-8.33,1.28-4.91.74a9.39,9.39,0,0,0-4.76,1.93,32.54,32.54,0,0,0-3.47,4q-1.61,2-3.11,3.88L248.14,250l-3.6,4.39-1,1.18a2.21,2.21,0,0,1-.37.39,1.9,1.9,0,0,1,.29-.45l.93-1.24,3.47-4.49,5.21-6.62,3.09-3.9a31.26,31.26,0,0,1,3.53-4.06,9.87,9.87,0,0,1,5-2l4.93-.71,8.34-1.17,5.63-.74,1.53-.18A2,2,0,0,1,285.66,230.3Z" style="fill:#455a64"></path><path d="M272.36,235a2.26,2.26,0,0,0-.79.64.81.81,0,0,0,0,.95.88.88,0,0,0,1.18,0,1.16,1.16,0,0,0,.45-.68.82.82,0,0,0-.24-.76.62.62,0,0,0-.77,0" style="fill:#fafafa"></path></g><g id="freepik--character-1--inject-2"><rect x="38.65" y="259.1" width="45.92" height="92.61" style="fill:#455a64"></rect><path d="M40.78,351.5h0a7.17,7.17,0,0,1-7.16-7.17V266.27a7.17,7.17,0,0,1,7.16-7.17h0A7.17,7.17,0,0,1,48,266.27v78.06A7.17,7.17,0,0,1,40.78,351.5Z" style="fill:#455a64"></path><path d="M44.53,262.83a.77.77,0,0,1,0,.23l.07.67c0,.65.12,1.52.21,2.62.17,2.31.4,5.58.69,9.6.54,8.16,1.27,19.35,2.08,31.71s1.49,23.59,1.89,31.72a24.77,24.77,0,0,1-1.19,9.55,13.21,13.21,0,0,1-1.16,2.36l-.4.56a.94.94,0,0,1-.15.18,17.47,17.47,0,0,0,1.52-3.17,25.37,25.37,0,0,0,1-9.47c-.52-8.15-1.24-19.34-2-31.7S45.67,284.13,45.17,276c-.22-4-.39-7.29-.52-9.61,0-1.1-.09-2-.12-2.62,0-.27,0-.5,0-.68A.52.52,0,0,1,44.53,262.83Z" style="fill:#263238"></path><rect x="80.45" y="363.21" width="7.4" height="88.69" style="fill:#455a64"></rect><path d="M135.83,363.21H30a11.5,11.5,0,0,1,11.5-11.49h82.88a11.49,11.49,0,0,1,11.49,11.49Z" style="fill:#455a64"></path><path d="M90.65,363.44a39.16,39.16,0,0,1-6.49.27,39.24,39.24,0,0,1-6.5-.27,39.24,39.24,0,0,1,6.5-.27A39.16,39.16,0,0,1,90.65,363.44Z" style="fill:#263238"></path><path d="M116.53,459.93h-1a31.5,31.5,0,0,0-63,0h-1a32.54,32.54,0,0,1,65.08,0Z" style="fill:#455a64"></path><circle cx="51.97" cy="459.34" r="4.88" style="fill:#263238"></circle><path d="M121.1,459.57a4.88,4.88,0,1,1-4.88-4.88A4.89,4.89,0,0,1,121.1,459.57Z" style="fill:#455a64"></path><path d="M116.22,451.9c0,.15-14.16.27-31.63.27S53,452.05,53,451.9s14.16-.27,31.63-.27S116.22,451.75,116.22,451.9Z" style="fill:#455a64"></path><path d="M72.73,351.53a10.88,10.88,0,0,1-1.6.11l-4.36.11c-3.68.08-8.76.14-14.37.18l-7.92.06a26.79,26.79,0,0,0-6.37.57,10.66,10.66,0,0,0-3.86,1.84c-.81.61-1.18,1.06-1.22,1s.07-.13.25-.34a7.22,7.22,0,0,1,.84-.84,10.14,10.14,0,0,1,3.89-2,25.81,25.81,0,0,1,6.46-.7c2.42-.06,5.11-.07,7.91-.09,5.62,0,10.71-.05,14.39,0l4.36.05A8.9,8.9,0,0,1,72.73,351.53Z" style="fill:#263238"></path><path d="M69.61,254.67h0c5.51,0,10.08-3.6,10.16-20.34,0-3.37-.1-6.29-.1-6.29s8-.72,8.54-8.43.14-25.6.14-25.6h0a27.54,27.54,0,0,0-27.52,1.82l-1.22.81L60,234.53C60,239.85,64.18,254.67,69.61,254.67Z" style="fill:#b78876"></path><path d="M79.69,227.93a18.55,18.55,0,0,1-10.08-3.48s2.07,5.7,10,5.48Z" style="fill:#aa6550"></path><path d="M86.46,206.45a1.09,1.09,0,0,1-1.06,1.09,1.05,1.05,0,0,1-1.14-1,1.09,1.09,0,0,1,1.06-1.09A1,1,0,0,1,86.46,206.45Z" style="fill:#263238"></path><path d="M86.7,205.23c-.13.14-1-.47-2.16-.46s-2.06.58-2.18.44.07-.32.45-.59a3.11,3.11,0,0,1,1.75-.53,3,3,0,0,1,1.72.55C86.65,204.91,86.77,205.17,86.7,205.23Z" style="fill:#263238"></path><path d="M74.83,206.72a1.09,1.09,0,0,1-1.06,1.09,1,1,0,0,1-1.14-1,1.09,1.09,0,0,1,1.06-1.09A1.05,1.05,0,0,1,74.83,206.72Z" style="fill:#263238"></path><path d="M75,205.45c-.14.14-1-.47-2.16-.47s-2.06.59-2.19.45.08-.32.46-.59a3.08,3.08,0,0,1,1.75-.53,3,3,0,0,1,1.72.54C75,205.13,75.1,205.38,75,205.45Z" style="fill:#263238"></path><path d="M79.34,214.08a7.72,7.72,0,0,1,1.93-.34c.3,0,.59-.09.64-.3a1.56,1.56,0,0,0-.2-.88c-.29-.72-.59-1.47-.9-2.26a37.64,37.64,0,0,1-2-5.92,38.77,38.77,0,0,1,2.49,5.75l.86,2.27a1.7,1.7,0,0,1,.16,1.17.76.76,0,0,1-.5.43,1.7,1.7,0,0,1-.52.07A8.09,8.09,0,0,1,79.34,214.08Z" style="fill:#263238"></path><path d="M75.84,214.88c.2,0,.2,1.25,1.3,2.15s2.48.76,2.49.93-.31.25-.89.27a3.28,3.28,0,0,1-2.07-.71,2.74,2.74,0,0,1-1-1.8C75.61,215.19,75.76,214.87,75.84,214.88Z" style="fill:#263238"></path><path d="M75.34,200.89c-.12.31-1.31.16-2.7.33s-2.52.53-2.71.25.12-.43.57-.74a4.78,4.78,0,0,1,4.12-.44C75.13,200.49,75.39,200.74,75.34,200.89Z" style="fill:#263238"></path><path d="M86.27,201.86c-.21.27-1,0-2,0s-1.82.18-2-.1c-.09-.13,0-.4.41-.65a3,3,0,0,1,3.24.1C86.25,201.46,86.36,201.73,86.27,201.86Z" style="fill:#263238"></path><path d="M88.59,192.51a7.81,7.81,0,0,0-1.2-3.36,3.33,3.33,0,0,0-.41-3.46,3.41,3.41,0,0,0-4.66-.25l-.06,0a1.82,1.82,0,0,0-.56-2.19,4.19,4.19,0,0,0-2.72-.64c-1.78,0-6,1.43-9.17,2.63l-.61.11a16.86,16.86,0,0,0-7.33,3.16,15.72,15.72,0,0,0-4.58,8.11c-.82,3.06-.84,6.28-.21,11.49,1-.85,4.35-3,4.85-1.81a7,7,0,0,1,.26,2.16,1.86,1.86,0,0,0,1.1,1.74,1.46,1.46,0,0,0,1.52-.67,3.36,3.36,0,0,0,.49-1.68c.19-2.4-.41-4.83,0-7.21a8.85,8.85,0,0,1,10.48-7.28c1.44.29,2.84.94,4.3.88,2.11-.08,4.27-1.6,6.18-.69.37.18.75.36,1.11.57.72.42,1.08.84,1.25.46A6.89,6.89,0,0,0,88.59,192.51Z" style="fill:#263238"></path><path d="M61.64,205.16c-.15,0-5-.67-4.53,4.93s6.08,3.29,6.07,3.13S61.64,205.16,61.64,205.16Z" style="fill:#b78876"></path><path d="M61.27,211.39s-.09.08-.25.17a1,1,0,0,1-.75.07A2.42,2.42,0,0,1,59,209.56a3.13,3.13,0,0,1,.16-1.42,1.16,1.16,0,0,1,.69-.81.52.52,0,0,1,.61.22c.09.15.06.27.09.28s.12-.11.05-.34a.66.66,0,0,0-.25-.33.75.75,0,0,0-.56-.1,1.4,1.4,0,0,0-1,.95,3.31,3.31,0,0,0-.22,1.59,2.56,2.56,0,0,0,1.65,2.3,1.08,1.08,0,0,0,.9-.22C61.27,211.53,61.29,211.4,61.27,211.39Z" style="fill:#aa6550"></path><path d="M114.82,441l4.36-6.11L102.4,423.09l-6.94,9.43,1,.82c4.31,3.64,22.15,18.19,25.83,19.57C126.35,454.44,114.82,441,114.82,441Z" style="fill:#70C28D"></path><g style="opacity:0.5"><path d="M101.45,436.85a7,7,0,0,0,.68-5A6.07,6.07,0,0,0,99,427.78l-3.3,4.52Z" style="fill:#fff"></path></g><g style="opacity:0.5"><path d="M120.28,447.78s3.81,5,2.62,5.35-19.78-13.71-27.44-20.61l.29-.34,21.54,16.56S119.3,447.1,120.28,447.78Z" style="fill:#fff"></path></g><path d="M95.5,432l.26.24.77.65,2.86,2.36c2.43,2,5.83,4.67,9.64,7.55s7.32,5.43,9.88,7.23l3,2.12.84.56a1.37,1.37,0,0,0,.3.18s-.09-.08-.27-.22l-.81-.6-3-2.18c-2.53-1.84-6-4.39-9.83-7.28S102,437,99.5,435.1l-2.91-2.3-.8-.62A1.19,1.19,0,0,0,95.5,432Z" style="fill:#263238"></path><path d="M117.1,449a7.54,7.54,0,0,1,1.59-1,7.66,7.66,0,0,1,1.85-.34,2.71,2.71,0,0,0-1.94.11A2.59,2.59,0,0,0,117.1,449Z" style="fill:#263238"></path><path d="M114.1,443c0,.07.46,0,1-.22s.91-.39.89-.45-.46,0-1,.22S114.07,442.91,114.1,443Z" style="fill:#263238"></path><path d="M113.3,441.29c0,.07.39.1.85.06a1.66,1.66,0,0,0,.84-.18c0-.07-.39-.1-.86-.06S113.29,441.23,113.3,441.29Z" style="fill:#263238"></path><path d="M113.6,439.16s.3.39.77.75.88.61.92.55-.31-.38-.77-.74S113.64,439.11,113.6,439.16Z" style="fill:#263238"></path><path d="M114.12,437.88c-.06,0,.22.53.74,1a2.06,2.06,0,0,0,1.08.61c0-.06-.43-.36-.92-.79S114.17,437.84,114.12,437.88Z" style="fill:#263238"></path><path d="M115.7,442a3.88,3.88,0,0,0,1,.78,7.23,7.23,0,0,0,1.3.6,3.7,3.7,0,0,0,.83.23.73.73,0,0,0,.5-.12.51.51,0,0,0,.15-.53,2.42,2.42,0,0,0-3.65-.82c-.17.14-.24.24-.23.26a3.61,3.61,0,0,1,1.14-.52,2.37,2.37,0,0,1,1.32.11,2,2,0,0,1,1.18,1c.08.25-.13.39-.4.36a3.49,3.49,0,0,1-.77-.2,9,9,0,0,1-1.29-.54C116.12,442.27,115.72,442,115.7,442Z" style="fill:#263238"></path><path d="M115.93,442.25s.36-.12.66-.62a1.91,1.91,0,0,0,.28-1,1.31,1.31,0,0,0-.47-1.18.51.51,0,0,0-.68.23,1.36,1.36,0,0,0-.17.59,4,4,0,0,0,0,1,1.77,1.77,0,0,0,.29.87s-.07-.34-.11-.88a5.15,5.15,0,0,1,0-1c0-.32.22-.79.52-.63s.35.63.36,1a2.29,2.29,0,0,1-.21.89A4.26,4.26,0,0,1,115.93,442.25Z" style="fill:#263238"></path><path d="M99.13,427.87s.5.31,1.17.95a6.74,6.74,0,0,1,1.83,3,6.47,6.47,0,0,1-.08,3.51c-.27.87-.59,1.35-.55,1.37a1.2,1.2,0,0,0,.24-.32,4.74,4.74,0,0,0,.47-1,6,6,0,0,0,.15-3.62,6.34,6.34,0,0,0-1.94-3.11,5.78,5.78,0,0,0-.91-.65C99.28,427.91,99.14,427.85,99.13,427.87Z" style="fill:#263238"></path><path d="M104.68,436.84a11.12,11.12,0,0,0,2.2,2,11.67,11.67,0,0,0,2.52,1.61c0-.06-1.07-.8-2.37-1.8S104.73,436.79,104.68,436.84Z" style="fill:#263238"></path><path d="M101.49,434.43c-.07,0-.08.28-.15.6s-.17.58-.11.62.27-.19.35-.56S101.56,434.42,101.49,434.43Z" style="fill:#263238"></path><path d="M101.4,432.05c-.07,0-.09.26-.05.55s.13.53.2.52.09-.25,0-.55S101.46,432.05,101.4,432.05Z" style="fill:#263238"></path><path d="M100.18,430.08c0,.07.19.23.37.49s.25.52.32.52.1-.33-.12-.65S100.2,430,100.18,430.08Z" style="fill:#263238"></path><path d="M99.2,428.84c-.06,0,0,.19.07.34s.22.25.28.22,0-.19-.07-.34S99.26,428.81,99.2,428.84Z" style="fill:#263238"></path><g style="opacity:0.30000000000000004"><polygon points="99.61 426.87 116.57 438.56 117.07 437.91 100.58 425.51 99.61 426.87"></polygon></g><path d="M196.26,460.3l-1.57-7.16-19.5,4.46,2.28,11.2,1.23-.15c5.45-.74,27.68-4.14,31.08-5.9C213.58,460.78,196.26,460.3,196.26,460.3Z" style="fill:#70C28D"></path><g style="opacity:0.5"><path d="M184.54,467.29a6.91,6.91,0,0,0-3.18-3.75,5.86,5.86,0,0,0-5-.37l1.11,5.35Z" style="fill:#fff"></path></g><g style="opacity:0.5"><path d="M204.78,460.82s6.14.53,5.59,1.61-22.88,5.34-32.9,6.37l-.05-.43,26.1-4.75S203.65,461.08,204.78,460.82Z" style="fill:#fff"></path></g><path d="M177.11,468.41l.35,0,1-.13,3.59-.53c3-.47,7.19-1.17,11.78-2s8.72-1.75,11.7-2.42l3.53-.82,1-.24.33-.1a1.63,1.63,0,0,0-.34.05l-1,.2-3.54.75c-3,.63-7.13,1.48-11.72,2.35s-8.74,1.6-11.76,2.11l-3.57.6-1,.17Z" style="fill:#263238"></path><path d="M203.57,463.92a7.44,7.44,0,0,1,.35-1.79,8.84,8.84,0,0,1,1-1.57,2.75,2.75,0,0,0-1.18,1.48A2.58,2.58,0,0,0,203.57,463.92Z" style="fill:#263238"></path><path d="M197.25,462.15c.06,0,.28-.36.48-.86a2,2,0,0,0,.25-.93c-.06,0-.28.35-.48.85A2,2,0,0,0,197.25,462.15Z" style="fill:#263238"></path><path d="M195.51,461.63c.05,0,.32-.22.6-.58s.47-.69.42-.73-.33.22-.61.58S195.46,461.59,195.51,461.63Z" style="fill:#263238"></path><path d="M194.16,460a2.36,2.36,0,0,0,1.05-.07,2.3,2.3,0,0,0,1-.3,2.51,2.51,0,0,0-1,.07A2.48,2.48,0,0,0,194.16,460Z" style="fill:#263238"></path><path d="M193.58,458.8a2,2,0,0,0,1.2.11,2,2,0,0,0,1.14-.38,7,7,0,0,0-1.17.14A6.52,6.52,0,0,0,193.58,458.8Z" style="fill:#263238"></path><path d="M197.6,460.35a4,4,0,0,0,1.25-.25,8.08,8.08,0,0,0,1.28-.54,4.07,4.07,0,0,0,.71-.46.64.64,0,0,0,.24-.44.5.5,0,0,0-.28-.46,2.38,2.38,0,0,0-2.73,1.21,2.12,2.12,0,0,0-.25.9c0,.22,0,.34,0,.34a3.23,3.23,0,0,1,.37-1.16,2.26,2.26,0,0,1,.94-.89,2.06,2.06,0,0,1,1.52-.19c.23.11.19.35,0,.53a4.57,4.57,0,0,1-.65.43,8.19,8.19,0,0,1-1.24.57C198.07,460.22,197.59,460.31,197.6,460.35Z" style="fill:#263238"></path><path d="M197.93,460.35a1.18,1.18,0,0,0,0-.88,2,2,0,0,0-.51-.84,1.3,1.3,0,0,0-1.17-.43.51.51,0,0,0-.28.64,1.35,1.35,0,0,0,.32.51,3.74,3.74,0,0,0,.74.64,1.92,1.92,0,0,0,.81.36,8.22,8.22,0,0,0-.71-.5,4.34,4.34,0,0,1-.67-.64c-.22-.23-.43-.67-.12-.79s.69.16.93.37a2,2,0,0,1,.5.73A3.55,3.55,0,0,1,197.93,460.35Z" style="fill:#263238"></path><path d="M176.51,463.09c0,.05.55-.16,1.46-.22a6.53,6.53,0,0,1,3.39.67,6.26,6.26,0,0,1,2.49,2.35c.46.77.59,1.31.64,1.3a1.43,1.43,0,0,0-.08-.39,4.34,4.34,0,0,0-.41-1,6.05,6.05,0,0,0-2.52-2.48,6.1,6.1,0,0,0-4.6-.4A1.94,1.94,0,0,0,176.51,463.09Z" style="fill:#263238"></path><path d="M186.64,465a16.82,16.82,0,0,0,5.73-1c0-.07-1.28.25-2.86.54S186.64,464.89,186.64,465Z" style="fill:#263238"></path><path d="M182.81,465.68c0,.06.15.25.34.51s.3.5.37.49,0-.33-.17-.63S182.84,465.63,182.81,465.68Z" style="fill:#263238"></path><path d="M181,464.2c0,.05.12.22.36.39s.47.25.51.19-.13-.23-.37-.39S181.06,464.14,181,464.2Z" style="fill:#263238"></path><path d="M178.81,463.78c0,.07.28,0,.59.06s.54.15.58.1-.17-.29-.55-.33S178.77,463.73,178.81,463.78Z" style="fill:#263238"></path><path d="M177.26,463.69c0,.06.12.14.29.17s.33,0,.34-.06-.12-.14-.29-.18S177.27,463.62,177.26,463.69Z" style="fill:#263238"></path><g style="opacity:0.30000000000000004"><polygon points="176.11 462.09 195.68 457.47 195.53 456.68 175.76 460.5 176.11 462.09"></polygon></g><path d="M145.5,286.67a19,19,0,0,1,3.9-3.72c.55-.18,10.34-4.26,10.52-3.81s1.36,2.69-.64,3.75l-1.54.51,5.62.46s6.26,4.62,6.17,5.62-.91,1.63-1.45,1.17,1.45,3.18,1.45,3.18,0,1.54-.82,1.27a7.65,7.65,0,0,1-2.09-1.73s1.18,1.91.82,2.27-2.17.45-2.36,0-.45-1.27-.45-1.27l-1.09.09V296l-16.59.51Z" style="fill:#aa6550"></path><polygon points="81.21 240.89 86.28 246.88 106.54 282.34 146.05 286.25 146.91 297.68 101.4 301.98 76 256 81.21 240.89" style="fill:#e0e0e0"></polygon><path d="M85.21,258.18l-3.92-14.79-.08-4.82-22-10L55,233.84l.51.27C53.77,235.93,41,249.76,41.73,260c.69,9.2,20.06,67.14,20.06,67.14l44.13-12.9Z" style="fill:#ebebeb"></path><path d="M80.81,243.59l-1.24,6.06,3.23,6.06v4.49l23.12,54,6.84,2.3,1.16-4.63S94.67,279,91.34,269.75s-8.25-22.58-8.25-22.58Z" style="fill:#70C28D"></path><path d="M45.71,270.8c0,.58,39.86,39.09,39.86,39.09l53.85-10.54-1.73-11.49-36.76,1a10.81,10.81,0,0,1-9.67-4.36c-7.89-10.24-25-32.45-25.43-33C65.26,250.68,45.71,270.8,45.71,270.8Z" style="fill:#ebebeb"></path><path d="M137.69,287.86s.05.23.13.72.21,1.23.36,2.18l1.35,8.58v.1l-.1,0-43,8.31-3.54.68a16.27,16.27,0,0,1-3.71.33,14.95,14.95,0,0,1-10.41-4.71c-.91-1-1.75-2-2.64-3q-2.66-3-5.38-6.18c-7.29-8.38-15-17.27-23-26.47l0,0v0l-.16-.42a17.46,17.46,0,0,1-1.3-6.2,11.47,11.47,0,0,1,1.54-6.07,12.8,12.8,0,0,1,4.43-4.29A13.74,13.74,0,0,1,58,249.45a11,11,0,0,1,5.87,1.05,15.21,15.21,0,0,1,4.58,3.63,48.93,48.93,0,0,1,3.47,4.52l3.21,4.5c4.29,5.9,8.53,11.38,12.63,16.41l3,3.68a33.64,33.64,0,0,0,3.06,3.39,7.16,7.16,0,0,0,3.93,1.61,31.33,31.33,0,0,0,4.21.11l26.18-.4,7.09-.09h2.44l-.64,0-1.87.06-7.12.18-26.08.59a30.45,30.45,0,0,1-4.25-.1,7.6,7.6,0,0,1-4.15-1.68,32.92,32.92,0,0,1-3.12-3.43l-3-3.68c-4.12-5-8.38-10.5-12.68-16.4-1.07-1.48-2.14-3-3.23-4.5a49,49,0,0,0-3.44-4.46A14.71,14.71,0,0,0,63.63,251a10.44,10.44,0,0,0-5.6-1,13.14,13.14,0,0,0-9.79,6,10.85,10.85,0,0,0-1.47,5.79,17,17,0,0,0,1.26,6c.06.14.11.28.16.41l0-.07,23,26.48,5.37,6.2c.89,1,1.75,2,2.63,3a14.44,14.44,0,0,0,10.08,4.58,15.6,15.6,0,0,0,3.61-.31l3.54-.67,43-8.09-.09.12c-.53-3.72-.94-6.58-1.22-8.53l-.3-2.22C137.72,288.12,137.69,287.86,137.69,287.86Z" style="fill:#455a64"></path><path d="M81.21,238.57c.05,0-.15,1-.35,2.71s-.33,4.2-1,7.13l-.06.3-.27-.16L71.71,244c-4.53-2.64-8.62-5-11.57-6.81l-3.48-2.11a8.48,8.48,0,0,1-1.24-.84,8.45,8.45,0,0,1,1.34.66l3.56,2c3,1.69,7.12,4,11.65,6.67l7.84,4.59-.34.14c.65-2.86.82-5.35,1.13-7.06.14-.86.27-1.53.39-2A3,3,0,0,1,81.21,238.57Z" style="fill:#455a64"></path><path d="M160.79,287.88l-9.61-2.63-8,4h-4.53l-.72.29,1.29,8.61,1.14.16a11,11,0,0,0,3.82,1.45c2.54.55,6.25-1.09,6.25-1.09l5.08-2.81,3.63-1,2.72,1.58a10.66,10.66,0,0,1,.27,1.45c0,.36,1,.81,1.54.81s.72-1.27.72-1.27l-.63-2.71,1.27,1.17h3.17v-2Z" style="fill:#b78876"></path><polygon points="139.42 350.99 98.01 424.71 120.14 439.72 156.74 374.76 150.57 350.99 139.42 350.99" style="fill:#263238"></polygon><path d="M61.79,327.1s-4.75,20,8.15,24.1,80,6.19,80,6.19l24.94,103,21.35-3L177.82,347a18.69,18.69,0,0,0-15.12-15.16c-19.9-3.56-55.95-10.09-56.44-10.82-.68-1-3.4-6.79-3.4-6.79Z" style="fill:#263238"></path><path d="M158,388.88a2.61,2.61,0,0,1-.22-.53c-.13-.36-.3-.88-.49-1.57-.4-1.36-.89-3.37-1.41-5.85s-1.12-5.47-1.79-8.74a47.61,47.61,0,0,0-3.11-10.38c-.84-1.68-2-3.31-3.67-3.85a27.72,27.72,0,0,0-5.08-1.11c-3.32-.46-6.33-.68-8.86-.84s-4.59-.23-6-.29l-1.63-.07a2,2,0,0,1-.57,0,2,2,0,0,1,.57-.05c.37,0,.93,0,1.64,0,1.42,0,3.48,0,6,.12s5.56.29,8.9.73a27.69,27.69,0,0,1,5.2,1.11,6.5,6.5,0,0,1,1.29.65,6.35,6.35,0,0,1,1.08,1,11.14,11.14,0,0,1,1.59,2.46,46.64,46.64,0,0,1,3.11,10.51c.67,3.3,1.19,6.27,1.68,8.76s.91,4.5,1.24,5.88S158,388.86,158,388.88Z" style="fill:#455a64"></path></g><g id="freepik--Desk--inject-2"><polygon points="401.68 302.55 135.18 301.59 135.15 309.51 150.97 309.56 150.41 463.68 156 463.7 156.55 309.58 376.76 310.37 376.21 464.5 381.8 464.51 382.35 310.39 401.65 310.46 401.68 302.55" style="fill:#455a64"></polygon><polygon points="310.14 258.82 324.93 302.02 391.86 302.02 391.37 299.8 364.3 298.96 351.83 258.8 310.14 258.82" style="fill:#e0e0e0"></polygon><path d="M339.81,279.11c.44,1.77-.32,3.51-1.7,3.88s-2.85-.77-3.29-2.54.31-3.51,1.69-3.87S339.36,277.34,339.81,279.11Z" style="fill:#fff"></path><polygon points="244.28 257.61 229.49 300.81 162.56 300.81 163.05 298.59 190.12 297.75 202.59 257.59 244.28 257.61" style="fill:#e0e0e0"></polygon><path d="M214.61,277.9c-.44,1.77.32,3.51,1.7,3.87s2.85-.76,3.29-2.53-.32-3.51-1.69-3.88S215.06,276.13,214.61,277.9Z" style="fill:#fff"></path><circle cx="271.44" cy="285.69" r="8.19" transform="translate(-54.14 507.73) rotate(-80.76)" style="fill:#455a64"></circle><rect x="244.68" y="282.46" width="53.52" height="19.56" style="fill:#e0e0e0"></rect><path d="M265.25,287.86a74.46,74.46,0,0,1-8.73.26,74.46,74.46,0,0,1-8.73-.26,71.93,71.93,0,0,1,8.73-.26A71.93,71.93,0,0,1,265.25,287.86Z" style="fill:#263238"></path><path d="M265.25,290.67a74.46,74.46,0,0,1-8.73.26,74.46,74.46,0,0,1-8.73-.26,70.61,70.61,0,0,1,8.73-.27A70.61,70.61,0,0,1,265.25,290.67Z" style="fill:#263238"></path><path d="M265.25,293.47a71.93,71.93,0,0,1-8.73.26,71.93,71.93,0,0,1-8.73-.26,74.46,74.46,0,0,1,8.73-.26A74.46,74.46,0,0,1,265.25,293.47Z" style="fill:#263238"></path><path d="M265.25,296.28a71.93,71.93,0,0,1-8.73.26,71.93,71.93,0,0,1-8.73-.26,74.46,74.46,0,0,1,8.73-.26A74.46,74.46,0,0,1,265.25,296.28Z" style="fill:#263238"></path><path d="M275,301.56a83.1,83.1,0,0,1-.26-9.39,83.36,83.36,0,0,1,.26-9.4,86.29,86.29,0,0,1,.26,9.4A86,86,0,0,1,275,301.56Z" style="fill:#263238"></path></g></svg>