<svg xmlns="http://www.w3.org/2000/svg" viewBox="0 0 500 500"><g id="freepik--background-complete--inject-14"><path d="M161.41,182.59l.86,1.43a9.78,9.78,0,0,0,4,3.73l1.49.74-1.43.86a9.82,9.82,0,0,0-3.73,4l-.73,1.5-.86-1.43a9.84,9.84,0,0,0-4.05-3.73l-1.5-.74,1.43-.86a9.75,9.75,0,0,0,3.73-4Z" style="fill:#e0e0e0"></path><path d="M208.41,49.56l1.41,2.33a15.87,15.87,0,0,0,6.6,6.08l2.44,1.2-2.33,1.41a15.87,15.87,0,0,0-6.08,6.6l-1.21,2.44-1.4-2.33a16,16,0,0,0-6.6-6.08L198.8,60l2.33-1.4a15.93,15.93,0,0,0,6.08-6.6Z" style="fill:#e0e0e0"></path><path d="M427.66,295.28l1.26,2.1a14.41,14.41,0,0,0,5.92,5.45l2.19,1.08-2.09,1.26a14.22,14.22,0,0,0-5.45,5.92l-1.09,2.19-1.25-2.09a14.39,14.39,0,0,0-5.93-5.46L419,304.65l2.09-1.26a14.28,14.28,0,0,0,5.45-5.92Z" style="fill:#e0e0e0"></path><path d="M421,117.89l1.26,2.09a14.28,14.28,0,0,0,5.92,5.45l2.19,1.08-2.1,1.26a14.41,14.41,0,0,0-5.45,5.92l-1.08,2.19-1.26-2.09a14.3,14.3,0,0,0-5.92-5.46l-2.19-1.08,2.09-1.26a14.3,14.3,0,0,0,5.46-5.92Z" style="fill:#e0e0e0"></path><path d="M69.73,307.33,71,309.42a14.35,14.35,0,0,0,5.92,5.45L79.1,316,77,317.21a14.41,14.41,0,0,0-5.45,5.92l-1.08,2.19-1.26-2.09a14.3,14.3,0,0,0-5.92-5.46l-2.19-1.08,2.09-1.26a14.3,14.3,0,0,0,5.46-5.92Z" style="fill:#e0e0e0"></path><path d="M239.85,37.82l.66,1.1a7.49,7.49,0,0,0,3.11,2.87l1.15.57-1.1.66a7.52,7.52,0,0,0-2.87,3.12l-.56,1.15-.67-1.1a7.49,7.49,0,0,0-3.11-2.87l-1.15-.57,1.1-.66A7.64,7.64,0,0,0,239.28,39Z" style="fill:#e0e0e0"></path><path d="M435.34,74l.66,1.1A7.51,7.51,0,0,0,439.12,78l1.15.57-1.1.66a7.57,7.57,0,0,0-2.87,3.12l-.57,1.15-.66-1.1A7.51,7.51,0,0,0,432,79.51l-1.15-.57,1.1-.66a7.45,7.45,0,0,0,2.87-3.12Z" style="fill:#e0e0e0"></path><path d="M381.73,140.86l.67,1.1a7.49,7.49,0,0,0,3.11,2.87l1.15.57-1.1.66a7.58,7.58,0,0,0-2.87,3.12l-.57,1.15-.66-1.1a7.49,7.49,0,0,0-3.11-2.87l-1.15-.57,1.1-.66a7.49,7.49,0,0,0,2.86-3.12Z" style="fill:#e0e0e0"></path><path d="M46,82.64l.66,1.1a7.49,7.49,0,0,0,3.11,2.87l1.15.57-1.1.66A7.64,7.64,0,0,0,47,91l-.56,1.15L45.73,91a7.49,7.49,0,0,0-3.11-2.87l-1.15-.57,1.1-.66a7.52,7.52,0,0,0,2.87-3.12Z" style="fill:#e0e0e0"></path><path d="M47.71,342.54l.67,1.1a7.55,7.55,0,0,0,3.11,2.87l1.15.57-1.1.66a7.55,7.55,0,0,0-2.87,3.11L48.1,352l-.66-1.1A7.49,7.49,0,0,0,44.33,348l-1.15-.57,1.1-.66a7.55,7.55,0,0,0,2.86-3.12Z" style="fill:#e0e0e0"></path><path d="M171,423.8l.66,1.1a7.49,7.49,0,0,0,3.11,2.87l1.15.57-1.09.66a7.45,7.45,0,0,0-2.87,3.12l-.57,1.15-.66-1.1a7.57,7.57,0,0,0-3.12-2.87l-1.15-.57,1.1-.66a7.64,7.64,0,0,0,2.87-3.12Z" style="fill:#e0e0e0"></path><path d="M453.61,317.38l.66,1.1a7.49,7.49,0,0,0,3.11,2.87l1.15.57-1.1.66a7.58,7.58,0,0,0-2.87,3.12l-.56,1.15-.67-1.1a7.49,7.49,0,0,0-3.11-2.87l-1.15-.57,1.1-.66a7.58,7.58,0,0,0,2.87-3.12Z" style="fill:#e0e0e0"></path><path d="M383.65,439.67l.66,1.1a7.58,7.58,0,0,0,3.12,2.87l1.15.57-1.1.66a7.49,7.49,0,0,0-2.87,3.11l-.57,1.15-.66-1.1a7.58,7.58,0,0,0-3.12-2.87l-1.15-.56,1.1-.67a7.49,7.49,0,0,0,2.87-3.11Z" style="fill:#e0e0e0"></path><path d="M382.55,63.75l-2.67-3.09a2.45,2.45,0,0,1-2.63-2.59c0-.13,0-.27,0-.41L341.93,16.73c-1.2,2.92-7.73,18.69-13.07,27.94C323,54.84,316.75,60.51,310.75,63.59L306.1,71.1A91.75,91.75,0,0,0,333,77.66S363.81,80.55,382.55,63.75ZM360.41,43.4a.4.4,0,0,1,.68.19c.19.85.52,2.32.86,3.67.67,2.71-.12,4.15-1.48,4.63A2.55,2.55,0,0,1,357,49.42C356.93,47.35,359.32,44.56,360.41,43.4Zm-17-9.92A2.55,2.55,0,0,1,340,31c-.1-2.07,2.3-4.87,3.39-6a.4.4,0,0,1,.68.19c.19.86.51,2.33.85,3.68C345.58,31.55,344.79,33,343.42,33.48Zm-6.81,33.05a2.55,2.55,0,0,1-3.44-2.47c-.1-2.08,2.29-4.87,3.38-6a.4.4,0,0,1,.68.19c.19.86.52,2.33.86,3.68C338.76,64.6,338,66,336.61,66.53Z" style="fill:#f5f5f5"></path><polygon points="341.46 16.19 340.2 16.07 340.15 16.16 341.56 16.31 341.46 16.19" style="fill:#fff;opacity:0.2"></polygon><path d="M328.86,44.67c5.34-9.25,11.87-25,13.07-27.94l-.37-.42-1.41-.15L323.34,43.27v0c.67,2.71-.12,4.15-1.48,4.63a2.86,2.86,0,0,1-1.46.08l-9.66,15.59C316.75,60.51,323,54.84,328.86,44.67Z" style="fill:#f5f5f5"></path><path d="M328.86,44.67c5.34-9.25,11.87-25,13.07-27.94l-.37-.42-1.41-.15L323.34,43.27v0c.67,2.71-.12,4.15-1.48,4.63a2.86,2.86,0,0,1-1.46.08l-9.66,15.59C316.75,60.51,323,54.84,328.86,44.67Z" style="fill:#fff;opacity:0.2"></path><path d="M387.79,69.82C377,79.69,359.4,90.33,330.66,87.4a91.2,91.2,0,0,1-29.73-8l-3.9,6.3c9.29,4,20.47,6.75,34,7.63,29.79,1.92,49.38-6.06,62.28-17.21Z" style="fill:#ebebeb"></path><path d="M387.79,69.82l-5.24-6.07C363.81,80.55,333,77.66,333,77.66A91.75,91.75,0,0,1,306.1,71.1l-5.17,8.33a91.2,91.2,0,0,0,29.73,8C359.4,90.33,377,79.69,387.79,69.82Z" style="fill:#fff"></path><path d="M337.23,58.22a.4.4,0,0,0-.68-.19c-1.09,1.16-3.48,3.95-3.38,6a2.55,2.55,0,0,0,3.44,2.47c1.36-.49,2.15-1.93,1.48-4.63C337.75,60.55,337.42,59.08,337.23,58.22Z" style="fill:#e0e0e0"></path><path d="M360.47,51.89c1.36-.48,2.15-1.92,1.48-4.63-.34-1.35-.67-2.82-.86-3.67a.4.4,0,0,0-.68-.19c-1.09,1.16-3.48,4-3.38,6A2.55,2.55,0,0,0,360.47,51.89Z" style="fill:#e0e0e0"></path><path d="M379.88,60.66l-2.59-3c0,.14,0,.28,0,.41A2.45,2.45,0,0,0,379.88,60.66Z" style="fill:#e0e0e0"></path><path d="M344.05,25.17a.4.4,0,0,0-.68-.19c-1.09,1.16-3.49,4-3.39,6a2.55,2.55,0,0,0,3.44,2.47c1.37-.49,2.16-1.93,1.48-4.63C344.56,27.5,344.24,26,344.05,25.17Z" style="fill:#e0e0e0"></path><path d="M321.87,47.92c1.36-.48,2.15-1.92,1.48-4.63v0L320.41,48A2.86,2.86,0,0,0,321.87,47.92Z" style="fill:#e0e0e0"></path><path d="M50.77,184.42s-3.23,12.74,7.82,12.64c0,0-1.84,6.05,2.94,8.67S70,202.86,70,202.86s2,4.09,5.37,4.47c5.28.6,9.33-5.94,9.33-5.94l52.8,28.26.44,6.18L119,254.4l-43,6.52L46.93,244.8,29,212.89,28.39,195l6.25-19Z" style="fill:#f5f5f5"></path><path d="M84.65,201.39s-4.05,6.54-9.33,5.94C71.91,207,70,202.86,70,202.86s-3.68,5.47-8.42,2.87-2.94-8.67-2.94-8.67c-11.05.1-7.82-12.64-7.82-12.64L34.64,176l-6.25,19L29,212.89s1.79,12.63,9.26,16.24,18.81,7,35.23-5.75c7.77-6.06,19.19-17.83,19.19-17.83Z" style="fill:#fff;opacity:0.2"></path><path d="M25.43,171.2s-29.51,59.67,34.35,90.54,89.1-26.13,89.1-26.13l-4.49-2.34s-41.06,45.07-84.92,18.11-26-76-26-76L30,173.6Z" style="fill:#ebebeb"></path><path d="M36.66,177S14.83,223,66.24,250.21c0,0,28.58,14.87,49.45,1.57s21.77-22.22,21.77-22.22l6.94,3.63s-12.31,18.29-23.71,24C110.33,262.3,89.74,272,61.4,257s-37.11-38.78-36.72-57.08S30,173.52,30,173.52l5.33,2.78Z" style="fill:#fff"></path><path d="M75.66,236.5a.34.34,0,0,0-.47-.36c-1.21.56-3.94,2-4.52,3.61a2.13,2.13,0,0,0,1.89,3c1.21,0,2.28-.82,2.6-3.12C75.32,238.47,75.53,237.22,75.66,236.5Z" style="fill:#e0e0e0"></path><path d="M48.4,212.63a.33.33,0,0,0-.46-.36c-1.21.55-3.94,2-4.52,3.6a2.13,2.13,0,0,0,1.89,3c1.21,0,2.27-.81,2.6-3.11C48.07,214.59,48.28,213.35,48.4,212.63Z" style="fill:#e0e0e0"></path><path d="M98.73,232.68a.33.33,0,0,0-.47-.36c-1.21.55-3.94,2-4.52,3.6a2.13,2.13,0,0,0,1.89,3c1.21.05,2.27-.82,2.6-3.12C98.39,234.64,98.6,233.4,98.73,232.68Z" style="fill:#e0e0e0"></path><path d="M111.67,245.72a.34.34,0,0,0-.47-.36c-1.21.56-3.94,2-4.52,3.61a2.14,2.14,0,0,0,1.89,3c1.21,0,2.28-.82,2.6-3.12C111.34,247.69,111.54,246.44,111.67,245.72Z" style="fill:#e0e0e0"></path><path d="M119,227a.33.33,0,0,0-.47-.36c-1.2.56-3.93,2-4.51,3.6a2.14,2.14,0,0,0,1.89,3c1.21.05,2.27-.82,2.6-3.12C118.65,229,118.86,227.76,119,227Z" style="fill:#e0e0e0"></path><path d="M91.32,213.06a.33.33,0,0,0-.47-.36c-1.2.56-3.94,2-4.51,3.6a2.13,2.13,0,0,0,1.88,3c1.21,0,2.28-.82,2.61-3.12C91,215,91.2,213.78,91.32,213.06Z" style="fill:#e0e0e0"></path><path d="M45.15,185.89a.33.33,0,0,0-.46-.36c-1.21.56-3.94,2-4.52,3.6a2.14,2.14,0,0,0,1.89,3c1.21.05,2.27-.82,2.6-3.12C44.82,187.86,45,186.61,45.15,185.89Z" style="fill:#e0e0e0"></path><path d="M70.09,217.47a.33.33,0,0,0-.46-.36c-1.21.55-3.94,2-4.52,3.6a2.13,2.13,0,0,0,1.89,3c1.21.05,2.27-.81,2.6-3.12C69.76,219.43,70,218.19,70.09,217.47Z" style="fill:#e0e0e0"></path><path d="M60.15,242.75a2.06,2.06,0,0,1-.51-.31l-1.39-1-1-.72c-.36-.27-.73-.59-1.13-.92-.8-.69-1.75-1.42-2.67-2.36L52,236c-.51-.5-1-1.08-1.52-1.65-1.08-1.12-2.08-2.45-3.17-3.81a57.93,57.93,0,0,1-9.83-20.36c-.39-1.71-.81-3.32-1-4.86-.11-.77-.26-1.5-.34-2.22s-.14-1.4-.2-2.06c-.16-1.32-.14-2.51-.18-3.56,0-.53,0-1,0-1.46l.06-1.23c0-.69.07-1.25.1-1.69a2.49,2.49,0,0,1,.07-.59,2.23,2.23,0,0,1,0,.59v1.7c0,.37,0,.78,0,1.22s0,.93.07,1.45c.07,1,.07,2.23.26,3.53.07.66.15,1.34.23,2s.24,1.44.37,2.2c.23,1.53.65,3.12,1,4.81a65.79,65.79,0,0,0,3.92,10.56,65.16,65.16,0,0,0,5.83,9.63c1.07,1.36,2.05,2.69,3.11,3.81.52.57,1,1.15,1.49,1.66l1.46,1.46c.9,1,1.83,1.69,2.61,2.39.39.35.75.68,1.09,1l1,.75,1.32,1.06A3.1,3.1,0,0,1,60.15,242.75Z" style="fill:#fff"></path><path d="M126.15,224.21c-.07.13-8.53-4.15-18.9-9.57s-18.73-9.9-18.67-10,8.53,4.16,18.91,9.57S126.21,224.08,126.15,224.21Z" style="fill:#fff"></path><path d="M148.88,235.61s-.06.18-.21.51-.38.82-.71,1.46c-.66,1.26-1.68,3.09-3.16,5.36a68.21,68.21,0,0,1-15.48,16.74,54.52,54.52,0,0,1-31.51,11.38,67.9,67.9,0,0,1-19.89-2.29A102.44,102.44,0,0,1,57.85,261a87.8,87.8,0,0,1-18-11.8,63.25,63.25,0,0,1-13-15.23,58,58,0,0,1-6.81-16.8,64.12,64.12,0,0,1-1.61-15.71A79.12,79.12,0,0,1,22.32,179c.84-2.57,1.62-4.52,2.18-5.83.28-.65.51-1.14.67-1.47s.26-.49.26-.49l-.21.51c-.14.34-.36.83-.62,1.49-.53,1.32-1.28,3.28-2.08,5.85a79.91,79.91,0,0,0-3.7,22.44,64,64,0,0,0,1.66,15.62,57.78,57.78,0,0,0,6.8,16.64A62.74,62.74,0,0,0,40.2,248.84a87.36,87.36,0,0,0,17.89,11.73,102.25,102.25,0,0,0,20,7.71,67.64,67.64,0,0,0,19.74,2.3,54.47,54.47,0,0,0,31.3-11.19,69,69,0,0,0,15.54-16.57c1.5-2.23,2.55-4,3.23-5.29l.76-1.43Z" style="fill:#e0e0e0"></path><path d="M397.41,327.25s-6.22,11.57,4.52,14.16c0,0-3.25,5.42.75,9.12s8.87-.73,8.87-.73.91,4.43,4.12,5.63c5,1.86,10.49-3.5,10.49-3.5l44.37,40.22-1.07,6.11L446.67,411.7l-43.27-4.1L379,384.89l-9.69-35.32,3.79-17.48,10.67-16.92Z" style="fill:#f5f5f5"></path><path d="M426.16,351.93s-5.51,5.36-10.49,3.5c-3.21-1.2-4.12-5.63-4.12-5.63s-4.9,4.41-8.87.73-.75-9.12-.75-9.12c-10.74-2.59-4.52-14.16-4.52-14.16L383.8,315.17l-10.67,16.92-3.79,17.48s-1.33,12.7,5,18,16.54,11.39,35.57,3c9-4,22.94-12.65,22.94-12.65Z" style="fill:#fff;opacity:0.2"></path><path d="M376,308.28s-43.1,50.73,11.36,96.16,92.78-3.73,92.78-3.73l-3.78-3.36s-50.77,33.77-86.78-3-6.82-80-6.82-80l-2.88-2.56Z" style="fill:#ebebeb"></path><path d="M385.53,316.6S353.18,356,396.46,394.82c0,0,24.12,21.36,47.59,13.52s26.51-16.27,26.51-16.27l5.85,5.2S460,412,447.6,414.77c-11.3,2.48-33.64,6.94-57.49-14.51S363.52,353.64,368.33,336s11.61-24.34,11.61-24.34l4.5,4Z" style="fill:#fff"></path><path d="M408.92,383.81a.33.33,0,0,0-.37-.46c-1.3.25-4.29.95-5.25,2.4a2.13,2.13,0,0,0,1.1,3.36c1.16.34,2.41-.24,3.28-2.39C408.12,385.64,408.62,384.48,408.92,383.81Z" style="fill:#e0e0e0"></path><path d="M388.27,354a.33.33,0,0,0-.36-.46c-1.31.25-4.3.95-5.26,2.4a2.13,2.13,0,0,0,1.11,3.36c1.16.34,2.4-.24,3.28-2.4C387.47,355.87,388,354.71,388.27,354Z" style="fill:#e0e0e0"></path><path d="M432.23,385.7a.34.34,0,0,0-.37-.47c-1.3.25-4.29.95-5.25,2.4a2.13,2.13,0,0,0,1.1,3.36c1.16.34,2.41-.24,3.28-2.39C431.43,387.52,431.93,386.36,432.23,385.7Z" style="fill:#e0e0e0"></path><path d="M441.62,401.49a.33.33,0,0,0-.37-.46c-1.3.25-4.3,1-5.25,2.4a2.13,2.13,0,0,0,1.1,3.36c1.16.34,2.41-.24,3.28-2.39C440.82,403.32,441.32,402.16,441.62,401.49Z" style="fill:#e0e0e0"></path><path d="M453.25,385.15a.34.34,0,0,0-.37-.47c-1.3.25-4.3.95-5.25,2.4a2.13,2.13,0,0,0,1.1,3.36c1.16.35,2.41-.24,3.28-2.39C452.45,387,453,385.81,453.25,385.15Z" style="fill:#e0e0e0"></path><path d="M429.8,364.87a.33.33,0,0,0-.37-.46c-1.3.24-4.29.95-5.25,2.4a2.13,2.13,0,0,0,1.11,3.36c1.16.34,2.4-.24,3.28-2.4C429,366.7,429.51,365.54,429.8,364.87Z" style="fill:#e0e0e0"></path><path d="M391.6,327.32a.33.33,0,0,0-.36-.47c-1.31.25-4.3.95-5.26,2.4a2.13,2.13,0,0,0,1.11,3.36c1.16.35,2.4-.24,3.28-2.39C390.81,329.14,391.31,328,391.6,327.32Z" style="fill:#e0e0e0"></path><path d="M408.14,364a.33.33,0,0,0-.37-.46c-1.3.24-4.29.95-5.25,2.39a2.13,2.13,0,0,0,1.11,3.36c1.16.35,2.4-.23,3.28-2.39C407.34,365.82,407.85,364.67,408.14,364Z" style="fill:#e0e0e0"></path><path d="M392.36,386.11s-.16-.13-.42-.42l-1.11-1.29-.79-.94c-.28-.35-.56-.75-.87-1.17-.61-.85-1.35-1.79-2-2.93l-1.1-1.76c-.38-.62-.7-1.29-1.08-2-.77-1.35-1.42-2.88-2.15-4.47a57.93,57.93,0,0,1-4.6-22.14c0-1.74,0-3.41.2-4.95.07-.78.1-1.53.2-2.24s.21-1.4.31-2.05c.16-1.32.47-2.47.69-3.5.11-.51.21-1,.33-1.42s.24-.82.35-1.18c.21-.66.37-1.19.51-1.62a2.08,2.08,0,0,1,.21-.55,5,5,0,0,1-.11.58l-.42,1.65-.3,1.18c-.1.43-.19.91-.29,1.42-.19,1-.47,2.19-.61,3.49-.08.65-.17,1.34-.27,2s-.11,1.46-.17,2.23c-.15,1.54-.13,3.18-.15,4.92a65.54,65.54,0,0,0,1.24,11.19A64.23,64.23,0,0,0,383.26,371c.71,1.58,1.34,3.11,2.09,4.46.37.68.68,1.35,1,2l1.06,1.76c.65,1.15,1.37,2.09,2,3,.3.43.56.84.83,1.19l.75,1,1,1.34A3.49,3.49,0,0,1,392.36,386.11Z" style="fill:#fff"></path><path d="M460.88,384.14c-.09.1-7.26-6.11-16-13.87S429.1,356.12,429.2,356s7.26,6.1,16,13.87S461,384,460.88,384.14Z" style="fill:#fff"></path><path d="M480.17,400.71a4.77,4.77,0,0,1-.33.44c-.22.29-.57.71-1,1.24a59,59,0,0,1-4.37,4.43,68,68,0,0,1-19.08,12.5A54.61,54.61,0,0,1,422,422.71a67.85,67.85,0,0,1-18.74-7,102.59,102.59,0,0,1-17.59-12.38,87.73,87.73,0,0,1-14.59-15.81,63.27,63.27,0,0,1-8.92-17.93,57.94,57.94,0,0,1-2.52-17.94A64.43,64.43,0,0,1,361.91,336a78.86,78.86,0,0,1,9.22-20.89c1.44-2.29,2.67-4,3.53-5.13.42-.56.77-1,1-1.26s.37-.41.37-.41l-.33.44c-.22.29-.55.72-1,1.3-.83,1.15-2,2.87-3.44,5.17a79.91,79.91,0,0,0-9,20.87,63.91,63.91,0,0,0-2.17,15.55,57.55,57.55,0,0,0,2.55,17.79,62.86,62.86,0,0,0,8.88,17.78A87.43,87.43,0,0,0,386,402.9a102.27,102.27,0,0,0,17.49,12.32,67.5,67.5,0,0,0,18.6,7A54.47,54.47,0,0,0,455.21,419a69,69,0,0,0,19.09-12.31c2-1.8,3.46-3.31,4.42-4.35l1.08-1.2Z" style="fill:#e0e0e0"></path><path d="M430,250.26l2.49-2.63a2.31,2.31,0,0,1,2.41-2.55l33-34.78c-2.68-.8-17.16-5.16-25.78-9C432.58,197,427,192,423.8,187l-7-3.44a81.55,81.55,0,0,0-3.4,24.25S413.54,235.23,430,250.26ZM446,229a.34.34,0,0,1-.11.61c-.73.24-2,.67-3.16,1.08-2.32.84-3.66.27-4.21-.89a2.26,2.26,0,0,1,1.87-3.25C442.19,226.23,444.86,228.09,446,229Zm7.24-15.85a2.26,2.26,0,0,1,1.87-3.25c1.82-.27,4.49,1.59,5.61,2.45a.34.34,0,0,1-.11.61c-.73.24-2,.67-3.16,1.08C455.11,214.83,453.77,214.26,453.22,213.1ZM423.49,210a2.27,2.27,0,0,1,1.87-3.26c1.82-.26,4.5,1.6,5.61,2.46a.35.35,0,0,1-.1.61c-.74.24-2,.66-3.17,1.08C425.38,211.74,424,211.17,423.49,210Z" style="fill:#f5f5f5"></path><polygon points="468.28 209.84 468.28 208.72 468.19 208.68 468.19 209.94 468.28 209.84" style="fill:#fff;opacity:0.2"></polygon><path d="M442.07,201.26c8.62,3.88,23.1,8.24,25.78,9l.34-.36v-1.26l-25.38-12.41h0c-2.32.83-3.66.26-4.21-.9a2.52,2.52,0,0,1-.19-1.27L423.8,187C427,192,432.58,197,442.07,201.26Z" style="fill:#f5f5f5"></path><path d="M442.07,201.26c8.62,3.88,23.1,8.24,25.78,9l.34-.36v-1.26l-25.38-12.41h0c-2.32.83-3.66.26-4.21-.9a2.52,2.52,0,0,1-.19-1.27L423.8,187C427,192,432.58,197,442.07,201.26Z" style="fill:#fff;opacity:0.2"></path><path d="M425.12,255.41c-9.66-8.67-20.58-23.2-20.55-48.79a80.72,80.72,0,0,1,4.39-26.9l-5.89-2.88c-2.71,8.53-4.14,18.63-3.72,30.6.94,26.42,9.7,43,20.67,53.36Z" style="fill:#ebebeb"></path><path d="M425.12,255.41l4.88-5.15c-16.46-15-16.64-42.48-16.64-42.48a81.55,81.55,0,0,1,3.4-24.25l-7.8-3.81a80.72,80.72,0,0,0-4.39,26.9C404.54,232.21,415.46,246.74,425.12,255.41Z" style="fill:#fff"></path><path d="M430.87,209.83a.35.35,0,0,0,.1-.61c-1.11-.86-3.79-2.72-5.61-2.46a2.27,2.27,0,0,0-1.87,3.26c.55,1.15,1.89,1.72,4.21.89C428.86,210.49,430.13,210.07,430.87,209.83Z" style="fill:#e0e0e0"></path><path d="M438.5,229.75c.55,1.16,1.89,1.73,4.21.89,1.16-.41,2.43-.84,3.16-1.08A.34.34,0,0,0,446,229c-1.12-.86-3.79-2.72-5.61-2.45A2.26,2.26,0,0,0,438.5,229.75Z" style="fill:#e0e0e0"></path><path d="M432.49,247.63l2.41-2.55a2.31,2.31,0,0,0-2.41,2.55Z" style="fill:#e0e0e0"></path><path d="M460.59,212.91a.34.34,0,0,0,.11-.61c-1.12-.86-3.79-2.72-5.61-2.45a2.26,2.26,0,0,0-1.87,3.25c.55,1.16,1.89,1.73,4.21.89C458.59,213.58,459.86,213.15,460.59,212.91Z" style="fill:#e0e0e0"></path><path d="M438.58,195.38c.55,1.16,1.89,1.73,4.21.9h0l-4.42-2.16A2.52,2.52,0,0,0,438.58,195.38Z" style="fill:#e0e0e0"></path><path d="M80,390.87l-.51,3.58a2.19,2.19,0,0,1-.21,3.27,2.16,2.16,0,0,1-.29.21l-6.8,47.43c2.64-.9,17-5.71,26.26-7.52,10.21-2,17.63-1.11,23.17,1.11l7.73-1.26a81.54,81.54,0,0,0-11.23-21.76S102.16,393.63,80,390.87Zm-.73,26.63a.36.36,0,0,1-.27-.57c.46-.62,1.25-1.69,2-2.7,1.41-2,2.83-2.33,4-1.7a2.26,2.26,0,0,1,.35,3.73C84,417.53,80.71,417.55,79.31,417.5Zm3.24,17.12a2.25,2.25,0,0,1,.35,3.73c-1.33,1.27-4.59,1.3-6,1.24a.35.35,0,0,1-.27-.56c.46-.62,1.25-1.7,2-2.71C80,434.3,81.43,434,82.55,434.62ZM108.6,420a2.27,2.27,0,0,1,.35,3.74c-1.33,1.27-4.59,1.29-6,1.24a.35.35,0,0,1-.27-.57c.46-.62,1.25-1.7,2-2.71C106.06,419.64,107.48,419.33,108.6,420Z" style="fill:#f5f5f5"></path><polygon points="72.14 445.98 72.79 446.89 72.88 446.88 72.16 445.84 72.14 445.98" style="fill:#fff;opacity:0.2"></polygon><path d="M98.49,437.84c-9.28,1.81-23.62,6.62-26.26,7.52l-.07.48.72,1,27.89-4.53v0c1.41-2,2.84-2.33,4-1.7a2.52,2.52,0,0,1,.9.93l16-2.61C116.12,436.73,108.7,435.85,98.49,437.84Z" style="fill:#f5f5f5"></path><path d="M98.49,437.84c-9.28,1.81-23.62,6.62-26.26,7.52l-.07.48.72,1,27.89-4.53v0c1.41-2,2.84-2.33,4-1.7a2.52,2.52,0,0,1,.9.93l16-2.61C116.12,436.73,108.7,435.85,98.49,437.84Z" style="fill:#fff;opacity:0.2"></path><path d="M81.05,383.85c12.89,1.5,30.2,7,45,28a80.44,80.44,0,0,1,12,24.49l6.47-1.05a90,90,0,0,0-14.64-27.13c-16-21-32.74-29.48-47.69-31.62Z" style="fill:#ebebeb"></path><path d="M81.05,383.85l-1,7c22.12,2.76,38.12,25.06,38.12,25.06a81.54,81.54,0,0,1,11.23,21.76L138,436.3a80.44,80.44,0,0,0-12-24.49C111.25,390.9,93.94,385.35,81.05,383.85Z" style="fill:#fff"></path><path d="M102.69,424.37a.35.35,0,0,0,.27.57c1.4.05,4.66,0,6-1.24a2.27,2.27,0,0,0-.35-3.74c-1.12-.63-2.54-.32-3.95,1.7C103.94,422.67,103.15,423.75,102.69,424.37Z" style="fill:#e0e0e0"></path><path d="M85,412.53c-1.12-.63-2.54-.33-4,1.7-.71,1-1.5,2.08-2,2.7a.36.36,0,0,0,.27.57c1.4.05,4.66,0,6-1.24A2.26,2.26,0,0,0,85,412.53Z" style="fill:#e0e0e0"></path><path d="M79.53,394.45l-.5,3.48a2.16,2.16,0,0,0,.29-.21A2.19,2.19,0,0,0,79.53,394.45Z" style="fill:#e0e0e0"></path><path d="M76.64,439a.35.35,0,0,0,.27.56c1.4.06,4.66,0,6-1.24a2.25,2.25,0,0,0-.35-3.73c-1.12-.63-2.54-.32-4,1.7C77.89,437.33,77.1,438.41,76.64,439Z" style="fill:#e0e0e0"></path><path d="M104.73,440.63c-1.11-.63-2.54-.32-4,1.7v0l4.86-.79A2.52,2.52,0,0,0,104.73,440.63Z" style="fill:#e0e0e0"></path></g><g id="freepik--Floor--inject-14"><path d="M482.61,474.56c0,.14-104.15.26-232.6.26s-232.62-.12-232.62-.26,104.13-.26,232.62-.26S482.61,474.41,482.61,474.56Z" style="fill:#263238"></path></g><g id="freepik--Character--inject-14"><polygon points="320.37 80.47 322.07 101.11 314.57 94.96 318.32 90.61 319.29 80.47 320.37 80.47" style="fill:#70C28D"></polygon><polygon points="320.37 80.47 322.07 101.11 314.57 94.96 318.32 90.61 319.29 80.47 320.37 80.47" style="opacity:0.30000000000000004"></polygon><polygon points="320.37 80.47 322.07 101.11 314.57 94.96 318.32 90.61 319.29 80.47 320.37 80.47" style="fill:#70C28D"></polygon><polygon points="320.37 80.47 322.07 101.11 314.57 94.96 318.32 90.61 319.29 80.47 320.37 80.47" style="opacity:0.30000000000000004"></polygon><path d="M399,335.71a6.54,6.54,0,0,0-3.09-5.14c-27.51-18.2-48.24-58.55-50.33-92.7q-.07-2.93-.18-5.91v0h0c-1.59-48.83-6-109.51-15.24-123.85C314.42,83.69,277.8,76.17,277.8,76.17c-53.62-3.83-63.19,37.37-68.6,74.89C205.83,174.4,198.81,250,198.81,250l3.91,11.57c11.61,34.4,37.75,62.23,71.73,75,9.89,3.72,18.25,5.22,22.18,2a134.91,134.91,0,0,0,56.42,34.25c8.66,2.63,17.74,4.39,26.75,3.55,5.85-.55,12-2.48,15.51-7.21a13.44,13.44,0,0,0-11.53-21.41C385.81,341.2,399.18,343.14,399,335.71Z" style="fill:#263238"></path><path d="M284.93,91.34l-3.35-3.2-36.25,14.61a10.12,10.12,0,0,0-9.55,9.8l.31,118.11c0,8,1.56,14.94,6.4,21.32l5.09,6.73c11.61,15.32,35.49,14.06,44.68-2.83a13.2,13.2,0,0,0,1.28-3,25.35,25.35,0,0,0,.54-2.64c1.08-9.5,1.14-17.74,1.14-17.74.64-10.44.86-14.72.86-14.62s22.2-2.55,28.2-31.05c3-14.17,2.42-33.67,1.59-52.86C324.7,107.36,306.28,91.31,284.93,91.34Z" style="fill:#ffbe9d"></path><path d="M277.5,149.83a3.69,3.69,0,0,1-3.74,3.54,3.54,3.54,0,0,1-3.63-3.51,3.71,3.71,0,0,1,3.74-3.55A3.54,3.54,0,0,1,277.5,149.83Z" style="fill:#263238"></path><path d="M315,150.84a3.68,3.68,0,0,1-3.73,3.54,3.55,3.55,0,0,1-3.64-3.52,3.7,3.7,0,0,1,3.74-3.54A3.53,3.53,0,0,1,315,150.84Z" style="fill:#263238"></path><path d="M322.07,141.51c-.48.45-3.16-1.75-7.13-1.94s-7,1.65-7.38,1.14c-.2-.22.31-1.07,1.63-1.93a10.1,10.1,0,0,1,5.93-1.5,9.68,9.68,0,0,1,5.65,2.14C321.94,140.41,322.31,141.3,322.07,141.51Z" style="fill:#263238"></path><path d="M281.84,141.92c-.53.4-3-2.07-6.9-2.66s-7.1.92-7.45.38c-.18-.25.41-1,1.81-1.75a10.15,10.15,0,0,1,6.06-.9,9.75,9.75,0,0,1,5.4,2.71C281.82,140.82,282.09,141.74,281.84,141.92Z" style="fill:#263238"></path><path d="M295.69,170.78c0-.23,2.48-.53,6.5-.84,1-.06,2-.21,2.19-.89s-.09-1.83-.52-3l-2.61-7.86c-3.61-11.19-6.17-20.36-5.72-20.5s3.75,8.8,7.35,20q1.31,4.13,2.48,7.9c.33,1.17.92,2.5.33,4a2.53,2.53,0,0,1-1.74,1.39,7,7,0,0,1-1.73.16C298.19,171.11,295.7,171,295.69,170.78Z" style="fill:#263238"></path><path d="M296.08,217.83a73.15,73.15,0,0,1-38-12.19s8.68,20.37,37.56,19.12Z" style="fill:#eb996e"></path><path d="M293.54,180.25a7.17,7.17,0,0,0-6.28-3,6.57,6.57,0,0,0-4.62,2.19,4.14,4.14,0,0,0-.55,4.71c1,1.56,3.21,2,5.13,1.58a15,15,0,0,0,5.22-2.77,4.39,4.39,0,0,0,1.19-1.12,1.32,1.32,0,0,0,.07-1.47" style="fill:#eb996e"></path><path d="M283.89,172.94c.64,0,.44,4.29,4,7.53s8.13,3,8.13,3.6c.05.28-1.06.79-3,.74a10.73,10.73,0,0,1-6.8-2.76,9.32,9.32,0,0,1-3.06-6.3C283.06,173.94,283.59,172.9,283.89,172.94Z" style="fill:#263238"></path><path d="M285.64,126.46c-.55,1-4.39-.1-9.08-.25s-8.61.54-9.07-.51c-.2-.5.6-1.41,2.26-2.21a15.82,15.82,0,0,1,13.82.58C285.16,125,285.88,126,285.64,126.46Z" style="fill:#263238"></path><path d="M321.5,124.47c-.74.87-3.42-.2-6.71-.41s-6.09.3-6.68-.67c-.26-.48.22-1.36,1.48-2.15a9.73,9.73,0,0,1,10.79.88C321.5,123.1,321.83,124.05,321.5,124.47Z" style="fill:#263238"></path><path d="M236.5,163s20.31,6.32,31.8-43.79c3.93-17.14,19.81-31,19.81-31l-6.44-1.94S241.63,97.48,241,98s-10.1,20.71-10.1,20.71Z" style="fill:#263238"></path><path d="M241.5,161.09c.11-2.14-2.11-7.31-4.21-7.75-5.6-1.16-15.79-1.22-16.6,13.11-1.12,19.58,18.77,16.65,18.84,16.09S241.15,168.47,241.5,161.09Z" style="fill:#ffbe9d"></path><path d="M234,174.79c-.08-.07-.36.22-.95.45a3.43,3.43,0,0,1-2.55-.09c-2-.88-3.58-4.26-3.48-7.8a11.17,11.17,0,0,1,1.24-4.83,3.91,3.91,0,0,1,2.71-2.47,1.74,1.74,0,0,1,2,1c.23.56.08.94.19,1s.44-.3.32-1.12a2.18,2.18,0,0,0-.7-1.27,2.55,2.55,0,0,0-1.86-.6c-1.51,0-2.95,1.33-3.73,2.83a11.45,11.45,0,0,0-1.49,5.39c-.1,3.95,1.71,7.76,4.49,8.74a3.68,3.68,0,0,0,3.15-.34C233.91,175.26,234,174.83,234,174.79Z" style="fill:#eb996e"></path><path d="M250.27,153.37c0-.07,1.08-.07,2.94-.59a17.74,17.74,0,0,0,7-4.05,24.37,24.37,0,0,0,3.64-4.26,32.65,32.65,0,0,0,2.95-5.72c1.74-4.22,2.85-9.14,4.22-14.24s2.87-9.93,4.51-14.22a80.5,80.5,0,0,1,5.1-11.07,59.33,59.33,0,0,1,4.48-6.88c.58-.77,1.09-1.34,1.41-1.73A4.28,4.28,0,0,1,287,90a5.32,5.32,0,0,1-.44.64c-.3.42-.77,1-1.32,1.8a65.69,65.69,0,0,0-4.33,6.93,87.45,87.45,0,0,0-5,11.06c-1.6,4.27-3.07,9.08-4.45,14.18s-2.49,10-4.27,14.29a32.8,32.8,0,0,1-3.05,5.78,23.84,23.84,0,0,1-3.74,4.29,17.42,17.42,0,0,1-7.17,4A10.93,10.93,0,0,1,250.27,153.37Z" style="fill:#263238"></path><path d="M341.39,229.82s.05-.11.17-.32l.52-.92c.48-.83,1.15-2,2-3.52s1.89-3.44,3-5.7a45.22,45.22,0,0,0,2.92-8,26.49,26.49,0,0,0,.72-10.14c-.44-3.67-2-7.35-3.77-11.1-.88-1.88-1.83-3.8-2.67-5.82a51.54,51.54,0,0,1-2.17-6.35,75,75,0,0,1-2.2-13.9c-.7-9.62-.36-18.81-1.16-27.1a70.53,70.53,0,0,0-2-11.62,45.1,45.1,0,0,0-3.66-9.57,34.49,34.49,0,0,0-9.34-11.43,32.12,32.12,0,0,0-3.38-2.21l-.93-.5-.31-.19a1.44,1.44,0,0,1,.33.14l1,.46a26.12,26.12,0,0,1,3.46,2.14,34.14,34.14,0,0,1,9.54,11.41,46.11,46.11,0,0,1,3.75,9.64,71.28,71.28,0,0,1,2,11.69c.83,8.32.5,17.52,1.19,27.1a76.29,76.29,0,0,0,2.18,13.81,54,54,0,0,0,2.13,6.29c.84,2,1.77,3.92,2.66,5.81,1.77,3.76,3.33,7.5,3.76,11.24a26.55,26.55,0,0,1-.8,10.29,44.21,44.21,0,0,1-3,8c-1.08,2.27-2.15,4.15-3,5.68s-1.61,2.69-2.1,3.48l-.57.89C341.47,229.73,341.4,229.83,341.39,229.82Z" style="fill:#263238"></path><path d="M211.49,238.35a2.08,2.08,0,0,1-.35-.23l-1-.71a28.4,28.4,0,0,1-3.43-3.2,32.54,32.54,0,0,1-4.32-6,40.76,40.76,0,0,1-3.67-9.1c-2-7.05-2.14-15.89-.92-25.42a266.45,266.45,0,0,1,6-30.67,269.44,269.44,0,0,1,19.78-53.14c1.59-3.26,3.17-6.14,4.53-8.69s2.63-4.68,3.64-6.45,1.86-3.06,2.43-4l.64-1,.23-.34a2,2,0,0,1-.18.37l-.6,1.06-2.34,4-3.57,6.47c-1.32,2.56-2.88,5.46-4.45,8.73a276.83,276.83,0,0,0-19.61,53.1,272.25,272.25,0,0,0-6,30.6c-1.24,9.49-1.11,18.26.8,25.26a40.84,40.84,0,0,0,3.56,9.06,33.76,33.76,0,0,0,4.22,6,31.42,31.42,0,0,0,3.34,3.25l.95.75A2.28,2.28,0,0,1,211.49,238.35Z" style="fill:#263238"></path><path d="M214,141.39a2.2,2.2,0,0,1-.18-.58,10.22,10.22,0,0,1-.32-1.73,15,15,0,0,1,.83-6.37,23.43,23.43,0,0,1,5-8.15,61.41,61.41,0,0,1,8.93-7.54,74.58,74.58,0,0,0,9-7.35,53.09,53.09,0,0,0,6.12-7.23A54.38,54.38,0,0,0,246.68,97c.74-1.32,1.1-2.08,1.15-2.06a3,3,0,0,1-.22.57c-.16.37-.41.91-.75,1.59a48.94,48.94,0,0,1-3.26,5.54,52.26,52.26,0,0,1-6.09,7.36,71.48,71.48,0,0,1-9,7.43,62.78,62.78,0,0,0-8.89,7.45,23.5,23.5,0,0,0-5,7.94,15.52,15.52,0,0,0-1,6.24C213.76,140.57,214,141.38,214,141.39Z" style="fill:#455a64"></path><path d="M210.29,172.17a.9.9,0,0,1-.1-.22l-.26-.65a18.07,18.07,0,0,1-.75-2.6,22.42,22.42,0,0,1,.45-9.89,41,41,0,0,1,6.4-13.23,111.62,111.62,0,0,1,11.76-13.67c4.49-4.56,8.92-8.74,12.78-12.7a114,114,0,0,0,9.67-11c1.31-1.63,2.29-3.25,3.25-4.6s1.6-2.64,2.16-3.67.93-1.81,1.24-2.39l.33-.62c.08-.14.12-.21.13-.2a.77.77,0,0,1-.08.22l-.29.64c-.28.6-.66,1.42-1.15,2.45s-1.28,2.27-2.1,3.72-1.9,3-3.2,4.67a109.23,109.23,0,0,1-9.62,11.15c-3.85,4-8.27,8.18-12.75,12.73a114.9,114.9,0,0,0-11.74,13.57A41.53,41.53,0,0,0,210,158.91a22.86,22.86,0,0,0-.6,9.75,20.34,20.34,0,0,0,.65,2.61l.21.67A.82.82,0,0,1,210.29,172.17Z" style="fill:#455a64"></path><path d="M240.51,78.17c0,.49,4.62,12.85,10.1,13.56s22.59-1.18,25.57-4.47,4.54-11.57,4.54-11.57l-2-2s-7-2.89-17.9-.74A200.17,200.17,0,0,0,240.51,78.17Z" style="fill:#70C28D"></path><path d="M319.13,78.21a34.64,34.64,0,0,0-17.24-5.13,135.58,135.58,0,0,0-17.26.45s4.16,8,6.26,10.88,4.39,6.39,12.55,7,13.71,2.1,15.05.07c1.63-2.47,1.57-8,1.93-10.09A4,4,0,0,0,319.13,78.21Z" style="fill:#70C28D"></path><path d="M277.89,73.75s2.89-2.67,9.84.11l-1.12,2.92s-3.74-2.24-6.89.2Z" style="fill:#70C28D"></path><path d="M240.51,78.17l-8.76,36.26,6.16-5.17s6.16-24.31,6.17-24.48V84Z" style="fill:#70C28D"></path><path d="M244.73,79c1.77,2.69,4,7.19,7,8.57,2.46,1.17,5.32,1.13,8,.88a57.67,57.67,0,0,0,9.5-1.7,10.16,10.16,0,0,0,4-1.8c1.71-1.44,2.39-3.72,3-5.87.32-1.15.61-2.48-.09-3.45s-5.05-1.9-6.24-2C263.83,73,248.82,77,244.73,79" style="fill:#263238"></path><path d="M242.48,78.64a1,1,0,0,0-.55-.13.46.46,0,0,0-.42.32c.12.56,1.4,1.5,2,1.24C243.68,79.75,243,78.93,242.48,78.64Z" style="fill:#fff"></path><path d="M291.09,75A1.44,1.44,0,0,0,290,77c1.58,3.45,5.52,10.47,10.75,11.29,6.81,1.07,15.44,2.46,16.17,1.11s2.2-7.53,1.47-9.26-4.35-3.56-9.64-4.53C301.28,74.22,294.81,74.9,291.09,75Z" style="fill:#263238"></path><path d="M313.28,80.09a57.24,57.24,0,0,1-7.21,2.8,59,59,0,0,1-7.38,2.31,56.48,56.48,0,0,1,7.21-2.8A58.39,58.39,0,0,1,313.28,80.09Z" style="fill:#455a64"></path><path d="M312.73,83.11a29.22,29.22,0,0,1-5.16,1.66,28,28,0,0,1-5.29,1.17,55.81,55.81,0,0,1,10.45-2.83Z" style="fill:#455a64"></path><path d="M272.08,78.76a55.3,55.3,0,0,1-5.15,3.31,54,54,0,0,1-5.25,3.18,27.84,27.84,0,0,1,5-3.62A26.9,26.9,0,0,1,272.08,78.76Z" style="fill:#455a64"></path><path d="M266.07,77.66a11.43,11.43,0,0,1-2,1.28l-4.86,2.92-4.8,3a11.94,11.94,0,0,1-2,1.18,9.79,9.79,0,0,1,1.83-1.49c1.18-.86,2.85-2,4.74-3.15s3.65-2.14,4.95-2.8A9.56,9.56,0,0,1,266.07,77.66Z" style="fill:#455a64"></path><path d="M286.85,73.74a10.86,10.86,0,0,1-1.47-.54,8.8,8.8,0,0,0-7.14.58,11.2,11.2,0,0,1-1.37.76s.35-.53,1.18-1.08a7.83,7.83,0,0,1,3.66-1.25,8,8,0,0,1,3.81.65A3.21,3.21,0,0,1,286.85,73.74Z" style="fill:#263238"></path><path d="M286.92,76.7a15.39,15.39,0,0,0-4.24-.58,16.1,16.1,0,0,0-4.14,1.08s.34-.4,1.06-.77a7.79,7.79,0,0,1,6.18-.38C286.55,76.34,287,76.64,286.92,76.7Z" style="fill:#263238"></path><path d="M246.29,89.35c-.13.11-1.74-1.84-3.42-4.43a26.73,26.73,0,0,1-2.82-4.83,34.87,34.87,0,0,1,3.25,4.55l2.16,3.3A6.39,6.39,0,0,1,246.29,89.35Z" style="fill:#263238"></path><path d="M160,299.51l-19.33,42.08-.88-42.08-26.1,1.33s-16.33,73.29-11.83,88.49,25.67,28.87,37.32,22.21c13.37-7.64,30.23-36.81,34.36-45.5C181,350.33,199,317.56,199,317.56Z" style="fill:#ffbe9d"></path><path d="M140.64,341.59a15.24,15.24,0,0,1,.49,1.72c.14.55.3,1.24.46,2s.36,1.71.51,2.72a86.89,86.89,0,0,1,1.23,16A56.63,56.63,0,0,1,141,379.92a23.79,23.79,0,0,1-.95,2.6,18.93,18.93,0,0,1-.88,1.91,11.37,11.37,0,0,1-.91,1.53,12.57,12.57,0,0,1,.73-1.62c.27-.5.49-1.17.79-1.92s.57-1.64.87-2.61a60.66,60.66,0,0,0,2.12-15.76,99.46,99.46,0,0,0-1.07-15.92c-.13-1-.3-1.92-.44-2.73s-.26-1.49-.37-2A10.77,10.77,0,0,1,140.64,341.59Z" style="fill:#eb996e"></path><path d="M157.48,225.89a2.28,2.28,0,0,1,4.18,1.1v.08c0,3.23-11,27.72-11,27.72S144,277,143.64,280.49a108.06,108.06,0,0,1-3.75,16.64l-.81,6-26,3.79.69-7.2s-1.42-6.32-2-10.75,2.55-24.46,2.55-24.46l-1.23-3.85-.64-.42s-3,6.61-5.76,5.91l-2.75-.71,3.14-11.68,6-5.23,2.62-5.2s2.85-4.78,8.09-3.72a5.76,5.76,0,0,1,4.86,6l1.57,4.66h0l3.06-14.25s-2.47-12.92-2.27-15,2.55-4.07,4.32-3,6.87,17.87,6.87,17.87l-.49,14.31Z" style="fill:#ffbe9d"></path><path d="M115.7,243.36c-1,3.16-3.71,11.65-4,14.67a11.72,11.72,0,0,0,9.46-2.88c2.52-2.3,3.55-6.72,5-10.13" style="fill:#ffbe9d"></path><path d="M126.22,245a8.21,8.21,0,0,1-.45,1.38c-.32.87-.73,2.15-1.33,3.72a14.24,14.24,0,0,1-3,5.09,11.81,11.81,0,0,1-6.51,3.09,12.25,12.25,0,0,1-3.26,0l-.24,0,0-.24a41.1,41.1,0,0,1,1.34-5.91c.5-1.77,1-3.33,1.41-4.62s.77-2.33,1-3a5.48,5.48,0,0,1,.45-1.07,5.91,5.91,0,0,1-.27,1.13c-.24.81-.53,1.84-.89,3.08s-.83,2.87-1.3,4.64a44.52,44.52,0,0,0-1.26,5.84l-.22-.28a11.5,11.5,0,0,0,9.36-2.91,14.5,14.5,0,0,0,3-4.88c.63-1.53,1.11-2.8,1.48-3.66A7.25,7.25,0,0,1,126.22,245Z" style="fill:#eb996e"></path><path d="M134.22,292.52c-6.09,1.41-14.2-8.65-14.79-14.92S121,262.84,121,262.84l-4.91-7.07s-3.78-4.72-4.26-8.19c-.26-1.86,2-3.83,2-3.83s11.46,7.42,13,9.89S139,272.19,139,272.19" style="fill:#ffbe9d"></path><path d="M139,272.19a6.43,6.43,0,0,1-.45-.6c-.3-.44-.7-1-1.22-1.79-1.07-1.62-2.59-3.9-4.48-6.73l-3.12-4.72L128,255.69l-.91-1.39a6.33,6.33,0,0,0-1-1.32,50.13,50.13,0,0,0-5.71-4.53c-2.09-1.49-4.3-3-6.61-4.49l.31,0c-1.16,1.1-2.41,2.67-1.78,4.35a18,18,0,0,0,2.31,4.85c2.31,3.25,4.55,6.53,6.65,9.56l.07.09,0,.11a65.53,65.53,0,0,0-1.38,7.68,34.29,34.29,0,0,0-.2,7.11,16.31,16.31,0,0,0,2.16,5.91,25.57,25.57,0,0,0,3.23,4.4,19.72,19.72,0,0,0,3.37,2.93,12.85,12.85,0,0,0,1.59.88c.25.11.49.23.72.32l.7.2a8.47,8.47,0,0,0,2.79.19,5.57,5.57,0,0,1-.73.13l-.4.06-.49,0a4.86,4.86,0,0,1-1.22-.18l-.71-.19c-.24-.08-.49-.2-.75-.31a10.85,10.85,0,0,1-1.64-.86,20.28,20.28,0,0,1-3.47-2.91,26.35,26.35,0,0,1-3.33-4.44,16.5,16.5,0,0,1-2.25-6.05,34.5,34.5,0,0,1,.16-7.22,64.61,64.61,0,0,1,1.36-7.74l0,.21c-2.12-3-4.31-6.24-6.67-9.57a18.36,18.36,0,0,1-2.38-5,4.11,4.11,0,0,1-.17-1.41,3.82,3.82,0,0,1,.43-1.35,8.06,8.06,0,0,1,1.68-2.11l.14-.12.17.1c2.31,1.52,4.52,3,6.61,4.52a51.36,51.36,0,0,1,5.75,4.62,7.43,7.43,0,0,1,1.07,1.4l.91,1.4,1.72,2.67,3.07,4.75,4.35,6.81,1.15,1.84A3.48,3.48,0,0,1,139,272.19Z" style="fill:#eb996e"></path><path d="M205.46,244.35l30.66-11.73,58.31,7,38,7.51s-31.33,45.32-60.61,43.47S205.46,244.35,205.46,244.35Z" style="fill:#ffbe9d"></path><path d="M147.1,311.09s20.19-46.42,23.53-50.92c0,0,37.7-18.61,45.51-19.92,0,0,34.73,53.8,57.84,50.43s57.22-46,57.22-46,32.45,11.28,35.48,16.94c7,13.07,19.7,56.13,19.7,56.13l-45.95,6,1.49,96.19,12.43,54.47H190.6l11.78-50.69-11.66-92.82Z" style="fill:#455a64"></path><path d="M239.24,267.89s8.12,45.57,44.59,44.22c0,0,19-.28,18.44,2.45s-9.61,9.27-7.83,15.12,17.06,76,27.66,88.43,20.19,14.29,20.19,14.29l-18.53-92.8,8.65-34.23-68-20Z" style="opacity:0.30000000000000004"></path><path d="M182.7,282.54a2.81,2.81,0,0,1,.17.64c.1.48.22,1.09.38,1.85.32,1.68.76,4,1.29,6.83,1.06,5.78,2.47,13.76,3.93,22.6s2.67,16.85,3.45,22.67c.38,2.91.68,5.27.84,6.9.08.78.14,1.4.18,1.89a2.75,2.75,0,0,1,0,.66,3.17,3.17,0,0,1-.13-.65c-.07-.48-.16-1.1-.28-1.87-.25-1.69-.59-4-1-6.87-.87-5.81-2.15-13.81-3.61-22.65s-2.8-16.77-3.77-22.61c-.47-2.85-.85-5.18-1.13-6.86l-.28-1.87A3.21,3.21,0,0,1,182.7,282.54Z" style="fill:#263238"></path><path d="M186.48,306.41a6.63,6.63,0,0,1-1.3-.3c-.83-.22-2-.58-3.49-1.05-2.94-.92-6.94-2.33-11.34-4S162,298,159.07,297l-3.43-1.2a6.16,6.16,0,0,1-1.24-.5,7.31,7.31,0,0,1,1.3.31c.83.22,2,.58,3.49,1,2.93.92,6.94,2.33,11.34,4s8.38,3.09,11.27,4.1l3.44,1.21A6.64,6.64,0,0,1,186.48,306.41Z" style="fill:#fff"></path><path d="M309.73,319.42c0,.15-27,.26-60.29.26s-60.3-.11-60.3-.26,27-.26,60.3-.26S309.73,319.28,309.73,319.42Z" style="fill:#fff"></path><path d="M278.93,351.5c0,.15-19,.26-42.4.26s-42.41-.11-42.41-.26,19-.26,42.41-.26S278.93,351.36,278.93,351.5Z" style="fill:#fff"></path><path d="M317.75,346.14a4.16,4.16,0,0,1,1,.24l.37.11-.39,0c-2.45.26-10.17.79-19.31.74-5.62,0-10.7-.25-14.37-.5-1.84-.12-3.32-.24-4.35-.35a8.73,8.73,0,0,1-1.58-.21,8.92,8.92,0,0,1,1.6,0l4.35.19c3.67.15,8.74.32,14.35.34,9.12.05,16.83-.32,19.3-.37l0,.15A4.85,4.85,0,0,1,317.75,346.14Z" style="fill:#fff"></path><path d="M251.07,292.78c0,.14-14.64.26-32.68.26s-32.69-.12-32.69-.26,14.63-.26,32.69-.26S251.07,292.63,251.07,292.78Z" style="fill:#fff"></path><path d="M232.85,262.64a1.79,1.79,0,0,1-.49.19l-1.44.43c-1.25.37-3.08.87-5.34,1.46-4.51,1.18-10.79,2.67-17.78,4.06s-13.37,2.42-18,3.06c-2.31.32-4.18.55-5.48.69l-1.5.15a1.86,1.86,0,0,1-.52,0,1.68,1.68,0,0,1,.51-.12l1.48-.25,5.46-.86c4.61-.73,11-1.81,17.94-3.2s13.27-2.82,17.81-3.91l5.37-1.29,1.46-.34A3.37,3.37,0,0,1,232.85,262.64Z" style="fill:#fff"></path><path d="M253,381.48c0,.15-12.44.14-27.77,0s-27.77-.39-27.77-.53,12.43-.14,27.77,0S253,381.34,253,381.48Z" style="fill:#fff"></path><path d="M259,406.88c0,.14-13.28.26-29.66.26s-29.66-.12-29.66-.26,13.28-.26,29.66-.26S259,406.73,259,406.88Z" style="fill:#fff"></path><path d="M322.1,403.1c0,.14-12.52.26-28,.26s-28-.12-28-.26,12.51-.26,28-.26S322.1,403,322.1,403.1Z" style="fill:#fff"></path><path d="M311.52,377.41c0,.14-11.51.26-25.69.26s-25.7-.12-25.7-.26,11.5-.26,25.7-.26S311.52,377.26,311.52,377.41Z" style="fill:#fff"></path><path d="M248.48,390a1.88,1.88,0,0,1,.33-.44c.28-.31.62-.7,1-1.18.91-1,2.21-2.49,3.79-4.33,3.18-3.68,7.46-8.86,11.88-14.81s8.13-11.55,10.72-15.66c1.3-2.05,2.34-3.72,3-4.88.33-.54.61-1,.83-1.33a2.26,2.26,0,0,1,.32-.45,3.13,3.13,0,0,1-.23.5l-.75,1.38c-.65,1.19-1.64,2.9-2.9,5-2.52,4.16-6.2,9.8-10.63,15.77s-8.76,11.12-12,14.74c-1.62,1.81-3,3.25-3.92,4.23l-1.1,1.11A3,3,0,0,1,248.48,390Z" style="fill:#263238"></path><path d="M290.79,387.36a2.38,2.38,0,0,1-.46.41l-1.39,1.1c-1.2.95-3,2.26-5.23,3.84a167.94,167.94,0,0,1-37.89,19.82c-2.57,1-4.67,1.67-6.14,2.11l-1.68.52a2.52,2.52,0,0,1-.6.14,3.11,3.11,0,0,1,.56-.24l1.66-.61c1.44-.51,3.52-1.27,6.07-2.26A188.07,188.07,0,0,0,283.5,392.4c2.27-1.53,4.08-2.8,5.32-3.7l1.45-1A3.11,3.11,0,0,1,290.79,387.36Z" style="fill:#263238"></path><path d="M380.93,301.62a12.29,12.29,0,0,1-1.63.53c-1.07.31-2.61.74-4.52,1.24-3.82,1-9.11,2.31-15,3.72l-15,3.58-4.55,1.08a11.78,11.78,0,0,1-1.68.34,9.45,9.45,0,0,1,1.63-.54c1.06-.31,2.6-.73,4.51-1.23,3.82-1,9.12-2.32,15-3.73l15-3.58,4.55-1.07A9.18,9.18,0,0,1,380.93,301.62Z" style="fill:#fff"></path><path d="M376.05,285.28a9.36,9.36,0,0,1-1.39.61l-3.84,1.52-12.69,4.94c-5,1.91-9.47,3.62-12.75,4.81-1.63.59-3,1.06-3.89,1.36a8.17,8.17,0,0,1-1.46.42,8.75,8.75,0,0,1,1.39-.61l3.83-1.52,12.69-4.94c5-1.92,9.47-3.62,12.75-4.81,1.64-.59,3-1.06,3.9-1.37A7.5,7.5,0,0,1,376.05,285.28Z" style="fill:#fff"></path><path d="M340.23,437.86c0,.14-31.13.26-69.51.26s-69.53-.12-69.53-.26,31.12-.26,69.53-.26S340.23,437.71,340.23,437.86Z" style="fill:#fff"></path><path d="M350.81,465.06a1.71,1.71,0,0,1,.4,0l1.21,0v.1c-7.38.12-40.27.21-79.72.21l-57.51-.07-17.43-.09-4.74-.05-1.23,0-.42,0,.42,0,1.23,0,4.74-.05,17.43-.08,57.51-.08c39.45,0,72.34.09,79.72.21v.1l-1.21,0A2,2,0,0,1,350.81,465.06Z" style="fill:#fff"></path><path d="M263.7,251.52s6.14,12,14.63,4.48c0,0,2.68,5.93,8.16,4.72s4.58-7.93,4.58-7.93,4.29,1.83,7.18-.18c4.5-3.13,3.2-10.94,3.2-10.94l60.08-13.93,4.53,4.5-2,27.16-28.87,34.21-33.51,7.28-35.57-12.52L253.54,274.9l-8-19Z" style="fill:#70C28D"></path><path d="M301.45,241.67s1.3,7.81-3.2,10.94c-2.89,2-7.18.18-7.18.18s.86,6.73-4.58,7.93-8.16-4.72-8.16-4.72c-8.49,7.57-14.63-4.48-14.63-4.48l-18.21,4.42,8,19,12.57,13.47s10,8.57,18.19,6.3,19.35-7.3,23.39-28.35c1.91-10,2.77-26.84,2.77-26.84Z" style="fill:#fff;opacity:0.2"></path><path d="M235.1,258.47s17.62,66.23,88,46.82,51.29-80.68,51.29-80.68l-5.06,1.23s-1.23,62.77-53.5,71.64-71.72-41.21-71.72-41.21l-3.85.93Z" style="fill:#455a64"></path><path d="M247.77,255.39s14.33,50.47,72.59,36.66c0,0,33.08-6.05,40.22-30.5s.95-33.81.95-33.81l7.83-1.9s1.7,27-2.11,34.65-13.87,32.53-46,40.13-55.05-4.87-67.16-19.31-13.78-24.11-13.78-24.11l6-1.46Z" style="fill:#455a64"></path><path d="M247.77,255.39s14.33,50.47,72.59,36.66c0,0,32.23-7.88,39.37-32.33s1.8-32,1.8-32l7.83-1.9s2.87,22.52-2.11,34.65c-4.53,11-13.87,32.53-46,40.13s-55.05-4.87-67.16-19.31-13.78-24.11-13.78-24.11l6-1.46Z" style="fill:#fff"></path><path d="M318.31,275a.34.34,0,0,0-.61,0c-.56,1.24-1.72,4.19-1.05,5.85a2.19,2.19,0,0,0,3.49,1c1-.78,1.21-2.17-.1-4.18C319.38,276.72,318.7,275.62,318.31,275Z" style="fill:#263238"></path><path d="M281,275a.34.34,0,0,0-.6,0c-.56,1.25-1.72,4.19-1.06,5.85a2.19,2.19,0,0,0,3.49,1c1-.78,1.21-2.18-.1-4.18C282.08,276.72,281.39,275.61,281,275Z" style="fill:#263238"></path><path d="M333.58,256.36a.34.34,0,0,0-.61,0c-.55,1.25-1.71,4.19-1.05,5.85a2.2,2.2,0,0,0,3.49,1c1-.78,1.21-2.18-.1-4.18C334.66,258.11,334,257,333.58,256.36Z" style="fill:#263238"></path><path d="M352.46,257.69a.34.34,0,0,0-.61,0c-.56,1.24-1.72,4.19-1.05,5.85a2.2,2.2,0,0,0,3.49,1c1-.78,1.21-2.18-.1-4.18C353.53,259.43,352.85,258.33,352.46,257.69Z" style="fill:#263238"></path><path d="M345.45,238.26a.34.34,0,0,0-.6,0c-.56,1.25-1.72,4.2-1.06,5.86a2.19,2.19,0,0,0,3.49,1c1-.78,1.21-2.17-.1-4.18C346.53,240,345.84,238.9,345.45,238.26Z" style="fill:#263238"></path><path d="M314.54,246.19a.35.35,0,0,0-.61,0c-.56,1.25-1.72,4.19-1.05,5.85a2.19,2.19,0,0,0,3.49,1c1-.78,1.21-2.17-.1-4.18C315.61,247.94,314.93,246.83,314.54,246.19Z" style="fill:#263238"></path><path d="M260.35,256.46a.35.35,0,0,0-.61,0c-.56,1.25-1.72,4.2-1.06,5.86a2.2,2.2,0,0,0,3.5,1c1-.78,1.21-2.17-.1-4.18C261.42,258.21,260.74,257.11,260.35,256.46Z" style="fill:#263238"></path><path d="M301.09,264a.35.35,0,0,0-.61,0c-.56,1.25-1.72,4.2-1.06,5.86a2.2,2.2,0,0,0,3.5,1c1-.78,1.21-2.17-.1-4.18C302.16,265.75,301.48,264.65,301.09,264Z" style="fill:#263238"></path><path d="M310.53,290.34a2.59,2.59,0,0,1-.6.1l-1.74.18-1.26.12c-.46,0-1,0-1.5,0a34.65,34.65,0,0,1-3.67,0l-2.13-.1c-.74,0-1.51-.16-2.3-.25-1.6-.14-3.28-.48-5.05-.8a59.37,59.37,0,0,1-21.42-9.1c-1.46-1-2.87-2-4.08-3.07-.61-.52-1.23-1-1.77-1.49l-1.56-1.46c-1-.91-1.81-1.85-2.55-2.63-.36-.4-.71-.76-1-1.12s-.55-.68-.79-1L258,268.39a2.15,2.15,0,0,1-.34-.51,3.12,3.12,0,0,1,.43.44l1.14,1.31c.25.3.53.61.82,1s.67.69,1,1.08c.76.76,1.57,1.68,2.6,2.56l1.56,1.43c.55.49,1.17.95,1.78,1.45,1.21,1,2.63,2,4.08,3a61.11,61.11,0,0,0,21.25,9c1.76.33,3.42.69,5,.85.79.09,1.55.22,2.28.27l2.12.13c1.35.13,2.57.08,3.64.09.54,0,1,0,1.5,0l1.26-.07,1.74-.09A2.59,2.59,0,0,1,310.53,290.34Z" style="fill:#fff"></path><path d="M350.2,231.86c0,.14-9.66,2.58-21.64,5.45s-21.72,5.09-21.75,4.95,9.65-2.58,21.63-5.45S350.16,231.72,350.2,231.86Z" style="fill:#fff"></path><path d="M374.42,224.61a5.27,5.27,0,0,1,.19.54c.1.36.26.89.43,1.61.35,1.42.8,3.54,1.19,6.29a70.08,70.08,0,0,1-.64,23.48,56.18,56.18,0,0,1-16.68,30.18,70.17,70.17,0,0,1-17,11.72A105.45,105.45,0,0,1,321.16,306a89.87,89.87,0,0,1-21.94,3.07,65.23,65.23,0,0,1-20.41-3,59.87,59.87,0,0,1-16.66-8.39,67,67,0,0,1-11.91-11.08A81.13,81.13,0,0,1,238,266.6c-1.09-2.56-1.82-4.59-2.27-6-.23-.69-.38-1.23-.48-1.59a5.54,5.54,0,0,1-.13-.55l.18.53c.12.36.28.89.53,1.58.49,1.38,1.24,3.4,2.36,5.94a82.61,82.61,0,0,0,12.35,19.9,66.39,66.39,0,0,0,11.89,11A59.39,59.39,0,0,0,279,305.67a64.8,64.8,0,0,0,20.25,2.93A90.43,90.43,0,0,0,321,305.54,105.47,105.47,0,0,0,341.72,298a69.5,69.5,0,0,0,16.86-11.61,56.1,56.1,0,0,0,16.65-29.91,71,71,0,0,0,.79-23.37c-.35-2.75-.77-4.87-1.08-6.3-.16-.71-.3-1.25-.39-1.62S374.42,224.61,374.42,224.61Z" style="fill:#263238"></path><path d="M329.67,339.36l28.92,49.94s15.26,15.43,16.74,24.25-7.92,35-23.05,30-18.84-22.87-27-36.93-20.74-68.8-20.74-68.8l7.27-.36Z" style="fill:#ffbe9d"></path><path d="M373.22,319.42s0,11.44,0,20.18,2.21,77.16,2.21,77.16l-30.22-8.69-5.84-42.78,1-41.58Z" style="fill:#ffbe9d"></path><path d="M310,301.32s-7.78-14.6-7.44-18.05,3-3.72,3-3.72l16.17,21.06s2.44-.57,2.06-3.79-6.55-19.37-6.29-23.37,3.19-4.76,3.19-4.76L335,295.89l2.38-6.42s-7.53-15.38-8.11-19.15a6,6,0,0,1,1.94-5.68l13.29,24.07-3.91,7a55.81,55.81,0,0,1-19.92,5.64C310.1,302,310,301.32,310,301.32Z" style="opacity:0.30000000000000004"></path><path d="M347.16,269.39l9.58,8.17,3.11,14.95-10.16,9s.29,7.9-2.53,10.72S330.8,330.3,329.67,339.6l-25.1-1.69s-1.41-4.79,2-11,6.77-13.81,6.77-13.81L313,302.38s-12.68-20.87-10.15-22.56,3.95-1.69,5.92.56,12.13,19.74,14.67,19.18,3.1-3.95,3.1-3.95-9.31-20.87-8.18-24.81c.13-.46.27-.9.42-1.31a2.75,2.75,0,0,1,5-.47l10.39,17.85,3.95,13.25,1.69-13s-11-18-9.87-22.56,3.95-2.54,3.95-2.54l11,13A5.56,5.56,0,0,1,347.16,269.39Z" style="fill:#ffbe9d"></path><path d="M348.6,305.37a5.78,5.78,0,0,1,0-1.22q.06-1.35.15-3.33c.14-2.81.39-6.68.68-10.95a32.34,32.34,0,0,0,0-6,13,13,0,0,0-1.37-4.63,10.57,10.57,0,0,0-2.9-3.38,3.45,3.45,0,0,1,1.05.64,8.63,8.63,0,0,1,2.17,2.56,13,13,0,0,1,1.53,4.75,30.71,30.71,0,0,1,0,6.08c-.29,4.28-.59,8.15-.84,11-.12,1.31-.23,2.42-.31,3.31A5.42,5.42,0,0,1,348.6,305.37Z" style="fill:#eb996e"></path><path d="M335,316.28a10.29,10.29,0,0,1,1.25-.52,6,6,0,0,0,2.39-2,5.93,5.93,0,0,0,.94-3,11.27,11.27,0,0,1,0-1.36c.06,0,.31.47.37,1.35a5.32,5.32,0,0,1-.87,3.28,5.43,5.43,0,0,1-2.68,2.08C335.54,316.38,335,316.34,335,316.28Z" style="fill:#eb996e"></path><path d="M327.56,303.3a31.05,31.05,0,0,0,.19-3.17c-.09-1.74-.73-3.05-.59-3.12a5.9,5.9,0,0,1,.4,6.29Z" style="fill:#eb996e"></path><path d="M323.76,318.65c0-.08.44-.2,1.06-.58a4.74,4.74,0,0,0,1.84-2.05,4.69,4.69,0,0,0,.31-2.73c-.12-.72-.34-1.14-.26-1.18s.38.33.62,1.09a4.31,4.31,0,0,1-2.34,5.19C324.27,318.72,323.77,318.71,323.76,318.65Z" style="fill:#eb996e"></path><path d="M372,407s-.11-.09-.28-.3l-.76-.94-2.8-3.57-9.79-12.7h0c-2.66-4.55-5.69-9.75-8.91-15.25l-14.1-24.39-4.22-7.42-1.13-2a5.68,5.68,0,0,1-.36-.73,5,5,0,0,1,.46.68l1.2,2c1.06,1.78,2.55,4.27,4.37,7.34l14.24,24.31,8.85,15.27,0,0c4,5.24,7.27,9.66,9.64,12.82l2.7,3.64.7,1A1.86,1.86,0,0,1,372,407Z" style="fill:#eb996e"></path></g><g id="freepik--speech-bubble--inject-14"><path d="M185.42,139.05l-10.13-16.48a51.83,51.83,0,1,0-8,16.74v0Z" style="fill:#fff"></path><path d="M185.42,139.05l-18.18.41a.12.12,0,0,1-.13-.12v-.07l.22.12a52.91,52.91,0,0,1-7.89,8.67,51.27,51.27,0,0,1-12,7.88,53.42,53.42,0,0,1-7.6,2.88l-4.17,1a15.23,15.23,0,0,1-2.16.38l-2.21.3a52.11,52.11,0,0,1-52-27.38,53.07,53.07,0,0,1-5.91-23,43.69,43.69,0,0,1,.2-6.15,22.77,22.77,0,0,1,.4-3.08c.18-1,.33-2.06.52-3.08A53.54,53.54,0,0,1,78.76,86a47.85,47.85,0,0,1,3.08-5.46,25.43,25.43,0,0,1,1.8-2.55c.63-.82,1.23-1.67,1.89-2.46a52,52,0,0,1,83.79,5.78c.74,1.29,1.55,2.52,2.2,3.81s1.2,2.6,1.79,3.87.93,2.61,1.39,3.88a32.48,32.48,0,0,1,1.13,3.82,51.41,51.41,0,0,1-.42,26v-.1c6.43,10.61,9.56,15.77,10,16.54-.47-.77-3.66-5.88-10.24-16.41a.12.12,0,0,1,0-.1,51.52,51.52,0,0,0,.29-25.81,32,32,0,0,0-1.13-3.79c-.46-1.26-.86-2.57-1.39-3.85s-1.19-2.53-1.79-3.83-1.46-2.49-2.19-3.77A51.36,51.36,0,0,0,94.79,67.58,52.24,52.24,0,0,0,86,75.84c-.65.78-1.24,1.62-1.86,2.44a25.88,25.88,0,0,0-1.78,2.51,47.69,47.69,0,0,0-3,5.4A53.13,53.13,0,0,0,75.08,98c-.19,1-.35,2-.52,3a22.54,22.54,0,0,0-.4,3,46,46,0,0,0-.2,6.09,52.54,52.54,0,0,0,5.84,22.74,51.6,51.6,0,0,0,51.46,27.2l2.19-.29a15.46,15.46,0,0,0,2.14-.38l4.14-1a51.66,51.66,0,0,0,19.53-10.6,53.14,53.14,0,0,0,7.89-8.59.13.13,0,0,1,.17,0,.13.13,0,0,1,0,.15v0l-.11-.17Z" style="fill:#263238"></path><path d="M104.09,105a13.86,13.86,0,0,1,3.21-7.69,13.4,13.4,0,0,1,6.75-4.6,10.78,10.78,0,0,1,12.09,5,10.74,10.74,0,0,1,11.37-5.64,13.25,13.25,0,0,1,7.14,4,13.87,13.87,0,0,1,3.91,7.37,16.9,16.9,0,0,1-1.62,10.47,24,24,0,0,1-7.87,8.09c-5.23,3.48-12.12,7.86-12.12,7.86s-6.18-4.2-11.71-7.19a23.93,23.93,0,0,1-8.58-7.32A16.91,16.91,0,0,1,104.09,105Z" style="fill:#70C28D"></path></g></svg>